<svg width="480" height="240" viewBox="0 0 480 240" xmlns="http://www.w3.org/2000/svg" xmlns:sketch="http://www.bohemiancoding.com/sketch/ns"><title>5ll-logo</title><path d="M91.131 53.228v1.177c2.995-.524 6.216-.985 9.667-1.367 3.451-.396 6.679-.588 9.669-.588 6.519 0 12.308.684 17.39 2.051 5.081 1.371 9.469 3.12 13.192 5.27 3.705 2.145 6.798 4.533 9.274 7.143 2.481 2.596 4.434 5.14 5.864 7.607 1.688 2.992 2.992 6.317 3.907 9.961.912 3.661 1.366 7.432 1.366 11.332 0 5.998-1.137 12.029-3.419 18.077-2.282 6.064-6.026 11.614-11.234 16.71-3.127 3.114-6.347 5.664-9.671 7.607-3.322 1.957-6.64 3.498-9.962 4.599-3.325 1.097-6.544 1.861-9.671 2.244-3.123.394-6.122.586-8.983.586-3.389 0-6.745-.22-10.061-.682-3.326-.466-6.711-1.307-10.163-2.546-3.451-1.243-6.871-2.962-10.257-5.192-3.387-2.212-6.709-5.138-9.964-8.8l-.199-2.734 1.368-1.371 1.955-.188c6.378 5.185 12.262 8.708 17.669 10.519 5.4 1.815 10.377 2.72 14.934 2.72 3.116 0 6.378-.337 9.756-.973 3.388-.668 6.639-1.889 9.764-3.725 3.128-1.825 6.051-4.372 8.787-7.635 2.727-3.26 5.011-7.509 6.83-12.731 1.95-5.474 2.928-11.09 2.928-16.836 0-5.728-.978-10.884-2.928-15.449-1.169-2.612-2.733-5.158-4.684-7.64-1.954-2.482-4.355-4.663-7.22-6.553-2.859-1.895-6.216-3.424-10.049-4.603-3.842-1.177-8.164-1.766-12.984-1.766-3.769 0-7.284.336-10.537.971-3.253.669-5.788 1.241-7.609 1.768l-2.149-.589-1.563-1.353-.39-2.34 10.75-52.433h61.346c1.034 0 2.085-.256 3.118-.779 1.05-.527 2.019-1.831 2.935-3.913l1.955-.781 1.169.397.978 1.561-4.103 16.659c-.518 1.832-1.464 2.945-2.832 3.325-1.366.402-2.965.591-4.788.591h-54.505l-6.647 30.695zm4.461 55.54v.382h-9.135v-.382l2.667-.188v-13.143c0-2.095-.534-4.569-3.618-4.569-1.94 0-3.311.987-5.52 3.235v14.476l3.426.188v.382h-9.893v-.382l3.423-.188v-25.481l-8.754-.151v25.632l3.427.188v.382h-9.895v-.382l3.423-.188v-25.632l-6.09.188-2.284 5.445h-.38l.19-6.094h19.45l3.577-1.14h.378v11.802h.382c2.209-2.207 4.264-3.425 7.041-3.425 2.552 0 4.761 1.523 4.761 5.712v13.143l3.423.188zm4.873-10.666c-.115 4.954 2.472 9.332 6.928 9.332 2.472 0 5.139-1.715 6.088-3.615h.382c-.761 3.045-3.617 5.709-7.233 5.709-5.9 0-9.133-4.762-9.133-9.901 0-6.286 4.566-9.902 9.323-9.902 3.618 0 7.804 2.095 6.661 8.377h-13.016zm.076-.378l9.515-.192c.951-5.142-.953-7.425-3.427-7.425-3.272 0-5.709 2.665-6.088 7.617zm135.416 43.011l8.351-18.661h1.288l-1.288 20.582h-65.573v-1.286l11.565-.636v-86.211l-11.565-.652v-1.284h33.426v1.284l-11.575.652v86.847l35.371-.636zm14.664-30.243c0-18.532 12.847-33.452 30.858-33.452 18 0 30.858 14.92 30.858 33.452 0 18.524-12.858 33.453-30.858 33.453-18.011 0-30.858-14.929-30.858-33.453zm11.559 0c0 21.877 7.726 32.164 19.299 32.164 11.577 0 19.289-10.288 19.289-32.164 0-21.873-7.712-32.166-19.289-32.166-11.573 0-19.299 10.293-19.299 32.166zm86.772 23.415l15.946-51.08-9.905-3.212v-1.289h23.147v1.289l-11.314 3.212-19.548 60.472h-7.073l-25.464-63.047-8.613-.638v-1.289h33.435v1.289l-12.599.638 20.701 53.654h1.288zm35.081-28.567c-.39 16.735 8.358 31.529 23.398 31.529 8.361 0 17.361-5.788 20.584-12.219h1.274c-2.562 10.295-12.212 19.297-24.421 19.297-19.938 0-30.862-16.08-30.862-33.453 0-21.234 15.424-33.452 31.497-33.452 12.212 0 26.362 7.076 22.511 28.299h-43.983zm.263-1.277l32.147-.646c3.212-17.372-3.222-25.091-11.573-25.091-11.062 0-19.303 9.008-20.573 25.737zm-327.022 112.664l6.051-13.501h.928l-.928 14.893h-47.455v-.934l8.376-.458v-62.379l-8.376-.469v-.934h24.193v.934l-8.376.469v62.837l25.587-.458zm39.542-2.799h-.933c-5.111 3.256-8.833 5.121-14.418 5.121-6.975 0-10.699-4.187-10.699-9.769 0-5.774 5.208-9.037 13.955-12.109l12.095-4.19v-11.168c0-5.597-2.234-9.78-9.305-9.78-3.721 0-8.278 1.769-10.699 3.725v.934c7.256.181 6.518 8.839.467 8.839-2.606 0-4.654-2.045-4.654-4.649 0-4.666 7.54-10.245 17.681-10.245 8.187 0 13.953 3.256 13.953 11.175v35.373h8.374v.934l-14.884.93h-.932v-5.121zm0-20.017l-10.232 3.732c-6.977 2.504-8.376 6.044-8.376 9.766 0 4.94 4.188 7.454 8.84 7.454 3.256 0 6.046-.472 9.767-2.326v-18.625zm73.507 23.274v.934h-22.327v-.934l6.511-.458v-32.127c0-6.048-1.863-11.161-8.84-11.161-4.186 0-6.975 1.385-13.493 7.901v35.387l8.376.458v.934h-24.193v-.934l8.374-.458v-44.223h-7.442v-.937l13.957-.93h.93v8.38h.93c5.398-5.405 10.425-8.38 17.218-8.38 6.232 0 11.628 3.729 11.628 13.963v32.127l8.374.458zm15.351-15.731c-5.579-2.791-9.767-7.451-9.767-14.056 0-9.592 7.909-16.761 18.605-16.761 4.188 0 8.374 1.122 12.097 3.537 2.413-3.349 5.863-5.306 9.959-5.306 3.07 0 5.398 1.957 5.398 4.375 0 5.309-9.589 6.885-9.217-2.699-1.583.373-4.277 2.237-5.487 4.19 3.535 2.887 5.398 7.731 5.398 12.194 0 10.149-7.444 16.296-18.148 16.296-1.856 0-5.769-.557-7.44-1.303-1.212.93-3.256 2.415-3.256 5.021 0 2.987 3.625 3.729 6.511 4.009l14.794 1.303c9.864.835 13.584 4.371 13.584 10.515 0 10.898-13.025 16.761-26.979 16.761-12.097 0-18.614-4.655-18.614-11.172 0-4.659 4.654-8.846 10.238-10.799v-.835c-3.907-1.119-6.051-3.636-6.051-6.52 0-2.983 2.609-5.117 8.376-7.916v-.838zm-1.114 15.731c-2.695 2.425-5.861 5.866-5.861 10.153 0 4.844 2.513 11.261 13.958 11.261 15.166 0 20.465-6.516 20.465-12.01 0-4.471-3.446-6.886-13.019-7.731l-15.542-1.673zm10.419-14.893c6.981 0 10.7-5.213 9.769-15.639-.933-10.437-4.646-15.085-10.7-15.085-6.509 0-11.261 4.475-10.232 15.458 1.118 11.73 5.114 15.266 11.163 15.266zm27.913-29.787v-.937l13.955-.93h1.863v34.453c0 6.044 1.86 11.165 8.834 11.165 4.188 0 6.981-1.392 12.56-7.908v-35.842h-8.372v-.937l13.954-.93h1.86v46.548h8.376v.934l-14.884.93h-.933v-8.377h-.934c-4.646 5.121-9.483 8.377-16.276 8.377-6.232 0-11.626-3.725-11.626-13.959v-32.585h-8.376zm83.738 41.424h-.93c-5.124 3.256-8.84 5.121-14.419 5.121-6.984 0-10.707-4.187-10.707-9.769 0-5.774 5.213-9.037 13.962-12.109l12.095-4.19v-11.168c0-5.597-2.236-9.78-9.309-9.78-3.716 0-8.276 1.769-10.697 3.725v.934c7.261.181 6.512 8.839.465 8.839-2.608 0-4.652-2.045-4.652-4.649 0-4.666 7.538-10.245 17.677-10.245 8.191 0 13.958 3.256 13.958 11.175v35.373h8.372v.934l-14.888.93h-.926v-5.121zm0-20.017l-10.239 3.732c-6.974 2.504-8.376 6.044-8.376 9.766 0 4.94 4.188 7.454 8.844 7.454 3.254 0 6.051-.472 9.77-2.326v-18.625zm31.167 7.543c-5.583-2.791-9.77-7.451-9.77-14.056 0-9.592 7.907-16.761 18.614-16.761 4.184 0 8.372 1.122 12.091 3.537 2.424-3.349 5.867-5.306 9.958-5.306 3.07 0 5.395 1.957 5.395 4.375 0 5.309-9.582 6.885-9.217-2.699-1.572.373-4.277 2.237-5.49 4.19 3.542 2.887 5.402 7.731 5.402 12.194 0 10.149-7.442 16.296-18.139 16.296-1.867 0-5.774-.557-7.442-1.303-1.214.93-3.265 2.415-3.265 5.021 0 2.987 3.634 3.729 6.516 4.009l14.799 1.303c9.852.835 13.578 4.371 13.578 10.515 0 10.898-13.021 16.761-26.986 16.761-12.095 0-18.604-4.655-18.604-11.172 0-4.659 4.653-8.846 10.232-10.799v-.835c-3.907-1.119-6.044-3.636-6.044-6.52 0-2.983 2.608-5.117 8.372-7.916v-.838zm-1.118 15.731c-2.694 2.425-5.86 5.866-5.86 10.153 0 4.844 2.516 11.261 13.955 11.261 15.168 0 20.474-6.516 20.474-12.01 0-4.471-3.443-6.886-13.032-7.731l-15.537-1.673zm10.416-14.893c6.988 0 10.711-5.213 9.777-15.639-.93-10.437-4.656-15.085-10.697-15.085-6.523 0-11.264 4.475-10.242 15.458 1.114 11.73 5.124 15.266 11.162 15.266zm37.04-11.172c-.284 12.106 6.048 22.809 16.929 22.809 6.051 0 12.56-4.19 14.895-8.839h.923c-1.853 7.447-8.837 13.959-17.67 13.959-14.427 0-22.337-11.64-22.337-24.204 0-15.366 11.165-24.208 22.795-24.208 8.837 0 19.076 5.121 16.29 20.483h-31.824zm.188-.927l23.264-.472c2.321-12.567-2.335-18.153-8.376-18.153-8.006 0-13.965 6.52-14.888 18.626zm41.399 23.278l-.465 5.579h-.923v-13.959h.923c1.118 3.16 2.789 6.324 4.933 8.839 2.14 2.518 4.933 4.191 8.56 4.191 6.512 0 10.693-4.102 10.693-9.773 0-6.989-6.789-9.031-12.088-11.176-7.165-2.883-12.56-6.051-12.56-13.967 0-7.447 6.232-12.567 15.814-12.567 3.819 0 8.834 1.395 13.028 5.121l.465-5.121h.933v13.963h-.933c-1.398-4.652-3.539-7.816-5.955-9.964-2.42-2.042-5.21-3.068-8.01-3.068-5.576 0-8.83 3.817-8.83 8.381 0 6.055 6.048 8.839 11.169 10.707 6.885 2.514 14.416 6.055 14.416 14.436 0 8.839-7.449 13.959-17.209 13.959-5.867 0-10.895-2.699-13.962-5.579zm36.427-38.413c-1.653 0-2.981-1.335-2.981-2.99 0-1.655 1.328-2.983 2.981-2.983 1.647 0 2.988 1.328 2.988 2.983s-1.341 2.99-2.988 2.99zm0-5.476c-1.377 0-2.491 1.108-2.491 2.486 0 1.378 1.114 2.493 2.491 2.493s2.492-1.115 2.492-2.493-1.114-2.486-2.492-2.486zm-1.306.931h1.419c.788 0 1.057.497 1.057.845 0 .519-.369.888-.915.923v.014c.277.1.475.376.745.803l.391.625h-.632l-.284-.504c-.404-.717-.561-.859-.958-.859h-.305v1.364h-.518v-3.21zm1.263 1.399c.398 0 .66-.149.66-.483 0-.291-.234-.476-.575-.476h-.831v.959h.745z" sketch:type="MSShapeGroup" fill="#fff"/></svg>