<svg width="480" height="240" viewBox="0 0 480 240" xmlns="http://www.w3.org/2000/svg" xmlns:sketch="http://www.bohemiancoding.com/sketch/ns"><title>cover-logo</title><path d="M80 62.924c-22.667 10.723-45.333-16.764-68-9.768-1.162 9.829-2.324 19.748-3.486 29.768l-3.004 37.076s-1.462.933-1.443 2.867c.012 1.183.552 1.951 1.021 2.347l-5.087 62.787h1.992l4.646-62.602c.755-.168 1.684-.406 2.228-.232.833.267 9.983 3.101 12.067 2.833 1.3-.167 4.067-4.9 4.067-4.9l1.053-1.241c.654-.771 1.278-1.898 2.121-3.323s1.097-2.247 1.15-2.32c.053-.074.159.042.105.643-.054.601.138.801.233 1.255.095.454-.147 1.097.116 1.74s-.01 2.016.032 2.722.105 1.204.233 1.921l.137.769-.163 3.301s-.017.24.223.48.12.806.12 1.097c0 .291-.583.771-.669.943-.086.171.034.549.394.771.36.223-.24.549-.36.789s-.086.669.034.857c.12.188.137.394-.274.823-.411.429-.223.96-.069 1.132.154.171.189.806.189.806s-.394.583-.497.874c-.103.292-.72.84-.926 1.029-.206.189-.703 1.543-.754 1.972-.051.428-.326 1.937-.326 2.177s.429 1.303.497 1.423c.069.12-.171 1.063-.446 1.509-.274.446-.291.96-.309 1.286-.017.326-.446 2.006-.566 2.297-.12.291-.171.96-.051 1.354.12.394.086.651-.086 1.166-.171.514-.051.652 0 .891.051.24-.017.412-.086.514-.069.103-.069.549-.069.72 0 .171-.069.634-.103.874-.034.24-.154.377-.069.497.086.12.154.154.394.549.24.394.669.652.669.652s-.463 1.731-.669 2.794c-.206 1.063-.051 2.589-.034 2.76.017.171 0 .6-.172.977-.171.377-.6 2.52-.789 4.8-.188 2.28-.257 7.32-.36 8.589-.103 1.269-.497 1.577-.686 1.851-.189.274-.548.6-1.046 1.046-.497.446-1.234 1.063-1.903 1.543s-2.057 1.131-2.246 1.2c-.189.069-.206.12-.36.24s-.385.486-.326.634c-.201.179-.275.353-.223.549-.116.242.038.574.243.617-.021.362.069.803.988.785 1.048-.021 1.462-.528 1.582-.579.12-.051.48.086 1.149-.051.669-.137 1.646-1.149 2.092-1.526.446-.377 1.92-.583 3.034-.823 1.114-.24 1.149-1.046 1.114-2.126-.034-1.08.12-2.366.223-3.977.103-1.611 2.194-7.217 2.794-8.726.6-1.509.326-3.515.343-4.286.017-.771.926-1.508.96-2.331.034-.823.565-2.006.565-2.006 1.046.274 3.857-.051 4.286-.257.429-.206.291-.154.309-.48.017-.326.257-1.217.257-1.817 0-.6.274-.788.36-1.217.086-.429.069-1.869.069-1.869.24.223.137 1.286.137 1.646 0 .36.137.583.429.926.291.343.394 1.131.497 1.389.103.257.823.085 1.457.343.634.257 2.04.548 2.04.548s0 1.817.154 3 1.114 3.069 1.217 3.566c.103.497-.171 2.211-.24 4.406-.069 2.194 1.131 6.737 1.474 8.28.343 1.543-.463 2.949-.549 3.137-.086.188-.172.548-.017.874.154.326.189.737.257 1.543.069.806.189 1.217.72 1.937.531.72.744 1.689.868 2.065.189.57.791.663.928.749.137.086.008.166.485.747.585.712 2.435.705 1.878-.502l.217.166c.309.257.919.092.997-.212.471.184.849-.176.758-.399.365-.09.474-.314.187-.699.119-.07.212-.173-.054-.648-.313-.558-.71-.782-.827-.872-.814-.634-1.391-1.646-1.579-1.903-.189-.257-.823-1.44-.84-1.8-.017-.36-.206-1.217-.377-1.783-.171-.566.274-3.103.634-4.611.36-1.509 1.097-5.777 1.149-6.686.051-.909-.309-3.343-.669-5.006-.36-1.663-.086-2.125-.12-3-.034-.874-.172-2.52-.172-2.52 1.783-.377 3.086-1.303 3.601-1.68.514-.377.103-1.732.103-1.732s-.086-1.003-.223-1.26c-.137-.257-.111-.806-.129-1.8-.017-.994-.283-.934-.497-1.337-.214-.403-.129-.729-.18-1.877-.051-1.149-.36-1.663-.634-1.997-.274-.334-.017-.549-.009-.832.009-.283-.334-1.046-.394-1.286s0-.566.188-1.174c.189-.608.06-1.62-.18-2.392-.24-.771-.9-2.177-1.011-2.271-.111-.094-.223-.197-.154-.583.068-.386-.214-.934-.412-1.063-.197-.129.172-.977.18-1.294.009-.317-.043-1.132-.386-1.174-.343-.043-.026-.394 0-.763s-.3-.48-.309-.591c-.009-.111-.043-.051.146-.154.189-.103.12-.917.06-1.08-.06-.163-.514-.574-.514-.574s.051-.506.069-.909c.017-.403.163-1.063.009-1.543s-.103-.111-.129-1.389c-.026-1.277-.369-1.92-.506-2.314-.137-.394-.051-.377.077-.797.129-.42-.12-1.483-.12-1.56 0-.077.163-.394.189-.686.026-.291-.146-1.2-.086-1.431.06-.231.094-.154.077-.814-.017-.66.197-1.012.197-1.363s.051-.849.129-1.123c.077-.274.146-.497-.009-.557-.154-.06-.394-.625-.394-.625.051-.172.086-.558.231-1.921.146-1.363 1.286-3.334 1.689-4.046.403-.711 2.04-1.294 3.917-2.126 1.877-.831 4.903-3.489 5.366-4.054.463-.566 1.537-1.783 1.606-1.826.069-.043.343-.137.651-.651.228-.379.586-1.142 1.065-2.135l.183-.377.373-.762c.763-1.543 1.497-3.729 1.497-4.354 0-.626-.171-1.946-.18-2.169-.008-.223.934-.574 1.269-1.14.334-.566.274-.677.386-1.26.085-.447.211-.828.343-1.128 4.461-.22 8.922-1.365 13.383-3.991-6.667-.113-13.333-3.531-20-8.404 6.667-1.844 13.333-5.143 20-11.748zm-18.208 24.045c-.005.392.274.795.231 1.646-.043.857-.411 2.357-.763 3.171-.15.347-.373.819-.642 1.332l-.135.254c-.335.619-.728 1.277-1.134 1.834-.806 1.106-1.037 2.203-1.114 2.443-.077.24-.729.857-1.371 1.414-.643.557-2.143 1.68-2.777 2.066-.634.386-1.714.291-2.811.489-1.097.197-3.377 1.029-3.9 1.286-.523.257-2.34.789-2.34.789-.06-.103-.54-.146-.711-.12-.171.026-.223-.043-.283-.086-.06-.043-.189-.009-.266.009-.077.017-.051-.154-.206-.154-.154 0-.334.043-.506.086s-.352.017-.369-.026c-.017-.043-.154-.077-.223-.008s-.129.06-.154.017c-.026-.043-.034-.129-.18-.051-.146.077-.463-.094-.463-.094-.111-.129-.155-.523-.155-.523s.654-.262 1.2-.807c.545-.545.693-1.137.693-1.137s.433-.693.444-1.266c.011-.574.152-1.245.195-1.559.043-.314.119-.184.227-.346.108-.162.325-1.548.336-1.71.011-.162.011-.249.119-.314s.152-.401.152-.401-.087.087-.184.011.022-.779-.011-1.018c-.032-.238.003-.503.022-.606.019-.103.206.097.206.097s-.076-.108-.087-.217l.054-.823c.004-.083.106-.167.195-.101-.02-.296-.303-.565-.303-.733 0-.059.245-.159.459 0-.039-.18-.611-.755-.658-.969-.034-.151-.004-.404.099-.39l-.223-.298c-.008-.139-.185-.48-.101-.6-.23-.196-.571-.883-.981-1.327-.02-.022-.062-.094.009-.13l-.219-.085c-.104-.1-.203-.296-.141-.363-.253-.089-.689-.291-.93-.43-.187-.108-.417-.257-.444-.332-.424-.095-1.264-.565-1.068-.801l-.368.214c-.075-.022.03-.094.172-.303-.488.453-1.785.315-1.789.247l-.191.045c-.13.011-.382-.106-.414-.213l-.4-.048c.005.097-.153.032-.245.055-.04.078-.217.18-.337.091.017.138-.381.165-.592.316.019.101-.203.195-.323.248.014.058-.098.079-.146.119-.022.157-.275.49-.682.545-.028.26-.758.573-1.094.948.12.169-.224.264-.311.394.058.189-.062.216-.165.328.038.298-.527 1.047-.81 1.35.101.145-.146.411-.161.613.174.127-.055.596-.031.798.2-.031.112.244.093.389-.012.092-.049.286-.142.557.32-.253.24.173.093.573.311-.196.386.941.319.973.067.301.367.852.367.852-.26-.076-.767.01-.973.79-.206.779.325 1.58.617 2.089.292.509.909.963 1.202 1.212.292.249.617.032.617.032l.195.953c.076.379.091 1.902.091 1.902-.075 1.78-1.997 3.129-1.997 3.129-.034-.257-.514-.103-.652.103-.137.206-.257.103-.48.103-.223 0-.549.171-.771.394-.223.223-.411.189-.549.291-.137.103-.651.188-.789.309-.137.12-.326.12-.617.172-.291.051-.24.617-.24.617s-1.44.806-2.88 2.811c-1.44 2.006-2.188 4.556-2.393 5.379-.206.823-.883 1.019-1.5 2.133s-.84 1.783-1.2 2.4c0 0-1.033 3.1-1.567 3.2-.875.164-10.967-.6-11.233-2-.094-.496-.673-.788-1.279-.96l2.824-38.054c17.315-9.07 34.631 3.325 51.946 4.784zm27.008 93.431h39.2v7.6h-48v-77.2h8.8v69.6zm65.278-48.359c2.422-2.422 5.284-3.241 10.898-3.241h15.852c6.495 0 9.223 1.09 11.204 3.181 2.531 2.533 3.168 5.824 3.168 13.639v42.381h-8.4v-7.595c-7.2 5.834-9.716 7.595-15.88 7.595h-8.585c-5.394 0-8.696-.88-11.008-3.303-2.201-2.091-3.523-5.283-3.523-12.768 0-7.156 1.321-11.119 3.633-13.43 2.531-2.532 5.517-3.962 16.855-3.962 5.724 0 12.908.44 18.508 1.43v-9.797c0-5.834-.454-7.726-1.555-8.827-.991-.991-2.216-1.343-6.069-1.343h-12.109c-3.743 0-5.504.192-6.825 1.512-1.321 1.432-1.871 3.688-1.981 8.888h-7.926c.111-8.4 1.321-11.827 3.743-14.359zm32.722 43.74v-14.981h-18.962c-6.935 0-8.586.555-10.017 1.987-1.541 1.541-1.981 3.195-1.981 8.039 0 5.172.44 7.443 1.761 8.654 1.321 1.211 2.972 1.721 6.385 1.721h8.255c5.284 0 8.559-1.346 14.559-5.419zm38 12.219v-59.2h8v8.014c7.6-6.274 10.436-8.014 16.71-8.014h8.586c5.504 0 8.127 1.034 10.328 3.126 2.203 2.311 3.175 5.548 3.175 11.823v44.251h-8.4v-43.701c0-3.413-.406-5.251-1.727-6.571-1.21-1.211-2.276-1.728-6.569-1.728h-7.706c-4.953 0-8.398 1.474-14.398 5.437v46.563h-8zm115.2 0v-7.925c-8 6.274-10.799 7.925-16.743 7.925h-7.045c-6.605 0-10.017-1.101-12.55-3.632-3.412-3.524-4.623-8.146-4.623-25.979 0-17.723 1.211-22.391 4.623-25.913 2.533-2.531 5.944-3.676 12.55-3.676h7.045c5.944 0 8.743 1.629 16.743 8.014v-28.014h8v79.2h-8zm0-12.769v-33.574c-6-3.852-9.368-5.657-14.432-5.657h-7.705c-4.734 0-6.495.737-7.926 2.169-2.091 2.091-2.752 5.652-2.752 20.182 0 14.64.661 18.104 2.752 20.305 1.432 1.321 3.193 2.144 7.926 2.144h7.485c4.954 0 8.652-1.607 14.652-5.569zm38.4 12.769v-77.2h12.4v77.2h-12.4zm75.402-77.2c9.356 0 14.42 1.559 18.713 5.411 5.064 4.623 7.486 14.208 7.486 33.142 0 18.934-2.422 28.571-7.486 33.193-4.293 3.854-9.357 5.454-18.713 5.454h-33.402v-77.2h33.402zm9.356 13.123c-2.422-2.201-4.623-2.323-9.356-2.323h-21.002v55.6h21.002c4.733 0 7.155-.27 9.356-2.361 2.972-2.752 4.293-7.955 4.293-25.348 0-17.721-1.321-22.816-4.293-25.567z" sketch:type="MSShapeGroup" fill="#fff"/></svg>