<svg width="480" height="240" viewBox="0 0 480 240" xmlns="http://www.w3.org/2000/svg" xmlns:sketch="http://www.bohemiancoding.com/sketch/ns"><title>cover-logo</title><path d="M29.405 80.839h26v12.461l-8.307 8.307h-47.098l27.411-49.84h-24.753v-12.46l8.306-8.307h45.854l-27.413 49.839zm-16.364-47.763v8.306h26.25l-27.495 49.84h41.533v-8.307h-27.495l27.495-49.839h-40.288zm110.223 59.392c-5.649 5.649-13.373 9.139-22.014 9.139-17.194 0-31.149-13.956-31.149-31.151 0-8.639 3.488-16.447 9.22-22.096 1.33-1.413 6.895-6.895 8.307-8.306 5.647-5.649 13.373-9.055 21.929-9.055 17.194 0 31.151 13.956 31.151 31.151 0 8.556-3.49 16.364-9.139 22.013-1.328 1.411-6.895 6.895-8.306 8.306zm-13.706-59.392c-16.032 0-29.074 13.041-29.074 29.074 0 16.032 13.042 29.073 29.074 29.073 16.032 0 29.074-13.041 29.074-29.073s-13.042-29.074-29.074-29.074zm20.766 29.074c0 11.463-9.304 20.766-20.766 20.766-11.464 0-20.766-9.303-20.766-20.766 0-11.463 9.303-20.767 20.766-20.767 11.462 0 20.766 9.304 20.766 20.767zm-12.376 16.696c1.245-2.493 1.992-5.4 1.992-8.39 0-10.3-8.388-18.69-18.69-18.69-2.989 0-5.898.747-8.388 1.993-1.247 2.492-1.994 5.399-1.994 8.39 0 10.3 8.39 18.689 18.69 18.689 2.991 0 5.898-.747 8.39-1.992zm96.681-35.387l-8.307 8.307h-24.92v10.383h24.92v12.46l-8.306 8.306h-16.615v10.384l-8.306 8.307h-12.461v-62.3l8.307-8.307h45.687v12.46zm-2.077-2.077v-8.306h-41.533v58.147h8.306v-18.69h24.92v-8.307h-24.92v-22.843h33.227zm46.096 51.917l-8.307 8.307h-12.461v-62.3l8.307-8.307h12.461v62.3zm-2.077-60.223h-8.307v58.147h8.307v-58.147zm93.031 68.531h-14.205l-5.732-10.384h-28.325l-1.08 2.077-8.307 8.307h-14.205l35.885-65.789 8.306-8.224 35.968 65.705-8.306 8.307zm-4.652-10.384h9.47l-32.48-59.309-32.394 59.309h9.468l5.649-10.384h34.556l5.732 10.384zm-35.718-18.69l12.708-23.342 12.794 23.342h-25.501zm6.312-7.227l-2.824 5.151h5.649l-2.825-5.151zm156.981 9.636l7.476 7.475-17.111 17.113-7.559-7.476-4.071 4.069c-7.309 7.31-19.105 7.31-26.414 0-7.31-7.31-7.31-19.105 0-26.415l4.069-4.154-1.411-1.412c-5.732-5.731-5.732-14.869-.084-20.6h.084l8.306-8.307c5.649-5.648 14.869-5.648 20.518 0 5.647 5.732 5.647 14.869 0 20.601l-1.496 1.412 8.806 8.889 7.559-7.56 8.804 8.805-7.476 7.56zm-1.328 13.374l5.898-5.899-7.559-7.475 7.559-7.56-5.898-5.898-7.559 7.56-11.712-11.796 2.907-2.907c4.901-4.818 4.901-12.709 0-17.61-4.818-4.901-12.709-4.901-17.61 0-4.818 4.901-4.818 12.792 0 17.61l2.991 2.907-5.649 5.648c-6.479 6.48-6.479 16.947 0 23.425 6.562 6.562 17.029 6.562 23.507 0l5.566-5.566 7.559 7.56zm-18.94-7.809c-3.239 3.239-8.556 3.239-11.795 0-3.239-3.239-3.239-8.556 0-11.796l5.565-5.566 11.797 11.796-5.566 5.565zm-9.137-32.064c-1.661-1.578-1.661-4.236 0-5.815 1.578-1.661 4.236-1.661 5.898 0 1.578 1.578 1.578 4.236 0 5.815l-2.991 2.99-2.907-2.99zm-401.295 157.18c-4.154 4.154-9.886 6.729-16.199 6.729-7.393 0-13.955-3.49-18.108-8.889l-1.245-1.661 8.306-8.307 9.886-7.641 1.245 1.661c1.911 2.491 4.902 4.069 8.224 4.069.664 0 1.245-.083 1.91-.166.084-.581.167-1.245.167-1.91v-39.458l8.306-8.306h12.461v39.456c0 6.313-2.575 11.961-6.646 16.114-1.411 1.413-6.895 6.895-8.306 8.307zm4.568-24.422c0 6.895-5.565 12.459-12.459 12.459-3.988 0-7.643-1.91-9.886-4.818l-6.562 4.985c3.821 4.983 9.718 8.14 16.447 8.14 11.462 0 20.766-9.303 20.766-20.766v-37.379h-8.307v37.379zm58.555-18.69v10.382h24.92v12.461l-6.229 6.229h14.536v12.461l-8.307 8.307h-45.687v-62.301l8.307-8.306h45.687v12.459l-8.307 8.307h-24.92zm31.151-10.384v-8.306h-41.533v58.146h41.533v-8.307h-33.227v-10.382h24.92v-8.307h-24.92v-22.843h33.227zm77.494 60.224h-14.869l-10.883-16.615h-1.496v8.307l-8.306 8.307h-12.461v-62.301l8.307-8.306h22.843c12.626 0 22.843 10.217 22.843 22.843 0 8.223-4.319 15.367-10.798 19.437l13.123 20.02-8.306 8.307zm-7.809-29.074c6.977-3.407 11.712-10.467 11.712-18.69 0-11.464-9.304-20.766-20.766-20.766h-20.766v58.146h8.306v-16.613h12.96l10.881 16.613h9.968l-12.294-18.69zm-9.054-6.23c6.895 0 12.459-5.565 12.459-12.459 0-6.895-5.565-12.461-12.459-12.461h-12.461v24.92h12.461zm-10.384-2.077v-12.459h2.077c5.732 0 10.384 4.652 10.384 10.382 0 .666-.083 1.33-.166 1.911-.666.083-1.247.166-1.911.166h-10.384zm79.987-12.459v10.382h24.92v12.461l-6.23 6.229h14.536v12.461l-8.306 8.307h-45.688v-62.301l8.307-8.306h45.687v12.459l-8.306 8.307h-24.92zm31.149-10.384v-8.306h-41.533v58.146h41.533v-8.307h-33.226v-10.382h24.92v-8.307h-24.92v-22.843h33.226zm88.874 60.224h-12.542l-2.658-35.47-6.977 7.559-8.307 8.307-8.14-8.806-1.578 20.102-8.307 8.307h-12.459l4.818-62.301 8.306-8.306h3.157l22.179 24.006 14.453-15.7 8.307-8.306h3.239l4.735 62.299-8.224 8.307zm-2.325-10.384h8.39l-4.487-58.146h-.416l-23.34 25.251-23.426-25.251h-.331l-4.487 58.146h8.307l2.991-38.875 16.946 18.274 16.861-18.274 2.991 38.875zm95.517-60.223l-25.086 39.955v22.345l-8.306 8.307h-12.461v-22.346l-25.003-39.955 8.307-8.306h14.702l15.036 24.006 9.801-15.7 8.307-8.306h14.702zm-13.539 2.077l-17.775 28.242-17.694-28.242h-9.801l23.342 37.297v20.849h8.306v-20.849l23.425-37.297h-9.801zm-448.812-104.516c-1.08 0-2.077-.914-2.077-2.077 0-1.163.997-2.077 2.077-2.077 1.163 0 2.077.913 2.077 2.077 0 1.163-.914 2.077-2.077 2.077zm1.661 49.757c-1.163 0-2.077-.914-2.077-2.077 0-1.163.914-2.077 2.077-2.077 1.163 0 2.077.914 2.077 2.077 0 1.163-.914 2.077-2.077 2.077zm0 .083c-1.163 0-2.077-.914-2.077-2.077 0-1.163.914-2.077 2.077-2.077 1.163 0 2.077.914 2.077 2.077 0 1.163-.914 2.077-2.077 2.077zm3.905-7.143c-1.164 0-2.077-.997-2.077-2.077 0-1.163.913-2.077 2.077-2.077 1.163 0 2.077.914 2.077 2.077 0 1.08-.914 2.077-2.077 2.077zm1.744-42.696c-1.163 0-2.077-.914-2.077-2.077 0-1.163.914-2.077 2.077-2.077 1.163 0 2.077.913 2.077 2.077 0 1.163-.914 2.077-2.077 2.077zm1.911 49.839c-1.164 0-2.077-.914-2.077-2.077 0-1.163.913-2.077 2.077-2.077 1.163 0 2.075.914 2.075 2.077 0 1.163-.913 2.077-2.075 2.077zm.248-14.288c-1.163 0-2.077-.913-2.077-2.076s.914-2.077 2.077-2.077c1.163 0 2.077.913 2.077 2.077 0 1.163-.914 2.076-2.077 2.076zm3.986-7.143c-1.163 0-2.075-.914-2.075-2.077 0-1.08.913-2.077 2.075-2.077 1.081 0 2.077.997 2.077 2.077 0 1.163-.995 2.077-2.077 2.077zm1.164-28.409c-1.164 0-2.077-.914-2.077-2.077 0-1.163.913-2.077 2.077-2.077 1.08 0 2.077.913 2.077 2.077 0 1.163-.997 2.077-2.077 2.077zm2.16 49.839c-1.08 0-2.077-.914-2.077-2.077 0-1.163.997-2.077 2.077-2.077 1.163 0 2.077.914 2.077 2.077 0 1.163-.914 2.077-2.077 2.077zm.581-28.492c-1.163 0-2.077-.913-2.077-2.077 0-1.163.914-2.077 2.077-2.077 1.163 0 2.077.914 2.077 2.077 0 1.163-.914 2.077-2.077 2.077zm3.904-7.144c-1.163 0-2.077-.913-2.077-2.077 0-1.163.914-2.077 2.077-2.077 1.163 0 2.077.914 2.077 2.077 0 1.163-.914 2.077-2.077 2.077zm.581-14.204c-1.163 0-2.077-.914-2.077-2.077 0-1.163.914-2.077 2.077-2.077 1.163 0 2.077.913 2.077 2.077 0 1.163-.914 2.077-2.077 2.077zm2.575 49.839c-1.163 0-2.077-.914-2.077-2.077 0-1.163.914-2.077 2.077-2.077 1.08 0 2.077.914 2.077 2.077 0 1.163-.997 2.077-2.077 2.077zm.749-42.696c-1.082 0-2.077-.997-2.077-2.077 0-1.163.995-2.077 2.077-2.077 1.163 0 2.075.913 2.075 2.077 0 1.08-.913 2.077-2.075 2.077zm3.986-7.144c-1.163 0-2.077-.914-2.077-2.077 0-1.163.914-2.077 2.077-2.077 1.08 0 2.077.913 2.077 2.077 0 1.163-.997 2.077-2.077 2.077zm2.824 49.839c-1.163 0-2.077-.914-2.077-2.077 0-1.163.914-2.077 2.077-2.077 1.164 0 2.077.914 2.077 2.077 0 1.163-.913 2.077-2.077 2.077zm35.713-21.348c-1.164 0-2.077-.997-2.077-2.077 0-1.163.913-2.077 2.077-2.077 1.163 0 2.075.914 2.075 2.077 0 1.08-.913 2.077-2.075 2.077zm.166-8.306c-1.08 0-2.077-.914-2.077-2.077 0-1.163.997-2.077 2.077-2.077 1.163 0 2.077.913 2.077 2.077 0 1.163-.914 2.077-2.077 2.077zm2.325 16.198c-1.08 0-2.077-.914-2.077-2.077 0-1.163.997-2.077 2.077-2.077 1.163 0 2.077.913 2.077 2.077 0 1.163-.914 2.077-2.077 2.077zm.581-23.923c-1.163 0-2.077-.997-2.077-2.077 0-1.163.914-2.077 2.077-2.077 1.163 0 2.077.913 2.077 2.077 0 1.08-.914 2.077-2.077 2.077zm4.404 30.485c-1.164 0-2.077-.914-2.077-2.077 0-1.163.913-2.076 2.077-2.076 1.08 0 2.075.913 2.075 2.076s-.995 2.077-2.075 2.077zm.83-36.881c-1.08 0-2.077-.914-2.077-2.077 0-1.08.997-2.077 2.077-2.077 1.163 0 2.077.997 2.077 2.077 0 1.163-.914 2.077-2.077 2.077zm5.98 41.533c-1.163 0-2.077-.914-2.077-2.077 0-1.163.914-2.077 2.077-2.077 1.164 0 2.077.914 2.077 2.077 0 1.163-.913 2.077-2.077 2.077zm1.164-45.853c-1.164 0-2.077-.913-2.077-2.077 0-1.08.913-2.076 2.077-2.076 1.08 0 2.075.996 2.075 2.076 0 1.163-.995 2.077-2.075 2.077zm6.895 48.013c-1.164 0-2.077-.914-2.077-2.077 0-1.163.913-2.077 2.077-2.077 1.08 0 2.075.914 2.075 2.077 0 1.163-.995 2.077-2.075 2.077zm1.163-49.757c-1.163 0-2.077-.914-2.077-2.077 0-1.08.914-2.077 2.077-2.077 1.08 0 2.077.997 2.077 2.077 0 1.163-.997 2.077-2.077 2.077zm6.977 49.175c-1.08 0-2.077-.914-2.077-2.077 0-1.163.997-2.077 2.077-2.077 1.163 0 2.077.914 2.077 2.077 0 1.163-.914 2.077-2.077 2.077zm1.163-48.179c-1.163 0-2.077-.913-2.077-2.076s.914-2.077 2.077-2.077c1.163 0 2.077.913 2.077 2.077 0 1.163-.914 2.076-2.077 2.076zm6.479 44.94c-1.163 0-2.077-.997-2.077-2.077 0-1.163.914-2.077 2.077-2.077 1.163 0 2.077.914 2.077 2.077 0 1.08-.914 2.077-2.077 2.077zm.997-41.285c-1.163 0-2.077-.997-2.077-2.077 0-1.163.914-2.076 2.077-2.076 1.163 0 2.077.913 2.077 2.076 0 1.08-.914 2.077-2.077 2.077zm5.151 35.635c-1.163 0-2.077-.914-2.077-2.077 0-1.08.914-2.076 2.077-2.076 1.163 0 2.077.996 2.077 2.076 0 1.163-.914 2.077-2.077 2.077zm.664-29.821c-1.08 0-2.077-.913-2.077-2.077 0-1.163.997-2.077 2.077-2.077 1.163 0 2.077.914 2.077 2.077 0 1.163-.914 2.077-2.077 2.077zm3.239 22.594c-1.08 0-2.077-.913-2.077-2.077 0-1.08.997-2.077 2.077-2.077 1.163 0 2.077.997 2.077 2.077 0 1.163-.914 2.077-2.077 2.077zm.416-15.201c-1.163 0-2.077-.914-2.077-2.077 0-1.08.914-2.077 2.077-2.077 1.163 0 2.077.997 2.077 2.077 0 1.163-.914 2.077-2.077 2.077zm.997 7.06c-1.163 0-2.077-.913-2.077-2.076s.914-2.077 2.077-2.077c1.163 0 2.077.913 2.077 2.077 0 1.163-.914 2.076-2.077 2.076zm40.695-24.919c-1.164 0-2.077-.914-2.077-2.077 0-1.163.913-2.077 2.077-2.077 1.163 0 2.077.913 2.077 2.077 0 1.163-.914 2.077-2.077 2.077zm0 8.306c-1.164 0-2.077-.914-2.077-2.077 0-1.163.913-2.077 2.077-2.077 1.163 0 2.077.914 2.077 2.077 0 1.163-.914 2.077-2.077 2.077zm0 8.306c-1.164 0-2.077-.913-2.077-2.077 0-1.163.913-2.076 2.077-2.076 1.163 0 2.077.913 2.077 2.076s-.914 2.077-2.077 2.077zm0 8.306c-1.164 0-2.077-.913-2.077-2.076s.913-2.077 2.077-2.077c1.163 0 2.077.913 2.077 2.077 0 1.163-.914 2.076-2.077 2.076zm0 8.307c-1.164 0-2.077-.914-2.077-2.077 0-1.163.913-2.077 2.077-2.077 1.163 0 2.077.914 2.077 2.077 0 1.163-.914 2.077-2.077 2.077zm0 8.306c-1.164 0-2.077-.913-2.077-2.075 0-1.163.913-2.078 2.077-2.078 1.163 0 2.077.914 2.077 2.078 0 1.163-.914 2.075-2.077 2.075zm0 8.307c-1.164 0-2.077-.914-2.077-2.077 0-1.163.913-2.077 2.077-2.077 1.163 0 2.077.914 2.077 2.077 0 1.163-.914 2.077-2.077 2.077zm8.306-49.839c-1.163 0-2.077-.914-2.077-2.077 0-1.163.914-2.077 2.077-2.077 1.163 0 2.077.913 2.077 2.077 0 1.163-.914 2.077-2.077 2.077zm0 31.15c-1.163 0-2.077-.914-2.077-2.077 0-1.163.914-2.077 2.077-2.077 1.163 0 2.077.914 2.077 2.077 0 1.163-.914 2.077-2.077 2.077zm8.307-31.15c-1.163 0-2.077-.914-2.077-2.077 0-1.163.914-2.077 2.077-2.077 1.163 0 2.077.913 2.077 2.077 0 1.163-.914 2.077-2.077 2.077zm0 31.15c-1.163 0-2.077-.914-2.077-2.077 0-1.163.914-2.077 2.077-2.077 1.163 0 2.077.914 2.077 2.077 0 1.163-.914 2.077-2.077 2.077zm8.307-31.15c-1.164 0-2.077-.914-2.077-2.077 0-1.163.913-2.077 2.077-2.077 1.163 0 2.075.913 2.075 2.077 0 1.163-.913 2.077-2.075 2.077zm0 31.15c-1.164 0-2.077-.914-2.077-2.077 0-1.163.913-2.077 2.077-2.077 1.163 0 2.075.914 2.075 2.077 0 1.163-.913 2.077-2.075 2.077zm8.306-31.15c-1.163 0-2.077-.914-2.077-2.077 0-1.163.914-2.077 2.077-2.077 1.163 0 2.077.913 2.077 2.077 0 1.163-.914 2.077-2.077 2.077zm44.019 0c-1.164 0-2.077-.914-2.077-2.077 0-1.163.913-2.077 2.077-2.077 1.163 0 2.077.913 2.077 2.077 0 1.163-.914 2.077-2.077 2.077zm0 8.306c-1.164 0-2.077-.914-2.077-2.077 0-1.163.913-2.077 2.077-2.077 1.163 0 2.077.914 2.077 2.077 0 1.163-.914 2.077-2.077 2.077zm0 8.306c-1.164 0-2.077-.913-2.077-2.077 0-1.163.913-2.076 2.077-2.076 1.163 0 2.077.913 2.077 2.076s-.914 2.077-2.077 2.077zm0 8.306c-1.164 0-2.077-.913-2.077-2.076s.913-2.077 2.077-2.077c1.163 0 2.077.913 2.077 2.077 0 1.163-.914 2.076-2.077 2.076zm0 8.307c-1.164 0-2.077-.914-2.077-2.077 0-1.163.913-2.077 2.077-2.077 1.163 0 2.077.914 2.077 2.077 0 1.163-.914 2.077-2.077 2.077zm0 8.306c-1.164 0-2.077-.913-2.077-2.075 0-1.163.913-2.078 2.077-2.078 1.163 0 2.077.914 2.077 2.078 0 1.163-.914 2.075-2.077 2.075zm0 8.307c-1.164 0-2.077-.914-2.077-2.077 0-1.163.913-2.077 2.077-2.077 1.163 0 2.077.914 2.077 2.077 0 1.163-.914 2.077-2.077 2.077zm44.686-5.233c1.163 0 2.077.997 2.077 2.077 0 1.163-.914 2.077-2.077 2.077-1.163 0-2.077-.914-2.077-2.077 0-1.08.914-2.077 2.077-2.077zm3.986-7.227c1.163 0 2.077.914 2.077 2.078 0 1.08-.914 2.075-2.077 2.075-1.163 0-2.077-.995-2.077-2.075 0-1.163.914-2.078 2.077-2.078zm3.988-7.309c1.163 0 2.077.913 2.077 2.077 0 1.163-.914 2.076-2.077 2.076-1.163 0-2.077-.913-2.077-2.076s.914-2.077 2.077-2.077zm3.986-7.31c1.163 0 2.077.914 2.077 2.077 0 1.163-.914 2.077-2.077 2.077-1.163 0-2.077-.914-2.077-2.077 0-1.163.914-2.077 2.077-2.077zm.333 12.544c1.163 0 2.077.913 2.077 2.076 0 1.08-.914 2.078-2.077 2.078-1.163 0-2.077-.998-2.077-2.078 0-1.163.914-2.076 2.077-2.076zm3.655-19.853c1.163 0 2.077.997 2.077 2.077 0 1.163-.914 2.076-2.077 2.076-1.163 0-2.077-.913-2.077-2.076 0-1.08.914-2.077 2.077-2.077zm3.986-7.227c1.163 0 2.077.913 2.077 2.076 0 1.081-.914 2.077-2.077 2.077-1.163 0-2.077-.996-2.077-2.077 0-1.163.914-2.076 2.077-2.076zm.666 27.08c1.163 0 2.075.913 2.075 2.076 0 1.08-.913 2.078-2.075 2.078-1.164 0-2.077-.998-2.077-2.078 0-1.163.913-2.076 2.077-2.076zm4.235-30.236c-1.163 0-2.075-.914-2.075-2.077 0-1.163.913-2.077 2.075-2.077 1.164 0 2.077.914 2.077 2.077 0 1.163-.913 2.077-2.077 2.077zm4.071 30.236c1.163 0 2.077.913 2.077 2.076 0 1.08-.914 2.078-2.077 2.078-1.163 0-2.077-.998-2.077-2.078 0-1.163.914-2.076 2.077-2.076zm.914-22.927c-1.163 0-2.077-.996-2.077-2.077 0-1.163.914-2.076 2.077-2.076 1.08 0 2.077.913 2.077 2.076 0 1.081-.997 2.077-2.077 2.077zm3.986 7.227c-1.163 0-2.077-.913-2.077-2.076 0-1.08.914-2.077 2.077-2.077 1.08 0 2.077.997 2.077 2.077 0 1.163-.997 2.076-2.077 2.076zm3.407 15.7c1.163 0 2.077.913 2.077 2.076 0 1.08-.914 2.078-2.077 2.078-1.163 0-2.077-.998-2.077-2.078 0-1.163.914-2.076 2.077-2.076zm.581-8.39c-1.163 0-2.077-.914-2.077-2.077 0-1.163.914-2.077 2.077-2.077 1.08 0 2.077.914 2.077 2.077 0 1.163-.997 2.077-2.077 2.077zm3.904 7.309c-1.08 0-2.077-.913-2.077-2.076s.997-2.077 2.077-2.077c1.163 0 2.077.913 2.077 2.077 0 1.163-.914 2.076-2.077 2.076zm3.988 7.309c-1.08 0-2.077-.995-2.077-2.075 0-1.163.997-2.078 2.077-2.078 1.163 0 2.077.914 2.077 2.078 0 1.08-.914 2.075-2.077 2.075zm3.986 7.227c-1.08 0-2.077-.914-2.077-2.077 0-1.08.997-2.077 2.077-2.077 1.163 0 2.077.997 2.077 2.077 0 1.163-.914 2.077-2.077 2.077zm87.04-10.55c-1.082 0-2.077-.913-2.077-2.076 0-1.08.995-2.077 2.077-2.077 1.163 0 2.075.997 2.075 2.077 0 1.163-.913 2.076-2.075 2.076zm1.661-7.06c-1.164 0-2.077-.914-2.077-2.077 0-1.163.913-2.077 2.077-2.077 1.163 0 2.077.914 2.077 2.077 0 1.163-.914 2.077-2.077 2.077zm.995 13.872c-1.163 0-2.075-.914-2.075-2.077 0-1.163.913-2.077 2.075-2.077 1.081 0 2.077.914 2.077 2.077 0 1.163-.995 2.077-2.077 2.077zm1.33-37.546c-1.163 0-2.077-.914-2.077-2.077 0-1.08.914-2.077 2.077-2.077 1.08 0 2.077.997 2.077 2.077 0 1.163-.997 2.077-2.077 2.077zm2.575 18.275c-1.163 0-2.077-.914-2.077-2.077 0-1.163.914-2.077 2.077-2.077 1.08 0 2.077.913 2.077 2.077 0 1.163-.997 2.077-2.077 2.077zm.331-10.882c-1.163 0-2.075-.997-2.075-2.077 0-1.163.913-2.077 2.075-2.077 1.164 0 2.077.913 2.077 2.077 0 1.08-.913 2.077-2.077 2.077zm1.413-13.873c-1.163 0-2.077-.996-2.077-2.076 0-1.163.914-2.077 2.077-2.077 1.08 0 2.077.913 2.077 2.077 0 1.08-.997 2.076-2.077 2.076zm.25 48.262c-1.164 0-2.077-.914-2.077-2.077 0-1.163.913-2.077 2.077-2.077 1.08 0 2.077.914 2.077 2.077 0 1.163-.997 2.077-2.077 2.077zm3.653-29.073c-1.163 0-2.075-.914-2.075-2.077 0-1.163.913-2.077 2.075-2.077 1.164 0 2.077.913 2.077 2.077 0 1.163-.913 2.077-2.077 2.077zm3.572 29.239c-1.163 0-2.077-.913-2.077-2.077 0-1.08.914-2.077 2.077-2.077 1.08 0 2.077.997 2.077 2.077 0 1.164-.997 2.077-2.077 2.077zm.416-48.428c-1.163 0-2.077-.996-2.077-2.076 0-1.163.914-2.077 2.077-2.077 1.08 0 2.077.913 2.077 2.077 0 1.08-.997 2.076-2.077 2.076zm1.08 24.256c-1.163 0-2.077-.914-2.077-2.077 0-1.163.914-2.077 2.077-2.077 1.163 0 2.077.914 2.077 2.077 0 1.163-.914 2.077-2.077 2.077zm.333-10.383c-1.164 0-2.077-.997-2.077-2.077 0-1.163.913-2.077 2.077-2.077 1.163 0 2.077.913 2.077 2.077 0 1.08-.914 2.077-2.077 2.077zm2.907-7.393c-1.08 0-2.077-.914-2.077-2.077 0-1.08.997-2.077 2.077-2.077 1.163 0 2.077.997 2.077 2.077 0 1.163-.914 2.077-2.077 2.077zm.997 38.626c-1.163 0-2.077-.914-2.077-2.077 0-1.163.914-2.077 2.077-2.077 1.163 0 2.077.914 2.077 2.077 0 1.163-.914 2.077-2.077 2.077zm.416-16.198c-1.163 0-2.077-.997-2.077-2.077 0-1.163.914-2.076 2.077-2.076 1.163 0 2.077.913 2.077 2.076 0 1.08-.914 2.077-2.077 2.077zm4.402 11.463c-1.163 0-2.077-.997-2.077-2.077 0-1.163.914-2.076 2.077-2.076 1.163 0 2.077.913 2.077 2.076 0 1.08-.914 2.077-2.077 2.077zm.166-6.895c-1.08 0-2.077-.913-2.077-2.076s.997-2.077 2.077-2.077c1.164 0 2.077.913 2.077 2.077 0 1.163-.913 2.076-2.077 2.076zm6.646 0c-1.08 0-2.077-.913-2.077-2.076s.997-2.077 2.077-2.077c1.163 0 2.077.913 2.077 2.077 0 1.163-.914 2.076-2.077 2.076zm.083 6.729c-1.08 0-2.077-.914-2.077-2.077 0-1.163.997-2.077 2.077-2.077 1.163 0 2.077.914 2.077 2.077 0 1.163-.914 2.077-2.077 2.077zm4.236-11.131c-1.163 0-2.077-.997-2.077-2.077 0-1.163.914-2.077 2.077-2.077 1.08 0 2.077.914 2.077 2.077 0 1.08-.997 2.077-2.077 2.077zm0 15.367c-1.163 0-2.077-.914-2.077-2.077 0-1.163.914-2.077 2.077-2.077 1.163 0 2.077.914 2.077 2.077 0 1.163-.914 2.077-2.077 2.077zm-447.48 111.66c-1.163 0-2.077-.914-2.077-2.077 0-1.08.914-2.077 2.077-2.077 1.163 0 2.077.997 2.077 2.077 0 1.163-.914 2.077-2.077 2.077zm6.977 3.155c-1.163 0-2.077-.913-2.077-2.075 0-1.08.914-2.077 2.077-2.077 1.163 0 2.077.997 2.077 2.077 0 1.163-.914 2.075-2.077 2.075zm7.724-.331c-1.163 0-2.077-.914-2.077-2.077 0-1.163.914-2.077 2.077-2.077 1.164 0 2.077.914 2.077 2.077 0 1.163-.913 2.077-2.077 2.077zm6.812-3.821c-1.163 0-2.077-.914-2.077-2.077 0-1.163.914-2.077 2.077-2.077 1.08 0 2.077.914 2.077 2.077 0 1.163-.997 2.077-2.077 2.077zm4.236-6.396c-1.163 0-2.077-.914-2.077-2.077 0-1.163.914-2.077 2.077-2.077 1.163 0 2.077.914 2.077 2.077 0 1.163-.914 2.077-2.077 2.077zm.997-38.959c-1.163 0-2.077-.913-2.077-2.077 0-1.163.914-2.075 2.077-2.075 1.163 0 2.077.913 2.077 2.075 0 1.164-.914 2.077-2.077 2.077zm0 7.809c-1.163 0-2.077-.914-2.077-2.077 0-1.08.914-2.077 2.077-2.077 1.163 0 2.077.997 2.077 2.077 0 1.163-.914 2.077-2.077 2.077zm0 7.726c-1.163 0-2.077-.914-2.077-2.077 0-1.164.914-2.077 2.077-2.077 1.163 0 2.077.913 2.077 2.077 0 1.163-.914 2.077-2.077 2.077zm0 7.89c-1.163 0-2.077-.913-2.077-2.075 0-1.164.914-2.077 2.077-2.077 1.163 0 2.077.913 2.077 2.077 0 1.163-.914 2.075-2.077 2.075zm0 7.809c-1.163 0-2.077-.997-2.077-2.077 0-1.163.914-2.077 2.077-2.077 1.163 0 2.077.914 2.077 2.077 0 1.08-.914 2.077-2.077 2.077zm48.172-31.233c-1.164 0-2.077-.913-2.077-2.077 0-1.163.913-2.075 2.077-2.075 1.163 0 2.077.913 2.077 2.075 0 1.164-.914 2.077-2.077 2.077zm0 8.307c-1.164 0-2.077-.914-2.077-2.077 0-1.163.913-2.077 2.077-2.077 1.163 0 2.077.914 2.077 2.077 0 1.163-.914 2.077-2.077 2.077zm0 8.307c-1.164 0-2.077-.914-2.077-2.077 0-1.164.913-2.077 2.077-2.077 1.163 0 2.077.913 2.077 2.077 0 1.163-.914 2.077-2.077 2.077zm0 8.306c-1.164 0-2.077-.914-2.077-2.077 0-1.163.913-2.077 2.077-2.077 1.163 0 2.077.914 2.077 2.077 0 1.163-.914 2.077-2.077 2.077zm0 8.307c-1.164 0-2.077-.914-2.077-2.077 0-1.163.913-2.077 2.077-2.077 1.163 0 2.077.914 2.077 2.077 0 1.163-.914 2.077-2.077 2.077zm0 8.306c-1.164 0-2.077-.913-2.077-2.075 0-1.164.913-2.077 2.077-2.077 1.163 0 2.077.913 2.077 2.077 0 1.163-.914 2.075-2.077 2.075zm0 8.307c-1.164 0-2.077-.914-2.077-2.077 0-1.163.913-2.077 2.077-2.077 1.163 0 2.077.914 2.077 2.077 0 1.163-.914 2.077-2.077 2.077zm8.306-49.84c-1.163 0-2.077-.913-2.077-2.077 0-1.163.914-2.075 2.077-2.075 1.163 0 2.077.913 2.077 2.075 0 1.164-.914 2.077-2.077 2.077zm0 31.151c-1.163 0-2.077-.914-2.077-2.077 0-1.163.914-2.077 2.077-2.077 1.163 0 2.077.914 2.077 2.077 0 1.163-.914 2.077-2.077 2.077zm0 18.69c-1.163 0-2.077-.914-2.077-2.077 0-1.163.914-2.077 2.077-2.077 1.163 0 2.077.914 2.077 2.077 0 1.163-.914 2.077-2.077 2.077zm8.307-49.84c-1.163 0-2.077-.913-2.077-2.077 0-1.163.914-2.075 2.077-2.075 1.163 0 2.077.913 2.077 2.075 0 1.164-.914 2.077-2.077 2.077zm0 31.151c-1.163 0-2.077-.914-2.077-2.077 0-1.163.914-2.077 2.077-2.077 1.163 0 2.077.914 2.077 2.077 0 1.163-.914 2.077-2.077 2.077zm0 18.69c-1.163 0-2.077-.914-2.077-2.077 0-1.163.914-2.077 2.077-2.077 1.163 0 2.077.914 2.077 2.077 0 1.163-.914 2.077-2.077 2.077zm8.307-49.84c-1.164 0-2.077-.913-2.077-2.077 0-1.163.913-2.075 2.077-2.075 1.163 0 2.075.913 2.075 2.075 0 1.164-.913 2.077-2.075 2.077zm0 31.151c-1.164 0-2.077-.914-2.077-2.077 0-1.163.913-2.077 2.077-2.077 1.163 0 2.075.914 2.075 2.077 0 1.163-.913 2.077-2.075 2.077zm0 18.69c-1.164 0-2.077-.914-2.077-2.077 0-1.163.913-2.077 2.077-2.077 1.163 0 2.075.914 2.075 2.077 0 1.163-.913 2.077-2.075 2.077zm8.306-49.84c-1.163 0-2.077-.913-2.077-2.077 0-1.163.914-2.075 2.077-2.075 1.163 0 2.077.913 2.077 2.075 0 1.164-.914 2.077-2.077 2.077zm0 49.84c-1.163 0-2.077-.914-2.077-2.077 0-1.163.914-2.077 2.077-2.077 1.163 0 2.077.914 2.077 2.077 0 1.163-.914 2.077-2.077 2.077zm48.172-49.84c-1.164 0-2.077-.913-2.077-2.077 0-1.163.913-2.075 2.077-2.075 1.163 0 2.077.913 2.077 2.075 0 1.164-.914 2.077-2.077 2.077zm0 8.307c-1.164 0-2.077-.914-2.077-2.077 0-1.163.913-2.077 2.077-2.077 1.163 0 2.077.914 2.077 2.077 0 1.163-.914 2.077-2.077 2.077zm0 8.307c-1.164 0-2.077-.914-2.077-2.077 0-1.164.913-2.077 2.077-2.077 1.163 0 2.077.913 2.077 2.077 0 1.163-.914 2.077-2.077 2.077zm0 8.306c-1.164 0-2.077-.914-2.077-2.077 0-1.163.913-2.077 2.077-2.077 1.163 0 2.077.914 2.077 2.077 0 1.163-.914 2.077-2.077 2.077zm0 8.307c-1.164 0-2.077-.914-2.077-2.077 0-1.163.913-2.077 2.077-2.077 1.163 0 2.077.914 2.077 2.077 0 1.163-.914 2.077-2.077 2.077zm0 8.306c-1.164 0-2.077-.913-2.077-2.075 0-1.164.913-2.077 2.077-2.077 1.163 0 2.077.913 2.077 2.077 0 1.163-.914 2.075-2.077 2.075zm0 8.307c-1.164 0-2.077-.914-2.077-2.077 0-1.163.913-2.077 2.077-2.077 1.163 0 2.077.914 2.077 2.077 0 1.163-.914 2.077-2.077 2.077zm8.306-49.84c-1.163 0-2.077-.913-2.077-2.077 0-1.163.914-2.075 2.077-2.075 1.163 0 2.077.913 2.077 2.075 0 1.164-.914 2.077-2.077 2.077zm0 33.227c-1.163 0-2.077-.914-2.077-2.077 0-1.163.914-2.077 2.077-2.077 1.163 0 2.077.914 2.077 2.077 0 1.163-.914 2.077-2.077 2.077zm8.307-33.227c-1.163 0-2.077-.913-2.077-2.077 0-1.163.914-2.075 2.077-2.075 1.163 0 2.077.913 2.077 2.075 0 1.164-.914 2.077-2.077 2.077zm.416 33.227c-1.163 0-2.077-.914-2.077-2.077 0-1.163.914-2.077 2.077-2.077 1.163 0 2.077.914 2.077 2.077 0 1.163-.914 2.077-2.077 2.077zm6.229 5.815c-1.163 0-2.075-.914-2.075-2.077 0-1.163.913-2.077 2.075-2.077 1.08 0 2.077.914 2.077 2.077 0 1.163-.997 2.077-2.077 2.077zm1.663-36.798c-1.164 0-2.077-.997-2.077-2.077 0-1.164.913-2.077 2.077-2.077 1.08 0 2.075.913 2.075 2.077 0 1.08-.995 2.077-2.075 2.077zm.248 28.574c-1.08 0-2.077-.913-2.077-2.077 0-1.163.997-2.075 2.077-2.075 1.163 0 2.077.913 2.077 2.075 0 1.164-.914 2.077-2.077 2.077zm1.578 13.624c-1.163 0-2.077-.914-2.077-2.077 0-1.163.914-2.077 2.077-2.077 1.163 0 2.077.914 2.077 2.077 0 1.163-.914 2.077-2.077 2.077zm3.49 5.399c-1.164 0-2.077-.914-2.077-2.077 0-1.163.913-2.077 2.077-2.077 1.163 0 2.075.914 2.075 2.077 0 1.163-.913 2.077-2.075 2.077zm.664-41.699c-1.163 0-2.077-.914-2.077-2.077 0-1.08.914-2.077 2.077-2.077 1.163 0 2.077.997 2.077 2.077 0 1.163-.914 2.077-2.077 2.077zm.248 16.53c-1.163 0-2.077-.914-2.077-2.077 0-1.163.914-2.077 2.077-2.077 1.163 0 2.077.914 2.077 2.077 0 1.163-.914 2.077-2.077 2.077zm2.077-8.307c-1.163 0-2.077-.997-2.077-2.077 0-1.163.914-2.077 2.077-2.077 1.163 0 2.077.914 2.077 2.077 0 1.08-.914 2.077-2.077 2.077zm46.76-16.364c-1.163 0-2.077-.913-2.077-2.077 0-1.163.914-2.075 2.077-2.075 1.163 0 2.077.913 2.077 2.075 0 1.164-.914 2.077-2.077 2.077zm0 8.307c-1.163 0-2.077-.914-2.077-2.077 0-1.163.914-2.077 2.077-2.077 1.163 0 2.077.914 2.077 2.077 0 1.163-.914 2.077-2.077 2.077zm0 8.307c-1.163 0-2.077-.914-2.077-2.077 0-1.164.914-2.077 2.077-2.077 1.163 0 2.077.913 2.077 2.077 0 1.163-.914 2.077-2.077 2.077zm0 8.306c-1.163 0-2.077-.914-2.077-2.077 0-1.163.914-2.077 2.077-2.077 1.163 0 2.077.914 2.077 2.077 0 1.163-.914 2.077-2.077 2.077zm0 8.307c-1.163 0-2.077-.914-2.077-2.077 0-1.163.914-2.077 2.077-2.077 1.163 0 2.077.914 2.077 2.077 0 1.163-.914 2.077-2.077 2.077zm0 8.306c-1.163 0-2.077-.913-2.077-2.075 0-1.164.914-2.077 2.077-2.077 1.163 0 2.077.913 2.077 2.077 0 1.163-.914 2.075-2.077 2.075zm0 8.307c-1.163 0-2.077-.914-2.077-2.077 0-1.163.914-2.077 2.077-2.077 1.163 0 2.077.914 2.077 2.077 0 1.163-.914 2.077-2.077 2.077zm8.307-49.84c-1.164 0-2.077-.913-2.077-2.077 0-1.163.913-2.075 2.077-2.075 1.163 0 2.075.913 2.075 2.075 0 1.164-.913 2.077-2.075 2.077zm0 31.151c-1.164 0-2.077-.914-2.077-2.077 0-1.163.913-2.077 2.077-2.077 1.163 0 2.075.914 2.075 2.077 0 1.163-.913 2.077-2.075 2.077zm0 18.69c-1.164 0-2.077-.914-2.077-2.077 0-1.163.913-2.077 2.077-2.077 1.163 0 2.075.914 2.075 2.077 0 1.163-.913 2.077-2.075 2.077zm8.306-49.84c-1.163 0-2.077-.913-2.077-2.077 0-1.163.914-2.075 2.077-2.075 1.163 0 2.077.913 2.077 2.075 0 1.164-.914 2.077-2.077 2.077zm0 31.151c-1.163 0-2.077-.914-2.077-2.077 0-1.163.914-2.077 2.077-2.077 1.163 0 2.077.914 2.077 2.077 0 1.163-.914 2.077-2.077 2.077zm0 18.69c-1.163 0-2.077-.914-2.077-2.077 0-1.163.914-2.077 2.077-2.077 1.163 0 2.077.914 2.077 2.077 0 1.163-.914 2.077-2.077 2.077zm8.307-49.84c-1.163 0-2.077-.913-2.077-2.077 0-1.163.914-2.075 2.077-2.075 1.163 0 2.077.913 2.077 2.075 0 1.164-.914 2.077-2.077 2.077zm0 31.151c-1.163 0-2.077-.914-2.077-2.077 0-1.163.914-2.077 2.077-2.077 1.163 0 2.077.914 2.077 2.077 0 1.163-.914 2.077-2.077 2.077zm0 18.69c-1.163 0-2.077-.914-2.077-2.077 0-1.163.914-2.077 2.077-2.077 1.163 0 2.077.914 2.077 2.077 0 1.163-.914 2.077-2.077 2.077zm8.306-49.84c-1.163 0-2.075-.913-2.075-2.077 0-1.163.913-2.075 2.075-2.075 1.164 0 2.077.913 2.077 2.075 0 1.164-.913 2.077-2.077 2.077zm0 49.84c-1.163 0-2.075-.914-2.075-2.077 0-1.163.913-2.077 2.075-2.077 1.164 0 2.077.914 2.077 2.077 0 1.163-.913 2.077-2.077 2.077zm47.093 0c-1.163 0-2.077-.914-2.077-2.077 0-1.163.914-2.077 2.077-2.077 1.163 0 2.077.914 2.077 2.077 0 1.163-.914 2.077-2.077 2.077zm.664-8.721c-1.163 0-2.077-.914-2.077-2.077 0-1.08.914-2.077 2.077-2.077 1.163 0 2.077.997 2.077 2.077 0 1.163-.914 2.077-2.077 2.077zm.664-8.64c-1.163 0-2.077-.995-2.077-2.075 0-1.164.914-2.077 2.077-2.077 1.164 0 2.077.913 2.077 2.077 0 1.08-.913 2.075-2.077 2.075zm.666-8.721c-1.164 0-2.077-.914-2.077-2.077 0-1.163.913-2.077 2.077-2.077 1.163 0 2.077.914 2.077 2.077 0 1.163-.914 2.077-2.077 2.077zm.664-8.721c-1.163 0-2.077-.914-2.077-2.077 0-1.163.914-2.077 2.077-2.077 1.163 0 2.077.914 2.077 2.077 0 1.163-.914 2.077-2.077 2.077zm.747-9.221c-1.163 0-2.077-.913-2.077-2.077 0-1.08.914-2.077 2.077-2.077 1.08 0 2.077.997 2.077 2.077 0 1.164-.997 2.077-2.077 2.077zm5.316 5.233c-1.163 0-2.077-.914-2.077-2.077 0-1.163.914-2.077 2.077-2.077 1.163 0 2.077.914 2.077 2.077 0 1.163-.914 2.077-2.077 2.077zm4.985 5.399c-1.164 0-2.077-.913-2.077-2.077 0-1.163.913-2.077 2.077-2.077 1.163 0 2.077.914 2.077 2.077 0 1.164-.914 2.077-2.077 2.077zm4.983 5.399c-1.08 0-2.077-.913-2.077-2.075 0-1.081.997-2.077 2.077-2.077 1.163 0 2.077.995 2.077 2.077 0 1.163-.914 2.075-2.077 2.075zm5.068 5.484c-1.164 0-2.077-.914-2.077-2.077 0-1.163.913-2.077 2.077-2.077 1.163 0 2.075.914 2.075 2.077 0 1.163-.913 2.077-2.075 2.077zm4.983-9.635c1.163 0 2.077.995 2.077 2.077 0 1.163-.914 2.075-2.077 2.075-1.163 0-2.077-.913-2.077-2.075 0-1.081.914-2.077 2.077-2.077zm4.983-5.401c1.164 0 2.077.914 2.077 2.077 0 1.164-.913 2.077-2.077 2.077-1.163 0-2.077-.913-2.077-2.077 0-1.163.914-2.077 2.077-2.077zm4.985-5.399c1.163 0 2.077.914 2.077 2.077 0 1.163-.914 2.077-2.077 2.077-1.08 0-2.077-.914-2.077-2.077 0-1.163.997-2.077 2.077-2.077zm5.399-5.233c1.163 0 2.077.997 2.077 2.077 0 1.164-.914 2.077-2.077 2.077-1.163 0-2.077-.913-2.077-2.077 0-1.08.914-2.077 2.077-2.077zm.747 9.221c1.163 0 2.077.914 2.077 2.077 0 1.163-.914 2.077-2.077 2.077-1.163 0-2.077-.914-2.077-2.077 0-1.163.914-2.077 2.077-2.077zm.666 8.721c1.08 0 2.075.914 2.075 2.077 0 1.163-.995 2.077-2.075 2.077-1.164 0-2.077-.914-2.077-2.077 0-1.163.913-2.077 2.077-2.077zm.664 8.723c1.08 0 2.077.913 2.077 2.077 0 1.08-.997 2.075-2.077 2.075-1.163 0-2.077-.995-2.077-2.075 0-1.164.914-2.077 2.077-2.077zm.581 8.638c1.163 0 2.077.997 2.077 2.077 0 1.163-.914 2.077-2.077 2.077-1.08 0-2.077-.914-2.077-2.077 0-1.08.997-2.077 2.077-2.077zm.664 8.721c1.163 0 2.077.914 2.077 2.077 0 1.163-.914 2.077-2.077 2.077-1.08 0-2.077-.914-2.077-2.077 0-1.163.997-2.077 2.077-2.077zm40.196-45.935c-1.08 0-2.077-.914-2.077-2.077 0-1.163.997-2.077 2.077-2.077 1.163 0 2.075.914 2.075 2.077 0 1.163-.913 2.077-2.075 2.077zm4.236 6.644c-1.164 0-2.077-.913-2.077-2.077 0-1.163.913-2.075 2.077-2.075 1.163 0 2.075.913 2.075 2.075 0 1.164-.913 2.077-2.075 2.077zm4.152 6.646c-1.163 0-2.077-.914-2.077-2.077 0-1.163.914-2.077 2.077-2.077 1.164 0 2.077.914 2.077 2.077 0 1.163-.913 2.077-2.077 2.077zm4.236 6.644c-1.163 0-2.077-.913-2.077-2.077 0-1.08.914-2.075 2.077-2.075 1.08 0 2.077.995 2.077 2.075 0 1.164-.997 2.077-2.077 2.077zm4.154 6.646c-1.163 0-2.077-.914-2.077-2.077 0-1.08.914-2.077 2.077-2.077 1.163 0 2.077.997 2.077 2.077 0 1.163-.914 2.077-2.077 2.077zm3.407 2.907c1.245 0 2.075.997 2.075 2.077 0 1.163-.913 2.077-2.075 2.077-1.081 0-2.077-.914-2.077-2.077 0-1.08.995-2.077 2.077-2.077zm0 8.224c1.163 0 2.075.914 2.075 2.077 0 1.163-.913 2.077-2.075 2.077-1.081 0-2.077-.914-2.077-2.077 0-1.163.995-2.077 2.077-2.077zm0 8.223c1.163 0 2.075.914 2.075 2.077 0 1.163-.913 2.077-2.075 2.077-1.081 0-2.077-.914-2.077-2.077 0-1.163.995-2.077 2.077-2.077zm3.488-23.507c1.163 0 2.077.997 2.077 2.077 0 1.163-.914 2.077-2.077 2.077-1.163 0-2.077-.914-2.077-2.077 0-1.08.914-2.077 2.077-2.077zm4.154-6.644c1.163 0 2.077.995 2.077 2.075 0 1.164-.914 2.077-2.077 2.077-1.163 0-2.077-.913-2.077-2.077 0-1.08.914-2.075 2.077-2.075zm4.236-6.646c1.08 0 2.077.914 2.077 2.077 0 1.163-.997 2.077-2.077 2.077-1.163 0-2.077-.914-2.077-2.077 0-1.163.914-2.077 2.077-2.077zm4.154-6.644c1.163 0 2.077.913 2.077 2.075 0 1.164-.914 2.077-2.077 2.077-1.164 0-2.077-.913-2.077-2.077 0-1.163.913-2.075 2.077-2.075zm4.152-6.646c1.164 0 2.077.914 2.077 2.077 0 1.163-.913 2.077-2.077 2.077-1.08 0-2.075-.914-2.075-2.077 0-1.163.995-2.077 2.075-2.077z" sketch:type="MSShapeGroup" fill="#fff"/></svg>