<svg width="480" height="240" viewBox="0 0 480 240" xmlns="http://www.w3.org/2000/svg"><title>cover-logo</title><g fill="#FFF" fill-rule="evenodd"><path d="M65.078 210.014c-.802-1.364-2.005-2.486-3.53-3.37-1.523-.88-3.208-1.282-5.132-1.282-.883 0-1.685.08-2.487.24-.803.16-1.605.482-2.247.883-.64.4-1.203.882-1.604 1.524-.402.64-.562 1.362-.562 2.245 0 1.604.722 2.727 2.165 3.53 1.444.72 3.53 1.442 6.417 2.084 1.764.4 3.45.88 4.973 1.523 1.524.56 2.887 1.283 4.01 2.166a9.847 9.847 0 0 1 2.647 3.127c.64 1.203.962 2.646.962 4.25 0 2.166-.4 4.09-1.283 5.615-.803 1.524-1.926 2.807-3.37 3.77a13.318 13.318 0 0 1-4.732 2.085c-1.764.4-3.61.642-5.534.642-2.807 0-5.615-.563-8.342-1.686-2.727-1.123-4.972-2.807-6.737-5.053l5.294-4.49c.96 1.443 2.405 2.727 4.17 3.69 1.764.962 3.69 1.523 5.774 1.523a15 15 0 0 0 2.727-.24 6.694 6.694 0 0 0 2.327-.883 4.254 4.254 0 0 0 1.685-1.684c.4-.722.64-1.524.64-2.567 0-1.765-.8-3.048-2.485-3.85-1.684-.803-4.09-1.605-7.3-2.327-1.282-.32-2.565-.72-3.85-1.122-1.282-.48-2.485-1.042-3.528-1.844-1.044-.802-1.926-1.765-2.567-2.968-.642-1.203-.963-2.647-.963-4.41 0-2.006.4-3.69 1.203-5.134.802-1.444 1.845-2.647 3.208-3.53 1.285-.882 2.81-1.603 4.493-2.085 1.684-.482 3.45-.642 5.213-.642 2.647 0 5.294.56 7.78 1.604 2.487 1.042 4.412 2.566 5.775 4.57l-5.212 4.092zm29.917-8.34c2.085-1.365 4.49-2.087 7.38-2.087 2.485 0 4.81.562 6.816 1.765 2.006 1.123 3.61 3.048 4.733 5.775 1.284-2.407 3.048-4.25 5.294-5.535 2.246-1.283 4.732-1.925 7.38-1.925 2.405 0 4.49.4 6.255 1.204 1.764.803 3.208 1.925 4.33 3.29a13.865 13.865 0 0 1 2.568 4.81c.56 1.846.802 3.77.802 5.937v23.02h-7.38v-20.694c0-1.524-.16-2.968-.4-4.332a10.24 10.24 0 0 0-1.364-3.608c-.64-1.043-1.443-1.925-2.486-2.486-1.043-.642-2.406-.963-4.01-.963-1.685 0-3.128.32-4.332 1.043a9.66 9.66 0 0 0-2.967 2.727c-.722 1.123-1.284 2.406-1.685 3.85a19.91 19.91 0 0 0-.48 4.33v20.133h-7.38V215.71c0-1.445-.16-2.81-.4-4.012a7.914 7.914 0 0 0-1.364-3.128c-.642-.882-1.444-1.524-2.406-2.085-.963-.48-2.246-.722-3.69-.722-2.727 0-4.973 1.123-6.817 3.37-1.844 2.245-2.726 5.212-2.726 8.902v19.89h-7.38V208.65c0-.962 0-2.245-.08-3.85a250.57 250.57 0 0 0-.24-4.17h6.978c.08.962.16 2.005.24 3.208.08 1.203.08 2.166.08 2.968h.24c.883-2.086 2.407-3.77 4.493-5.133zm84.056 12.03c0-2.808-.8-4.813-2.486-6.176-1.684-1.364-3.93-2.006-6.737-2.006-2.085 0-4.09.4-5.935 1.204-1.845.802-3.45 1.844-4.652 3.128l-3.93-4.733c1.844-1.763 4.09-3.127 6.737-4.09a25.064 25.064 0 0 1 8.582-1.523c2.646 0 4.972.4 6.977 1.123 2.005.802 3.61 1.764 4.812 3.128a11.516 11.516 0 0 1 2.807 4.652c.64 1.764.962 3.69.962 5.775v16.282c0 1.283.08 2.566.08 4.01.08 1.363.24 2.566.4 3.45h-6.657c-.4-1.766-.642-3.61-.642-5.375h-.24c-1.363 2.005-3.047 3.53-5.132 4.652-2.086 1.123-4.492 1.684-7.38 1.684-1.443 0-2.967-.16-4.57-.56a14.472 14.472 0 0 1-4.412-1.926c-1.284-.882-2.407-2.086-3.29-3.53-.88-1.443-1.282-3.288-1.282-5.453 0-2.808.722-5.054 2.326-6.74 1.524-1.683 3.53-2.886 6.015-3.768 2.487-.883 5.214-1.444 8.342-1.685 3.128-.24 6.256-.4 9.384-.4v-1.124h-.08zm-1.764 6.416c-1.845 0-3.77.08-5.695.24-2.004.16-3.768.482-5.372.963-1.604.48-2.968 1.203-4.01 2.166-1.043.96-1.605 2.244-1.605 3.768 0 1.123.24 2.005.642 2.727.48.722 1.043 1.364 1.764 1.845a6.33 6.33 0 0 0 2.406.963c.882.16 1.844.24 2.727.24 3.448 0 6.095-1.043 8.02-3.128 1.845-2.085 2.807-4.652 2.807-7.86v-2.005h-1.684v.08zm21.896-15.4a250.57 250.57 0 0 0-.24-4.17h6.978c.08.962.16 2.005.24 3.288.08 1.203.08 2.246.08 3.048h.24c1.044-2.246 2.568-4.01 4.573-5.294 2.005-1.363 4.33-2.005 6.817-2.005 1.123 0 2.166.08 2.888.32l-.32 6.82a14.91 14.91 0 0 0-3.37-.402c-1.764 0-3.368.32-4.652.962-1.283.642-2.406 1.524-3.288 2.647a10.867 10.867 0 0 0-1.925 3.85c-.4 1.443-.642 2.967-.642 4.49v19.652h-7.378V208.65c.08-1.042.08-2.325 0-3.93zm50.69 2.086h-9.945v19.41c0 2.245.4 3.85 1.283 4.812.802.962 2.166 1.444 4.01 1.444.723 0 1.444-.08 2.246-.24.803-.16 1.524-.402 2.166-.643l.24 6.095c-.882.32-1.844.562-2.967.722-1.043.16-2.166.24-3.37.24-3.528 0-6.174-.962-8.1-2.887-1.844-1.925-2.807-4.892-2.807-8.742V189.4h7.3v11.31h9.945v6.096zM269.283 206.244c.882-1.844 2.406-3.45 4.57-4.732 2.167-1.283 4.573-2.005 7.22-2.005 2.406 0 4.49.4 6.256 1.203 1.763.802 3.207 1.925 4.33 3.29a13.865 13.865 0 0 1 2.567 4.81c.56 1.846.802 3.77.802 5.936v23.18h-7.38v-20.693c0-1.524-.08-2.968-.32-4.332-.242-1.362-.643-2.565-1.284-3.608a7.85 7.85 0 0 0-2.567-2.566c-1.044-.642-2.487-.963-4.252-.963-2.968 0-5.374 1.123-7.218 3.37-1.925 2.245-2.808 5.212-2.808 8.982v19.81h-7.38v-48.684h7.3l.08 17.004h.08zm63.603 7.54c0-2.808-.802-4.813-2.486-6.176-1.685-1.364-3.93-2.005-6.657-2.005-2.086 0-4.09.4-5.936 1.203-1.844.802-3.45 1.844-4.652 3.128l-3.93-4.732c1.845-1.765 4.09-3.128 6.738-4.09a25.064 25.064 0 0 1 8.582-1.525c2.646 0 4.972.4 6.977 1.123 2.006.722 3.61 1.765 4.813 3.128a11.516 11.516 0 0 1 2.807 4.652c.642 1.765.963 3.69.963 5.775v16.282c0 1.283.08 2.566.16 4.01.08 1.364.24 2.567.4 3.45h-6.656c-.402-1.766-.643-3.61-.643-5.375h-.24c-1.364 2.005-3.048 3.53-5.134 4.652-2.085 1.123-4.49 1.684-7.38 1.684-1.442 0-2.966-.16-4.57-.56a14.472 14.472 0 0 1-4.412-1.926c-1.282-.882-2.405-2.085-3.287-3.53-.882-1.443-1.283-3.287-1.283-5.453 0-2.808.72-5.054 2.245-6.738 1.524-1.685 3.53-2.888 6.016-3.77 2.487-.882 5.214-1.444 8.342-1.684s6.256-.4 9.384-.4v-1.124h-.16zm-1.845 6.336c-1.843 0-3.768.08-5.693.24-2.006.16-3.77.482-5.374.963-1.604.48-2.968 1.203-4.01 2.166-1.043.96-1.605 2.164-1.605 3.768 0 1.123.24 2.005.642 2.727.48.722 1.043 1.364 1.765 1.845a6.33 6.33 0 0 0 2.406.963c.883.16 1.845.24 2.728.24 3.45 0 6.095-1.043 8.02-3.128 1.845-2.085 2.808-4.652 2.808-7.86v-2.005h-1.685v.08zm28.474 11.87v5.936h-7.138V189.24h7.058l.32 16.924h.242c1.283-1.845 3.047-3.37 5.293-4.652 2.245-1.283 4.892-1.925 8.02-1.925 2.807 0 5.293.48 7.62 1.524a16.988 16.988 0 0 1 5.855 4.172c1.684 1.764 2.887 3.85 3.85 6.256a22.21 22.21 0 0 1 1.363 7.7c0 2.727-.48 5.293-1.364 7.7-.882 2.406-2.165 4.49-3.77 6.336-1.603 1.764-3.61 3.208-5.854 4.25-2.326 1.043-4.893 1.525-7.78 1.525-2.647 0-5.214-.563-7.62-1.766-2.406-1.203-4.33-2.887-5.775-5.133h-.32v-.16zm24.784-12.752c0-1.765-.24-3.37-.802-5.053-.56-1.604-1.283-3.048-2.326-4.33-1.043-1.285-2.326-2.247-3.93-2.97-1.524-.72-3.37-1.122-5.374-1.122-1.925 0-3.61.4-5.133 1.123-1.524.722-2.887 1.764-4.01 2.968-1.123 1.283-1.925 2.727-2.567 4.33-.642 1.605-.882 3.29-.882 5.134 0 1.764.32 3.45.882 5.133.642 1.605 1.444 3.05 2.567 4.252 1.123 1.203 2.406 2.246 4.01 2.968 1.524.722 3.288 1.123 5.133 1.123 2.086 0 3.85-.4 5.374-1.123 1.524-.722 2.887-1.765 3.93-3.048 1.043-1.283 1.845-2.727 2.326-4.33.56-1.686.802-3.37.802-5.054zM411.087 237.926h-7.38V200.55h7.38v37.376zm-7.38-48.685h7.38v7.38h-7.38v-7.38zM439.96 206.806h-9.944v19.41c0 2.245.4 3.85 1.283 4.812.8.962 2.164 1.444 4.01 1.444.64 0 1.443-.08 2.165-.24.802-.16 1.524-.402 2.165-.643l.24 6.095c-.88.32-1.844.562-2.967.722-1.042.16-2.165.24-3.368.24-3.53 0-6.176-.962-8.1-2.887-1.846-1.925-2.808-4.892-2.808-8.742V200.71l-.08-11.31h7.298l.08 11.31h10.026v6.096z"/><g><path d="M160.286 85.43c-.857-11.144.57-21.716 3.857-31.43C177.43 14.57 221-10 264 4l-43.43 43.43c-7.856 7.856-13.14 12.713-15.713 21.14-3 9.86-1.57 21 4 30l-48.57-13.14z"/><path d="M231.57 114.857l-70-19c3.144 14.572 10.287 28.572 21.573 39.857 31.143 31.143 81.57 31.143 112.57 0 31.144-31.143 31.144-81.57 0-112.57-6.57-6.573-13.856-11.715-21.856-15.573l-36 36c9.714-.427 19.43 3.144 26.857 10.573a35.955 35.955 0 0 1 0 51c-9 9-21.57 12.286-33.143 9.714"/></g></g></svg>