<svg width="480" height="240" viewBox="0 0 480 240" xmlns="http://www.w3.org/2000/svg"><title>cover-logo</title><path d="M0 138.655c0 2.096 1.165 2.562 2.873 2.562 1.475 0 2.794-.466 2.794-2.562V90.288c0-2.018-1.164-2.484-2.794-2.484C1.32 87.804 0 88.27 0 90.288v48.367zm50.152-27.483c0-9.16-3.726-12.577-15.76-12.577-3.57 0-7.996.466-11.878 1.398-2.018.466-2.717 1.32-2.717 4.114v34.625c0 2.02 1.242 2.485 2.872 2.485 1.552 0 2.64-.466 2.64-2.485v-31.675c0-1.863.154-2.56 1.474-3.183 1.32-.62 4.27-.854 7.53-.854 7.764 0 10.326 2.174 10.326 9.317v26.395c0 2.02 1.242 2.485 2.795 2.485s2.717-.466 2.717-2.485v-27.56zm20.962-5.745c0-1.32.31-1.63 1.475-1.63h5.045c1.708 0 2.02-.7 2.02-2.252 0-1.397-.312-2.173-2.02-2.173H72.59c-1.32 0-1.476-.39-1.476-1.553v-8.774c0-2.096-1.087-2.484-2.717-2.484-1.553 0-2.718.388-2.718 2.484v8.773c0 1.163-.156 1.552-1.476 1.552h-4.27c-1.708 0-2.096.776-2.096 2.173 0 1.553.388 2.252 2.096 2.252h4.348c1.242 0 1.397.543 1.397 1.708v24.998c0 6.52.698 10.87 8.23 10.87 1.862 0 3.57-.234 4.346-.544.7-.312 1.087-.933 1.087-1.942 0-.932-.31-1.63-1.863-1.63h-1.786c-3.65 0-4.58-1.786-4.58-6.056v-25.775zm21.194 8.618c0-7.298 3.727-11.102 11.18-11.102 6.676 0 9.394 3.416 9.394 10.17 0 3.882-.854 4.27-6.134 4.27H96.423c-3.416 0-4.115-.31-4.115-2.64v-.698zm16.925 6.987c7.53-.156 9.005-.932 9.005-7.84 0-9.162-4.425-14.597-14.595-14.597-9.47 0-16.847 4.27-16.847 18.71v5.047c0 14.207 5.668 19.33 18.477 19.33 4.658 0 8.307-.62 10.56-1.63.853-.466 1.086-1.164 1.086-2.096 0-1.397-.933-2.096-2.33-1.708-1.786.466-5.124 1.01-8.696 1.01-10.325 0-13.586-4.115-13.586-13.12 0-2.02.31-2.64 2.718-2.718l14.207-.388zm44.873 9.704c0 3.494-.233 3.727-5.745 3.727-11.644 0-14.284-1.63-14.284-14.673 0-13.897 2.64-16.77 11.257-16.77 8.152 0 8.773.39 8.773 5.047v22.67zm5.512-27.638c0-4.115-3.57-4.503-13.12-4.503-12.5 0-18.167 4.814-18.167 20.884 0 15.992 4.737 19.097 20.11 19.097 5.355 0 5.666.155 5.666 1.475v1.94c0 6.057-2.95 8.308-13.12 8.308-3.572 0-7.22-.776-9.55-.776-1.086 0-1.397.93-1.397 1.94 0 2.562 4.58 3.184 9.626 3.34h3.882c9.005-.312 16.07-2.33 16.07-14.286v-37.42zm13.74 35.634c0 2.02 1.244 2.485 2.874 2.485 1.553 0 2.64-.466 2.64-2.485v-31.675c0-3.493 1.708-4.037 7.996-4.037 1.94 0 3.26.233 4.58.233 1.165 0 1.708-.854 1.708-2.25 0-1.71-.698-2.408-4.735-2.408-3.338 0-8.462.466-12.343 1.475-1.94.466-2.718 1.243-2.718 4.037v34.625zm48.368-6.6c0 4.892-.776 5.514-7.92 5.514-8.073 0-10.246-1.165-10.246-7.764 0-7.686 2.872-8.462 10.636-8.462h2.173c4.657 0 5.356.7 5.356 3.804v6.91zm-9.782-14.206c-11.567 1.087-13.974 3.96-13.974 12.422 0 8.384 3.96 11.257 15.682 11.257 9.937 0 13.276-.7 13.276-4.89V112.57c0-10.403-2.795-13.975-14.44-13.975-5.047 0-11.413.777-11.413 3.494 0 1.474.7 2.173 1.63 2.173.233 0 .7-.078.932-.156 2.562-.776 5.823-.93 8.773-.93 8.307 0 9.316 3.337 9.316 8.77 0 4.66-.388 5.125-2.95 5.358l-6.832.62zm36.644-12.5c0-1.32.31-1.63 1.475-1.63h5.046c1.707 0 2.018-.698 2.018-2.25 0-1.398-.31-2.174-2.02-2.174h-5.045c-1.32 0-1.475-.39-1.475-1.553v-8.774c0-2.096-1.087-2.484-2.717-2.484-1.552 0-2.716.388-2.716 2.484v8.773c0 1.163-.156 1.552-1.476 1.552h-4.27c-1.707 0-2.096.776-2.096 2.173 0 1.553.39 2.252 2.097 2.252h4.346c1.242 0 1.398.543 1.398 1.708v24.998c0 6.52.698 10.87 8.23 10.87 1.862 0 3.57-.234 4.346-.544.7-.312 1.087-.933 1.087-1.942 0-.932-.31-1.63-1.863-1.63h-1.786c-3.648 0-4.58-1.786-4.58-6.056v-25.775zm17.856 33.306c0 2.02 1.165 2.485 2.795 2.485 1.552 0 2.716-.466 2.716-2.485v-37.187c0-2.096-1.164-2.484-2.795-2.484-1.55 0-2.716.39-2.716 2.485v37.187zm-.776-51.006c0 3.183 1.087 3.805 3.726 3.805 2.407 0 3.416-.62 3.416-4.036 0-2.718-.7-3.494-3.416-3.494-2.795 0-3.726.776-3.726 3.726zm46.89 32.296c0 15.14-2.328 17.235-10.79 17.235-8.23 0-11.102-2.096-11.102-17.235 0-14.13 1.708-17.002 11.102-17.002 8.152 0 10.79 2.562 10.79 17.002zm-27.714 1.165c0 16.303 6.52 20.496 16.846 20.496 10.792 0 16.614-4.193 16.614-22.515 0-14.44-4.347-20.573-16.536-20.573-12.19 0-16.924 5.745-16.924 22.592zm76.082-10.015c0-9.16-3.726-12.577-15.76-12.577-3.57 0-7.996.466-11.878 1.398-2.02.466-2.717 1.32-2.717 4.114v34.625c0 2.02 1.243 2.485 2.873 2.485 1.553 0 2.64-.466 2.64-2.485v-31.675c0-1.863.155-2.56 1.475-3.183 1.32-.62 4.27-.854 7.53-.854 7.764 0 10.326 2.174 10.326 9.317v26.395c0 2.02 1.242 2.485 2.795 2.485 1.552 0 2.716-.466 2.716-2.485v-27.56zm11.024-2.717c0 4.58 2.64 7.608 9.472 12.732 5.978 4.425 7.763 6.987 7.763 10.325 0 4.658-3.726 5.745-8.695 5.745-2.872 0-5.28-.465-7.53-.465-1.243 0-1.786 1.01-1.786 2.018 0 2.02 2.717 2.873 8.85 2.873 8.773 0 14.44-2.718 14.44-10.48 0-5.28-2.484-8.62-9.238-13.51-5.667-4.114-7.92-6.676-7.92-9.393 0-3.34 1.71-5.28 7.765-5.28 2.563 0 4.736.544 7.143.544 1.165 0 1.63-1.01 1.63-2.174 0-1.397-1.086-2.795-9.083-2.795-7.298 0-12.81 2.407-12.81 9.86zm33.228 28.337c0 3.338.932 4.114 3.96 4.114 2.794 0 3.726-.776 3.726-4.425 0-2.95-.7-3.958-3.726-3.958-3.028 0-3.96 1.01-3.96 4.27zm21.66 1.94c0 2.02 1.165 2.485 2.795 2.485 1.553 0 2.718-.466 2.718-2.485v-37.187c0-2.096-1.164-2.484-2.794-2.484-1.553 0-2.718.39-2.718 2.485v37.187zm-.776-51.006c0 3.183 1.087 3.805 3.727 3.805 2.405 0 3.415-.62 3.415-4.036 0-2.718-.7-3.494-3.416-3.494-2.796 0-3.728.776-3.728 3.726zm46.892 32.296c0 15.14-2.33 17.235-10.792 17.235-8.23 0-11.1-2.096-11.1-17.235 0-14.13 1.707-17.002 11.1-17.002 8.152 0 10.792 2.562 10.792 17.002zm-27.716 1.165c0 16.303 6.52 20.496 16.847 20.496 10.79 0 16.614-4.193 16.614-22.515 0-14.44-4.35-20.573-16.538-20.573s-16.924 5.745-16.924 22.592z" fill="#FFF" fill-rule="evenodd"/></svg>