<svg width="241" height="240" viewBox="0 0 241 240" xmlns="http://www.w3.org/2000/svg" xmlns:sketch="http://www.bohemiancoding.com/sketch/ns"><title>development</title><g sketch:type="MSLayerGroup" fill="none"><path d="M240.331 120c0 66.273-53.72 120-119.996 120-66.273 0-120-53.727-120-120s53.727-120 120-120c66.276 0 119.996 53.727 119.996 120z" id="Shape" fill="#fff" sketch:type="MSShapeGroup"/><g sketch:type="MSShapeGroup"><path d="M72.846 122.682l.029-56.162 50.433.043v-6.095l-53.691-.043c-1.54-.007-2.787 1.247-2.787 2.783l-.047 62.417c0 1.544 1.254 2.79 2.783 2.79l53.742.058v-5.755l-50.462-.036z" id="Shape" fill="#405E7C"/><path d="M171.502 60.518l-48.193-.051v6.095l45.294.036-.033 56.155-45.262-.036v5.755l48.143.043c1.547 0 2.791-1.261 2.787-2.805l.058-62.41c0-1.537-1.254-2.783-2.794-2.783z" id="Shape" fill="#274463"/><path d="M187.592 168.712l-12.611-37.695c-.486-1.464-2.142-2.645-3.678-2.645l-47.994-.051v7.197l41.148.036c.258 0 .525.203.62.442l.562 1.71c.083.246-.055.442-.315.442l-42.015-.043v2.073l42.703.036c.25 0 .533.188.62.435l.732 2.218c.083.246-.058.428-.315.428l-43.74-.029v2.066l44.428.043c.261-.007.54.196.609.442l.743 2.196c.087.254-.055.449-.315.449l-45.465-.036v2.066l46.16.043c.25 0 .533.196.613.435l.714 2.145c.094.246-.065.435-.322.449l-47.164-.051v2.464h7.95c.265.015.533.21.616.449l2.631 7.864c.076.232-.069.435-.326.435l-10.872-.014v6.595l62.374.051c1.551 0 2.399-1.189 1.91-2.645z" id="Shape" fill="#BFBFBF"/><path d="M112.346 164.704c-.258 0-.399-.196-.322-.449l2.66-7.842c.065-.254.348-.442.602-.442l8.023.007v-2.464l-51.176-.044c-.265 0-.395-.203-.33-.428l.721-2.153c.091-.239.363-.442.62-.442l50.165.043v-2.066l-49.466-.043c-.254 0-.402-.196-.322-.442l.746-2.218c.083-.225.355-.435.609-.435l48.433.043v-2.066l-47.741-.029c-.246 0-.391-.21-.308-.449l.739-2.211c.076-.246.355-.442.616-.442l46.693.043v-2.073l-45.997-.036c-.254 0-.402-.188-.319-.449l.583-1.689c.069-.239.348-.457.598-.457l45.135.043v-7.197l-53.883-.051c-1.54 0-3.193 1.189-3.682 2.631l-12.669 37.695c-.493 1.464.363 2.653 1.895 2.653l68.338.058v-6.595l-10.962-.007z" id="Shape" fill="#D9DAD9"/><path d="M72.875 66.519l-.029 56.162 50.462.036v-56.155l-50.433-.043z" id="Shape" fill="#D6728C"/><path d="M168.603 66.599l-45.294-.036v56.155l45.262.036.033-56.155z" id="Shape" fill="#CB4B67"/><path d="M73.143 150.448c-.257 0-.529.203-.62.442l-.721 2.153c-.065.225.065.428.33.428l51.176.044v-3.022l-50.165-.043zM74.876 145.287c-.253 0-.525.21-.609.435l-.746 2.218c-.08.246.069.442.322.442l49.466.043v-3.095l-48.433-.043z" id="Shape" fill="#405E7C"/><path d="M134.18 164.725c.257 0 .402-.203.326-.435l-2.631-7.864c-.083-.239-.352-.435-.616-.449h-7.95v8.733l10.872.014z" id="Shape" fill="#274463"/><path d="M114.684 156.412l-2.66 7.842c-.076.254.065.449.322.449l10.962.007v-8.733l-8.023-.007c-.254 0-.537.188-.602.442zM76.615 140.134c-.261 0-.54.196-.616.442l-.739 2.211c-.083.239.062.449.308.449l47.741.029v-3.088l-46.693-.043zM78.174 135.474c-.25 0-.529.217-.598.457l-.583 1.689c-.083.261.065.449.319.449l45.997.036v-2.587l-45.135-.043z" id="Shape" fill="#405E7C"/><path d="M169.089 148.012l-.743-2.196c-.069-.246-.348-.449-.609-.442l-44.428-.043v3.095l45.465.036c.261 0 .402-.196.315-.449zM170.082 150.969c-.08-.239-.363-.435-.613-.435l-46.16-.043v3.022l47.164.051c.258-.014.417-.203.322-.449l-.714-2.145zM165.639 137.706l-.562-1.71c-.094-.239-.362-.442-.62-.442l-41.148-.036v2.587l42.015.043c.261 0 .399-.196.315-.442zM167.363 142.866l-.732-2.218c-.087-.246-.37-.435-.62-.435l-42.703-.036v3.088l43.74.029c.257 0 .399-.181.315-.428z" fill="#274463"/></g></g></svg>