<svg width="480" height="240" viewBox="0 0 480 240" xmlns="http://www.w3.org/2000/svg" xmlns:sketch="http://www.bohemiancoding.com/sketch/ns"><title>cover-logo</title><desc>Created with Sketch.</desc><path d="M43.793 106.523l.141.029.056-.114c-.141-6.104-4.574-13.72-18.325-13.72-12.141 0-21.346 4.906-21.346 17.172 0 13.178 9.798 19.054 23.153 19.054 5.28 0 15.219-1.055 15.219-6.361 0-3.822-6.946-4.393-10.758-4.393-14.4 0-31.934 9.641-31.934 25.387 0 15.603 13.638 20.395 25.638 20.395 14.824 0 24.056-7.046 24.056-15.46 0-5.477-3.784-12.808-7.482-16.715l-.113-.029c-.028 0-.085.029-.085.086l-1.327 3.765c-.028.057-.085.086-.141.086l-5.704-1.483c-.056 0-.113 0-.141.057-.028.057-.028.114.028.143 1.327 1.398 6.551 7.217 6.551 14.12 0 8.9-7.454 13.663-15.671 13.663-10.673 0-17.675-6.76-17.675-18.627 0-24.645 26.372-25.387 26.372-21.023 0 7.73-23.379 5.22-23.379-13.093 0-8.843 7.2-13.891 14.654-13.891 6.579 0 12.141 4.079 12.367 9.47 0 .057.028.086.085.114l.141-.029 1.892-1.769c.056-.029.113-.057.169 0l3.558 3.166zm-23.915-16.116c-.056.029-.085.086-.056.143 0 .057.056.086.113.086 3.388.029 21.741-.456 22.052-13.235 0-.057-.028-.086-.085-.114l-.141.029c-2.767 2.91-3.642 3.537-3.868 3.651-.028.029-.085.029-.141 0l-3.247-2.396h-.113l-.056.114c-.282 7.046-11.774 9.27-13.751 9.613-.056 0-.085.057-.085.086l.056.114 1.214.856.056.114-.056.086-1.892.856zm116.216 55.566c-.621 3.623-2.654 13.093-3.586 16.316h-49.694v-2.824c9.176-.713 9.939-1.54 9.939-10.012v-40.733c0-9.27-.791-9.584-8.725-10.297v-3.138h46.052c.113 2.396.621 9.556.932 15.032l-3.049.542c-.932-4.222-2.033-6.618-3.473-8.786-1.44-2.168-4.179-2.795-11.238-2.795h-7.341c-3.275 0-3.614.171-3.614 3.252v23.219h9.318c9.092 0 9.685-.799 11.012-7.616h3.106v19.653h-3.106c-1.327-7.217-2.146-8.015-11.012-8.015h-9.318v19.254c0 4.935.678 7.217 2.513 8.443 1.948 1.227 5.534 1.227 10.334 1.227 7.341 0 10.419-.827 12.678-3.394 1.722-2.168 3.671-5.705 5.224-9.841l3.049.513zm-11.944-60.529l-19.398 6.504-1.214-2.567c5.506-3.708 11.322-7.616 16.32-10.925 1.327.314 4.179 4.421 4.489 6.076l-.198.913zm53.167 25.758c-1.722-6.504-4.687-13.72-13.468-13.72-7.454 0-11.012 5.477-11.012 11.125 0 7.217 4.687 10.725 12.847 14.947 8.471 4.336 17.76 9.27 17.76 20.623 0 11.039-9.289 19.796-23.068 19.796-4.094 0-7.454-.713-9.995-1.54-2.654-.827-4.179-1.654-5.308-2.168-.819-2.253-2.146-11.039-2.767-16.288l3.049-.827c1.722 6.39 6.522 17.001 16.941 17.001 7.454 0 11.831-4.735 11.831-12.066s-5.421-11.039-12.96-15.147c-7.341-3.908-17.054-9.071-17.054-20.424 0-10.212 8.075-18.655 21.431-18.655 4.998 0 9.6 1.341 13.073 2.368.395 3.708 1.016 7.844 1.835 14.433l-3.134.542zm66.551.542c-1.129-5.049-2.146-7.673-3.473-9.413-1.722-2.368-3.473-3.024-10.927-3.024h-6.833v50.26c0 8.244.791 9.27 10.334 9.898v2.824h-29.788v-2.824c9.148-.628 9.939-1.54 9.939-9.898v-50.26h-5.76c-8.471 0-10.419.856-11.831 3.138-1.214 1.74-2.259 4.507-3.36 9.328h-3.162c.508-6.418 1.016-13.235 1.214-18.855h2.146c1.525 2.396 2.767 2.396 5.619 2.396h40.518c2.767 0 3.671-.399 5.195-2.396h2.259c0 4.821.508 12.465 1.016 18.541l-3.106.285zm41.111 50.546v-2.824c6.353-.827 7.256-1.711 5.816-5.848-1.214-3.822-3.162-9.385-5.308-15.004h-21.431c-1.525 4.421-3.049 8.529-4.489 12.75-2.033 6.275-1.214 7.274 6.325 8.101v2.824h-22.221v-2.824c6.748-.913 7.991-1.654 11.464-10.611l21.148-53.911 3.586-1.027c6.325 17.742 13.158 37.11 19.708 54.938 3.275 8.957 4.489 9.898 11.238 10.611v2.824h-25.835zm-9.685-53.769h-.311c-3.162 8.415-6.325 16.858-9.289 25.273h18.268l-8.668-25.273zm41.082 53.769v-2.824c8.329-.628 9.148-1.227 9.148-10.012v-41.047c0-8.757-.791-9.385-9.148-10.012v-3.138h27.812v3.138c-8.329.628-9.148 1.227-9.148 10.012v41.047c0 8.757.791 9.385 9.148 10.012v2.824h-27.812zm105.233-63.867c-5.958.314-8.047 1.654-8.555 6.19-.311 3.195-.593 7.844-.593 17.314v41.56h-3.614l-43.285-53.769h-.395v25.501c0 9.385.424 14.319.706 17.314.508 5.163 2.852 6.504 9.995 6.903v2.824h-24.226v-2.824c5.562-.399 8.329-1.74 8.838-6.703.311-3.195.678-8.158.678-17.514v-22.477c0-7.331-.254-8.158-2.089-10.526-2.033-2.567-4.264-3.394-9.035-3.822v-3.138h15.671l41.958 50.546h.367v-23.904c0-9.499-.424-14.12-.706-17.115-.508-4.65-2.852-5.99-9.995-6.39v-3.138h24.226v3.166h.056zm58.391 47.55c-.621 3.623-2.654 13.093-3.586 16.316h-49.638v-2.824c9.148-.713 9.939-1.455 9.939-10.012v-40.733c0-9.27-.791-9.584-8.725-10.297v-3.138h45.995c.113 2.396.621 9.556.932 15.032l-3.049.542c-.932-4.222-2.033-6.618-3.473-8.786-1.44-2.168-4.179-2.795-11.238-2.795h-7.341c-3.275 0-3.558.171-3.558 3.252v23.219h9.261c9.092 0 9.685-.799 11.012-7.616h3.134v19.653h-3.134c-1.327-7.217-2.146-8.015-11.012-8.015h-9.261v19.254c0 4.935.649 7.217 2.485 8.443 1.948 1.227 5.534 1.227 10.334 1.227 7.341 0 10.419-.827 12.678-3.394 1.722-2.168 3.671-5.705 5.195-9.841l3.049.513zm-415.426-67.546h3.388v85.574h-3.388v-85.574z" sketch:type="MSShapeGroup" fill="#fff"/></svg>