<svg width="480" height="240" viewBox="0 0 480 240" xmlns="http://www.w3.org/2000/svg" xmlns:sketch="http://www.bohemiancoding.com/sketch/ns"><title>cover-logo</title><path d="M163.339 217.61l-7.012-18.868-2.316-6.372v25.24h-6.011v-41.61h5.885l6.511 19.056 2.128 6.435v-25.49h5.947v41.61h-5.133zm19.345.749c-6.01 0-9.955-4.061-9.955-9.871v-23.366c0-5.748 3.945-9.871 9.955-9.871s9.954 4.124 9.954 9.871v23.366c0 5.81-3.944 9.871-9.954 9.871zm3.256-33.737c0-1.999-1.189-3.374-3.256-3.374-2.066 0-3.256 1.375-3.256 3.374v24.366c0 1.999 1.189 3.374 3.256 3.374 2.066 0 3.256-1.375 3.256-3.374v-24.366zm22.038-2.562v35.549h-6.636v-35.549h-6.448v-6.06h19.407v6.06h-6.323zm28.736 0v35.549h-6.636v-35.549h-6.449v-6.06h19.409v6.06h-6.323zm18.406 36.299c-6.011 0-9.955-4.061-9.955-9.871v-23.366c0-5.748 3.944-9.871 9.955-9.871 6.01 0 9.955 4.124 9.955 9.871v23.366c0 5.81-3.945 9.871-9.955 9.871zm3.256-33.737c0-1.999-1.189-3.374-3.256-3.374-2.066 0-3.256 1.375-3.256 3.374v24.366c0 1.999 1.189 3.374 3.256 3.374 2.066 0 3.256-1.375 3.256-3.374v-24.366zm21.097 32.988h-10.142v-41.61h10.142c6.01 0 9.516 3.749 9.516 9.934v21.992c0 6.248-3.506 9.684-9.516 9.684zm2.88-31.738c0-2.624-1.002-3.936-3.319-3.936h-3.068v29.801h3.068c2.317 0 3.319-1.374 3.319-3.936v-21.929zm22.976 31.738l-1.065-8.122h-6.073l-1.252 8.122h-6.073l6.949-41.61h7.325l6.949 41.61h-6.761zm-3.882-30.676l-2.441 16.994h4.508l-2.066-16.994zm23.603 13.932v16.744h-6.636v-16.744l-7.512-24.866h6.761l4.445 17.431 4.32-17.431h6.573l-7.951 24.866zm-84.549-144.771l2.758 1.376 37.325 18.624v-34.658l-38.732-20.813c.118-.217.19-.462.19-.726v-3.864c9.763-4.18 19.528 6.634 29.292.787-2.057-.82-4.11-2.379-6.167-4.382 2.055-2.1 4.112-4.644 6.167-7.926-9.763 5.846-19.528-4.967-29.292-.787v-2.29c0-.85-.689-1.538-1.542-1.538-.852 0-1.542.689-1.542 1.538v18.462c0 .264.072.509.19.726l-38.732 20.813v34.658l37.325-18.624 2.758-1.376zm-9.25-14.658c0-5.098 4.141-9.231 9.25-9.231s9.25 4.133 9.25 9.231-4.141 9.231-9.25 9.231-9.25-4.133-9.25-9.231zm9.25 21.538l-61.667 30.769v67.692h49.333v-49.231h24.667v49.231h49.333v-67.692l-61.667-30.769zm-64.304 176.365c-.46.419-.96.558-2.279.558h-3.879c-1.32 0-1.819-.139-2.279-.558-.78-.698-1.26-1.715-1.26-6.424 0-4.709.48-5.726 1.26-6.425.46-.419.96-.558 2.279-.558h3.879c1.32 0 1.819.14 2.279.558.78.698 1.14 1.616 1.18 4.031h-2.239c-.06-1.756-.24-2.255-.46-2.454-.16-.14-.32-.22-1-.22h-3.399c-.68 0-.84.08-1 .22-.22.199-.5.818-.5 4.848s.28 4.648.5 4.848c.16.14.32.22 1 .22h3.399c.68.02.84-.08 1-.22.22-.2.4-.598.46-2.674h2.259c-.1 2.773-.42 3.551-1.2 4.25zm17.113-13.408c1.32 0 1.819.14 2.279.558.78.698 1.26 1.716 1.26 6.425s-.48 5.726-1.26 6.424c-.46.419-.96.558-2.279.558h-3.999c-1.32 0-1.819-.139-2.279-.558-.779-.698-1.26-1.715-1.26-6.424 0-4.709.48-5.726 1.26-6.425.46-.419.96-.558 2.279-.558h3.999zm-4.759 11.831c.16.14.32.22 1 .22h3.519c.68.02.84-.08 1-.22.22-.2.5-.818.5-4.848s-.28-4.649-.5-4.848c-.16-.14-.32-.22-1-.22h-3.519c-.68 0-.84.08-1 .22-.22.199-.5.818-.5 4.848s.28 4.649.5 4.848zm24.69-1.795h-5.338l-1.219 3.93h-2.219l4.438-13.487c.14-.459.26-.539.8-.539h1.939c.5 0 .64.08.8.539l4.438 13.487h-2.419l-1.219-3.93zm-4.758-1.875h4.158l-1.919-6.265h-.3l-1.939 6.265zm18.632 3.89h6.777v1.915h-9.017v-13.966h2.239v12.051zm15.114 1.915v-13.966h2.239v13.966h-2.239zm17.113-12.051v12.051h-2.239v-12.051h-4.399v-1.915h11.036v1.915h-4.398zm12.635 12.051v-13.966h2.239v13.966h-2.239zm18.872-13.966c1.32 0 1.819.14 2.28.558.779.698 1.26 1.716 1.26 6.425s-.48 5.726-1.26 6.424c-.46.419-.96.558-2.28.558h-3.998c-1.32 0-1.819-.139-2.28-.558-.78-.698-1.259-1.715-1.259-6.424 0-4.709.479-5.726 1.259-6.425.46-.419.96-.558 2.28-.558h3.998zm-4.759 11.831c.16.14.32.22 1 .22h3.518c.68.02.84-.08 1-.22.22-.2.5-.818.5-4.848s-.28-4.649-.5-4.848c-.16-.14-.32-.22-1-.22h-3.518c-.68 0-.84.08-1 .22-.22.199-.5.818-.5 4.848s.28 4.649.5 4.848zm28.409 2.135h-2.279c-.58 0-.8-.119-1.04-.658l-5.338-10.275h-.299v10.934h-2.179v-13.966h2.479c.58 0 .78.12 1.02.658l5.158 9.796h.3v-10.455h2.179v13.966zm-67.788-79.587l-.027-.068c-.041-.24-.513-.46-.513-.46v-.204c0-.054-.252-.218-.32-.238-.068-.02-.457.075-.457.075l-.375-.177c-.007-.15-.266-.286-.266-.286l.027-.231c.184.034.136-.116.136-.116s.014-.163-.184-.299c-.198-.136-.722-.258-.722-.258l-.048-.044c.119-.017-.031-.231-.031-.231.119-.065.01-.343.01-.343.075-.054.102-.313.041-.503-.061-.19-.088-.606-.088-.606.063-.034.001-.354.001-.354l-.082-.109s.018-2.293.041-2.789c.042-.925-.136-1.837-.157-2.041l-.102-.939c-.007-.095-.007-.367.014-.497.02-.129-.034-.435-.041-.537v-.612l-.006-.023.443-.079c.245-.048.232-.17.232-.17.184.014 1.05-.435 1.261-.571.211-.136.191-.32.191-.32-.02-.272-1.077-3.775-1.077-3.775l.075.034.041.197c.007.054.314-.02.395-.014.082.007.375-.184.402-.231l.286-.122c.061-.048.13-.258.171-.347.041-.088.061-.429.068-.483l.157-.483c.014-.068-.102-.442-.164-.578-.061-.136-.191-1.197-.198-1.34-.007-.143-.102-.762-.171-1-.068-.238-.314-1.598-.416-2.095-.102-.497-.511-2.129-.607-2.367-.096-.238-.129-1.15-.143-1.245-.014-.095 0-1.388 0-1.388s.395-.306.702-.476c.307-.17.307-.469.307-.469s-.259-.598-.395-.816c-.136-.218-.614-1.197-.722-1.333-.109-.136-.423-.231-.545-.286-.123-.054-.804-.299-1.009-.34l-.5-.104-.073-.059-.191-.168c-.045-.027-.245-.254-.259-.277-.014-.023-.273-.24-.377-.29l-.154-.109-.023-.001c.04-.116.091-.431.091-.431.113-.017.436-.541.436-.541l.116-.038c.15.014.293-.177.361-.282.068-.105.102-.497.109-.537l.075-.221c.027-.085.024-.153.017-.343-.007-.19-.119-.245-.13-.269l.027-.078c.3-.486.191-1.224.15-1.367-.041-.143-.448-.99-.512-1.047-.065-.058-.283-.283-.327-.345-.044-.061-.265-.193-.357-.308-.092-.116-.47-.293-.511-.306l-.273-.044-.358-.044h-.225c-.092.01-.153.051-.201.082-.048.03-.133-.01-.262-.041-.129-.03-.297-.01-.388 0l-.266.109-.283.15c-.085.02-.153.16-.249.245l-.317.272-.045.113-.05.094c-.017.119-.085.343-.167.415-.082.071-.136.224-.184.357-.048.133-.075.412-.096.5-.02.088-.034.303-.024.35l-.051.279c-.02.082.01.228.024.354.014.126.171.411.235.429l.01.054c-.16.15-.085.558-.051.646.034.088.123.248.133.398.01.15.16.384.252.48.092.095.347.048.347.048.061.204.382.497.409.544l.038.2-.286.1c-.059.023-.223.363-.3.458-.077.095-.336.481-.336.481l-.023.091s-.309.145-.463.172c-.154.027-.691.091-1.045.163-.355.073-.573.608-.573.608-.146.036-.364.435-.427.581-.064.145-.482 1.043-.509 1.152l-.254.598c-.008.058.314.295.372.338-.067.521-.328 2.509-.441 2.786-.13.32-.266 1.231-.266 1.714 0 .483.341 2.598.368 2.728.027.129.02.422 0 .551-.02.129.068.401.088.462.02.061-.027.361-.082.626-.055.265-.088 1.007-.088 1.007-.082.286-.068.524-.048.68.02.156.416.742.416.742.048.068.218-.054.218-.054.02.136.434.356.434.356s-.173 2.077-.218 2.331c-.045.254-.154 2.222-.154 2.222.082.1.827.154.827.154-.011.199.059.25.059.25.198-.041.975.014 1.138.02l.657.107v.004l-.018 1.451c0 .19-.219 2.004-.236 2.422-.034.812.372 2.808.372 2.808-.153.03-.085.303-.072.405l.055.245c-.014.054.061.17.102.225.041.054.02.258-.007.32-.027.061.027.252.027.252s-.184.34-.198.429c-.014.088.034.225.088.245.055.02.116.109.102.156-.014.048.096.19.109.211l-.041.109.034.122-.075.048-.204.721-.109.279c-.088.082-.171.646-.171.646-.082.088-.109.388-.129.469l-.048.197s-.088.109-.123.224c-.034.116.027.408.041.462.014.054.819.361 1.446.374.627.014 1.423-.129 1.459-.19.036-.061.046-.382.032-.47-.014-.088-.129-.075-.129-.075.034-.068-.118-.404-.118-.404.027-.036-.091-.454-.091-.454.227-.145.182-.617.154-.68-.027-.063 0-.308 0-.308.082-.045-.118-.617-.118-.617l-.086-.331.082-.227-.027-.313c.009-.054.177-.245.177-.34 0-.095-.436-.462-.459-.517-.023-.054.023-.177.036-.231.014-.054-.091-.25-.091-.25l.005-.25.109-.431c.009-.104-.109-.141-.109-.141s.202-1.977.173-2.385c-.023-.317-.036-1.46-.009-1.696.027-.236.345-1.188.45-1.666.095-.435.055-.787.051-.824l.302-.003.438.019-.002.009.034.721c.014.19.416 1.184.448 1.34.032.156.023 1.36.002 1.544-.02.184.109 1.02.164 1.19.055.17.177.871.198 1.102.02.231.211 1.34.211 1.34-.113 0-.091.322-.109.467-.018.145.182.345.182.345-.036.163.023.394.023.394-.1.018-.177.186-.2.24-.023.054-.009.472-.009.472.236.19.177.295.177.295-.086-.005-.1.109-.123.182l-.068.299c-.055.131-.118.218-.15.263-.032.045-.141.798-.141.798-.164.009-.195.236-.195.286 0 .05-.041.535-.05.576-.009.041.073.131.141.177.068.045 1.463.318 1.704.336.241.018 1.736.388 2.136.394.4.007 1.059-.018 1.122-.032.064-.014.123-.154.123-.154.077-.018.109-.245.109-.245.055-.086-.027-.308-.027-.308.134-.086.025-.312-.002-.371zm-10.02-23.368c-.302 1.068-.528 1.976-.698 2.744-.109-.283-.216-.604-.238-.72-.041-.211.007-1.592.041-1.871.034-.279.096-1.306.109-1.503.014-.197.15-.721.191-.918.041-.197.375-1.568.375-1.568l.019-.19-.019.19-.088.371.064.145c-.173.435.164.952.309 1.378.145.426-.064 1.941-.064 1.941zm7.944 2.376c.064.127.309.771.236.962-.073.19-.236.598-.232.88.005.281.045.558.055.639.009.082-.009.658-.032.798-.023.141-.073.499.136.503.209.005.3-.209.314-.394.014-.186.118-.676.082-.712 0 0 .113.059.141.027 0 0-.036.39.077.53 0 0-.059.258-.041.345 0 0-.25.095-.25.281 0 0-.036.131-.086.113-.05-.018-.236-.15-.434-.082 0 0-.425-2.934-.466-3.188-.041-.254-.254-1.619-.345-2.734 0 0 .782 1.905.845 2.032z" sketch:type="MSShapeGroup" fill="#fff"/></svg>