<svg width="480" height="240" viewBox="0 0 480 240" xmlns="http://www.w3.org/2000/svg" xmlns:sketch="http://www.bohemiancoding.com/sketch/ns"><title>cover-logo</title><path d="M245.074.761c-16.991-3.392-32.963 4.876-35.68 18.47-2.058 10.313 4.107 20.726 14.622 26.635l-3.89 12.812s6.125 4.793 17.724 5.832l.022 4.345c-1.143.369-1.974 1.446-1.97 2.714l.007.709c.007 1.27.842 2.338 1.996 2.698l.007 1.896c-1.147.368-1.974 1.446-1.967 2.716v.709c.007 1.268.846 2.338 1.996 2.696l.018 3.507-20.039-1.303.047 9.065 2.699-.014-.022-4.276 2.797-.013.007 1.372 6.055-.51c.156-.278.479-.354 1.056-.091 2.649 1.21 2.068 3.46 2.068 3.46l1.894-.009 1.557-3.556 1.897-.009.04 7.706.007 1.832-1.897.009-1.593-3.537-1.894.007s.606 2.242-2.032 3.478c-.573.272-.9.201-1.056-.078l-6.059-.451.003 1.375-2.797.013-.022-4.276-2.7.013.044 9.065 20.025-1.502.025 4.715c.007 2.039 1.669 3.686 3.712 3.676 2.039-.009 3.686-1.673 3.676-3.712l-.127-25.993c1.147-.369 1.974-1.444 1.967-2.714l-.004-.711c-.004-1.266-.842-2.337-1.992-2.696l-.011-1.896c1.147-.368 1.974-1.446 1.97-2.716l-.003-.707c-.007-1.27-.846-2.34-1.996-2.698l-.022-4.211c9.441-.619 14.691-3.946 14.691-3.946l-2.573-13.007c7.017-3.276 12.137-8.964 13.57-16.137 2.714-13.591-8.86-27.361-25.855-30.755zm-14.172 33.619c-4.053.622-8.095-3.806-9.027-9.891-.933-6.083 1.6-11.516 5.657-12.137 4.053-.62 8.095 3.806 9.027 9.889.933 6.083-1.6 11.518-5.657 12.138zm17.673 16.514c-.101.174-.29.279-.493.279l-12.579-.047h-.011c-.207-.006-.392-.12-.49-.299-.101-.183-.094-.408.022-.584l6.781-10.58c.105-.169.294-.269.497-.263h.003c.203.007.388.121.486.298l5.794 10.629c.101.178.094.394-.011.568zm9.245-26.557c-.123 5.413-3.149 9.736-6.756 9.657-3.61-.085-6.437-4.537-6.313-9.95.12-5.413 3.145-9.736 6.752-9.655 3.614.083 6.437 4.535 6.317 9.949zm-151.411 107.332h16.929c12.786 0 23.323 10.049 23.323 22.958 0 12.909-10.595 22.956-23.323 22.956h-16.929v-45.914zm11.937 35.806h2.678c7.126 0 13.214-3.897 13.214-12.848 0-8.222-5.42-12.85-13.091-12.85h-2.801v25.697zm43.111 2.132l-3.167 7.977h-12.663l17.659-45.914h13.029l17.296 45.914h-12.728l-2.982-7.977h-16.443zm8.341-23.749h-.12l-4.934 14.615h9.927l-4.873-14.615zm27.524-14.188h11.937l21.86 28.074h.123v-28.074h11.933v45.914h-11.933l-21.864-28.132h-.12v28.132h-11.937v-45.914zm99.44 20.278c-.123 6.698-.61 12.422-4.688 18.145-4.506 6.273-11.266 9.013-18.94 9.013-14.43 0-24.476-9.804-24.476-24.235 0-14.919 10.105-24.723 24.904-24.723 9.437 0 16.745 4.263 20.703 12.848l-11.327 4.751c-1.644-4.384-5.112-7.307-9.923-7.307-7.855 0-11.937 7.491-11.937 14.493 0 7.124 4.263 14.37 12.118 14.37 5.178 0 9.132-2.68 9.622-7.977h-9.745v-9.377h23.689zm17.416-10.17v7.674h13.457v10.108h-13.457v7.915h14.186v10.108h-26.123v-45.914h26.123v10.108h-14.186zm59.736 35.806h-14.858l-11.266-17.659h-.124v17.659h-11.933v-45.914h17.84c9.074 0 15.957 4.323 15.957 14.128 0 6.333-3.534 11.812-10.05 12.969l14.433 18.816zm-26.247-25.331h1.161c3.897 0 8.28-.731 8.28-5.723 0-4.994-4.383-5.725-8.28-5.725h-1.161v11.449zm-185.296 58.032v-17.72h11.933v45.912h-11.933v-18.814h-17.234v18.814h-11.937v-45.912h11.937v17.72h17.234zm68.2 4.383c0 14.86-10.656 25.333-25.394 25.333-14.734 0-25.391-10.473-25.391-25.333 0-13.882 12.176-23.627 25.391-23.627 13.214 0 25.394 9.745 25.394 23.627zm-38.365.062c0 7.915 5.845 13.7 12.971 13.7s12.971-5.785 12.971-13.7c0-6.333-5.845-12.118-12.971-12.118s-12.971 5.785-12.971 12.118zm83.729-22.165v25.819c0 5.907-.243 11.752-4.811 16.197-3.835 3.777-9.865 5.116-15.224 5.116-5.355 0-11.385-1.339-15.224-5.116-4.564-4.445-4.808-10.29-4.808-16.197v-25.819h11.933v24.174c0 5.968.428 12.485 8.098 12.485 7.674 0 8.098-6.516 8.098-12.485v-24.174h11.937zm32.763 11.814c-2.195-1.829-4.996-3.046-7.917-3.046-2.195 0-5.116 1.279-5.116 3.837 0 2.678 3.225 3.715 5.297 4.385l3.044.912c6.393 1.889 11.327 5.116 11.327 12.544 0 4.566-1.096 9.256-4.749 12.362-3.592 3.044-8.403 4.323-13.033 4.323-5.784 0-11.447-1.948-16.139-5.238l5.116-9.621c2.986 2.618 6.516 4.75 10.598 4.75 2.801 0 5.783-1.401 5.783-4.628 0-3.349-4.688-4.506-7.245-5.238-7.489-2.13-12.423-4.08-12.423-12.969 0-9.317 6.636-15.408 15.834-15.408 4.626 0 10.29 1.462 14.368 3.777l-4.746 9.256zm24.233-1.705v7.672h13.457v10.108h-13.457v7.915h14.19v10.108h-26.124v-45.912h26.124v10.108h-14.19z" sketch:type="MSShapeGroup" fill="#fff"/></svg>