<svg width="480" height="240" viewBox="0 0 480 240" xmlns="http://www.w3.org/2000/svg" xmlns:sketch="http://www.bohemiancoding.com/sketch/ns"><title>cover-logo</title><path d="M70.628 133.64v-10.555h-20.711v10.071c0 7.47-4.369 12.347-12.943 12.347-8.581 0-12.951-5.044-12.951-11.863v-50.498c0-6.982 4.37-12.018 12.951-12.018 8.574 0 12.943 4.873 12.943 12.344v10.067h20.711v-10.555c0-18.025-11.489-31.502-33.985-31.502-22.812 0-36.079 14.773-36.079 33.448v46.779c0 18.659 13.267 33.456 36.079 33.456 22.496 0 33.985-13.481 33.985-31.521zm30.437 7.319h22.338l4.527 21.435h23.136l-25.08-108.157h-25.886l-25.246 108.157h21.682l4.527-21.435zm11.656-56.679l7.601 39.463h-15.859l8.258-39.463zm67.986 17.053l9.214 17.7 23.792 43.361h17.794v-108.157h-20.868v62.036l-8.739-17.704-23.135-44.333h-19.265v108.157h21.208v-61.061zm135.458 21.753h-20.718v10.071c0 7.47-4.37 12.347-12.951 12.347-8.574 0-12.943-5.044-12.943-11.863v-50.498c0-6.982 4.369-12.018 12.943-12.018 8.581 0 12.951 4.873 12.951 12.344v10.067h20.718v-10.555c0-18.025-11.497-31.502-33.985-31.502-22.82 0-36.086 14.773-36.086 33.448v46.779c0 18.659 13.267 33.456 36.086 33.456 22.488 0 33.985-13.481 33.985-31.521v-10.555zm54.403 38.713l.593.595h2.378c5.555 0 10.122-1.586 13.678-4.774 3.476-3.085 5.318-7.764 5.507-14.036v-23.885c-.189-6.368-2.078-11.106-5.649-14.191-3.563-3.184-8.179-4.778-13.828-4.778v-.741l19.477-18.663v-.896h-23.341l-19.644 20.903v16.122l.6.603h19.628l.6.595v43.146zm-23.357.595h17.993l.6-.595v-19.119l-.6-.578h-14.864l-.6-.611v-11.935l-.592-.603h-20.971l-.608.603v14.029c.506 12.236 7.048 18.5 19.643 18.81zm44.771-86.595l.743-.598v-19.107l-.743-.745h-63.806l-.608.745v19.107l.608.598h63.806zm82.675 69.387v-17.707c0-7.47-4.686-15.59-14.397-17.862 9.711-2.601 13.915-9.263 13.915-18.029v-11.697c0-15.586-10.517-25.654-27.995-25.654h-38.837v108.157h23.144v-44.178h12.461c6.629 0 9.544 4.869 9.544 10.562v17.7c0 10.063 3.564 16.566 12.944 16.566h13.749v-6.82c-2.908-2.601-4.528-6.019-4.528-11.039zm-22.812-52.619c0 6.486-3.24 9.575-9.23 9.575h-12.129v-29.718h13.101c5.989 0 8.257 3.41 8.257 8.767v11.376zm-435.291 85.592h1.335v-2.593h4.5v13.671h-2.26v1.221h5.907v-1.221h-2.26v-13.671h4.504v2.593h1.336v-3.759h-13.062v3.759zm23.516 5.218c2.141-.635 3.618-2.173 3.618-4.417 0-2.704-2.134-4.56-5.618-4.56h-6.005v1.221h2.141v13.615h-2.141v1.221h5.666v-1.221h-2.142v-5.566c.537.024 1.414.048 2.094.048.316 0 .633-.024.925-.048l4.259 6.788h2.915v-1.221h-1.968l-3.745-5.86zm-2.339-.873c-.727 0-1.557-.032-2.142-.055v-6.828h2.41c2.6 0 4.306 1.19 4.306 3.362 0 2.324-1.967 3.521-4.575 3.521zm9.308-6.883h2.141v13.615h-2.141v1.221h11.481v-3.64h-1.335v2.418h-6.622v-6.367h5.428v-1.221h-5.428v-6.027h6.622v2.411h1.335v-3.632h-11.481v1.221zm22.931 0h1.849v-1.221h-6.519v1.221h1.849l-5.128 13.615h-1.604v1.221h4.986v-1.221h-1.952l1.683-4.535h6.788l1.675 4.535h-1.872v1.221h4.986v-1.221h-1.605l-5.136-13.615zm-4.402 7.882l2.971-8.009 2.94 8.009h-5.911zm11.11-5.345h1.335v-2.593h4.504v13.671h-2.267v1.221h5.91v-1.221h-2.26v-13.671h4.504v2.593h1.335v-3.759h-13.061v3.759zm31.014-2.538h2.212v-1.221h-3.651l-5.397 11.784-5.381-11.784h-3.698v1.221h2.22l-.608 13.615h-2.165v1.221h5.571v-1.221h-2.094l.434-12.545 5.428 11.689h.529l5.428-11.689.435 12.545h-2.094v1.221h5.594v-1.221h-2.157l-.608-13.615zm5.278 0h2.142v13.615h-2.142v1.221h11.482v-3.64h-1.336v2.418h-6.621v-6.367h5.428v-1.221h-5.428v-6.027h6.621v2.411h1.336v-3.632h-11.482v1.221zm25.467 0h2.134v11.982l-9.846-13.204h-3.359v1.221h2.142v13.615h-2.142v1.221h5.594v-1.221h-2.141v-12.474l10.288 13.766h.782v-14.908h2.062v-1.221h-5.515v1.221zm7.649 2.538h1.335v-2.593h4.504v13.671h-2.268v1.221h5.911v-1.221h-2.26v-13.671h4.504v2.593h1.335v-3.759h-13.061v3.759zm23.038 3.632c-1.154 0-2.007.951-2.007 2.125 0 1.173.854 2.102 2.007 2.102 1.169 0 2.023-.928 2.023-2.102s-.854-2.125-2.023-2.125zm18.837-6.17h1.849v-1.221h-6.526v1.221h1.849l-5.12 13.615h-1.613v1.221h4.994v-1.221h-1.96l1.691-4.535h6.78l1.676 4.535h-1.865v1.221h4.978v-1.221h-1.596l-5.136-13.615zm-4.409 7.882l2.971-8.009 2.939 8.009h-5.91zm33.582-9.104h-5.294v1.221h2.038l-3.651 12.497-4.061-11.649h-.774l-4.046 11.673-3.698-12.521h1.975v-1.221h-5.326v1.221h1.928l4.614 15.131h.821l4.11-11.594 4.061 11.594h.837l4.551-15.131h1.913v-1.221zm9.055 1.221h1.849v-1.221h-6.526v1.221h1.849l-5.12 13.615h-1.612v1.221h4.993v-1.221h-1.959l1.69-4.535h6.78l1.676 4.535h-1.865v1.221h4.978v-1.221h-1.596l-5.136-13.615zm-4.409 7.882l2.971-8.009 2.939 8.009h-5.91zm20.86-.127c2.149-.635 3.619-2.173 3.619-4.417 0-2.704-2.134-4.56-5.61-4.56h-6.005v1.221h2.134v13.615h-2.134v1.221h5.657v-1.221h-2.133v-5.566c.537.024 1.406.048 2.086.048.316 0 .632-.024.932-.048l4.251 6.788h2.923v-1.221h-1.975l-3.746-5.86zm-2.339-.873c-.727 0-1.549-.032-2.133-.055v-6.828h2.401c2.608 0 4.314 1.19 4.314 3.362 0 2.324-1.975 3.521-4.583 3.521zm9.308-6.883h2.15v13.615h-2.15v1.221h11.489v-3.64h-1.343v2.418h-6.621v-6.367h5.436v-1.221h-5.436v-6.027h6.621v2.411h1.343v-3.632h-11.489v1.221zm25.475 0h2.133v11.982l-9.845-13.204h-3.366v1.221h2.149v13.615h-2.149v1.221h5.594v-1.221h-2.133v-12.474l10.287 13.766h.774v-14.908h2.071v-1.221h-5.515v1.221zm7.696 0h2.134v13.615h-2.134v1.221h11.474v-3.64h-1.328v2.418h-6.621v-6.367h5.42v-1.221h-5.42v-6.027h6.621v2.411h1.328v-3.632h-11.474v1.221zm20.007 6.027c-2.181-.88-3.762-1.665-3.762-3.513 0-1.618 1.281-2.784 3.351-2.784.996 0 2.386.388 2.829.952-.221.238-.443.611-.443.999 0 .611.459 1.071 1.091 1.071.585 0 1.106-.437 1.106-1.221 0-1.562-2.054-3.045-4.535-3.045-2.893 0-4.757 1.704-4.757 4.123 0 2.68 2.054 3.711 4.741 4.758 1.897.762 3.493 1.562 3.493 3.371 0 1.879-1.376 3.124-3.667 3.124-1.659 0-2.971-.539-3.508-1.15.269-.293.49-.658.49-1.118 0-.563-.443-1.007-1.043-1.007-.617 0-1.122.539-1.122 1.372 0 1.388 2.023 3.148 5.136 3.148 2.892 0 5.089-1.736 5.089-4.465 0-2.616-1.96-3.616-4.488-4.615zm13.275 0c-2.181-.88-3.761-1.665-3.761-3.513 0-1.618 1.28-2.784 3.35-2.784.996 0 2.387.388 2.829.952-.221.238-.442.611-.442.999 0 .611.458 1.071 1.09 1.071.585 0 1.106-.437 1.106-1.221 0-1.562-2.054-3.045-4.535-3.045-2.892 0-4.757 1.704-4.757 4.123 0 2.68 2.054 3.711 4.741 4.758 1.897.762 3.493 1.562 3.493 3.371 0 1.879-1.375 3.124-3.666 3.124-1.66 0-2.971-.539-3.508-1.15.269-.293.49-.658.49-1.118 0-.563-.443-1.007-1.043-1.007-.617 0-1.122.539-1.122 1.372 0 1.388 2.023 3.148 5.136 3.148 2.892 0 5.089-1.736 5.089-4.465 0-2.616-1.96-3.616-4.488-4.615zm14.823.143c-1.153 0-2.007.951-2.007 2.125 0 1.173.854 2.102 2.007 2.102 1.17 0 2.023-.928 2.023-2.102s-.853-2.125-2.023-2.125zm18.064 1.586c2.133-.635 3.618-2.173 3.618-4.417 0-2.704-2.133-4.56-5.626-4.56h-6.005v1.221h2.15v13.615h-2.15v1.221h5.674v-1.221h-2.149v-5.566c.537.024 1.422.048 2.101.048.316 0 .633-.024.917-.048l4.267 6.788h2.907v-1.221h-1.959l-3.745-5.86zm-2.339-.873c-.727 0-1.565-.032-2.149-.055v-6.828h2.418c2.592 0 4.299 1.19 4.299 3.362 0 2.324-1.96 3.521-4.568 3.521zm9.308-6.883h2.134v13.615h-2.134v1.221h11.474v-3.64h-1.328v2.418h-6.622v-6.367h5.421v-1.221h-5.421v-6.027h6.622v2.411h1.328v-3.632h-11.474v1.221zm20.007 6.027c-2.181-.88-3.762-1.665-3.762-3.513 0-1.618 1.28-2.784 3.351-2.784.995 0 2.386.388 2.829.952-.222.238-.443.611-.443.999 0 .611.458 1.071 1.091 1.071.584 0 1.106-.437 1.106-1.221 0-1.562-2.054-3.045-4.536-3.045-2.892 0-4.757 1.704-4.757 4.123 0 2.68 2.054 3.711 4.741 4.758 1.897.762 3.492 1.562 3.492 3.371 0 1.879-1.375 3.124-3.666 3.124-1.66 0-2.971-.539-3.508-1.15.269-.293.49-.658.49-1.118 0-.563-.442-1.007-1.043-1.007-.616 0-1.121.539-1.121 1.372 0 1.388 2.023 3.148 5.136 3.148 2.893 0 5.089-1.736 5.089-4.465 0-2.616-1.959-3.616-4.487-4.615zm7.301-6.027h2.134v13.615h-2.134v1.221h11.474v-3.64h-1.328v2.418h-6.622v-6.367h5.421v-1.221h-5.421v-6.027h6.622v2.411h1.328v-3.632h-11.474v1.221zm22.931 0h1.849v-1.221h-6.526v1.221h1.849l-5.12 13.615h-1.613v1.221h4.994v-1.221h-1.96l1.691-4.535h6.78l1.675 4.535h-1.864v1.221h4.978v-1.221h-1.596l-5.136-13.615zm-4.409 7.882l2.97-8.009 2.94 8.009h-5.91zm20.86-.127c2.149-.635 3.619-2.173 3.619-4.417 0-2.704-2.134-4.56-5.611-4.56h-6.005v1.221h2.134v13.615h-2.134v1.221h5.657v-1.221h-2.133v-5.566c.537.024 1.406.048 2.086.048.316 0 .632-.024.932-.048l4.251 6.788h2.923v-1.221h-1.975l-3.745-5.86zm-2.339-.873c-.727 0-1.549-.032-2.133-.055v-6.828h2.401c2.608 0 4.314 1.19 4.314 3.362 0 2.324-1.975 3.521-4.583 3.521zm17.605 7.002c-3.935 0-6.685-3.441-6.685-6.978 0-3.735 2.702-7.177 6.59-7.177 2.307 0 3.888 1.165 4.33 1.998-.41.095-.806.516-.806 1.047 0 .611.49 1.102 1.091 1.102.743 0 1.264-.611 1.264-1.395 0-1.928-2.67-3.997-5.878-3.997-4.157 0-7.997 3.418-7.997 8.445 0 4.123 3.16 8.2 8.091 8.2 2.039 0 4.235-.73 5.863-2.292l-.758-1.007c-1.533 1.372-3.161 2.054-5.105 2.054zm19.675-13.885h2.134v5.955h-9.529v-5.955h2.134v-1.221h-5.658v1.221h2.134v13.615h-2.134v1.221h5.658v-1.221h-2.134v-6.415h9.529v6.415h-2.134v1.221h5.658v-1.221h-2.134v-13.615h2.134v-1.221h-5.658v1.221z" sketch:type="MSShapeGroup" fill="#fff"/></svg>