<svg width="480" height="240" viewBox="0 0 480 240" xmlns="http://www.w3.org/2000/svg" xmlns:sketch="http://www.bohemiancoding.com/sketch/ns"><title>cover-logo</title><desc>Created with Sketch.</desc><path d="M114.658 123.805h16.417c.521 4.691 2.345 7.818 5.472 9.902 3.127 2.085 7.296 3.388 12.769 3.388 4.691 0 8.339-.782 10.945-2.606 2.606-1.824 3.648-4.169 3.648-7.557 0-4.951-7.036-9.121-20.847-11.987l-.521-.261-1.824-.521c-7.818-1.824-13.29-3.388-15.896-5.472-3.127-1.824-5.212-4.169-6.515-7.557-1.564-2.866-2.345-6.254-2.345-10.684 0-7.557 2.606-13.55 7.818-17.98 5.212-4.169 13.029-6.254 23.192-6.254 9.381 0 16.678 2.085 21.889 6.515 5.212 4.691 8.078 11.205 8.339 18.762h-9.381c-3.648 0-6.254-1.564-7.557-4.951-.782-1.564-1.824-2.866-3.127-3.909-2.866-2.085-6.515-3.127-11.466-3.127-4.691 0-8.078.782-9.902 2.606-2.345 1.824-3.388 4.169-3.388 7.296 0 4.169 4.43 7.296 13.55 9.381 2.606.782 4.691 1.303 5.733 1.303 2.866 1.042 5.212 1.564 7.296 2.085 2.085.521 3.648 1.042 4.951 1.303l6.515 2.866c3.127 1.824 5.472 4.169 7.296 7.296 1.824 3.388 2.606 6.775 2.606 10.684 0 8.339-2.866 14.853-8.339 19.544-5.472 4.43-13.55 6.515-23.713 6.515-10.684 0-18.502-2.345-23.713-6.775-6.254-4.43-9.381-10.945-9.902-19.805zm94.593 24.756c-5.212.261-10.684.261-16.678-.261-5.993-.521-8.86-4.169-8.86-11.466v-68.274h8.339c2.085 0 3.909.782 5.472 2.345 1.564 1.564 2.345 3.388 2.345 5.472v10.423h9.642v3.388c0 2.345-.782 4.169-2.345 5.733-1.564 1.564-3.388 2.345-5.472 2.345h-1.564v34.397c0 2.606 1.564 3.909 4.691 3.909h4.951v11.987h-.521zm43.779-2.345c-3.388 1.824-6.775 2.866-10.423 3.127-3.648.261-6.775.521-9.642.521-5.472 0-10.423-1.564-14.593-4.43-4.169-3.127-6.254-8.078-6.254-15.114 0-6.515 1.824-11.205 5.733-14.072 3.909-2.866 8.599-4.691 14.593-5.472.782 0 1.824 0 2.866-.261s2.345-.521 3.648-.521c6.775-1.042 10.163-2.866 10.163-5.993 0-2.345-1.303-3.909-3.648-4.43-2.345-.782-4.691-1.042-6.515-1.042-2.085 0-4.169.261-5.733 1.042-1.824.521-2.866 1.824-3.648 3.388h-15.635c.521-4.691 2.866-8.86 6.515-11.987 4.169-3.648 10.163-5.472 17.98-5.472 8.599 0 15.114 1.564 19.544 4.43 4.43 3.127 6.775 7.557 6.775 13.029v21.107c0 6.254-1.042 10.945-3.388 14.593-2.606 3.388-5.212 5.993-8.339 7.557zm-3.648-28.664c-2.085 1.042-5.212 2.085-9.121 3.127l-5.472 1.042c-2.866.782-4.691 1.824-5.993 3.127-1.042 1.824-1.564 3.388-1.564 5.212 0 2.345.782 4.169 2.085 5.472 1.303 1.303 3.388 1.824 5.993 1.824 4.43 0 7.818-1.303 10.163-3.648 2.606-2.606 3.648-5.993 3.648-10.163v-5.993h.261zm18.762 31.01v-29.967c0-5.993.782-11.205 2.606-15.375 1.824-4.169 4.169-7.296 7.296-9.902 2.866-2.345 6.515-3.909 10.423-5.212 3.909-1.042 8.078-1.564 12.248-1.564h2.084v16.417h-5.472c-4.43 0-7.818 1.042-9.902 3.388-2.085 2.085-3.127 5.472-3.127 10.163v32.052h-16.156zm77.394-3.648v-3.909c-2.866 4.43-6.515 7.036-11.205 8.078-4.691 1.042-9.381.782-14.072-1.042-4.691-1.824-8.599-5.212-11.987-10.423-3.388-4.951-4.951-11.726-4.951-19.805 0-9.642 2.085-17.459 6.515-23.453 4.43-5.993 11.466-8.86 21.368-8.86 7.557 0 14.332 2.085 20.847 5.993 6.254 4.169 9.642 11.466 9.642 22.41v32.834c0 10.945-3.127 18.241-9.642 22.15-6.254 3.909-13.29 5.993-20.847 5.993-14.332 0-23.192-6.775-26.58-20.065h16.938c1.303 2.085 3.127 3.909 5.733 4.951 2.606 1.042 5.212 1.564 7.818 1.042 2.606-.521 4.951-2.085 7.036-4.43 2.085-2.606 3.127-6.515 3.388-11.466zm-26.319-26.84c0 10.684 3.127 16.678 9.381 17.72 6.254 1.042 10.684-.261 13.811-4.43 1.303-1.824 2.345-4.43 3.127-8.078.521-3.648.782-7.296 0-10.945-.782-3.648-1.824-6.775-3.909-9.642-2.085-2.866-4.951-4.169-8.86-4.169-5.212 0-8.86 1.824-10.684 5.733-2.085 4.43-2.866 8.86-2.866 13.811zm46.384 30.489v-29.967c0-5.993.782-11.205 2.606-15.375 1.824-4.169 4.169-7.296 7.296-9.902 2.866-2.345 6.515-3.909 10.423-5.212 3.909-1.042 8.078-1.564 12.248-1.564h2.084v16.417h-5.472c-4.43 0-7.818 1.042-9.902 3.388-2.085 2.085-3.388 5.472-3.388 10.163v32.052h-15.896zm39.349-80h8.339c2.085 0 3.909.782 5.472 2.345 1.564 1.564 2.345 3.388 2.345 5.472v4.951h-16.417v-12.769h.261zm0 18.241h8.339c2.085 0 3.909.782 5.472 2.345 1.564 1.564 2.345 3.388 2.345 5.472v53.941h-16.417v-61.759h.261zm75.049 61.759h-8.078c-2.345 0-4.169-.782-5.733-2.345-1.564-1.564-2.085-3.388-2.085-5.733v-31.792c0-3.648-1.042-6.515-3.388-8.078-2.345-1.824-4.691-2.606-7.557-2.606-2.866 0-5.212.782-7.557 2.606-2.085 1.824-3.388 4.43-3.388 8.078v39.609h-16.417v-36.221c0-10.684 2.866-17.72 8.339-21.107 5.472-3.648 11.726-5.472 18.241-5.733 6.775 0 13.029 1.824 18.762 5.472 5.733 3.648 8.599 10.684 8.599 21.629v36.221h.261zm-325.733 42.215l-53.941-39.349-33.616 24.495 12.769-39.609-33.616-24.495h41.433l20.847-63.583-7.818-24.235-23.713 72.964h-76.612l61.759 45.081-23.453 72.964 62.02-45.081 62.02 45.081-8.078-24.235z" sketch:type="MSShapeGroup" fill="#fff"/></svg>