<?xml version="1.0" encoding="UTF-8" standalone="no"?>
<svg width="480px" height="240px" viewBox="0 0 480 240" version="1.1" xmlns="http://www.w3.org/2000/svg" xmlns:xlink="http://www.w3.org/1999/xlink" xmlns:sketch="http://www.bohemiancoding.com/sketch/ns">
    <!-- Generator: Sketch 3.0.1 (7597) - http://www.bohemiancoding.com/sketch -->
    <title>cover-logo</title>
    <description>Created with Sketch.</description>
    <defs></defs>
    <g id="Page-1" stroke="none" stroke-width="1" fill="none" fill-rule="evenodd" sketch:type="MSPage">
        <g id="cover-logo" sketch:type="MSArtboardGroup" fill="#FFFFFF">
            <path d="M163.338967,217.609846 L156.32685,198.741538 L154.01065,192.369538 L154.01065,217.609846 L148,217.609846 L148,176 L153.885467,176 L160.396542,195.055692 L162.524658,201.490462 L162.524658,176 L168.4721,176 L168.4721,217.609846 L163.338967,217.609846 L163.338967,217.609846 Z M182.6838,218.359077 C176.673767,218.359077 172.729258,214.298154 172.729258,208.487692 L172.729258,185.121538 C172.729258,179.373846 176.673767,175.250154 182.6838,175.250154 C188.693833,175.250154 192.637725,179.373846 192.637725,185.121538 L192.637725,208.487692 C192.637725,214.298154 188.693833,218.359077 182.6838,218.359077 L182.6838,218.359077 Z M185.939492,184.621846 C185.939492,182.623077 184.75025,181.248 182.6838,181.248 C180.61735,181.248 179.428108,182.623077 179.428108,184.621846 L179.428108,208.988 C179.428108,210.987077 180.61735,212.361846 182.6838,212.361846 C184.75025,212.361846 185.939492,210.987077 185.939492,208.988 L185.939492,184.621846 L185.939492,184.621846 Z M207.977,182.060308 L207.977,217.609538 L201.340742,217.609538 L201.340742,182.060308 L194.892875,182.060308 L194.892875,176 L214.3003,176 L214.3003,182.060308 L207.977,182.060308 L207.977,182.060308 Z M236.712742,182.060308 L236.712742,217.609538 L230.076483,217.609538 L230.076483,182.060308 L223.627383,182.060308 L223.627383,176 L243.036042,176 L243.036042,182.060308 L236.712742,182.060308 L236.712742,182.060308 Z M255.1187,218.359077 C249.10805,218.359077 245.164158,214.298154 245.164158,208.487692 L245.164158,185.121538 C245.164158,179.373846 249.10805,175.250154 255.1187,175.250154 C261.128733,175.250154 265.073242,179.373846 265.073242,185.121538 L265.073242,208.487692 C265.073242,214.298154 261.128733,218.359077 255.1187,218.359077 L255.1187,218.359077 Z M258.374392,184.621846 C258.374392,182.623077 257.18515,181.248 255.1187,181.248 C253.052558,181.248 251.863008,182.623077 251.863008,184.621846 L251.863008,208.988 C251.863008,210.987077 253.05225,212.361846 255.1187,212.361846 C257.184842,212.361846 258.374392,210.987077 258.374392,208.988 L258.374392,184.621846 L258.374392,184.621846 Z M279.471483,217.609846 L269.329783,217.609846 L269.329783,176 L279.471483,176 C285.481517,176 288.987575,179.749231 288.987575,185.933538 L288.987575,207.925538 C288.987883,214.173231 285.481825,217.609846 279.471483,217.609846 L279.471483,217.609846 Z M282.351933,185.871692 C282.351933,183.247385 281.34985,181.935385 279.033033,181.935385 L275.965425,181.935385 L275.965425,211.736615 L279.033033,211.736615 C281.34985,211.736615 282.351933,210.362154 282.351933,207.800615 L282.351933,185.871692 L282.351933,185.871692 Z M305.328317,217.609846 L304.263642,209.488 L298.191017,209.488 L296.938875,217.609846 L290.86625,217.609846 L297.815158,176 L305.140542,176 L312.08945,217.609846 L305.328317,217.609846 L305.328317,217.609846 Z M301.4464,186.933538 L299.005017,203.927077 L303.512542,203.927077 L301.4464,186.933538 L301.4464,186.933538 Z M325.049008,200.865538 L325.049008,217.609538 L318.41275,217.609538 L318.41275,200.865538 L310.900825,176 L317.661958,176 L322.106892,193.431077 L326.427258,176 L333,176 L325.049008,200.865538 L325.049008,200.865538 Z M240.5,56.0944615 L243.258042,57.4701538 L280.583333,76.0944615 L280.583333,41.436 L241.851425,20.6233846 C241.969208,20.4067692 242.041667,20.1615385 242.041667,19.8975385 L242.041667,16.0332308 C251.805042,11.8532308 261.569958,22.6667692 271.333333,16.8206154 C269.27675,16.0006154 267.22325,14.4412308 265.166667,12.4387692 C267.221708,10.3384615 269.278292,7.79446154 271.333333,4.51292308 C261.569958,10.3590769 251.805042,-0.454461538 242.041667,3.72553846 L242.041667,1.436 C242.041667,0.586153846 241.352233,-0.102461538 240.5,-0.102461538 C239.647767,-0.102461538 238.958333,0.586153846 238.958333,1.436 L238.958333,19.8975385 C238.958333,20.1618462 239.030792,20.4067692 239.148575,20.6233846 L200.416667,41.436 L200.416667,76.0944615 L237.741958,57.4701538 L240.5,56.0944615 L240.5,56.0944615 Z M231.25,41.436 C231.25,36.3378462 235.391225,32.2052308 240.5,32.2052308 C245.608775,32.2052308 249.75,36.3378462 249.75,41.436 C249.75,46.5341538 245.608775,50.6667692 240.5,50.6667692 C235.391225,50.6667692 231.25,46.5341538 231.25,41.436 Z M240.5,62.9744615 L178.833333,93.7436923 L178.833333,161.436 L228.166667,161.436 L228.166667,112.205231 L252.833333,112.205231 L252.833333,161.436 L302.166667,161.436 L302.166667,93.7436923 L240.5,62.9744615 Z M176.196158,239.339077 C175.736433,239.758462 175.236625,239.897538 173.916958,239.897538 L170.038125,239.897538 C168.718458,239.897538 168.21865,239.758462 167.758925,239.339077 C166.97915,238.640615 166.499075,237.623692 166.499075,232.914769 C166.499075,228.206154 166.978842,227.188615 167.758925,226.490154 C168.21865,226.071385 168.718458,225.931692 170.038125,225.931692 L173.916958,225.931692 C175.236625,225.931692 175.736125,226.071385 176.196158,226.490154 C176.975933,227.188615 177.335758,228.106154 177.375842,230.520923 L175.136725,230.520923 C175.0766,228.764923 174.896842,228.266154 174.676692,228.066462 C174.516975,227.926769 174.35695,227.846462 173.677075,227.846462 L170.278317,227.846462 C169.598442,227.846462 169.438725,227.926769 169.2787,228.066462 C169.05855,228.265846 168.778583,228.884308 168.778583,232.914769 C168.778583,236.944923 169.05855,237.563077 169.2787,237.763077 C169.438725,237.903077 169.598442,237.982769 170.278317,237.982769 L173.677075,237.982769 C174.35695,238.002462 174.516975,237.903077 174.676692,237.763077 C174.896533,237.563385 175.076292,237.164615 175.136725,235.089231 L177.395883,235.089231 C177.296292,237.862462 176.975933,238.640615 176.196158,239.339077 Z M193.308967,225.931385 C194.628633,225.931385 195.128133,226.071077 195.588167,226.489846 C196.367942,227.188308 196.847708,228.205846 196.847708,232.914462 C196.847708,237.623385 196.367942,238.640308 195.588167,239.338769 C195.128133,239.758154 194.628633,239.897231 193.308967,239.897231 L189.310192,239.897231 C187.990525,239.897231 187.491025,239.758154 187.030992,239.338769 C186.251525,238.640308 185.77145,237.623385 185.77145,232.914462 C185.77145,228.205846 186.251217,227.188308 187.030992,226.489846 C187.491025,226.071077 187.990525,225.931385 189.310192,225.931385 L193.308967,225.931385 Z M188.550458,237.762769 C188.710483,237.902769 188.870508,237.982462 189.550075,237.982462 L193.069083,237.982462 C193.748958,238.002154 193.908983,237.902769 194.069008,237.762769 C194.28885,237.563077 194.568817,236.944615 194.568817,232.914462 C194.568817,228.884 194.28885,228.265846 194.069008,228.066154 C193.909292,227.926462 193.748958,227.846154 193.069083,227.846154 L189.550075,227.846154 C188.870508,227.846154 188.710483,227.926462 188.550458,228.066154 C188.330617,228.265538 188.05065,228.884 188.05065,232.914462 C188.050958,236.944615 188.330617,237.563077 188.550458,237.762769 L188.550458,237.762769 Z M213.240867,235.967385 L207.902692,235.967385 L206.683233,239.897538 L204.464158,239.897538 L208.902617,226.410462 C209.0426,225.951385 209.162233,225.871692 209.702125,225.871692 L211.641542,225.871692 C212.14135,225.871692 212.281333,225.951385 212.44105,226.410462 L216.879508,239.897538 L214.460325,239.897538 L213.240867,235.967385 L213.240867,235.967385 Z M208.482667,234.092 L212.641158,234.092 L210.721783,227.826769 L210.421775,227.826769 L208.482667,234.092 L208.482667,234.092 Z M227.114633,237.982462 L233.892108,237.982462 L233.892108,239.897538 L224.875517,239.897538 L224.875517,225.931385 L227.114633,225.931385 L227.114633,237.982462 L227.114633,237.982462 Z M242.228208,239.897538 L242.228208,225.931385 L244.467325,225.931385 L244.467325,239.897538 L242.228208,239.897538 L242.228208,239.897538 Z M259.341633,227.846462 L259.341633,239.897538 L257.102825,239.897538 L257.102825,227.846462 L252.704142,227.846462 L252.704142,225.931385 L263.7397,225.931385 L263.7397,227.846462 L259.341633,227.846462 L259.341633,227.846462 Z M271.976517,239.897538 L271.976517,225.931385 L274.215942,225.931385 L274.215942,239.897538 L271.976517,239.897538 L271.976517,239.897538 Z M290.848983,225.931385 C292.16865,225.931385 292.668458,226.071077 293.128492,226.489846 C293.907958,227.188308 294.388033,228.205846 294.388033,232.914462 C294.388033,237.623385 293.907958,238.640308 293.128492,239.338769 C292.668767,239.758154 292.168958,239.897231 290.848983,239.897231 L286.850517,239.897231 C285.530542,239.897231 285.031042,239.758154 284.5707,239.338769 C283.790925,238.640308 283.311467,237.623385 283.311467,232.914462 C283.311467,228.205846 283.790925,227.188308 284.5707,226.489846 C285.030733,226.071077 285.530233,225.931385 286.850517,225.931385 L290.848983,225.931385 L290.848983,225.931385 Z M286.090475,237.762769 C286.2505,237.902769 286.410217,237.982462 287.0904,237.982462 L290.608792,237.982462 C291.288975,238.002154 291.448692,237.902769 291.608717,237.762769 C291.82825,237.563077 292.108217,236.944615 292.108217,232.914462 C292.108217,228.884 291.82825,228.265846 291.608717,228.066154 C291.448383,227.926462 291.288975,227.846154 290.608792,227.846154 L287.0904,227.846154 C286.410217,227.846154 286.250192,227.926462 286.090475,228.066154 C285.870942,228.265538 285.590975,228.884 285.590975,232.914462 C285.590975,236.944615 285.870942,237.563077 286.090475,237.762769 L286.090475,237.762769 Z M314.499383,239.897538 L312.220183,239.897538 C311.640208,239.897538 311.420367,239.778154 311.180175,239.239077 L305.841692,228.964 L305.5423,228.964 L305.5423,239.897538 L303.363,239.897538 L303.363,225.931385 L305.841692,225.931385 C306.421667,225.931385 306.621775,226.051385 306.861658,226.589846 L312.019767,236.386154 L312.319775,236.386154 L312.319775,225.931385 L314.499075,225.931385 L314.499075,239.897538 L314.499383,239.897538 Z M246.711375,160.310462 C246.684242,160.251385 246.684242,160.242462 246.684242,160.242462 C246.643233,160.002154 246.170867,159.782154 246.170867,159.782154 L246.170867,159.578154 C246.170867,159.523692 245.91865,159.360615 245.850508,159.34 C245.782367,159.319692 245.393867,159.414769 245.393867,159.414769 L245.018933,159.237846 C245.01215,159.088308 244.75315,158.952 244.75315,158.952 C244.759933,158.938462 244.780283,158.720615 244.780283,158.720615 C244.964358,158.754769 244.916567,158.604923 244.916567,158.604923 C244.916567,158.604923 244.930133,158.441538 244.732492,158.305538 C244.53485,158.169538 244.010067,158.047077 244.010067,158.047077 L243.962275,158.002769 C244.0816,157.985846 243.93175,157.771385 243.93175,157.771385 C244.051075,157.706769 243.941925,157.428 243.941925,157.428 C244.01685,157.373538 244.044292,157.115077 243.982933,156.924615 C243.921575,156.734154 243.894442,156.319077 243.894442,156.319077 C243.95765,156.285538 243.895058,155.965231 243.895058,155.965231 C243.860833,155.882154 243.812733,155.856308 243.812733,155.856308 C243.812733,155.856308 243.831233,153.563385 243.853742,153.067385 C243.895367,152.142154 243.717458,151.230769 243.697108,151.026769 C243.676758,150.822769 243.601833,150.183385 243.594742,150.088 C243.587958,149.992615 243.587958,149.720615 243.608308,149.591385 C243.628658,149.462154 243.574083,149.156 243.5673,149.054154 C243.560517,148.952 243.5673,148.441846 243.5673,148.441846 L243.560825,148.418769 C243.764633,148.382769 243.932367,148.353538 244.003592,148.339692 C244.249025,148.292 244.235458,148.169538 244.235458,148.169538 C244.419533,148.183077 245.285025,147.734154 245.496542,147.598154 C245.70775,147.462154 245.6874,147.278462 245.6874,147.278462 C245.66705,147.006462 244.610392,143.503077 244.610392,143.503077 L244.685317,143.537231 C244.685317,143.537231 244.719542,143.68 244.726325,143.734462 C244.733108,143.788923 245.0399,143.714154 245.121608,143.720923 C245.203317,143.727692 245.496542,143.537231 245.523675,143.489538 C245.550808,143.441846 245.748758,143.414769 245.810117,143.367077 C245.871475,143.319385 245.939617,143.108615 245.980625,143.020308 C246.021633,142.932 246.041983,142.591692 246.048767,142.537231 C246.05555,142.482769 246.191833,142.122154 246.2054,142.054154 C246.218967,141.986154 246.103033,141.612 246.041675,141.476 C245.980317,141.34 245.850817,140.278769 245.844033,140.136 C245.83725,139.993231 245.741667,139.374154 245.673525,139.136 C245.605383,138.897846 245.35995,137.537538 245.257583,137.040923 C245.155217,136.544308 244.746367,134.911692 244.650783,134.673846 C244.5552,134.435692 244.521283,133.524308 244.507717,133.428923 C244.49415,133.333538 244.507717,132.041231 244.507717,132.041231 C244.507717,132.041231 244.903,131.735077 245.209792,131.565231 C245.516583,131.395385 245.516583,131.096 245.516583,131.096 C245.516583,131.096 245.257583,130.497538 245.1213,130.279692 C244.985017,130.062154 244.507717,129.082462 244.398875,128.946462 C244.289725,128.810462 243.97615,128.715077 243.853433,128.660615 C243.730717,128.606154 243.048992,128.361231 242.844567,128.320615 C242.640142,128.28 242.344758,128.216308 242.344758,128.216308 L242.271992,128.157231 C242.271992,128.157231 242.126458,128.016615 242.081133,127.989538 C242.035808,127.962462 241.8357,127.735692 241.822133,127.712923 C241.808567,127.690154 241.549567,127.472615 241.445042,127.422769 C241.340517,127.372923 241.290567,127.313846 241.290567,127.313846 L241.268058,127.312615 C241.308142,127.196615 241.358708,126.881846 241.358708,126.881846 C241.47125,126.864923 241.795,126.340923 241.795,126.340923 C241.849575,126.340923 241.910933,126.303385 241.910933,126.303385 C242.060783,126.316923 242.204158,126.126462 242.2723,126.021231 C242.340442,125.916 242.374667,125.524615 242.38145,125.484 C242.388233,125.443385 242.429242,125.348 242.456375,125.262769 C242.483508,125.177846 242.480117,125.109846 242.473333,124.919385 C242.46655,124.728923 242.354008,124.674462 242.343833,124.650769 C242.333658,124.627077 242.370967,124.572615 242.370967,124.572615 C242.670975,124.086154 242.561825,123.348308 242.520817,123.205231 C242.479808,123.062462 242.073117,122.215385 242.008367,122.157846 C241.943617,122.1 241.725625,121.874462 241.681225,121.813231 C241.636825,121.752 241.416367,121.620615 241.324483,121.504923 C241.2326,121.389231 240.854275,121.212308 240.813267,121.198769 C240.772258,121.185231 240.622408,121.168308 240.5407,121.154462 C240.458992,121.140923 240.336275,121.124 240.182725,121.110154 C240.029483,121.096615 240.049833,121.1 239.957642,121.110154 C239.865758,121.120308 239.8044,121.161231 239.756608,121.191692 C239.708817,121.222154 239.623717,121.181538 239.494217,121.150769 C239.364717,121.120308 239.1976,121.140615 239.105717,121.150769 C239.013833,121.160923 238.931817,121.239077 238.839933,121.259692 C238.74805,121.28 238.642292,121.388923 238.557192,121.409231 C238.472092,121.429538 238.40395,121.569231 238.308367,121.654154 C238.212783,121.739077 238.151733,121.790154 237.9914,121.926154 L237.946075,122.039385 C237.946075,122.039385 237.913083,122.014462 237.896125,122.133538 C237.879167,122.252615 237.811025,122.476923 237.729008,122.548615 C237.6473,122.62 237.592725,122.772923 237.544933,122.905846 C237.497142,123.038462 237.470008,123.317538 237.44935,123.405846 C237.429,123.494154 237.415125,123.708615 237.425608,123.756308 C237.435783,123.804 237.395083,123.953538 237.374425,124.035077 C237.354075,124.116615 237.3846,124.263077 237.398167,124.388923 C237.411733,124.514769 237.568675,124.800308 237.633425,124.817538 C237.698175,124.834462 237.6436,124.872 237.6436,124.872 C237.483267,125.021538 237.5585,125.429846 237.592417,125.518154 C237.626333,125.606462 237.715133,125.766462 237.725308,125.916 C237.735483,126.065538 237.885642,126.300308 237.977525,126.395692 C238.069408,126.491077 238.325017,126.443385 238.325017,126.443385 C238.386375,126.647385 238.706733,126.94 238.733867,126.987692 C238.746508,127.009538 238.760383,127.098462 238.7721,127.187385 C238.761,127.191077 238.543933,127.264923 238.486275,127.287077 C238.427075,127.309846 238.263658,127.649846 238.186267,127.745231 C238.108875,127.840308 237.849875,128.225846 237.849875,128.225846 L237.827058,128.316615 C237.827058,128.316615 237.518108,128.461846 237.363633,128.488923 C237.209158,128.516 236.672967,128.579692 236.318383,128.652308 C235.9638,128.724923 235.745808,129.26 235.745808,129.26 C235.600275,129.296308 235.382283,129.695385 235.318767,129.840615 C235.25525,129.985846 234.83715,130.883692 234.809708,130.992308 C234.782267,131.100923 234.564275,131.527385 234.555333,131.590769 C234.547008,131.648615 234.869217,131.886154 234.9278,131.928923 C234.860583,132.450154 234.599425,134.437846 234.487192,134.715385 C234.357692,135.035077 234.221408,135.946462 234.221408,136.429538 C234.221408,136.912615 234.562117,139.028 234.589558,139.157231 C234.617,139.286462 234.609908,139.579077 234.589558,139.708308 C234.569208,139.837538 234.6577,140.109538 234.67805,140.170769 C234.6984,140.232 234.650917,140.531385 234.596342,140.796615 C234.541767,141.061846 234.50785,141.803385 234.50785,141.803385 C234.426142,142.089231 234.439708,142.327077 234.460058,142.483692 C234.480408,142.64 234.876,143.225231 234.876,143.225231 C234.923792,143.293231 235.093992,143.170769 235.093992,143.170769 C235.114342,143.306769 235.528125,143.526769 235.528125,143.526769 C235.528125,143.526769 235.355458,145.603692 235.310133,145.857538 C235.264808,146.111385 235.155658,148.079692 235.155658,148.079692 C235.237367,148.179385 235.982608,148.233846 235.982608,148.233846 C235.9712,148.433231 236.041808,148.483385 236.041808,148.483385 C236.23945,148.442462 237.01645,148.496923 237.180175,148.503692 C237.297033,148.508615 237.535992,148.568923 237.836925,148.610462 L237.836617,148.614769 C237.836617,148.614769 237.818425,149.875385 237.818425,150.065846 C237.818425,150.256308 237.599508,152.070154 237.582242,152.487385 C237.548017,153.299077 237.953783,155.295692 237.953783,155.295692 C237.800542,155.326154 237.868683,155.598462 237.88225,155.700308 C237.895817,155.802462 237.950392,155.890769 237.936825,155.945231 C237.923258,155.999692 237.998183,156.115385 238.039192,156.169846 C238.0802,156.224308 238.059542,156.428308 238.032408,156.489538 C238.005275,156.550769 238.059542,156.741231 238.059542,156.741231 C238.059542,156.741231 237.875467,157.081231 237.8619,157.169846 C237.848333,157.258154 237.896125,157.394462 237.950392,157.414769 C238.004967,157.435077 238.066325,157.523692 238.052758,157.571077 C238.039192,157.618769 238.148342,157.761538 238.161908,157.781846 C238.175475,157.802154 238.127683,157.856615 238.1209,157.890769 C238.114117,157.924923 238.155125,158.013231 238.155125,158.013231 L238.0802,158.060923 L237.875775,158.781846 L237.766625,159.060615 C237.678133,159.142154 237.596117,159.706769 237.596117,159.706769 C237.514408,159.795077 237.486967,160.094462 237.466617,160.176 C237.446267,160.257538 237.418825,160.373231 237.418825,160.373231 C237.418825,160.373231 237.330333,160.482154 237.296108,160.597538 C237.261883,160.713231 237.323242,161.005538 237.337117,161.06 C237.350683,161.114462 238.156358,161.420615 238.783508,161.434154 C239.410658,161.447692 240.206775,161.304923 240.24285,161.244308 C240.278617,161.183692 240.288792,160.862769 240.274917,160.774154 C240.260733,160.685846 240.145725,160.699385 240.145725,160.699385 C240.17995,160.631385 240.027633,160.295692 240.027633,160.295692 C240.054767,160.259385 239.936675,159.842154 239.936675,159.842154 C240.163917,159.696923 240.118592,159.225538 240.09115,159.161846 C240.064017,159.098462 240.09115,158.853538 240.09115,158.853538 C240.172858,158.808308 239.973058,158.236923 239.973058,158.236923 L239.886725,157.905846 C239.886725,157.905846 239.954867,157.733538 239.968433,157.679077 C239.982,157.624615 239.93205,157.420615 239.9413,157.366154 C239.950242,157.311692 240.118592,157.121231 240.118592,157.026154 C240.118592,156.931077 239.6823,156.563692 239.659483,156.509231 C239.636667,156.454769 239.6823,156.332308 239.695867,156.277846 C239.709433,156.223385 239.604908,156.028308 239.604908,156.028308 C239.604908,156.028308 239.609533,155.833231 239.609533,155.778769 C239.609533,155.724308 239.709433,155.452308 239.718683,155.348 C239.727933,155.243692 239.609533,155.207385 239.609533,155.207385 C239.609533,155.207385 239.8118,153.230154 239.7822,152.822154 C239.759383,152.504923 239.745817,151.361846 239.773258,151.126154 C239.800392,150.890462 240.118592,149.938154 240.222808,149.46 C240.317467,149.025231 240.278,148.672615 240.273683,148.635692 C240.415825,148.633538 240.523125,148.632308 240.575542,148.632308 C240.686542,148.632308 240.847492,148.640923 241.013683,148.651077 L241.011833,148.659692 C241.011833,148.659692 241.032183,149.190154 241.046058,149.380615 C241.059625,149.571077 241.462,150.564308 241.493758,150.720615 C241.525825,150.876923 241.516267,152.080923 241.495917,152.264615 C241.475567,152.448308 241.605067,153.284923 241.659642,153.455077 C241.714217,153.625231 241.836933,154.325846 241.857283,154.556923 C241.877633,154.788308 242.068492,155.896923 242.068492,155.896923 C241.955025,155.896923 241.977533,156.218769 241.959342,156.364 C241.94115,156.509231 242.141258,156.708615 242.141258,156.708615 C242.104875,156.872 242.164075,157.103077 242.164075,157.103077 C242.064175,157.121231 241.986783,157.288923 241.964275,157.343385 C241.941458,157.397846 241.955333,157.815077 241.955333,157.815077 C242.191517,158.005538 242.132625,158.109846 242.132625,158.109846 C242.046292,158.105231 242.032725,158.218769 242.009908,158.291385 C241.987092,158.364 241.996342,158.459077 241.941767,158.590769 C241.887192,158.722154 241.823675,158.808308 241.791917,158.853846 C241.760158,158.899077 241.651008,159.652 241.651008,159.652 C241.487283,159.660923 241.455525,159.887692 241.455525,159.937846 C241.455525,159.987692 241.414517,160.472923 241.405575,160.513846 C241.396633,160.554769 241.478342,160.645231 241.546483,160.690769 C241.614625,160.736 243.009833,161.008308 243.250642,161.026462 C243.49145,161.044615 244.986558,161.414154 245.386467,161.420923 C245.786375,161.427692 246.445283,161.402769 246.5088,161.389231 C246.572317,161.375692 246.631517,161.235077 246.631517,161.235077 C246.708908,161.216923 246.740667,160.990154 246.740667,160.990154 C246.795242,160.904 246.713533,160.681846 246.713533,160.681846 C246.847658,160.596308 246.738817,160.369538 246.711375,160.310462 L246.711375,160.310462 Z M236.691158,136.942462 C236.3893,138.010154 236.162675,138.918154 235.993092,139.686769 C235.883633,139.404 235.777567,139.082462 235.755058,138.967077 C235.71405,138.756308 235.761842,137.375385 235.796067,137.096308 C235.830292,136.817538 235.89165,135.790154 235.905217,135.592923 C235.918783,135.395692 236.055067,134.872 236.096075,134.674769 C236.137083,134.477538 236.4707,133.106462 236.4707,133.106462 L236.490125,132.916615 C236.494442,132.957846 236.485192,133.028615 236.4707,133.106462 C236.43925,133.275692 236.382517,133.477538 236.382517,133.477538 L236.446033,133.622769 C236.273367,134.058154 236.609758,134.575077 236.754983,135.001231 C236.900208,135.427385 236.691158,136.942462 236.691158,136.942462 L236.691158,136.942462 Z M244.63475,139.318769 C244.698267,139.445846 244.9437,140.089538 244.870933,140.280308 C244.798167,140.470769 244.63475,140.878769 244.639067,141.16 C244.643692,141.441231 244.684392,141.717846 244.693642,141.799385 C244.702583,141.880923 244.6847,142.456923 244.661883,142.597538 C244.639067,142.738154 244.589117,143.096308 244.798167,143.100923 C245.007217,143.105538 245.098175,142.892308 245.111742,142.706462 C245.125308,142.520615 245.229833,142.030769 245.19345,141.994462 C245.19345,141.994462 245.306917,142.053538 245.334358,142.021538 C245.334358,142.021538 245.297975,142.411692 245.41175,142.552 C245.41175,142.552 245.35255,142.810462 245.370742,142.896615 C245.370742,142.896615 245.120683,142.992 245.120683,143.177846 C245.120683,143.177846 245.0843,143.309231 245.03435,143.291077 C244.9844,143.272923 244.798167,143.141538 244.600525,143.209538 C244.600525,143.209538 244.175642,140.275385 244.134633,140.021538 C244.093625,139.767692 243.880258,138.402769 243.7893,137.287077 C243.7893,137.287077 244.570925,139.191692 244.63475,139.318769 L244.63475,139.318769 Z" id="Not-Today-Coalition" sketch:type="MSShapeGroup"></path>
        </g>
    </g>
</svg>