<svg width="241" height="240" viewBox="0 0 241 240" xmlns="http://www.w3.org/2000/svg" xmlns:sketch="http://www.bohemiancoding.com/sketch/ns"><title>strategy</title><g sketch:type="MSLayerGroup" fill="none"><path d="M240.667 120c0 66.274-53.724 120.002-120.002 120.002-66.274 0-119.998-53.728-119.998-120.002s53.725-120.001 119.998-120.001c66.278 0 120.002 53.728 120.002 120.001z" id="Shape" fill="#fff" sketch:type="MSShapeGroup"/><g sketch:type="MSShapeGroup"><path d="M137.745 46.061l-2.566-.011v77.023l2.305 1.279.261-78.291z" id="Shape" fill="#274463"/><path d="M133.526 46.047l-.232 71.145-58.957-32.793-2.051 3.689 62.893 34.985v-77.023l-1.653-.004zM69.442 164.436l57.225-40.631-36.779 6.726-.754-4.149 46.125-8.429 1.595 3.794-64.969 46.125-2.442-3.435z" id="Shape" fill="#405E7C"/><path d="M131.24 115.985l42.766 14.445-1.348 3.994-30.629-10.346 29.564 42.356-3.457 2.414-36.895-52.862z" id="Shape" fill="#274463"/><path d="M125.692 44.108c0 5.316 4.218 9.621 9.488 9.832v-19.66c-5.269.203-9.488 4.505-9.488 9.828z" id="Shape" fill="#405E7C"/><path d="M135.563 34.237l-.384.043v19.66l.384.04c5.458 0 9.871-4.421 9.871-9.871 0-5.458-4.414-9.872-9.871-9.872z" id="Shape" fill="#274463"/><path d="M134.02 40.589c0 1.076.449 2.04 1.16 2.736v-5.468c-.71.7-1.16 1.66-1.16 2.732z" id="Shape" fill="#D6728C"/><path d="M137.854 36.759c-1.044 0-1.986.42-2.674 1.098v5.468c.688.674 1.631 1.098 2.674 1.098 2.116 0 3.834-1.714 3.834-3.834 0-2.113-1.718-3.83-3.834-3.83z" id="Shape" fill="#CB4B67"/><path d="M181.398 133.242c0 3.805-3.084 6.889-6.889 6.889-3.813 0-6.896-3.084-6.896-6.889 0-3.809 3.084-6.893 6.896-6.893 3.805 0 6.889 3.084 6.889 6.893z" id="Shape" fill="#274463"/><path d="M178.782 130.785c0 1.478-1.196 2.674-2.682 2.674-1.471 0-2.667-1.196-2.667-2.674 0-1.475 1.196-2.674 2.667-2.674 1.486 0 2.682 1.199 2.682 2.674z" id="Shape" fill="#CB4B67"/><path d="M183.703 170.097c0 7.089-5.754 12.85-12.85 12.85s-12.85-5.762-12.85-12.85c0-7.099 5.755-12.85 12.85-12.85 7.096 0 12.85 5.751 12.85 12.85z" id="Shape" fill="#274463"/><path d="M178.818 165.516c0 2.754-2.232 4.986-4.99 4.986-2.75 0-4.99-2.232-4.99-4.986 0-2.754 2.24-4.994 4.99-4.994 2.758 0 4.99 2.24 4.99 4.994z" id="Shape" fill="#CB4B67"/><path d="M79.379 81.239c0 7.542-6.11 13.655-13.655 13.655-7.53 0-13.644-6.113-13.644-13.655 0-7.537 6.114-13.647 13.644-13.647 7.545 0 13.655 6.11 13.655 13.647z" id="Shape" fill="#405E7C"/><path d="M74.189 76.383c0 2.928-2.37 5.298-5.298 5.298-2.921 0-5.305-2.37-5.305-5.298s2.385-5.302 5.305-5.302c2.928 0 5.298 2.374 5.298 5.302z" id="Shape" fill="#D6728C"/><path d="M69.75 131.241c-.884-5.784 3.091-11.198 8.886-12.078 5.795-.881 11.205 3.098 12.082 8.882.888 5.798-3.091 11.209-8.886 12.089-5.787.884-11.202-3.095-12.082-8.893z" id="Shape" fill="#405E7C"/><path d="M86.815 125.867c0 2.276-1.848 4.12-4.124 4.12-2.272 0-4.116-1.844-4.116-4.12 0-2.272 1.844-4.121 4.116-4.121 2.276 0 4.124 1.848 4.124 4.121z" id="Shape" fill="#D6728C"/><path d="M79.9 170.731c0 7.447-6.045 13.499-13.503 13.499-7.451 0-13.495-6.052-13.495-13.499 0-7.454 6.045-13.499 13.495-13.499 7.458 0 13.503 6.045 13.503 13.499z" id="Shape" fill="#405E7C"/><path d="M74.769 165.922c0 2.896-2.345 5.233-5.24 5.233-2.892 0-5.241-2.337-5.241-5.233 0-2.892 2.349-5.247 5.241-5.247 2.895 0 5.24 2.355 5.24 5.247z" id="Shape" fill="#D6728C"/><path d="M133.65 104.153c-8.763 0-15.869 7.107-15.869 15.873 0 8.77 7.106 15.876 15.869 15.876.525 0 1.018-.109 1.529-.152v-31.441c-.511-.05-1.004-.156-1.529-.156z" id="Shape" fill="#405E7C"/><path d="M149.53 120.025c0-8.244-6.309-14.941-14.35-15.717v31.441c8.042-.783 14.35-7.48 14.35-15.724z" id="Shape" fill="#274463"/><path d="M133.28 114.655c0 1.671.74 3.156 1.899 4.185v-8.378c-1.16 1.033-1.899 2.519-1.899 4.193z" id="Shape" fill="#D6728C"/><path d="M138.915 109.012c-1.439 0-2.743.558-3.736 1.449v8.378c.993.892 2.297 1.45 3.736 1.45 3.12 0 5.642-2.522 5.642-5.635s-2.522-5.642-5.642-5.642z" fill="#CB4B67"/></g></g></svg>