<svg width="240" height="240" viewBox="0 0 240 240" xmlns="http://www.w3.org/2000/svg" xmlns:sketch="http://www.bohemiancoding.com/sketch/ns"><title>design</title><g sketch:type="MSLayerGroup" fill="none"><circle fill="#fff" sketch:type="MSShapeGroup" cx="119.999" cy="119.999" r="119.999"/><g id="Group" sketch:type="MSShapeGroup"><path d="M98.248 159.823l2.835 2.835-6.931 6.926-1.113 1.111-2.996 2.99-1.106 1.108-2.132 2.132-2.821-2.821-9.349-9.359 14.298-14.257 9.314 9.335z" id="Shape" fill="#E6E5E4"/><path d="M74.635 164.745l-10.509-10.509 2.145-2.13 1.11-1.114 2.99-2.986 1.121-1.124 6.925-6.922 10.516 10.527-14.298 14.257z" id="Shape" fill="#fff"/><path d="M163.607 82.084c.892-.225 1.754-.675 2.47-1.373-2.07 2.091-2.066 5.467.017 7.561 1.833 1.833 4.673 2.059 6.757.669l-71.768 73.718-2.835-2.835-5.222-5.222-4.095-4.105 70.21-69.28c1.309.951 2.945 1.234 4.466.869z" id="Shape" fill="#CB4B67"/><path d="M150.873 73.03c2.081 2.091 5.463 2.091 7.551.028l.06.05.02.02c-2.077 2.095-2.076 5.468.012 7.555.202.192.41.369.624.532l-70.21 69.28-2.937-2.937-7.577-7.598 71.975-73.92c-1.575 2.105-1.426 5.083.48 6.989z" id="Shape" fill="#D6728C"/><path d="M84.095 174.214l2.711 2.711-6.978 6.962c-7.334 7.334-18.355 8.192-24.619 1.928-.29-.29-.56-.591-.816-.898l20.239-20.175 9.462 9.472z" id="Shape" fill="#274463"/><path d="M54.394 184.918c-2.158-2.577-3.261-5.802-3.35-9.192-.133-5.002 1.951-10.359 6.118-14.525l6.966-6.963 10.506 10.506-20.239 20.175z" id="Shape" fill="#405E7C"/><path d="M188.791 52.629l-.37 1.213-1.559 5.026-2.636-2.651 4.733-4.723c.013.336-.037.716-.168 1.134z" id="Shape" fill="#CB4B67"/><path d="M188.959 51.495l-4.733 4.723-4.095-4.1 4.693-1.477 1.498-.47c1.552-.493 2.57.09 2.637 1.325z" id="Shape" fill="#D6728C"/><path d="M186.861 58.868l-.465 1.539-.008.018-8.004 22.989-5.534 5.526c-2.084 1.39-4.924 1.165-6.757-.669-2.083-2.094-2.087-5.47-.017-7.561-1.899 1.873-4.844 2.033-6.931.5l25.08-24.993 2.636 2.651z" id="Shape" fill="#E6E5E4"/><path d="M159.146 81.211c-.213-.162-.427-.334-.629-.527-2.087-2.087-2.088-5.461-.012-7.555l-.081-.07c-2.088 2.063-5.471 2.063-7.551-.028-1.907-1.907-2.055-4.884-.48-6.989l5.318-5.321 23.335-8.257.204-.063.882-.282 4.095 4.1-25.08 24.993z" id="Shape" fill="#fff"/></g><g sketch:type="MSShapeGroup"><path d="M175.254 166.211l14.265 10.96c-1.258 4.559 1.105 11.144 6.355 16.461l.172.167-.912.902-12.966-12.966c.526-.71.472-1.701-.169-2.342-.564-.564-1.407-.664-2.081-.318l-8.789-8.789 4.125-4.074z" id="Shape" fill="#fff"/><path d="M177.155 189.36l-10.767-14.396 4.156-4.105.556-.546.028-.028 8.789 8.789c-.164.082-.318.184-.451.318-.705.705-.702 1.84-.005 2.537.641.641 1.632.695 2.339.172l12.966 12.966-1.066 1.046-.166-.172c-5.251-5.317-11.803-7.775-16.379-6.58z" id="Shape" fill="#BFBFBF"/><path id="Rectangle-path" fill="#405E7C" d="M172.082 171.678l-25.477-25.477 5.956-5.956 25.477 25.477z"/><path id="Rectangle-path" fill="#274463" d="M172.135 170.981l-6.731 6.731-25.477-25.477 6.731-6.731z"/><path id="Rectangle-path" fill="#405E7C" d="M148.331 147.891l-36.699-36.699 7.212-7.212 36.699 36.699z"/><path id="Rectangle-path" fill="#274463" d="M148.346 147.233l-7.988 7.988-36.699-36.699 7.988-7.988z"/><path id="Rectangle-path" fill="#84888B" d="M149.859 148.806l-7.988 7.988-.595-.595 7.988-7.988z"/><path id="Rectangle-path" fill="#BFBFBF" d="M149.906 149.404l-.595-.595 7.212-7.212.595.595z"/><path id="Rectangle-path" fill="#fff" d="M151.803 151.574l-1.788-1.788 7.212-7.212 1.788 1.788z"/><path id="Rectangle-path" fill="#D9DAD9" d="M152.028 150.705l-7.988 7.988-1.788-1.788 7.988-7.988z"/><path id="Rectangle-path" fill="#BFBFBF" d="M153.221 152.167l-1.046-1.046 7.212-7.212 1.046 1.046z"/><path id="Rectangle-path" fill="#84888B" d="M152.622 152.122l-7.988 7.988-1.046-1.046 7.988-7.988z"/><path id="Rectangle-path" fill="#fff" d="M154.391 153.58l-1.297-1.297 7.212-7.212 1.297 1.297z"/><path id="Rectangle-path" fill="#D9DAD9" d="M154.034 153.293l-7.988 7.988-1.297-1.297 7.988-7.988z"/><path id="Rectangle-path" fill="#fff" d="M148.954 148.523l-1.307-1.307 7.212-7.212 1.307 1.307z"/><path id="Rectangle-path" fill="#D9DAD9" d="M149.685 148.563l-7.988 7.988-1.307-1.307 7.988-7.988z"/><path id="Rectangle-path" fill="#fff" d="M102.021 101.722l-2.496-2.496 9.028-9.028 2.496 2.496z"/><path id="Rectangle-path" fill="#D9DAD9" d="M102.887 101.623l-9.8 9.8-2.496-2.496 9.8-9.8z"/><path id="Rectangle-path" fill="#BFBFBF" d="M104.188 102.714l-1.84-1.84 9.028-9.028 1.84 1.84z"/><path id="Rectangle-path" fill="#84888B" d="M104.585 103.084l-9.8 9.8-1.84-1.84 9.8-9.8z"/><path id="Rectangle-path" fill="#fff" d="M108.821 107.654l-4.596-4.596 9.028-9.028 4.596 4.596z"/><path id="Rectangle-path" fill="#D9DAD9" d="M108.819 108.424l-9.8 9.8-4.596-4.596 9.8-9.8z"/><path id="Rectangle-path" fill="#84888B" d="M109.453 109.2l-9.8 9.8-1.199-1.199 9.8-9.8z"/><path id="Rectangle-path" fill="#BFBFBF" d="M110.304 108.995l-1.199-1.199 9.028-9.028 1.199 1.199z"/><path id="Rectangle-path" fill="#fff" d="M113.456 112.775l-3.689-3.689 9.028-9.028 3.689 3.689z"/><path id="Rectangle-path" fill="#D9DAD9" d="M113.94 113.058l-9.8 9.8-3.689-3.689 9.8-9.8z"/><path d="M66.239 47.335l3.4 3.4-9.03 9.03-12.156-12.156c5.207-4.828 13.061-4.999 17.786-.274z" id="Shape" fill="#405E7C"/><path d="M47.407 66.167c-4.846-4.846-4.559-12.989.643-18.191l.402-.367 12.156 12.156-9.801 9.801-3.4-3.4z" id="Shape" fill="#274463"/><path id="Rectangle-path" fill="#274463" d="M100.067 99.265l-9.8 9.8-36.152-36.152 9.8-9.8z"/><path id="Rectangle-path" fill="#405E7C" d="M99.662 98.902l-36.152-36.152 9.028-9.028 36.152 36.152z"/><path id="Rectangle-path" fill="#fff" d="M63.765 63.518l-3.116-3.116 9.028-9.028 3.116 3.116z"/><path fill="#D9DAD9" d="M63.976 62.66l-9.8 9.8-3.116-3.116 9.8-9.8z"/><path d="M93.988 120.092l-41.561-41.561c-.631-.631-.631-1.661.005-2.296l2.506-2.506-2.06-2.06-2.506 2.506c-1.768 1.773-1.771 4.646-.003 6.414l42.638 42.638 1.576-2.539-.595-.595zM93.212 113.191c2.142 2.142 2.483 5.389 1.053 7.895l-8.948-8.948c2.506-1.43 5.758-1.084 7.895 1.053z" fill="#274463"/></g></g></svg>