<svg width="480" height="240" viewBox="0 0 480 240" xmlns="http://www.w3.org/2000/svg" xmlns:sketch="http://www.bohemiancoding.com/sketch/ns"><title>cover-logo</title><path d="M165.203 105.75c-5.392 1.768-9.193 3.005-16.529 3.005-19.093 0-32.528-14.053-32.528-31.377 0-17.235 13.258-31.377 32.351-31.377 6.453 0 10.695 1.149 15.557 2.917v8.309c-4.331-3.624-9.281-4.861-15.292-4.861-14.762 0-25.28 11.136-25.28 25.013 0 13.965 10.784 25.102 25.192 25.102 3.977 0 7.601-.53 9.635-1.768v-9.988c0-6.187-.177-8.485-.353-11.137h7.601c-.177 2.652-.353 5.126-.353 11.137v15.026zm70.873 1.945c-.771-2.235-2.004-5.241-3.468-8.71l-3.854-9.173h-20.119l-3.777 9.019c-1.696 4.085-2.775 6.783-3.392 8.864h-7.092c1.773-3.315 3.777-7.4 5.55-11.716l18.192-42.086h1.773l18.423 42.086c1.927 4.316 4.008 8.556 5.782 11.716h-8.017zm-17.421-42.471l-7.94 19.424h15.879l-7.94-19.424zm58.278 29.136c0 5.242.076 10.946.308 13.335h-6.861c.231-2.389.309-8.093.309-13.335v-25.667c0-5.242-.078-11.485-.309-13.798h11.023c11.717 0 18.116 6.475 18.116 15.416 0 8.248-5.088 12.564-10.407 14.26 5.627 6.937 12.179 17.343 18.268 23.124h-8.556c-4.316-5.55-10.714-14.337-15.186-22.045-.924.154-1.695.154-2.543.154h-4.163v8.556zm0-13.18h5.011c6.474 0 11.177-4.316 11.177-10.714 0-5.473-3.932-10.56-11.948-10.56h-4.24v21.274zm66.217 13.258v-11.254l-12.256-18.345c-2.698-4.008-4.856-7.014-7.246-9.944h8.093c1.235 2.467 2.313 4.162 4.318 7.246l10.483 15.493 9.943-14.953c2.39-3.546 3.546-5.319 4.78-7.785h7.631c-2.466 3.083-4.857 6.552-7.555 10.56l-11.948 17.728v11.254c0 5.319.155 10.868.308 13.258h-6.783c.155-2.389.231-7.939.231-13.258zm-310.699 93.26c6.364 0 12.021-1.503 15.999-4.95v8.309c-5.216 1.592-9.812 2.917-16.53 2.917-18.386 0-32.351-14.054-32.351-31.289 0-17.324 13.966-31.377 32.351-31.377 7.16 0 11.314 1.68 15.911 2.74v8.485c-4.155-3.447-9.458-4.772-15.469-4.772-14.143 0-25.457 11.137-25.457 24.925 0 13.789 11.314 25.014 25.545 25.014zm54.177-25.682h28.83v-8.016c0-4.393 0-10.56-.231-13.798h6.783c-.154 3.391-.309 9.558-.309 13.798v27.904c0 4.007.155 8.941.309 11.099h-6.783c.154-2.158.231-7.092.231-11.177v-14.645h-28.83v14.723c0 4.007.154 8.941.309 11.099h-6.784c.155-2.158.231-7.092.231-11.177v-27.825c0-5.473-.077-11.716-.231-13.798h6.784c-.155 2.082-.309 8.325-.309 13.798v8.016zm103.603 30.986c-.771-2.235-2.004-5.241-3.469-8.71l-3.854-9.173h-20.119l-3.777 9.018c-1.696 4.085-2.775 6.783-3.392 8.865h-7.092c1.773-3.314 3.777-7.399 5.55-11.716l18.192-42.086h1.773l18.423 42.086c1.927 4.317 4.008 8.556 5.782 11.716h-8.017zm-17.421-42.471l-7.94 19.424h15.879l-7.94-19.424zm58.201 28.674c0 5.241.154 11.408.309 13.797h-6.784c.155-2.389.231-8.555.231-13.797v-26.747c0-5.242-.077-9.944-.231-12.256h11.794c10.946 0 17.344 6.86 17.344 16.033 0 9.172-7.091 16.033-17.498 16.033h-5.165v6.938zm0-11.717h4.702c6.938 0 11.64-5.627 11.64-11.331 0-5.935-4.24-11.1-11.717-11.1h-4.625v22.43zm103.218 13.18c.616 5.473 1.079 8.71 1.85 12.333h-7.323c0-2.467-.231-5.319-.694-10.482l-2.621-28.212-17.266 39.388h-1.542l-17.036-39.31-3.393 27.518c-.539 4.547-.924 8.17-1.002 11.099h-6.707c.54-2.467 1.388-8.325 2.159-13.951l5.55-39.851h1.619l19.966 44.013 20.195-44.013h1.773l4.472 41.468zm68.838 12.333c-.771-2.235-2.003-5.241-3.469-8.71l-3.854-9.173h-20.119l-3.776 9.018c-1.696 4.085-2.776 6.783-3.393 8.865h-7.091c1.774-3.314 3.777-7.399 5.55-11.716l18.192-42.086h1.774l18.423 42.086c1.927 4.317 4.008 8.556 5.782 11.716h-8.017zm-17.421-42.471l-7.94 19.424h15.879l-7.94-19.424zm58.2 42.471h-6.552c.155-2.158.309-7.092.309-11.177v-27.903c0-4.625-.155-10.714-.309-14.877h1.465c2.312 2.852 3.7 4.394 6.321 7.323l28.522 33.915v-26.284c0-4.393-.155-10.56-.232-13.798h6.475c-.154 3.391-.231 9.558-.231 13.798v28.751c0 3.238 0 6.707.231 11.177h-1.387c-1.927-2.467-3.238-4.009-5.704-6.861l-29.061-34.531-.155 29.368c0 4.007.155 8.941.308 11.099z" sketch:type="MSShapeGroup" fill="#fff"/></svg>