<svg width="480" height="240" viewBox="0 0 480 240" xmlns="http://www.w3.org/2000/svg" xmlns:sketch="http://www.bohemiancoding.com/sketch/ns"><title>cover-logo</title><path d="M142.457 41.157c0 2.589-2.595 6.325-7.785 11.206-5.19 4.882-11.522 9.562-18.996 14.039-.968 3.074-2.394 8.657-4.275 16.749-3.012 12.678-5.781 21.672-8.308 26.985-2.529 5.314-6.696 10.722-12.502 16.224-16.779 15.91-35.575 23.867-56.386 23.867-5.97 0-11.24-.999-15.81-2.994-2.529 4.97-3.792 9.292-3.792 12.965 0 4.645 1.545 8.913 4.638 12.804.322.323.485.701.485 1.134 0 .432-.27.647-.807.647-1.245 0-2.586-1.675-4.02-5.022-1.434-3.351-2.151-6.483-2.151-9.401 0-4.213 1.371-8.859 4.114-13.937-11.241-5.826-16.86-15.831-16.86-30.02 0-9.116 2.688-18.178 8.067-27.186 5.376-9.008 12.933-17.125 22.666-24.355 12.423-9.17 24.709-13.755 36.864-13.755 6.615 0 11.871 1.861 15.77 5.584 3.898 3.722 5.849 8.766 5.849 15.13 0 3.399-.485 6.932-1.452 10.6 7.905-5.286 14.895-9.762 20.973-13.431 3.871-8.468 8.739-15.75 14.599-21.847 5.864-6.095 10.974-9.143 15.329-9.143 2.528 0 3.792 1.052 3.792 3.157zm-54.692 30.342c0-5.663-1.79-10.222-5.365-13.674-3.578-3.452-8.297-5.179-14.157-5.179-14.468 0-28.463 7.553-41.987 22.656-13.524 15.103-20.286 30.746-20.286 46.928 0 10.627 3.899 18.18 11.697 22.656 3.657-6.041 8.899-12.649 15.73-19.824-3.549-3.074-5.323-6.742-5.323-11.003 0-3.238 1.021-6 3.066-8.293 2.043-2.291 4.517-3.438 7.42-3.438 3.602 0 5.405 1.673 5.405 5.016 0 1.727-.674 3.223-2.016 4.49-1.346 1.268-2.932 1.902-4.759 1.902-2.636 0-3.953-1.267-3.953-3.804 0-.809.268-1.672.807-2.589.215-.701.323-1.104.323-1.213 0-.323-.162-.486-.485-.486-.915 0-1.855.972-2.823 2.913-.968 1.942-1.452 3.858-1.452 5.746 0 3.56 1.64 6.744 4.922 9.547 10.809-11.435 27.882-24.785 51.223-40.052 1.34-4.745 2.013-8.845 2.013-12.298zm20.004-.323c-6.293 3.993-13.176 8.523-20.651 13.594-3.549 11.436-9.774 21.47-18.674 30.099-8.901 8.632-17.437 12.945-25.611 12.945-2.474 0-5.19-.647-8.147-1.942-6.078 6.312-11.239 12.947-15.488 19.904 4.409 1.995 9.41 2.994 15.003 2.994 10.11 0 19.896-2.872 29.362-8.617 9.463-5.745 17.585-13.716 24.36-23.911 3.172-4.745 5.674-9.155 7.503-13.228 1.827-4.071 4.785-11.745 8.873-23.02.968-2.803 2.124-5.745 3.468-8.818zm-22.827 14.888l-5.323 3.641c-20.275 14.026-34.903 25.703-43.884 35.034 2.259 1.187 4.678 1.78 7.26 1.78 7.529 0 15.407-3.963 23.635-11.894 8.229-7.931 14.331-17.449 18.312-28.562zm55.981-44.745c0-1.294-.753-1.942-2.259-1.942-3.603 0-7.623 2.496-12.06 7.485-4.437 4.989-7.865 10.83-10.285 17.518 7.098-4.369 12.973-8.739 17.627-13.108 4.651-4.369 6.978-7.687 6.978-9.953zm-3.267 80.225c-.054.162-.324.594-.807 1.297l-3.472 4.78c-10.122 14.101-17.849 21.15-23.178 21.15-2.531 0-4.644-.904-6.34-2.711-1.697-1.807-2.544-4.059-2.544-6.757 0-3.127 1.856-7.875 5.567-14.241l12.584-21.442c1.666.378 2.985.566 3.953.566 1.452 0 3.495-.188 6.131-.566l-18.309 30.182c-2.636 4.369-3.953 7.741-3.953 10.114 0 2.428 1.266 3.641 3.796 3.641 4.793 0 13.221-8.563 25.283-25.689.27-.539.537-.809.808-.809.321.002.483.162.483.486zm-1.17-33.458c0 1.888-.795 3.655-2.381 5.299-1.587 1.646-3.321 2.468-5.203 2.468-2.419 0-3.629-1.214-3.629-3.641 0-1.78.832-3.492 2.501-5.138 1.666-1.645 3.415-2.468 5.244-2.468 2.31.002 3.468 1.162 3.468 3.48zm56.508 33.539c0 .862-2.908 4.553-8.722 11.069-6.514 7.219-14.94 13.657-25.278 19.313l-4.034 7.363c-7.314 13.54-15.516 23.976-24.603 31.313-8.712 7.066-16.24 10.6-22.587 10.6-2.311 0-4.221-.701-5.727-2.105-1.504-1.402-2.259-3.128-2.259-5.179 0-11.057 12.45-22.278 37.349-33.659 5.376-2.481 8.845-4.154 10.405-5.016l13.713-25.325c-5.97 7.929-10.177 13.04-12.623 15.333-2.448 2.291-4.96 3.439-7.543 3.439-2.796 0-5.177-1.241-7.138-3.722-1.965-2.48-2.945-5.502-2.945-9.061 0-9.331 6.077-17.801 18.231-25.408 8.12-5.069 14.493-7.606 19.118-7.606 3.228 0 4.84 1.78 4.84 5.34 0 .97-.242 2.13-.726 3.479l4.518-8.173c1.452.378 2.715.566 3.791.566 1.398 0 3.441-.188 6.131-.566-.377.486-2.744 4.532-7.098 12.138l-20.006 34.63c7.044-3.984 12.678-7.836 16.899-11.554 4.223-3.716 8.996-9.076 14.319-16.078.807-1.077 1.344-1.617 1.614-1.617.24.054.361.217.361.486zm-46.263 35.075c-1.022.594-4.061 2.13-9.115 4.613-24.522 12.19-36.783 23.141-36.783 32.85 0 1.672.62 3.075 1.856 4.208 1.237 1.133 2.823 1.699 4.759 1.699 5.916 0 11.67-3.035 17.262-9.103 5.592-6.068 12.609-16.951 21.054-32.648l.968-1.619zm104.808-26.537c-1.608 2.021-3.545 4.388-5.811 7.1-6.408 7.672-11.442 11.509-15.102 11.509-2.422 0-4.457-.945-6.097-2.832-1.642-1.888-2.463-4.208-2.463-6.959 0-2.427.496-4.679 1.493-6.756.993-2.076 3.589-6.19 7.785-12.339 4.356-6.473 6.534-10.6 6.534-12.38 0-2.212-1.158-3.318-3.47-3.318-7.852 0-19.951 14.619-36.298 43.854-2.636-.217-4.222-.323-4.76-.323-1.882 0-3.659.107-5.323.323l12.584-19.985c7.152-11.436 10.729-18.582 10.729-21.442 0-1.619-.675-2.428-2.02-2.428-2.748 0-8.164 5.812-16.246 17.437-.486.703-.862 1.08-1.132 1.134-.27 0-.43-.162-.483-.486.053-.271.161-.487.323-.648l1.536-2.027c8.241-11.081 13.788-16.623 16.643-16.623 1.832 0 3.393.837 4.686 2.508 1.293 1.673 1.941 3.67 1.941 5.988 0 3.452-2.016 8.253-6.051 14.402 6.345-8.791 11.226-14.807 14.642-18.043 3.416-3.236 6.575-4.855 9.478-4.855 2.365 0 4.356.97 5.97 2.913 1.614 1.942 2.421 4.342 2.421 7.201 0 3.616-2.475 9.143-7.42 16.587-5.056 7.606-7.583 12.461-7.583 14.566 0 2.212 1.104 3.316 3.312 3.316 4.333 0 11.505-6.999 21.517-20.997 3.112-6.648 9.702-12.73 19.772-18.245 6.399-3.561 11.561-5.34 15.488-5.34 3.334 0 5.001 1.617 5.001 4.855 0 .918-.216 2.132-.647 3.641l4.114-7.849c1.614.378 3.038.566 4.275.566 1.452 0 3.334-.188 5.646-.566l-14.277 23.708c-4.948 8.307-7.422 13.784-7.422 16.426 0 2.535 1.05 3.802 3.15 3.802 2.154 0 5.603-2.472 10.341-7.415 4.738-4.944 9.558-11.035 14.459-18.275.322-.539.619-.809.888-.809.327 0 .488.161.488.484 0 1.136-3.93 6.375-11.79 15.72-6.354 7.672-11.361 11.509-15.022 11.509-2.478 0-4.497-.931-6.058-2.793-1.562-1.861-2.341-4.193-2.341-6.999 0-2.913.859-6.068 2.581-9.467-5.379 7.553-9.492 12.651-12.342 15.293-2.85 2.642-5.619 3.965-8.308 3.965-2.85 0-5.243-1.228-7.179-3.682-1.936-2.454-2.904-5.543-2.904-9.264 0-1.928.253-3.816.758-5.662zm-79.238-21.848c0-2.752-1.319-4.127-3.952-4.127-4.841 0-11.253 4.842-19.239 14.524-7.986 9.682-11.977 17.491-11.977 23.423 0 3.616 1.558 5.421 4.678 5.421 3.173 0 8.55-4.8 16.134-14.402 9.57-12.136 14.356-20.416 14.356-24.839zm263.279 16.35c-4.445 5.768-8.576 8.652-12.395 8.652-3.394 0-5.091-2.264-5.091-6.796 0-1.617.376-3.668 1.129-6.149l.968-.809c2.365-1.456 4.14-2.562 5.323-3.318 7.475-4.8 11.213-8.495 11.213-11.084 0-1.456-.834-2.185-2.5-2.185-2.421 0-5.151 1.619-8.189 4.855-3.039 3.236-5.58 7.257-7.623 12.056-2.527 2.051-5.192 4.693-7.986 7.929 4.41-6.85 6.615-12.353 6.615-16.507 0-5.555-2.156-8.334-6.464-8.334-2.962 0-8.592 5.541-16.887 16.623l-1.075 1.497c-.212.091-.422.349-.634.772l-1.453 1.783-2.504 3.485c-9.695 13.614-16.695 20.42-21.003 20.42-2.208 0-3.312-1.159-3.312-3.479 0-2.859 3.065-9.306 9.195-19.338l12.908-21.118c-2.475.378-4.383.566-5.727.566-1.13 0-2.529-.188-4.195-.566l-7.905 13.431c-11.992 20.338-20.706 30.504-26.136 30.504-2.045 0-3.066-1.213-3.066-3.641 0-2.48.969-5.338 2.904-8.576l19.199-31.717c-2.635.378-4.464.566-5.486.566-1.023 0-2.448-.188-4.275-.566l-10.435 17.598c-.175.134-.367.349-.575.647-11.631 17.127-19.898 25.689-24.798 25.689-2.531 0-3.797-1.213-3.797-3.641 0-2.21 1.103-5.177 3.308-8.9l17.988-30.827h10.567l.647-1.213v-.003h-10.57l9.277-15.697c-1.614.432-3.174.647-4.678.647-1.452 0-2.985-.215-4.599-.647l-9.438 15.697h-8.066l-.807 1.213h8.227l-13.553 22.817c-2.85 4.855-4.275 8.9-4.275 12.138 0 2.75.848 5.045 2.544 6.877 1.697 1.834 3.81 2.752 6.341 2.752 4.801 0 11.809-6.211 21.023-18.637-1.763 3.338-2.643 6.342-2.643 9.012 0 2.698.807 4.976 2.421 6.837 1.614 1.861 3.603 2.793 5.97 2.793 2.259 0 4.651-1.214 7.179-3.641 2.313-2.158 5.942-6.419 10.89-12.784l1.614-2.185c-2.097 3.777-3.146 6.716-3.146 8.82 0 2.698.82 5.004 2.463 6.918 1.641 1.914 3.647 2.872 6.017 2.872 3.769 0 8.885-3.837 15.345-11.509 6.784-8.026 10.62-13.034 11.509-15.025.145-.165.296-.37.453-.614 7.921-11.624 13.392-17.437 16.408-17.437 1.239 0 1.86.757 1.86 2.266 0 2.588-3.308 9.277-9.923 20.065l-13.23 21.523c3.066-.217 4.705-.323 4.92-.323.483 0 2.151.107 5.001.323 5.216-8.952 8.885-14.886 11.01-17.801 2.124-2.913 4.88-5.851 8.268-8.818-.645 2.319-.969 4.235-.969 5.745 0 4.747 2.048 7.12 6.143 7.12 3.489 0 7.206-2.124 11.149-6.374-.719 2.117-1.078 4.296-1.078 6.536 0 4.1 1.278 7.512 3.834 10.236 2.556 2.723 5.718 4.086 9.488 4.086 7.965 0 17.52-6.894 28.662-20.684l3.471-4.362c.968-1.24 1.454-1.941 1.454-2.102 0-.269-.108-.432-.324-.484-.43 0-.969.43-1.614 1.292-12.329 16.644-22.745 24.964-31.25 24.964-5.005 0-7.509-2.319-7.509-6.959 0-3.722 1.829-8.359 5.486-13.917 11.831-2.373 20.274-4.922 25.329-7.646 5.055-2.723 7.582-6.029 7.582-9.912 0-1.672-.687-3.087-2.058-4.247-1.371-1.16-3.024-1.739-4.96-1.739-4.464 0-10.245 1.942-17.343 5.826-8.766 4.799-14.685 10.087-17.758 15.864zm-143.658-16.512c0-2.642-1.209-3.965-3.629-3.965-4.948 0-11.442 4.855-19.481 14.564-8.041 9.709-12.06 17.559-12.06 23.545 0 3.507 1.559 5.259 4.679 5.259 3.711 0 10.135-6.176 19.279-18.529 7.473-10.139 11.211-17.098 11.211-20.875zm181.26-1.536c0-1.726-.942-2.589-2.823-2.589-2.85 0-6.602 1.983-11.253 5.948-4.651 3.965-9.21 9.103-13.674 15.413 7.745-1.995 14.304-4.813 19.683-8.456 5.377-3.641 8.067-7.081 8.067-10.315zm-279.389 74.781c-1.123.326-2.274.475-3.448.475-5.722 0-10.345-3.885-10.345-9.801 0-5.865 4.698-9.775 10.345-9.775 3.324 0 5.624 1.178 7.947 3.483l-1.498 1.58c-1.974-1.83-3.723-2.857-6.498-2.857-4.398 0-8.121 3.033-8.121 7.595 0 4.637 3.748 7.57 8.172 7.57.75 0 1.524-.075 2.274-.226 1.624-.351 3.847-1.378 3.847-3.36v-2.632h-6.447v-2.206h8.646v4.988c0 2.734-2.524 4.464-4.873 5.165zm20.591 0l-3.749-5.314h-4.524v5.314h-2.225v-12.985h7.996c2.624 0 4.923.828 4.923 3.835 0 2.206-1.35 3.51-3.474 3.786l3.774 5.364h-2.722zm-2.399-10.779h-5.873v3.259h5.997c1.226 0 2.499-.251 2.499-1.729 0-1.104-.525-1.53-2.624-1.53zm16.617 11.23c-4.023 0-7.797-2.507-7.797-6.843v-.351c0-4.386 4.048-6.617 7.996-6.617 4.072 0 7.872 2.431 7.872 6.843 0 4.461-3.974 6.968-8.071 6.968zm.174-11.555c-2.823 0-5.746 1.503-5.746 4.687 0 3.134 2.799 4.612 5.598 4.612s5.823-1.503 5.823-4.687c-.002-3.184-2.85-4.612-5.675-4.612zm23.834 9.148c-1.124 1.729-3.549 2.331-5.472 2.331-1.774 0-3.623-.402-4.947-1.655-1.275-1.229-1.35-2.707-1.35-4.387v-7.32h2.225v7.32c0 1.78.175 2.206.575 2.657.825.927 2.499 1.153 3.648 1.153 1.2 0 2.774-.301 3.498-1.354.3-.426.426-.852.426-2.457v-7.32h2.199v7.32c-.001 2.06-.15 2.711-.801 3.713zm17.738-3.734c-1.05.927-1.65.978-3.974.978h-5.022v4.712h-2.199v-12.985h7.921c1.623 0 1.974.126 2.724.576 1.224.727 1.85 2.231 1.85 3.61-.002 1.178-.401 2.307-1.3 3.108zm-3.723-5.089h-5.272v3.859h5.022c2.323 0 3.075-.301 3.075-1.881-.002-1.602-.876-1.979-2.825-1.979zm33.733 10.779v-8.672h-11.995v8.672h-2.224v-18.725h2.224v7.845h11.995v-7.845h2.225v18.725h-2.225zm14.839.451c-4.023 0-7.797-2.507-7.797-6.843v-.351c0-4.386 4.048-6.617 7.996-6.617 4.073 0 7.87 2.431 7.87 6.843.002 4.461-3.972 6.968-8.07 6.968zm.175-11.555c-2.823 0-5.746 1.503-5.746 4.687 0 3.134 2.798 4.612 5.598 4.612 2.797 0 5.821-1.503 5.821-4.687-.001-3.184-2.85-4.612-5.673-4.612zm13.116 11.104v-12.985h2.199v10.779h7.896v2.206h-10.095zm21.39 0h-7.096v-12.985h7.096c4.299 0 6.597 2.883 6.597 6.443 0 4.01-2.623 6.542-6.597 6.542zm0-10.779h-4.897v8.573h4.897c2.625 0 4.398-1.629 4.398-4.312 0-2.832-1.75-4.261-4.398-4.261zm11.943 10.779v-12.985h2.201v12.985h-2.201zm17.987 0l-8.097-9.65v9.65h-2.199v-12.985h2.223l8.073 9.625v-9.625h2.199v12.985h-2.199zm14.314.376c-4.023 0-7.748-2.556-7.748-6.868 0-4.437 3.848-6.843 7.922-6.843 2.349 0 4.197.703 6.046 2.13l-1.274 1.78c-1.774-1.253-2.773-1.705-4.947-1.705-2.749 0-5.523 1.604-5.523 4.637 0 3.057 2.799 4.663 5.547 4.663 1.899 0 2.699-.275 4.325-1.253v-1.954h-3.724v-2.231h5.949v5.338c-2.075 1.505-3.95 2.307-6.573 2.307zm18.269.075c-2.798 0-5.498-.501-7.772-2.206l1.05-1.93c2.124 1.353 3.824 1.93 6.372 1.93 2.474 0 4.224-.351 4.224-2.081 0-.326-.051-.677-.225-.978-.424-.651-1.649-.828-3.599-.828-3.875 0-4.374-.176-5.124-.527-1.173-.551-1.798-1.804-1.798-3.083 0-3.158 3.174-4.111 5.796-4.111 2.398 0 4.473.551 6.571 1.705l-1.024 1.98c-1.849-1.103-3.348-1.503-5.498-1.503-2.1 0-3.448.501-3.448 1.78 0 .301.049.627.225.877.35.527 1.2.727 3.723.727 3.524 0 6.721.301 6.721 3.734.002 3.685-3.096 4.512-6.195 4.512zm20.966-.451v-18.749h2.199v18.749h-2.199zm17.961 0l-8.097-9.65v9.65h-2.199v-12.985h2.225l8.071 9.625v-9.625h2.199v12.985h-2.199zm14.262.451c-4.147 0-8.071-2.307-8.071-6.868 0-4.362 3.648-6.944 7.748-6.944 2.524 0 4.749.877 6.721 2.431l-1.173 1.855c-1.8-1.253-3.273-2.055-5.523-2.055-2.799 0-5.572 1.629-5.572 4.712 0 3.233 2.973 4.637 5.822 4.637 2.124 0 3.873-.627 5.623-1.83l.975 2.03c-2.025 1.404-4.074 2.031-6.549 2.031zm12.72.125c-.951 0-1.75-.752-1.75-1.705 0-.927.775-1.729 1.7-1.729.975 0 1.75.778 1.75 1.729 0 .952-.776 1.705-1.7 1.705z" sketch:type="MSShapeGroup" fill="#fff"/></svg>