<?xml version="1.0" encoding="UTF-8" standalone="no"?>
<svg width="480px" height="240px" viewBox="0 0 480 240" version="1.1" xmlns="http://www.w3.org/2000/svg" xmlns:xlink="http://www.w3.org/1999/xlink" xmlns:sketch="http://www.bohemiancoding.com/sketch/ns">
    <!-- Generator: Sketch 3.0.1 (7597) - http://www.bohemiancoding.com/sketch -->
    <title>cover-logo</title>
    <description>Created with Sketch.</description>
    <defs></defs>
    <g id="Page-1" stroke="none" stroke-width="1" fill="none" fill-rule="evenodd" sketch:type="MSPage">
        <g id="cover-logo" sketch:type="MSArtboardGroup" fill="#FFFFFF">
            <path d="M142.4565,41.1566239 C142.4565,43.7460183 139.8615,47.4819083 134.6715,52.362789 C129.4815,57.2451743 123.15,61.9244404 115.6755,66.4020917 C114.708,69.4759633 113.2815,75.0594862 111.4005,83.151156 C108.3885,95.8288073 105.6195,104.823229 103.092,110.135927 C100.563,115.450128 96.396,120.857615 90.5895,126.35989 C73.8105,142.269394 55.014,150.227156 34.203,150.227156 C28.233,150.227156 22.9635,149.22811 18.393,147.233028 C15.864,152.202679 14.601,156.525358 14.601,160.198055 C14.601,164.842716 16.146,169.111229 19.239,173.002092 C19.5615,173.325578 19.7235,173.703229 19.7235,174.13655 C19.7235,174.568367 19.4535,174.783523 18.9165,174.783523 C17.6715,174.783523 16.3305,173.108917 14.8965,169.761211 C13.4625,166.410495 12.7455,163.277945 12.7455,160.36055 C12.7455,156.147706 14.1165,151.501541 16.86,146.42356 C5.619,140.597798 0,130.592294 0,116.404037 C0,107.287743 2.688,98.2256147 8.067,89.2176514 C13.443,80.2096881 21,72.0924404 30.7335,64.8628991 C43.1565,55.6924404 55.443,51.1079633 67.5975,51.1079633 C74.2125,51.1079633 79.4685,52.9691376 83.367,56.6914862 C87.2655,60.4138349 89.2155,65.457211 89.2155,71.8216147 C89.2155,75.2204771 88.731,78.7532477 87.7635,82.4214312 C95.6685,77.1358165 102.6585,72.6596697 108.7365,68.9899817 C112.608,60.5221651 117.4755,53.2399633 123.336,47.1433761 C129.1995,41.0482936 134.31,38 138.6645,38 C141.192,38 142.4565,39.0517064 142.4565,41.1566239 L142.4565,41.1566239 Z M87.765,71.4981284 C87.765,65.8348624 85.9755,61.2759633 82.3995,57.8244404 C78.822,54.3729174 74.103,52.6456514 68.2425,52.6456514 C53.775,52.6456514 39.78,60.1986789 26.256,75.3017248 C12.732,90.4047706 5.97,106.047963 5.97,122.229798 C5.97,132.856697 9.8685,140.409725 17.667,144.885872 C21.324,138.844954 26.5665,132.236807 33.3975,125.061431 C29.8485,121.98756 28.074,118.319376 28.074,114.058385 C28.074,110.820514 29.0955,108.058092 31.14,105.765101 C33.183,103.473615 35.6565,102.327119 38.5605,102.327119 C42.162,102.327119 43.965,104.00022 43.965,107.343413 C43.965,109.070679 43.2915,110.566239 41.949,111.833101 C40.6035,113.101468 39.0165,113.734899 37.1895,113.734899 C34.554,113.734899 33.237,112.468037 33.237,109.931303 C33.237,109.121835 33.5055,108.259706 34.044,107.341908 C34.2585,106.640771 34.3665,106.237541 34.3665,106.129211 C34.3665,105.805725 34.2045,105.643229 33.882,105.643229 C32.967,105.643229 32.0265,106.615193 31.059,108.55611 C30.0915,110.498532 29.607,112.413872 29.607,114.302128 C29.607,117.861982 31.2465,121.045688 34.5285,123.848734 C45.3375,112.413872 62.4105,99.0636697 85.752,83.7966239 C87.0915,79.051156 87.765,74.951156 87.765,71.4981284 L87.765,71.4981284 Z M107.769,71.1746422 C101.4765,75.1678165 94.593,79.6981284 87.1185,84.7685872 C83.5695,96.2049541 77.3445,106.239046 68.445,114.867853 C59.544,123.49967 51.0075,127.813321 42.834,127.813321 C40.3605,127.813321 37.644,127.166349 34.6875,125.870899 C28.6095,132.182642 23.448,138.817872 19.2,145.775083 C23.6085,147.770165 28.6095,148.769211 34.203,148.769211 C44.313,148.769211 54.099,145.896954 63.5655,140.15244 C73.029,134.407927 81.15,126.436624 87.9255,116.241541 C91.098,111.496073 93.6,107.086128 95.4285,103.013211 C97.2555,98.9417982 100.2135,91.2684037 104.301,79.9930275 C105.2685,77.1899817 106.425,74.2485138 107.769,71.1746422 L107.769,71.1746422 Z M84.942,86.0625321 L79.6185,89.703633 C59.343,103.729394 44.715,115.406495 35.7345,124.737945 C37.9935,125.925064 40.413,126.517872 42.9945,126.517872 C50.523,126.517872 58.401,122.554789 66.63,114.62411 C74.859,106.693431 80.961,97.1754128 84.942,86.0625321 L84.942,86.0625321 Z M140.9235,41.3176147 C140.9235,40.0236697 140.1705,39.3751927 138.6645,39.3751927 C135.0615,39.3751927 131.0415,41.8713028 126.6045,46.8605138 C122.1675,51.8497248 118.74,57.6905321 116.319,64.378422 C123.417,60.0091009 129.2925,55.6397798 133.9455,51.2704587 C138.597,46.9011376 140.9235,43.5835229 140.9235,41.3176147 L140.9235,41.3176147 Z M137.6565,121.542202 C137.6025,121.704697 137.3325,122.136514 136.8495,122.839156 L133.377,127.619229 C123.255,141.72022 115.5285,148.769211 110.199,148.769211 C107.6685,148.769211 105.555,147.864954 103.8585,146.057945 C102.162,144.250936 101.3145,141.998569 101.3145,139.300844 C101.3145,136.174312 103.17,131.425835 106.881,125.059927 L119.4645,103.618055 C121.131,103.995706 122.4495,104.18378 123.417,104.18378 C124.869,104.18378 126.912,103.995706 129.5475,103.618055 L111.2385,133.800073 C108.603,138.169394 107.286,141.541174 107.286,143.913908 C107.286,146.342312 108.552,147.555009 111.0825,147.555009 C115.875,147.555009 124.3035,138.992404 136.365,121.865688 C136.635,121.327046 136.902,121.05622 137.1735,121.05622 C137.4945,121.057725 137.6565,121.218716 137.6565,121.542202 L137.6565,121.542202 Z M136.4865,88.0846972 C136.4865,89.9729541 135.6915,91.7393394 134.106,93.3838532 C132.519,95.0298716 130.785,95.8513761 128.9025,95.8513761 C126.483,95.8513761 125.274,94.6371743 125.274,92.2102752 C125.274,90.4303486 126.1065,88.7181284 127.7745,87.0721101 C129.441,85.4275963 131.19,84.6045872 133.0185,84.6045872 C135.3285,84.6060917 136.4865,85.7661284 136.4865,88.0846972 L136.4865,88.0846972 Z M192.9945,121.62345 C192.9945,122.485578 190.086,126.17633 184.272,132.692697 C177.7575,139.911706 169.332,146.349835 158.994,152.005578 L154.9605,159.369028 C147.6465,172.908807 139.4445,183.344624 130.3575,190.682495 C121.6455,197.748037 114.117,201.282312 107.7705,201.282312 C105.459,201.282312 103.5495,200.581174 102.0435,199.177394 C100.539,197.775119 99.7845,196.049358 99.7845,193.998606 C99.7845,182.941394 112.2345,171.720183 137.133,160.339486 C142.509,157.858422 145.9785,156.185321 147.5385,155.323193 L161.2515,129.997982 C155.2815,137.927156 151.074,143.038239 148.629,145.331229 C146.181,147.622716 143.6685,148.770716 141.0855,148.770716 C138.2895,148.770716 135.909,147.529431 133.947,145.048367 C131.982,142.568807 131.0025,139.546092 131.0025,135.987743 C131.0025,126.656294 137.079,118.186972 149.2335,110.57978 C157.353,105.510826 163.7265,102.974092 168.351,102.974092 C171.579,102.974092 173.1915,104.754018 173.1915,108.313872 C173.1915,109.28433 172.95,110.444367 172.4655,111.792477 L176.9835,103.61956 C178.4355,103.997211 179.6985,104.185284 180.774,104.185284 C182.172,104.185284 184.215,103.997211 186.9045,103.61956 C186.528,104.105541 184.161,108.151376 179.8065,115.757064 L159.801,150.386642 C166.845,146.402495 172.479,142.550752 176.7,138.832917 C180.9225,135.116587 185.6955,129.757248 191.019,122.754899 C191.826,121.677615 192.363,121.137468 192.633,121.137468 C192.873,121.191633 192.9945,121.354128 192.9945,121.62345 L192.9945,121.62345 Z M146.7315,156.698385 C145.71,157.292697 142.671,158.828881 137.616,161.31145 C113.094,173.501615 100.833,184.452 100.833,194.161101 C100.833,195.832697 101.4525,197.236477 102.6885,198.369431 C103.926,199.502385 105.5115,200.06811 107.448,200.06811 C113.364,200.06811 119.118,197.033358 124.71,190.965358 C130.302,184.897358 137.319,174.014679 145.764,158.317321 L146.7315,156.698385 L146.7315,156.698385 Z M251.53995,130.161633 C249.931717,132.182487 247.994568,134.549295 245.7285,137.262128 C239.3205,144.934018 234.2865,148.770716 230.6265,148.770716 C228.204,148.770716 226.17,147.825835 224.529,145.939083 C222.8865,144.050826 222.066,141.730752 222.066,138.980367 C222.066,136.553468 222.5625,134.301101 223.5585,132.224771 C224.5515,130.14844 227.148,126.034899 231.3435,119.885651 C235.6995,113.412917 237.8775,109.285835 237.8775,107.505908 C237.8775,105.294165 236.7195,104.188294 234.408,104.188294 C226.5555,104.188294 214.4565,118.806862 198.1095,148.042495 C195.474,147.825835 193.887,147.719009 193.35,147.719009 C191.4675,147.719009 189.6915,147.825835 188.0265,148.042495 L200.61,128.057064 C207.762,116.620697 211.3395,109.475413 211.3395,106.615193 C211.3395,104.996257 210.6645,104.186789 209.319,104.186789 C206.571,104.186789 201.1545,109.999009 193.0725,121.62345 C192.5865,122.326092 192.21,122.703743 191.94,122.757908 C191.67,122.757908 191.5095,122.595413 191.457,122.271927 C191.5095,122.001101 191.6175,121.78444 191.7795,121.62345 L193.3155,119.596771 C201.5565,108.515486 207.1035,102.974092 209.958,102.974092 C211.7895,102.974092 213.351,103.810642 214.644,105.482239 C215.937,107.155339 216.585,109.151927 216.585,111.470495 C216.585,114.922018 214.569,119.723156 210.534,125.872404 C216.879,117.081101 221.76,111.065761 225.1755,107.829394 C228.591,104.593028 231.75,102.974092 234.654,102.974092 C237.0195,102.974092 239.01,103.94455 240.624,105.886972 C242.238,107.829394 243.045,110.229211 243.045,113.087927 C243.045,116.70345 240.57,122.231303 235.6245,129.674495 C230.568,137.280183 228.042,142.135486 228.042,144.240404 C228.042,146.452147 229.146,147.556514 231.354,147.556514 C235.686804,147.556514 242.85912,140.557774 252.870948,126.559184 C255.983228,119.911152 262.573417,113.829216 272.643,108.313872 C279.042,104.752514 284.2035,102.974092 288.1305,102.974092 C291.465,102.974092 293.1315,104.591523 293.1315,107.829394 C293.1315,108.747193 292.9155,109.961394 292.485,111.470495 L296.5995,103.621064 C298.2135,103.998716 299.637,104.186789 300.8745,104.186789 C302.3265,104.186789 304.209,103.998716 306.5205,103.621064 L292.2435,127.328844 C287.295,135.63567 284.8215,141.112367 284.8215,143.754422 C284.8215,146.289651 285.8715,147.556514 287.9715,147.556514 C290.1255,147.556514 293.574,145.084477 298.3125,140.141908 C303.051,135.197835 307.8705,129.107266 312.771,121.867193 C313.0935,121.32855 313.3905,121.057725 313.659,121.057725 C313.986,121.057725 314.1465,121.218716 314.1465,121.542202 C314.1465,122.678165 310.2165,127.917138 302.3565,137.262128 C296.0025,144.934018 290.9955,148.770716 287.334,148.770716 C284.856,148.770716 282.837,147.839376 281.2755,145.978202 C279.714,144.117028 278.934,141.784917 278.934,138.978862 C278.934,136.065982 279.7935,132.910862 281.5155,129.512 C276.1365,137.065028 272.0235,142.162569 269.1735,144.804624 C266.3235,147.446679 263.5545,148.769211 260.865,148.769211 C258.015,148.769211 255.6225,147.541468 253.686,145.087486 C251.7495,142.633505 250.782,139.544587 250.782,135.823743 C250.782,133.895256 251.03464,132.007883 251.53995,130.161633 Z M172.302,108.313872 C172.302,105.561982 170.9835,104.186789 168.3495,104.186789 C163.509,104.186789 157.0965,109.02855 149.1105,118.710569 C141.1245,128.392587 137.133,136.201394 137.133,142.133982 C137.133,145.749505 138.6915,147.555009 141.8115,147.555009 C144.984,147.555009 150.3615,142.755376 157.9455,133.153101 C167.5155,121.017101 172.302,112.737358 172.302,108.313872 Z M435.580867,124.663819 C431.136195,130.43167 427.004948,133.315596 423.186,133.315596 C419.7915,133.315596 418.095,131.051193 418.095,126.519376 C418.095,124.901945 418.4715,122.851193 419.2245,120.370128 L420.192,119.560661 C422.5575,118.10422 424.332,116.998349 425.5155,116.243046 C432.99,111.443413 436.728,107.748147 436.728,105.158752 C436.728,103.702312 435.894,102.974092 434.2275,102.974092 C431.8065,102.974092 429.0765,104.593028 426.039,107.829394 C423,111.065761 420.459,115.086018 418.416,119.885651 C415.8885,121.936404 413.2245,124.578459 410.43,127.814826 C414.84,120.96444 417.045,115.462165 417.045,111.308 C417.045,105.753064 414.8895,102.974092 410.5815,102.974092 C407.619,102.974092 401.9895,108.515486 393.6945,119.596771 L392.61972,121.093838 C392.407911,121.185227 392.197879,121.442995 391.986,121.865688 L390.5325,123.648624 L388.029,127.133248 C378.3345,140.746752 371.334,147.553505 367.026,147.553505 C364.818,147.553505 363.714,146.394972 363.714,144.074899 C363.714,141.216183 366.7785,134.769028 372.909,124.73644 L385.8165,103.618055 C383.3415,103.995706 381.4335,104.18378 380.0895,104.18378 C378.96,104.18378 377.5605,103.995706 375.894,103.618055 L367.989,117.049505 C355.9965,137.387009 347.283,147.553505 341.853,147.553505 C339.8085,147.553505 338.787,146.340807 338.787,143.912404 C338.787,141.432844 339.756,138.574128 341.691,135.336257 L360.8895,103.61956 C358.254,103.997211 356.4255,104.185284 355.404,104.185284 C354.381,104.185284 352.956,103.997211 351.129,103.61956 L340.693934,121.217086 L340.693934,121.217086 C340.518609,121.350668 340.327049,121.566536 340.119,121.864183 C328.488,138.990899 320.2215,147.553505 315.321,147.553505 C312.7905,147.553505 311.5245,146.340807 311.5245,143.912404 C311.5245,141.702165 312.627,138.735119 314.832,135.012771 L332.82,104.185284 L343.3875,104.185284 L344.034,102.972587 L344.034,102.969578 L333.4635,102.969578 L342.741,87.2722202 C341.127,87.7040367 339.567,87.9191927 338.0625,87.9191927 C336.6105,87.9191927 335.0775,87.7040367 333.4635,87.2722202 L324.0255,102.969578 L315.96,102.969578 L315.153,104.182275 L323.3805,104.182275 L309.828,126.999339 C306.978,131.854642 305.553,135.898972 305.553,139.136844 C305.553,141.887229 306.4005,144.181725 308.097,146.014312 C309.7935,147.848404 311.907,148.766202 314.4375,148.766202 C319.238992,148.766202 326.2465,142.554823 335.460024,130.129575 C333.697386,133.467519 332.817,136.47207 332.817,139.141358 C332.817,141.839083 333.624,144.117028 335.238,145.978202 C336.852,147.839376 338.841,148.770716 341.208,148.770716 C343.467,148.770716 345.8595,147.556514 348.387,145.129615 C350.7,142.972037 354.3285,138.711046 359.277,132.345138 L360.891,130.160477 C358.794,133.936991 357.7455,136.876954 357.7455,138.980367 C357.7455,141.678092 358.566,143.984624 360.2085,145.898459 C361.8495,147.812294 363.855,148.770716 366.225,148.770716 C369.9945,148.770716 375.1095,144.934018 381.57,137.262128 C388.353989,129.236332 392.190085,124.22765 393.079272,122.237069 L393.079272,122.237069 C393.224602,122.07177 393.375661,121.867197 393.5325,121.62345 C401.454,109.999009 406.9245,104.186789 409.941,104.186789 C411.18,104.186789 411.801,104.943596 411.801,106.452697 C411.801,109.040587 408.4935,115.729982 401.8785,126.517872 L388.6485,148.040991 C391.7145,147.82433 393.354,147.717505 393.5685,147.717505 C394.0515,147.717505 395.7195,147.82433 398.5695,148.040991 C403.785,139.088697 407.454,133.154606 409.5795,130.24022 C411.7035,127.327339 414.459,124.388881 417.8475,121.421835 C417.2025,123.740404 416.8785,125.657248 416.8785,127.166349 C416.8785,131.913321 418.926,134.286055 423.021,134.286055 C426.510224,134.286055 430.226587,132.162428 434.170088,127.912454 C433.451356,130.029393 433.092,132.208086 433.092,134.44855 C433.092,138.54855 434.37,141.960954 436.926,144.684257 C439.482,147.40756 442.644,148.770716 446.4135,148.770716 C454.3785,148.770716 463.9335,141.876697 475.0755,128.087156 L478.5465,123.725358 C479.514,122.485578 480,121.78444 480,121.62345 C480,121.354128 479.892,121.191633 479.676,121.138972 C479.2455,121.138972 478.707,121.569284 478.062,122.431413 C465.7335,139.075156 455.3175,147.395523 446.8125,147.395523 C441.807,147.395523 439.3035,145.076954 439.3035,140.436807 C439.3035,136.714459 441.132,132.077321 444.789,126.519376 C456.6195,124.146642 465.063,121.597872 470.118,118.873064 C475.173,116.149761 477.7005,112.844183 477.7005,108.960844 C477.7005,107.289248 477.0135,105.873431 475.6425,104.713394 C474.2715,103.553358 472.6185,102.974092 470.682,102.974092 C466.218,102.974092 460.437,104.916514 453.339,108.799853 C444.573282,113.599151 438.654041,118.887002 435.580867,124.663819 Z M291.9225,108.151376 C291.9225,105.509321 290.7135,104.186789 288.294,104.186789 C283.3455,104.186789 276.852,109.042092 268.8135,118.751193 C260.772,128.460294 256.7535,136.309725 256.7535,142.296477 C256.7535,145.80367 258.312,147.555009 261.432,147.555009 C265.143,147.555009 271.5675,141.378679 280.7115,129.026018 C288.1845,118.886606 291.9225,111.92789 291.9225,108.151376 Z M473.1825,106.615193 C473.1825,104.889431 472.2405,104.025798 470.3595,104.025798 C467.5095,104.025798 463.758,106.008844 459.1065,109.973431 C454.455,113.938018 449.8965,119.076183 445.4325,125.386422 C453.177,123.391339 459.7365,120.573248 465.1155,116.930642 C470.493,113.289541 473.1825,109.850055 473.1825,106.615193 Z M193.794,181.396183 C192.6705,181.722679 191.52,181.871633 190.3455,181.871633 C184.623,181.871633 180,177.986789 180,172.070752 C180,166.205872 184.698,162.29545 190.3455,162.29545 C193.6695,162.29545 195.969,163.473541 198.2925,165.778569 L196.794,167.358385 C194.82,165.528807 193.071,164.501174 190.296,164.501174 C185.898,164.501174 182.175,167.534422 182.175,172.09633 C182.175,176.733468 185.9235,179.665908 190.347,179.665908 C191.097,179.665908 191.871,179.590679 192.621,179.44022 C194.2455,179.089651 196.4685,178.062018 196.4685,176.080477 L196.4685,173.448954 L190.0215,173.448954 L190.0215,171.243229 L198.6675,171.243229 L198.6675,176.230936 C198.6675,178.964771 196.143,180.695046 193.794,181.396183 Z M214.3845,181.396183 L210.636,176.081982 L206.112,176.081982 L206.112,181.396183 L203.8875,181.396183 L203.8875,168.411596 L211.884,168.411596 C214.5075,168.411596 216.807,169.239119 216.807,172.246789 C216.807,174.452514 215.457,175.756991 213.333,176.03233 L217.107,181.396183 L214.3845,181.396183 Z M211.986,170.617321 L206.1135,170.617321 L206.1135,173.876257 L212.1105,173.876257 C213.336,173.876257 214.6095,173.624991 214.6095,172.147486 C214.6095,171.043119 214.0845,170.617321 211.986,170.617321 L211.986,170.617321 Z M228.603,181.84756 C224.58,181.84756 220.806,179.340917 220.806,175.004697 L220.806,174.654128 C220.806,170.268257 224.8545,168.036954 228.8025,168.036954 C232.875,168.036954 236.6745,170.468367 236.6745,174.879817 C236.6745,179.340917 232.701,181.84756 228.603,181.84756 L228.603,181.84756 Z M228.777,170.29233 C225.954,170.29233 223.0305,171.795413 223.0305,174.979119 C223.0305,178.113174 225.8295,179.590679 228.6285,179.590679 C231.4275,179.590679 234.4515,178.087596 234.4515,174.90389 C234.45,171.720183 231.6015,170.29233 228.777,170.29233 L228.777,170.29233 Z M252.6105,179.44022 C251.487,181.168991 249.0615,181.770826 247.1385,181.770826 C245.364,181.770826 243.516,181.369101 242.1915,180.11578 C240.9165,178.886532 240.8415,177.409028 240.8415,175.728404 L240.8415,168.408587 L243.066,168.408587 L243.066,175.728404 C243.066,177.50833 243.2415,177.934128 243.6405,178.385505 C244.4655,179.31233 246.1395,179.538018 247.2885,179.538018 C248.4885,179.538018 250.062,179.237101 250.7865,178.18389 C251.0865,177.758092 251.2125,177.332294 251.2125,175.726899 L251.2125,168.407083 L253.4115,168.407083 L253.4115,175.726899 C253.41,177.786679 253.2615,178.438165 252.6105,179.44022 L252.6105,179.44022 Z M270.348,175.705835 C269.298,176.632661 268.698,176.683817 266.3745,176.683817 L261.3525,176.683817 L261.3525,181.396183 L259.1535,181.396183 L259.1535,168.411596 L267.075,168.411596 C268.698,168.411596 269.049,168.537982 269.799,168.987853 C271.023,169.714569 271.6485,171.219156 271.6485,172.597358 C271.647,173.77545 271.248,174.90389 270.348,175.705835 L270.348,175.705835 Z M266.625,170.617321 L261.3525,170.617321 L261.3525,174.476587 L266.3745,174.476587 C268.698,174.476587 269.4495,174.17567 269.4495,172.595853 C269.448,170.993468 268.5735,170.617321 266.625,170.617321 L266.625,170.617321 Z M300.3585,181.396183 L300.3585,172.723743 L288.363,172.723743 L288.363,181.396183 L286.1385,181.396183 L286.1385,162.671596 L288.363,162.671596 L288.363,170.516514 L300.3585,170.516514 L300.3585,162.671596 L302.583,162.671596 L302.583,181.396183 L300.3585,181.396183 L300.3585,181.396183 Z M315.198,181.84756 C311.175,181.84756 307.401,179.340917 307.401,175.004697 L307.401,174.654128 C307.401,170.268257 311.4495,168.036954 315.3975,168.036954 C319.47,168.036954 323.268,170.468367 323.268,174.879817 C323.2695,179.340917 319.296,181.84756 315.198,181.84756 L315.198,181.84756 Z M315.3735,170.29233 C312.5505,170.29233 309.627,171.795413 309.627,174.979119 C309.627,178.113174 312.4245,179.590679 315.225,179.590679 C318.0225,179.590679 321.0465,178.087596 321.0465,174.90389 C321.045,171.720183 318.1965,170.29233 315.3735,170.29233 L315.3735,170.29233 Z M328.4895,181.396183 L328.4895,168.411596 L330.6885,168.411596 L330.6885,179.190459 L338.5845,179.190459 L338.5845,181.396183 L328.4895,181.396183 L328.4895,181.396183 Z M349.8795,181.396183 L342.783,181.396183 L342.783,168.411596 L349.8795,168.411596 C354.1785,168.411596 356.4765,171.294385 356.4765,174.854239 C356.4765,178.863963 353.853,181.396183 349.8795,181.396183 L349.8795,181.396183 Z M349.8795,170.617321 L344.982,170.617321 L344.982,179.190459 L349.8795,179.190459 C352.5045,179.190459 354.2775,177.560991 354.2775,174.878312 C354.2775,172.046679 352.527,170.617321 349.8795,170.617321 L349.8795,170.617321 Z M361.8225,181.396183 L361.8225,168.411596 L364.023,168.411596 L364.023,181.396183 L361.8225,181.396183 L361.8225,181.396183 Z M379.809,181.396183 L371.712,171.745761 L371.712,181.396183 L369.513,181.396183 L369.513,168.411596 L371.736,168.411596 L379.809,178.03644 L379.809,168.411596 L382.008,168.411596 L382.008,181.396183 L379.809,181.396183 L379.809,181.396183 Z M394.1235,181.77233 C390.1005,181.77233 386.376,179.216037 386.376,174.90389 C386.376,170.466862 390.2235,168.061028 394.2975,168.061028 C396.6465,168.061028 398.4945,168.76367 400.344,170.191523 L399.0705,171.97145 C397.296,170.718128 396.297,170.266752 394.1235,170.266752 C391.374,170.266752 388.6005,171.870642 388.6005,174.90389 C388.6005,177.961211 391.3995,179.566606 394.1475,179.566606 C396.0465,179.566606 396.846,179.291266 398.472,178.313284 L398.472,176.358826 L394.7475,176.358826 L394.7475,174.127523 L400.6965,174.127523 L400.6965,179.465798 C398.622,180.970385 396.747,181.77233 394.1235,181.77233 L394.1235,181.77233 Z M412.392,181.84756 C409.5945,181.84756 406.8945,181.346532 404.6205,179.641835 L405.6705,177.71145 C407.7945,179.064073 409.494,179.641835 412.0425,179.641835 C414.516,179.641835 416.2665,179.291266 416.2665,177.560991 C416.2665,177.234495 416.2155,176.883927 416.0415,176.583009 C415.617,175.931523 414.393,175.755486 412.443,175.755486 C408.5685,175.755486 408.069,175.57945 407.319,175.228881 C406.146,174.678202 405.5205,173.424881 405.5205,172.145982 C405.5205,168.987853 408.6945,168.03545 411.3165,168.03545 C413.715,168.03545 415.7895,168.586128 417.888,169.740147 L416.8635,171.720183 C415.014,170.617321 413.5155,170.217101 411.366,170.217101 C409.266,170.217101 407.9175,170.718128 407.9175,171.997028 C407.9175,172.297945 407.967,172.62444 408.1425,172.874202 C408.492,173.400807 409.3425,173.600917 411.8655,173.600917 C415.389,173.600917 418.587,173.901835 418.587,177.335303 C418.5885,181.020037 415.491,181.84756 412.392,181.84756 L412.392,181.84756 Z M433.3575,181.396183 L433.3575,162.647523 L435.5565,162.647523 L435.5565,181.396183 L433.3575,181.396183 L433.3575,181.396183 Z M451.3185,181.396183 L443.2215,171.745761 L443.2215,181.396183 L441.0225,181.396183 L441.0225,168.411596 L443.247,168.411596 L451.3185,178.03644 L451.3185,168.411596 L453.5175,168.411596 L453.5175,181.396183 L451.3185,181.396183 L451.3185,181.396183 Z M465.5805,181.84756 C461.433,181.84756 457.509,179.541028 457.509,174.979119 C457.509,170.617321 461.157,168.03545 465.2565,168.03545 C467.781,168.03545 470.0055,168.912624 471.978,170.466862 L470.805,172.322018 C469.005,171.068697 467.532,170.266752 465.282,170.266752 C462.483,170.266752 459.7095,171.89622 459.7095,174.979119 C459.7095,178.212477 462.6825,179.616257 465.531,179.616257 C467.655,179.616257 469.404,178.988844 471.1545,177.786679 L472.1295,179.816367 C470.1045,181.220147 468.0555,181.84756 465.5805,181.84756 L465.5805,181.84756 Z M478.3005,181.97244 C477.3495,181.97244 476.55,181.220147 476.55,180.267743 C476.55,179.340917 477.3255,178.538972 478.2495,178.538972 C479.2245,178.538972 480,179.316844 480,180.267743 C480,181.220147 479.2245,181.97244 478.3005,181.97244 L478.3005,181.97244 Z" id="Signature-Group-Holdings" sketch:type="MSShapeGroup"></path>
        </g>
    </g>
</svg>