<svg width="1200" height="275" viewBox="0 0 1200 275" xmlns="http://www.w3.org/2000/svg" xmlns:sketch="http://www.bohemiancoding.com/sketch/ns"><title>chicago-stars</title><path d="M119.084 0l25.191 93.893 93.893-25.191-68.702 68.702 68.702 68.702-93.893-25.191-25.191 93.893-25.191-93.893-93.893 25.191 68.702-68.702-68.702-68.702 93.893 25.191 25.191-93.893zm320.611 0l25.191 93.893 93.893-25.191-68.702 68.702 68.702 68.702-93.893-25.191-25.191 93.893-25.191-93.893-93.893 25.191 68.702-68.702-68.702-68.702 93.893 25.191 25.191-93.893zm320.611 0l25.191 93.893 93.893-25.191-68.702 68.702 68.702 68.702-93.893-25.191-25.191 93.893-25.191-93.893-93.893 25.191 68.702-68.702-68.702-68.702 93.893 25.191 25.191-93.893zm320.611 0l25.191 93.893 93.893-25.191-68.702 68.702 68.702 68.702-93.893-25.191-25.191 93.893-25.191-93.893-93.893 25.191 68.702-68.702-68.702-68.702 93.893 25.191 25.191-93.893z" fill="#D94E41" sketch:type="MSShapeGroup"/></svg>