<svg width="401" height="70" viewBox="0 0 401 70" xmlns="http://www.w3.org/2000/svg" xmlns:sketch="http://www.bohemiancoding.com/sketch/ns"><title>full-logo</title><path d="M0 69.079l37.169-69.079h12.631l-37.157 69.079h-12.643zm29.252 0l37.258-69.079h12.64l-37.267 69.079h-12.631zm83.34 0c-19.013 0-34.486-15.498-34.486-34.551 0-19.037 15.473-34.528 34.486-34.528 19.01 0 34.478 15.491 34.478 34.528 0 19.053-15.468 34.551-34.478 34.551zm50.36-68.457h4.083v32.45h20.356v3.777h-24.439v-36.227zm45.366-.259h3.823l16.481 36.486h-4.39l-4.236-9.574h-19.688l-4.289 9.574h-4.186l16.485-36.486zm10.076 23.237l-8.216-18.475-8.266 18.475h16.482zm11.572-4.76v-.104c0-10.247 7.649-18.736 18.289-18.736 6.562 0 10.49 2.329 14.108 5.745l-2.791 3.002c-3.049-2.897-6.458-4.968-11.368-4.968-8.007 0-14.002 6.521-14.002 14.854v.103c0 8.385 6.047 14.957 14.002 14.957 4.962 0 8.217-1.916 11.679-5.228l2.687 2.64c-3.772 3.829-7.906 6.365-14.467 6.365-10.436 0-18.136-8.229-18.136-18.631zm39.734-18.218h15.549c4.444 0 8.011 1.346 10.283 3.622 1.758 1.759 2.791 4.296 2.791 7.143v.104c0 6.003-4.135 9.523-9.817 10.557l11.109 14.801h-5.014l-10.487-14.076h-10.336v14.076h-4.078v-36.227zm15.189 18.477c5.427 0 9.299-2.794 9.299-7.451v-.106c0-4.449-3.407-7.143-9.249-7.143h-11.161v14.7h11.111zm20.561-.259v-.104c0-9.989 7.49-18.736 18.499-18.736 11.006 0 18.395 8.644 18.395 18.633v.103c0 9.988-7.492 18.735-18.499 18.735-11.008 0-18.395-8.643-18.395-18.631zm32.656 0v-.104c0-8.228-5.992-14.957-14.261-14.957-8.266 0-14.158 6.625-14.158 14.854v.103c0 8.229 5.996 14.957 14.262 14.957 8.269 0 14.157-6.624 14.157-14.853zm13.225-18.218h4.082v36.227h-4.082v-36.227zm25.837 17.75l-13.387-17.75h4.806l11.112 14.802 11.005-14.802h4.755l-13.383 17.699 13.9 18.528h-4.857l-11.578-15.577-11.57 15.577h-4.704l13.901-18.477zm-214.988 28.029h7.248c6.996 0 11.828 4.842 11.828 11.117v.061c0 6.276-4.832 11.119-11.828 11.119h-7.248v-22.297zm7.28 21.31c6.393 0 10.686-4.461 10.686-10.099v-.064c0-5.636-4.293-10.16-10.717-10.16h-6.169v20.322h6.2zm23.783-21.31h15.678v.988h-14.597v9.586h13.197v.987h-13.197v9.749h14.755v.987h-15.837v-22.297zm25.343 19.049l.73-.797c2.353 2.229 4.962 3.374 8.204 3.374 3.847 0 6.36-2.101 6.36-4.904v-.063c0-2.613-1.493-4.015-6.87-5.13-5.435-1.082-7.564-2.804-7.564-6.017v-.065c0-3.184 3.02-5.765 7.217-5.765 3.051 0 5.47.956 7.566 2.613l-.668.861c-2.033-1.625-4.357-2.486-6.961-2.486-3.657 0-6.075 2.199-6.075 4.682v.064c0 2.58 1.496 4.013 6.898 5.126 5.535 1.117 7.539 2.901 7.539 6.023v.062c0 3.441-2.957 5.987-7.504 5.987-3.466 0-6.362-1.243-8.871-3.564zm28.391-19.049h1.083v22.297h-1.083v-22.297zm12.655 11.211v-.064c0-5.989 4.292-11.53 11-11.53 3.5 0 5.664 1.051 7.889 2.9l-.701.828c-1.94-1.625-3.974-2.741-7.248-2.741-5.914 0-9.826 5.034-9.826 10.513v.061c0 5.767 3.72 10.545 9.985 10.545 3.116 0 5.82-1.371 7.6-2.868v-6.849h-7.917v-1.049h8.966v8.314c-2.067 1.879-5.088 3.407-8.679 3.407-6.997 0-11.068-5.224-11.068-11.467zm32.178-11.211h.983l16.281 20.447v-20.447h1.05v22.297h-.857l-16.409-20.607v20.607h-1.048v-22.297zm45.819 11.211v-.064c0-6.274 4.641-11.53 11.002-11.53 4.134 0 6.39 1.529 8.553 3.537l-.765.794c-1.842-1.782-4.099-3.345-7.821-3.345-5.659 0-9.857 4.747-9.857 10.513v.061c0 5.767 4.261 10.514 9.89 10.514 3.464 0 5.945-1.53 7.918-3.569l.76.733c-2.097 2.134-4.799 3.822-8.742 3.822-6.296 0-10.936-5.129-10.936-11.467zm28.965-.033v-.061c0-6.085 4.386-11.499 11.128-11.499s11.097 5.415 11.097 11.499v.061c0 6.086-4.388 11.5-11.131 11.5-6.739 0-11.095-5.414-11.095-11.5zm21.112.033v-.064c0-5.64-4.102-10.543-10.017-10.543-5.945 0-9.984 4.842-9.984 10.48v.064c0 5.637 4.104 10.544 10.049 10.544 5.916 0 9.952-4.843 9.952-10.481zm10.776 9.013h1.528v2.073h-1.528v-2.073z" fill="#14191f" sketch:type="MSShapeGroup"/></svg>
