<svg width="480" height="240" viewBox="0 0 480 240" xmlns="http://www.w3.org/2000/svg" xmlns:sketch="http://www.bohemiancoding.com/sketch/ns"><title>cover-logo</title><g sketch:type="MSLayerGroup" fill="#fff"><path d="M218.702 131.54c-.953-.035-1.847.557-2.075 1.832l3.96.146c-.024-1.136-.685-1.934-1.884-1.979zM180.942 128.564c-.945-.121-1.888.387-2.231 1.637l3.929.503c.078-1.134-.508-1.988-1.699-2.139zM207.836 127.577l-1.214-.07-.467 8.143 1.345.076c3.037.175 4.693-1.411 4.837-3.922.143-2.494-1.612-4.061-4.501-4.226zM169.775 129.513c-.226 1.462.557 2.531 1.743 2.713.796.123 1.487-.153 2.087-.592l.502-3.248c-.444-.468-.999-.853-1.811-.978-1.202-.186-2.276.629-2.521 2.105zM238.8 136.684c.773.003 1.416-.356 1.927-.88l.012-3.109c-.475-.396-1.083-.695-1.888-.698-1.284-.005-2.192.945-2.197 2.36-.006 1.415.895 2.323 2.145 2.327zM234.368 214.445c-3.405-.279-6.064 1.934-6.67 5.831-.606 3.884 1.586 6.835 5.475 7.161 3.89.319 6.627-2.231 6.742-6.159.117-3.943-2.141-6.557-5.547-6.833zM308.211 127.492c-.942.14-1.713.885-1.703 2.18l3.918-.582c-.232-1.112-1.029-1.775-2.216-1.599zM294.204 129.274c-.948.102-1.748.817-1.791 2.111l3.941-.423c-.187-1.121-.956-1.816-2.15-1.688zM341.338 96.005v10.894c0 7.092-44.311 12.84-98.971 12.84-23.332 0-44.775-1.048-61.694-2.8h-.001l-.012-.002c-15.086-1.563-26.566-3.686-32.578-6.126l-.015-.006c-3.029-1.232-4.671-2.544-4.671-3.906v-13.448c-16.319 4.286-21.787 9.099-23.136 12.697l2.665 20.605s11.328 10.328 39.98 14.659c28.652 4.33 64.632 5.33 64.632 5.33v4.664s-4.996 2.665-4.996 4.997c0 2.333 4.996 4.665 4.996 4.665s.667 11.328-1.665 17.657c-2.332 6.33-3.665 7.995-3.665 7.995s-12.66 3.666-15.326 6.664c-2.665 2.998-4.33 4.998-4.33 4.998s-17.992 7.995-17.658 17.656c.333 9.662 14.658 23.322 55.97 23.322 41.311 0 52.308-15.66 52.308-22.322 0-6.663-6.665-14.658-16.992-17.323-.666-2.667-6.997-7.33-10.328-9.662-3.33-2.332-9.328-2.332-9.661-3.332-.334-.999-4.332-7.995-4.332-14.658v-9.661s4.997-2.999 4.997-4.664c0-1.668-3.33-4.666-3.33-4.666l-1.333-5.329s45.975-1 70.297-5.998c24.32-4.997 34.647-9.995 36.313-14.659 1.666-4.665 1.666-20.938 1.666-20.938s-3.296-5.173-19.129-10.143zm-119.545 119.38c-.447 2.153-1.933 3.891-5.107 5.659-1.126.621-2.271 1.226-3.435 1.814-.781.374-1.92.672-1.92.672-.003 0 1.073.173 1.914.389 2.089.54 4.192 1.022 6.307 1.445-.254 1.178-.511 2.356-.769 3.534-6.009-1.21-11.927-2.872-17.706-4.977l.126-.329c4.171-1.525 8.152-3.271 11.927-5.207 2.904-1.501 3.89-2.676 4.216-3.951.338-1.374-.254-2.741-2.104-3.24-1.823-.495-3.389.404-4.601 2.09-1.365-.709-2.711-1.446-4.037-2.21 2.105-3.096 5.514-4.66 9.669-3.529 4.122 1.109 6.23 4.193 5.519 7.838zm47.933 5.979c-.442-1.955-2.238-3.042-5.111-2.477-1.575.305-2.577.769-3.143 1.072l-.28-.282c1.182-1.93 2.294-3.875 3.335-5.835.339-.609.837-1.345.835-1.345 0 0-.913.284-1.66.429-2.029.399-4.065.74-6.103 1.019-.157-1.194-.316-2.388-.477-3.581 4.644-.639 9.272-1.598 13.849-2.881l.093.339c-.811 1.957-1.687 3.905-2.631 5.845-.52 1.061-1.079 1.73-1.078 1.73 3.206-.059 6.278 1.467 7.221 4.93 1.197 4.328-2.286 7.857-7.453 8.878-4.54.903-8.538-.59-10.215-3.146 1.325-.767 2.629-1.556 3.908-2.368 1.003 1.239 2.711 2.413 5.434 1.882 2.55-.505 3.907-2.292 3.476-4.209zm-31.084-90.602c.938.004 1.644.368 2.168.847l.002-.707 2.451.01-.005 1.217-1.102-.005-.023 6.02c-.003.872-.237 1.578-.666 2.086-.594.721-1.566 1.048-2.684 1.043-1.168-.004-2.104-.369-2.563-.832-.262-.264-.376-.544-.375-.857.002-.493.365-.919.892-.917.477.002.821.348.819.809 0 .131-.034.28-.1.394.247.099.657.233 1.249.235.674.003 1.267-.193 1.648-.667.231-.296.364-.722.366-1.299l.005-1.233c-.561.573-1.204.998-2.225.994-1.825-.007-3.3-1.443-3.292-3.532.008-1.958 1.445-3.613 3.435-3.605zm-6.457-3.462c.542.008 1.012.475 1.004 1.033-.007.575-.507 1.028-1.049 1.021-.559-.007-1.012-.474-1.004-1.049.007-.559.49-1.013 1.049-1.005zm-1.835 9.425l1.15.016.063-4.683-1.151-.016.017-1.215 2.563.034-.079 5.898 1.134.016-.015 1.183-3.698-.05.016-1.183zm-77.026-15.868c-.173.652-.686.924-1.195.79-.604-.159-.852-.701-.726-1.178.067-.255.189-.392.322-.511-.219-.33-.789-.684-1.44-.857-1.161-.306-2.024.128-2.256 1.003-.264 1.001.56 1.679 1.631 2.454 1.62 1.143 2.8 2.151 2.312 3.996-.505 1.907-2.297 2.642-4.348 2.099-2.051-.542-3.27-2.105-2.972-3.234.177-.668.687-.992 1.244-.845.572.152.84.681.722 1.127-.075.286-.21.472-.387.628.282.415.918.838 1.761 1.061 1.271.336 2.246-.069 2.52-1.103.26-.985-.572-1.699-1.575-2.406-1.691-1.195-2.875-2.188-2.383-4.049.433-1.637 2.06-2.517 4.079-1.983 1.828.483 2.999 1.847 2.692 3.007zm5.289 4.188l-2.101-.469-.833 3.737c-.05.225-.054.392-.022.551.078.253.31.423.711.512.416.093.957.012 1.401-.091l-.419 1.203c-.447.118-1.003.197-1.646.054-.77-.172-1.302-.577-1.475-1.238-.067-.301-.069-.672.017-1.057l.886-3.979-1.298-.289.264-1.187 1.3.29.354-1.588 1.504-.254-.479 2.149 2.101.469-.265 1.187zm8.333 6.381l-.219 1.163-2.422-.457.228-1.211c-.796.586-1.787 1.052-2.788.863-.888-.167-1.419-.635-1.668-1.267-.137-.427-.161-.917-.055-1.482l.668-3.553-1.082-.204.226-1.195 2.454.463-.837 4.441c-.067.355-.054.642.02.873.123.408.416.63.916.724.76.143 1.558-.192 2.282-.657l.672-3.569-1.115-.21.225-1.195 2.504.472-1.092 5.798 1.082.204zm9.021 1.404l-.181 1.17-2.469-.381.138-.894c-.643.5-1.409.83-2.384.679-1.851-.285-3.056-1.968-2.726-4.096.309-1.998 1.98-3.453 3.978-3.144.877.136 1.558.573 1.962 1.085l.667-4.321-1.202-.186.186-1.202 2.599.401-1.656 10.72 1.089.169zm8.039-1.655c-.033.261-.101.534-.162.741l-5.266-.673c.024 1.362.919 2.139 2.289 2.315.897.114 1.699-.065 2.591-.431l-.279 1.273c-.792.363-1.716.461-2.678.337-2.267-.29-3.611-1.954-3.336-4.106.253-1.973 1.823-3.495 3.959-3.222 2.169.277 3.113 1.973 2.883 3.766zm8.955 4.809l-3.549-.367.122-1.178 1.047.108.343-3.319c.036-.343.016-.626-.076-.851-.157-.396-.483-.612-.989-.664-.769-.08-1.552.302-2.22.844l-.377 3.647 1.047.108-.122 1.177-3.532-.366.121-1.177 1.096.113.483-4.66-1.096-.114.125-1.21 2.437.253-.127 1.226c.745-.65 1.694-1.196 2.708-1.092.883.092 1.452.498 1.754 1.092.189.415.269.92.208 1.508l-.376 3.63 1.096.113-.121 1.178zm5.9-5.4l-2.145-.183-.325 3.818c-.02.229-.001.395.052.549.111.241.363.377.773.412.426.036.951-.117 1.378-.279l-.255 1.249c-.428.178-.969.33-1.625.274-.787-.067-1.369-.397-1.629-1.029-.107-.29-.159-.657-.125-1.051l.346-4.063-1.327-.113.103-1.212 1.326.112.138-1.622 1.458-.453-.188 2.196 2.146.183-.103 1.212zm8.368 6.46l-3.957-.227.076-1.33 1.314.075.467-8.142-1.314-.075.076-1.329 4.055.232c3.841.221 6.103 2.425 5.917 5.659-.187 3.266-2.564 5.37-6.635 5.137zm14.667-2.424l-5.307-.197c.147 1.355 1.108 2.048 2.489 2.099.903.034 1.686-.217 2.542-.662l-.164 1.294c-.757.432-1.668.612-2.637.576-2.284-.085-3.774-1.622-3.693-3.79.073-1.988 1.501-3.647 3.653-3.566 2.185.081 3.277 1.685 3.21 3.493-.01.263-.053.541-.093.753zm4.22 3.348c-1.069-.025-2.144-.412-2.609-.901-.257-.269-.381-.568-.373-.929.011-.46.349-.847.826-.835.461.011.831.332.819.841-.003.131-.023.247-.074.36.259.171.781.347 1.438.363.854.02 1.552-.292 1.567-.916.012-.51-.492-.768-1.537-1.056-1.796-.504-2.755-.97-2.725-2.236.026-1.085 1.021-2.096 2.828-2.053.92.022 1.833.339 2.283.811.241.252.348.551.341.863-.012.509-.332.83-.776.82-.494-.012-.848-.333-.836-.809.003-.115.022-.247.074-.36-.276-.138-.685-.23-1.129-.241-.904-.021-1.407.41-1.418.87-.013.526.525.753 1.651 1.076 1.519.43 2.627.868 2.595 2.2-.034 1.413-1.4 2.169-2.944 2.132zm6.689 93.184c-6.548-.539-11.085-5.741-9.853-11.631 1.23-5.903 6.442-9.207 11.733-8.795 5.282.448 9.926 4.554 10.056 10.581.136 6.017-5.392 10.398-11.937 9.845zm20.727-20.359c.658 6.628 1.26 13.261 1.806 19.902-1.692.17-3.386.304-5.077.403-.224-5.434-.484-10.863-.781-16.292-1.272.077-2.545.132-3.815.164-.024-1.225-.05-2.448-.077-3.673 2.646-.066 5.296-.234 7.944-.505zm-4.431-72.865l-.015-1.183 1.052-.013-.041-3.335c-.004-.345-.057-.623-.175-.836-.202-.375-.549-.552-1.059-.546-.772.01-1.506.48-2.106 1.095l.045 3.665 1.052-.013.015 1.183-3.549.043-.015-1.183 1.101-.013-.058-4.683-1.101.014-.015-1.216 2.448-.03.015 1.232c.665-.731 1.544-1.384 2.563-1.396.888-.011 1.5.326 1.868.88.235.392.372.883.38 1.475l.045 3.647 1.101-.014.014 1.183-3.565.044zm14.035-.172c-3.335.124-5.71-2.222-5.827-5.36-.122-3.303 2.337-5.731 5.36-5.844 2.366-.087 4.158 1.195 4.206 2.494.026.689-.416 1.183-1.008 1.205-.607.023-1.066-.355-1.088-.946-.01-.28.112-.515.256-.635-.309-.35-1.132-.797-2.348-.752-2.317.086-3.938 2.055-3.851 4.405.084 2.251 1.801 4.161 4.249 4.07 1.282-.047 2.314-.612 3.185-1.533l.975 1c-1.026 1.157-2.532 1.838-4.109 1.896zm8.976-.495c-2.266.127-3.788-1.467-3.9-3.453-.111-1.987 1.237-3.759 3.487-3.885 2.249-.126 3.787 1.466 3.9 3.469.111 1.97-1.255 3.743-3.487 3.869zm9.65-.767l-.088-1.181 1.05-.078-.248-3.328c-.026-.344-.096-.62-.227-.825-.225-.362-.583-.517-1.091-.479-.772.057-1.475.571-2.037 1.223l.273 3.658 1.05-.078.088 1.181-3.542.264-.088-1.181 1.099-.081-.348-4.674-1.099.081-.091-1.213 2.444-.183.091 1.23c.619-.772 1.457-1.477 2.473-1.553.885-.066 1.518.233 1.921.764.259.376.426.859.471 1.449l.272 3.642 1.099-.082.087 1.181-3.558.265zm7.896-10.96c-.491.045-.813-.223-.994-.586-.176.066-.329.196-.447.355-.201.332-.291.786-.228 1.473l.19 2.063 1.833-.169.111 1.211-1.833.169.43 4.665 1.375-.127.108 1.178-3.863.355-.108-1.178 1.097-.1-.428-4.666-1.228.113-.111-1.211 1.228-.113-.166-1.8c-.11-1.195.03-2 .582-2.645.401-.483.951-.781 1.688-.849.819-.075 1.446.28 1.504.918.05.541-.296.902-.738.943zm8.151 6.33l-5.282.567c.34 1.321 1.392 1.868 2.765 1.721.899-.096 1.638-.457 2.421-1.02l.024 1.304c-.686.537-1.563.846-2.529.949-2.273.244-3.968-1.063-4.199-3.221-.213-1.979.962-3.825 3.105-4.055 2.174-.234 3.486 1.197 3.68 2.995.028.262.025.544.015.76zm5.749-2.876c-.473.059-.836-.193-1.005-.486-.502.229-1.031.893-1.288 1.604l.406 3.196 1.287-.164.15 1.174-3.767.479-.148-1.174 1.093-.138-.59-4.648-1.093.139-.154-1.206 2.43-.308.203 1.597c.431-1.033 1.15-1.902 1.966-2.006.766-.097 1.217.326 1.287.881.064.505-.287.997-.777 1.06zm5.904 4.566c-2.26.335-4.006-.901-4.324-3.047-.292-1.967.806-3.858 2.936-4.175 2.162-.321 3.53 1.055 3.795 2.844.039.26.047.541.046.758l-5.251.78c.392 1.304 1.465 1.809 2.831 1.607.894-.133 1.617-.523 2.376-1.117l.077 1.301c-.664.564-1.527.908-2.487 1.051zm8.803-1.577l-.207-1.166 1.037-.184-.582-3.288c-.06-.339-.158-.606-.308-.797-.261-.338-.632-.457-1.135-.367-.761.134-1.41.717-1.902 1.423l.64 3.611 1.037-.184.207 1.167-3.499.619-.207-1.166 1.086-.193-.818-4.616-1.086.193-.212-1.198 2.413-.427.215 1.214c.538-.83 1.3-1.616 2.305-1.794.875-.156 1.534.078 1.988.566.296.348.512.812.615 1.395l.636 3.595 1.086-.192.207 1.166-3.515.622zm8.217-1.472c-2.156.455-4.06-.69-4.51-2.83-.393-1.866.744-3.886 2.722-4.303 1.722-.362 3.213.499 3.437 1.561.128.611-.202 1.117-.765 1.235-.45.095-.943-.171-1.052-.685-.047-.225.018-.475.168-.64-.228-.288-.872-.472-1.547-.329-.933.197-1.91 1.225-1.557 2.898.302 1.432 1.55 2.176 2.982 1.875.805-.17 1.477-.563 2.225-1.241l.139 1.297c-.613.6-1.39.981-2.242 1.161zm7.848-1.817c-2.217.553-4.074-.508-4.599-2.612-.483-1.93.426-3.918 2.516-4.44 2.121-.53 3.615.706 4.054 2.46.063.255.099.534.12.75l-5.151 1.286c.518 1.259 1.634 1.658 2.973 1.324.877-.219 1.558-.677 2.257-1.343l.203 1.287c-.606.626-1.431 1.052-2.372 1.288zM271.764 131.123c-1.329.075-2.19 1.161-2.109 2.606.081 1.444 1.058 2.41 2.387 2.335 1.313-.073 2.175-1.143 2.094-2.588-.081-1.445-1.059-2.427-2.372-2.353zM332.496 122.776c-.924.231-1.619 1.048-1.483 2.336l3.843-.96c-.339-1.084-1.196-1.667-2.36-1.376zM152.471 87.344c-.161-.104-.263-.29-.273-.611.072-.072.165-.065.273-.043v-58.944c10.559 1.192 21.122 2.173 31.719 2.952 8.988.449 16.536 5.902 16.391 15.484-.026 13.157-.057 26.317-.085 39.476 1.724-.097 3.464-.178 5.203-.257l-.008-56.108 33.761-12.856c-4.363-.369-8.2-1.696-8.809-3.987-1.073-.705-1.727-1.584-1.727-2.645 0-.414.024-.821.067-1.223-48.329.848-85.589 6.22-85.589 12.723 0 .544.264 1.078.77 1.604h-.77v70.544c2.715-.713 5.728-1.412 9.076-2.087v-4.019zm80.692-69.211v.222c-.54.109-.204-.589 0-.222zm-10.839-1.88c.056.056-.082.14-.111.109-.058-.057.079-.14.111-.109zm-6.749-.554c.058.056-.079.14-.11.109-.056-.057.081-.14.11-.109zm-2.433 1.438c.058.057-.079.14-.109.111-.057-.058.08-.141.109-.111zm-2.323-3.983c.058.055-.079.142-.109.109-.057-.056.079-.14.109-.109zm-.552 5.754c-.017.128-.203.092-.332.11.018-.13.203-.092.332-.11zm-8.407 65.943c.022-.124.111-.061.111 0-.021.127-.111.061-.111 0zm3.319-11.838v.443c-.291.031-.477-.041-.442-.333.097-.085.25-.119.442-.11zm-.996-5.532c-.335.408-.373-.335 0 0zm-1.327 16.485h-.222c.02-.094-.042-.103-.11-.11-.044-.214.504-.162.332.11zm-.332-57.757c.37-.268-.267.371 0 0zm-.553 14.384c.197.08.015.202 0 .332-.197-.081-.017-.203 0-.332zm0 3.762c.057.057-.08.141-.111.11-.056-.057.08-.14.111-.11zm-.554 34.299h.222v.222h-.222v-.222zm-.331-11.728c.057.058-.08.141-.11.111-.057-.058.08-.14.11-.111zm0 13.831c.057.057-.08.14-.11.111-.057-.058.08-.144.11-.111zm-.664-52.557h.222v.221h-.222v-.221zm-.443-10.291c.509.075-.087.669 0 0zm-2.322 13.943c.056.056-.08.14-.111.11-.057-.058.081-.141.111-.11zm-8.738-3.873c.479.031.315.585-.11.554-.206-.197.047-.323.11-.554zm-.886.996c.323-.164.323.494 0 .332v-.332zm-6.082-.665c.056.058-.08.141-.112.111-.055-.057.082-.141.112-.111zm-2.433-10.732c-.021.125-.111.061-.111 0 .021-.125.111-.061.111 0zm-1.661 5.31c.223-.037.347.023.332.222h-.332v-.222zm-3.317-1.769c.057.057-.079.14-.11.11-.058-.057.079-.14.11-.11zm-2.764 7.967c.221-.038.345.021.331.221h-.331v-.221zm-8.96-3.874h.221v.333h-.332c-.031-.18.104-.193.111-.333zm-.664-4.647c.371-.268-.267.371 0 0zm-4.534-3.761c.436-.022.609.542 0 .442v-.442zm-4.647 1.217h.332c.127.129.126.39.11.664-.546.174-.691-.382-.442-.664zm-9.291 63.732h-.221v-.223h.221v.223zm.331-5.202h-.22v-.331c.179-.031.19.103.33.109l-.11.222zm-.331-7.966c.231-.047.293.076.442.111-.013.314-.471.212-.442-.111zm8.737-19.141c-.02.126-.109.061-.109 0 .021-.125.111-.062.109 0zm-3.317-9.182c-.021.124-.111.061-.109 0 .02-.127.109-.061.109 0zm-.553 24.452h.221v.221h-.221v-.221zm-3.317-29.652c-.409.076-.49-.176-.443-.554.257-.035.425.018.554.11-.086.098-.118.251-.11.443zm.663 44.811c.003-.108.135-.086.222-.111-.004.106-.136.085-.222.111zm1.438-3.984c-.058-.057.079-.14.111-.11.055.057-.082.14-.111.11zm.111-48.904c.37-.269-.268.37 0 0zm.109 43.704c-.057-.058.08-.141.111-.111.057.056-.081.141-.111.111zm.553 10.953v.331c-.098-.086-.249-.118-.441-.11.073-.148.235-.207.441-.221zm-.11 6.861c-.057-.057.08-.142.11-.111.059.058-.08.142-.11.111zm0-49.018c-.057-.056.08-.14.11-.109.059.056-.08.141-.11.109zm.11-11.064h-.222c.021-.093-.043-.104-.109-.111-.045-.214.504-.16.331.111zm.331 52.115h.222v.221h-.222v-.221zm.111 3.207c-.066-.396.127-.534.221-.774.352.091.411.475.554.774-.21.22-.523.055-.775 0zm.996-2.875c.02-.127.109-.061.109 0-.021.124-.11.061-.109 0zm.331-18.811c.29-.031.476.04.442.333-.189.199-.435-.035-.442-.333zm.332-12.059c-.058-.058.08-.142.109-.112.058.058-.079.143-.109.112zm1.658-14.494c-.056-.057.081-.141.111-.111.057.058-.079.141-.111.111zm.223 34.079c-.058-.057.079-.141.11-.111.056.058-.08.141-.11.111zM239.728 16.459l-15.73 13.862v31.072c.304-.086.181.252.206.444-.128-.064-.181-.203-.206-.373v2.921c.291-.003.303.275.315.549-.147.041-.242.007-.315-.05v19.993c10.173-.116 20.468.041 30.715.432l.018-.014c.136-.08.243-.117.112 0l-.029.018c2.907.111 5.807.241 8.701.39-.033-2.683-.062-5.366-.098-8.049-5.194.159-10.389.269-15.585.321-6.981.233-16.735-1.969-16.549-10.761-.035-6.724-.066-13.448-.096-20.171-.226-9.464 7.344-14.785 16.256-14.645 1.176-.014 2.351-.038 3.527-.056v-.048h.222v.045c3.899-.062 7.797-.14 11.694-.25 8.899-.51 16.764 4.441 16.682 13.992.039 3.129.065 5.083.096 7.317.108-.07.067-.008.001.06l.044 3.124c-5.517.262-11.036.479-16.557.64-.048-3.961-.074-6.024-.123-10.519-5.16.15-10.319.255-15.481.315l.053 5.971.05.219-.048.031c.04 4.657.078 9.315.124 13.973 5.183-.056 10.366-.163 15.546-.318 3.333-.182 7.44.117 10.754 1.5.036-.122.174-.218.28-.027v.144c2.556 1.13 4.594 2.937 5.371 5.709.208-.027.296-.173.604-.101.274.578-.165.902-.452.73.132.659.202 1.364.191 2.127.05 3.263.092 6.527.139 9.79 2.39.182 4.77.372 7.134.578l-.015-1.043c-.124-.008-.276-.043-.361-.011l-.111-.443c.13.018.197-.024.221-.11.123.063.168.205.247.313-.263-18.3-.558-36.599-.761-54.9 5.49-.277 10.979-.595 16.464-.948.116 11.521.25 23.04.417 34.561 5.165-.389 10.325-.819 15.484-1.29-.11-11.455-.2-22.911-.277-34.367 5.583-.436 11.164-.888 16.744-1.361v41.288l.018-.003-.018.019v25.258c2.167.558 4.171 1.125 5.991 1.697v-41.912h-.001l.001-.002v-5.09h-.001l.001-.001v-26.094h-.77c.506-.526.77-1.06.77-1.604 0-1.688-2.515-3.299-7.076-4.775-.024.043-.092.077-.114.055l.021-.084.017.005c-13.39-4.308-44.264-7.457-81.218-7.967.308 1.036.479 2.131.479 3.267 0 3.582-7.349 5.133-13.719 4.656zm19.316 61.532c-.003.108-.136.086-.222.112.004-.108.136-.087.222-.112zm-4.866 4.537c-.096-.021-.106.042-.112.111-.128-.017-.092-.202-.11-.331.189-.042.209.086.223.221zm-6.748-1.328c.237-.051.211.159.221.332l-.221-.11v-.222zm-.33 2.656c.049.345-.237.353-.554.332l-.111-.444c.141-.151.66-.193.665.111zm-2.324-5.088c.056.056-.08.14-.111.109-.058-.057.079-.142.111-.109zm-2.655-.112c.057.056-.08.142-.11.112-.057-.058.079-.144.11-.112zm-.995.333c.057.057-.08.14-.11.111-.057-.057.08-.143.11-.111zm-4.867 1.77c-.021.125-.11.061-.11 0 .02-.125.111-.062.11 0zm-1.659 2.101c-.022.127-.112.062-.11 0 .02-.124.111-.061.11 0zm-1.992-10.179c.195-.036.198.619-.109.442-.047-.231.075-.292.109-.442zm-3.208-30.317c-.047.136-.14.226-.332.222-.05-.237.159-.211.332-.222zm-4.314 31.092c-.02.124-.11.06-.11 0 .021-.126.11-.063.11 0zm-.11 7.744c.004-.106.136-.085.221-.11-.002.108-.134.086-.221.11zm.885-22.017h-.221v-.222h.221v.222zm-.221-12.061l.11-.221h.222c.051.236-.158.211-.332.221zm1.327-7.856c.372-.268-.267.373 0 0zm.11 12.173c-.078-.138-.114-.244 0-.111.114.129.088.262 0 .111zm1.108 7.079c.02-.124.11-.061.108 0-.02.127-.109.063-.108 0zm.662-10.621c-.056-.057.081-.141.11-.111.058.057-.079.141-.11.111zm.11 11.95c.136.048.228.141.223.332-.136-.049-.228-.142-.223-.332zm.11.774c.159.01.314.018.332-.109.152.034.092.276.111.443-.29.032-.476-.04-.444-.333zm.332-25.337l.222-.331c.275.044.007.428-.222.331zm1.438 41.161c-.056-.057.08-.143.112-.112.056.058-.081.143-.112.112zm4.424-50.897c-.002.106-.136.085-.221.109.004-.107.136-.085.221-.109zm-.662 0c-.058-.057.079-.141.111-.11.056.056-.08.141-.111.11zm.111 8.408c-.057-.057.079-.14.109-.11.057.057-.079.14-.109.11zm.221-.443c-.052-.236.159-.21.331-.221-.046.136-.141.227-.331.221zm.221-2.545v-.331c.323-.163.323.495 0 .331zm1.217-1.549c.021-.124.111-.061.111 0-.022.125-.111.061-.111 0zm1.328.444c.02-.127.11-.064.11 0-.021.124-.11.061-.11 0zm2.433-10.513c.022-.124.111-.061.111 0-.023.125-.111.062-.111 0zm1.548 6.087c.372-.268-.267.37 0 0zm2.321-3.541c.372-.267-.265.371 0 0zm3.431 1.106c.004-.107.135-.086.221-.111-.002.107-.135.086-.221.111zm2.654 2.877v-.222c.094.022.105-.042.111-.109.215-.044.162.504-.111.331zm.554 1.992c-.057-.056.08-.14.111-.11.057.057-.08.141-.111.11zm.22-1.107c-.346.127-.268-.174-.441-.222.034-.15.277-.09.441-.109v.331zm-2.985 26.224c.003-.108.135-.086.221-.111-.003.107-.134.086-.221.111zm1.77 1.107c-.058-.058.079-.141.11-.111.057.056-.079.141-.11.111zm1.327-5.754c.004-.108.135-.085.222-.111-.003.107-.135.086-.222.111zm.554 18.367c-.131-.018-.094-.203-.111-.332h.332c.06.246-.212.157-.221.332zm1.547-7.966c-.034-.293.233-.286.444-.332.033.291-.154.362-.444.332zm2.655-8.189c-.056-.057.08-.14.111-.11.057.057-.081.14-.111.11zm.442-.22c-.056-.057.081-.142.112-.112.056.059-.08.141-.112.112zm.333 9.958c-.057-.058.08-.141.11-.111.057.056-.08.14-.11.111zm.775-4.758c-.129-.018-.094-.202-.111-.332.189-.04.21.086.221.221-.093-.019-.103.043-.109.111zm.884 2.877h-.222v-.222h.222v.222zm.11-7.635c.022-.125.111-.061.111 0-.021.125-.111.061-.111 0zm.775 2.545c.237-.05.211.158.222.332l-.222-.11v-.222zm.222 4.537c-.058-.057.079-.14.11-.111.057.058-.079.141-.11.111zm3.317-2.545c-.056-.057.08-.14.111-.11.058.057-.079.141-.111.11zm.554 5.31c.027-.138.22-.11.221 0-.049.163-.096-.01-.221 0zm1.105 4.871c-.056-.058.081-.143.112-.112.057.059-.081.142-.112.112zm1.661-4.98c-.057-.057.079-.14.11-.11.058.057-.081.14-.11.11zm3.982 4.315c-.151-.035-.092-.277-.11-.443h.221c-.021.094.043.104.11.11l-.221.332zm65.48 15.38c.026-.139.219-.112.22 0-.049.161-.096-.01-.22 0zm1.878-11.837c.026-.346.552-.189.886-.223-.112.259-.581.493-.886.223zm.777-.997c-.008-.41.491-.319.884-.331.033.416-.696.819-.884.331zm.884-46.692c-.037.26-.343.248-.443.443-.481-.213.092-.787.443-.443zm-.443 62.403v-.222h.443c.111.334-.247.197-.443.222zm1.769-2.434c.136.048.228.141.222.332-.384.096-.38-.17-.222-.332zm0-13.388c-.051-.236.157-.211.332-.221-.049.136-.143.226-.332.221zm.554 27.883c-.004.107-.136.084-.222.109.003-.107.134-.086.222-.109zm-.222-46.914c.169.168-.682.462-.332.111.018-.017.233-.211.332-.111zm-.554-26.776c-.214.227-.344.54-.773.553v-.553c.472-.08.602-.503 1.216-.443.019.252-.374.646-.443.443zm-.773-1.439c-.039-.407.402-.335.663-.442v.222c.093.019.104-.043.109-.111.188.02-.05.526-.332.442.019.131.203.094.332.111-.066.264-.481.183-.332.664h-.441c-.067-.288.044-.397.33-.332-.088-.205-.142-.447-.33-.553zm0 31.866c-.021.125-.111.061-.111 0 .022-.126.111-.061.111 0zm-.442 29.21c.335-.408.371.337 0 0zm.11-21.907c-.057-.058.079-.141.11-.111.057.057-.079.141-.11.111zm-.996-39.169c-.085-.675.566-.616 1.107-.664-.258.332-.47.711-1.107.664zm.112-1.991c.274.044.005.428-.223.332-.061-.246.212-.159.223-.332zm.441.553c.119.526-.36.452-.775.443-.12-.528.359-.453.775-.443zm-.885 32.418c-.291.034-.362-.151-.333-.443h.443c.047.232-.076.293-.11.443zm-.223-4.979c.059.058-.078.144-.11.111-.055-.058.082-.14.11-.111zm-.883-18.477h.221v.222h-.221v-.222zm-.553 22.349c.326-.045 1.079-.488.995.112h-.332c.034.15.276.09.441.111-.088.464-.678.892-1.105.663.132-.495.254-.425 0-.886zm.11 30.097c.056.057-.08.14-.11.111-.057-.058.079-.142.11-.111zm-.554-56.54h.223v.332h-.332c-.031-.179.103-.191.109-.332zm-6.637-5.31c.283.011.262.411.111.554-.282-.013-.262-.412-.111-.554zm-.441 5.422c.057.056-.079.14-.111.11-.057-.056.079-.142.111-.11zm-2.875-8.41c.032.291-.154.363-.443.332-.034-.292.23-.286.443-.332zm-2.102 9.517c-.269.362-.529-.308 0 0zm-5.421 9.293c-.099.068-.198.135-.22 0 .027-.139.219-.111.22 0zm-.331 10.512c.059.245-.212.156-.222.332-.275-.045-.007-.43.222-.332zm-1.548-21.798c.221-.037.346.023.33.221h-.33v-.221zm-.111 6.861c.371-.269-.267.371 0 0zm-.332 23.125c-.058.31-.533.204-.774.332.008-.36.501-.237.774-.332zm-.995 1.328c.371-.268-.267.371 0 0zm-.554-9.072h.222v.221h-.222v-.221zm-.662 12.834c.056.058-.08.141-.109.111-.059-.057.078-.14.109-.111zm-.331-10.4c.056.057-.08.14-.111.11-.057-.057.079-.139.111-.11zm-.222-20.137c-.027.14-.22.11-.221 0 .047-.162.095.011.221 0zm-.221 5.974c.371-.268-.268.371 0 0zm-.332 18.146c.057.057-.08.14-.11.111-.057-.058.08-.143.11-.111zm-1.548 4.979c.057.056-.08.141-.111.109-.056-.056.08-.14.111-.109zm-.554-25.339c-.047.136-.141.228-.332.221-.05-.235.159-.209.332-.221zm-.884-2.323c-.05.16-.098-.012-.222 0 .027-.139.221-.112.222 0zm-.443-14.496c-.02.126-.111.063-.111 0 .02-.124.111-.06.111 0zm-1.437 7.857c-.094-.021-.104.043-.11.11-.131-.018-.093-.202-.111-.333.189-.04.209.088.222.223zm0 27.661c-.004.108-.135.086-.222.111.003-.107.135-.085.222-.111zm-1.548-36.623c.371-.267-.268.371 0 0zm-.11 27.442c.056.056-.08.14-.112.109-.056-.057.081-.143.112-.109zm-.886-14.163c-.004.106-.136.085-.222.11.005-.108.136-.086.222-.11zm-2.212.553c-.021.125-.111.061-.111 0 .021-.125.111-.062.111 0zm-2.101-2.212c-.021.125-.112.06-.111 0 .021-.126.111-.061.111 0zm-2.876 2.101c.056.057-.081.141-.111.111-.057-.059.079-.141.111-.111zm-2.877-.11c-.097.068-.198.133-.221 0 .027-.14.22-.112.221 0zm-2.765-1.991c-.136.341-.244.715-.664.775.011-.47.299-.663.664-.775zm-.554-8.521c.033.29-.04.477-.331.443-.032-.288.041-.476.331-.443zm-4.424 12.836c.058.056-.08.14-.11.111-.056-.058.079-.142.11-.111zm-4.314 57.977c.005-.106.135-.086.221-.109-.002.107-.135.084-.221.109zm0-2.544c.039-.135.295-.089.332 0 .099.24-.404.257-.332 0zm1.439-41.493c-.058-.056.079-.141.109-.111.057.056-.079.143-.109.111zm.221 32.308c.021-.125.11-.06.11 0-.021.125-.11.061-.11 0zm2.433 6.196h-.222v-.222h.222v.222zm-.111-3.872c.221-.038.346.023.331.221h-.331v-.221zm-.111-21.908c.058.057-.08.14-.11.11-.056-.056.08-.142.11-.11zm-.221 24.674c.057.056-.08.141-.11.109-.057-.056.08-.141.11-.109zm.11 5.974c-.08.198-.201.015-.332 0 .081-.198.202-.016.332 0zm-.884-10.953c-.049.136-.143.228-.332.221-.052-.237.157-.211.332-.221zm-1.548-35.628c.157.009.313.018.331-.111.421.099.244.897-.331.665v-.554zm-.333-10.18c.371-.269-.267.371 0 0zm0 18.699c.057.057-.08.141-.11.111-.057-.058.08-.142.11-.111zm-.553-16.375c.058.056-.079.14-.11.11-.057-.058.081-.141.11-.11zm-.222 6.085h-.221c-.03-.179.104-.191.11-.331.231.062.236.172.11.331zm-.11-1.328c.058.057-.078.141-.11.11-.057-.057.08-.141.11-.11zm-.11 48.573c-.002.108-.136.087-.221.112.002-.109.135-.086.221-.112zm-.331-8.187c-.057-.057.08-.143.11-.111.057.056-.079.142-.11.111zm0-22.683c-.151-.034-.091-.277-.109-.443.256.031.253.296.109.443zm.11 1.88c-.003.108-.136.086-.22.111.002-.107.134-.085.22-.111zm-.775-26.112c.058.057-.08.142-.11.111-.057-.058.08-.142.11-.111zm-.11 27.661c.058.058-.08.141-.11.111-.057-.057.08-.14.11-.111zm-.222 14.827c.223-.038.346.023.332.221h-.332v-.221zm-.111-22.239c-.02.124-.11.06-.11 0 .021-.126.11-.061.11 0zm-.11-21.577c.057.057-.079.14-.11.11-.057-.056.08-.141.11-.11zm-.332 13.388c-.02.126-.11.061-.11 0 .02-.125.111-.061.11 0zm-.662 34.301c.003-.108.135-.086.22-.112-.003.108-.135.087-.22.112zm-4.646-15.934v-.221c.236-.052.211.159.221.33l-.221-.109zm.994 7.857c-.057-.059.079-.143.111-.111.057.058-.08.141-.111.111zm.997-4.317c-.058-.056.079-.141.111-.109.056.056-.08.14-.111.109zm1.105-.884c.004-.108.136-.086.222-.111-.004.107-.134.085-.222.111zm.776-.554c.335-.409.373.336 0 0zm-.776-28.99c.059.059-.079.142-.111.112-.056-.057.081-.141.111-.112zm-.442-7.523c-.049.16-.097-.011-.222 0 .028-.14.221-.112.222 0zm-.111 3.318c-.081.198-.201.016-.33 0 .08-.196.202-.016.33 0zm-.995 1.549c.371-.266-.267.371 0 0zm-.442 4.095c.057.056-.08.142-.111.111-.057-.057.079-.143.111-.111zm-1.77-24.674c-.025.175-.127.005-.11-.11.025-.176.127-.006.11.11zm-1.438 7.301c.336-.407.372.337 0 0zm-1.769.998c.138.154.584.005.442.442-.347.051-.495-.096-.442-.442zm-.996.331c.057.057-.079.141-.111.11-.057-.058.082-.14.111-.11zm-.553-6.862c.194.102.244.347.221.665-.156.158-.536-.025-.774-.111-.053-.423.392-.346.553-.554zm-.553 19.363c-.002.108-.136.086-.222.112.004-.109.136-.086.222-.112zm-.663-.663c-.003.107-.136.085-.223.11.005-.107.136-.086.223-.11zm-1.216-6.638c.056.056-.08.14-.111.11-.057-.058.079-.14.111-.11zm-2.213-14.053c.057.057-.079.142-.111.111-.057-.058.08-.142.111-.111zm-.111 16.044c.371-.268-.267.371 0 0zm-.111-7.523c-.001.293.042.63-.11.774l-.444-.111c-.088-.495.198-.614.554-.662zm-1.216-8.853c.057.057-.081.14-.11.11-.057-.056.079-.14.11-.11zm-1.991 12.172c.092.02.104-.043.111-.11.215-.044.161.504-.111.332v-.222zm-.332 5.422c.056.057-.081.141-.11.11-.058-.057.079-.141.11-.11zm-2.655-4.868c.057.056-.079.14-.11.109-.056-.057.079-.14.11-.109zm-.11.775c-.097.067-.198.133-.222 0 .028-.14.22-.112.222 0zm-.996 1.328c.057.056-.079.141-.11.109-.056-.056.081-.14.11-.109zm-.884-12.393l.332.222c.021.093-.043.103-.111.11h-.221v-.332zm-.332 8.188v.222c-.539.11-.205-.589 0-.222zm-3.207 1.771c-.049.16-.096-.011-.221 0 .027-.14.22-.111.221 0zM303.548 75.436c.065 4.515.107 9.032.163 13.547.825.093 1.635.194 2.455.29.01-.099.134-.081.218-.106-.002.102-.121.088-.207.108 1.553.182 3.118.358 4.65.549 2.935.367 5.684.762 8.291 1.177-.045-5.642-.081-11.284-.137-16.926-5.141.498-10.285.953-15.434 1.361zm.956 6.096l-.222-.11.112-.222.22.111-.11.221zm.221 6.197v-.223c.223-.036.347.024.332.223h-.332zm1.218-7.746h.22v.221h-.22v-.221zm.22 8.852c-.055-.058.081-.143.111-.112.057.058-.079.142-.111.112zm.664-4.87c-.058-.057.08-.141.111-.11.057.056-.079.141-.111.11zm1.216-5.643c.027-.139.221-.111.223 0-.05.163-.098-.011-.223 0zm.443 2.214c-.057-.058.081-.142.111-.112.057.058-.079.142-.111.112zm.111-3.652c.37-.267-.267.372 0 0zm.11 11.065c.058-.089.114-.18.11-.331l.444.111c-.094.163-.357.159-.554.221zm.996-4.757c-.058-.058.078-.141.111-.111.056.057-.08.141-.111.111zm2.765 1.548c-.056-.057.08-.14.11-.109.057.057-.08.14-.11.109zm.886.996c.305-.122.618-.173.551.332-.319.136-.504.055-.551-.332zm.331-3.541c.37-.268-.268.372 0 0zm-.331-5.09c-.093-.127-.147-.296-.111-.553.293.002.65-.061.662.222.041.335-.359.23-.551.331zm.772 8.52c.233-.241.317.056.664 0-.058.089-.114.18-.11.332-.316.021-.604.013-.554-.332zm.333 1.549c-.093-.127-.147-.296-.111-.554h.554c.083.416-.123.541-.442.554zm.885-1.77c-.257-.074-.466-.2-.443-.554.13-.126.391-.124.664-.11-.101.196-.039.552-.222.664zm.775-1.992c-.026.345-.552.188-.885.222v-.554c.318.012.722-.06.885.111-.069.098-.135.197 0 .221zm.994-7.414c.021-.124.111-.06.111 0-.022.126-.111.061-.111 0zm.776 6.86h-.222v-.221h.222v.221zm.663 5.533c-.057-.057.079-.14.109-.11.058.056-.079.14-.109.11zm.331-13.942h-.222v-.221h.222v.221zM168.59 88.679c2.127-.292 4.328-.578 6.64-.853 2.874-.342 5.797-.647 8.75-.927.055-13.906.117-27.813.166-41.719-5.136-.375-10.269-.808-15.395-1.3-.05 14.933-.109 29.866-.16 44.799zm10.706-6.593c-.057-.057.08-.141.11-.111.057.058-.08.141-.11.111zm2.986-17.482c.102.469-.265.473-.664.442.015-.354.251-.486.664-.442zm-1.659 20.027c.37-.268-.268.37 0 0zm-.222-15.048c-.301-.336.337.302 0 0zm-.222 16.816h.222v.222h-.222v-.222zm-.552-5.862c-.095-.021-.104.042-.11.109-.13-.018-.093-.202-.111-.331.189-.04.209.085.222.222zm-.222-28.216c-.048.137-.141.228-.331.222-.052-.237.156-.21.331-.222zm0 14.938v.333c-.242.019-.352-.091-.331-.333h.331zm-1.327-5.533c.056.058-.081.142-.11.111-.059-.058.079-.142.11-.111zm-.11 17.372c.056.057-.081.14-.112.11-.056-.057.081-.14.112-.11zm-.112 1.106c-.02.125-.11.062-.11 0 .022-.125.113-.061.11 0zm-.442-7.413c-.021.126-.11.063-.11 0 .021-.125.111-.061.11 0zm-.885-24.784c.371-.268-.267.371 0 0zm-.221 9.736c.056.058-.08.141-.111.111-.057-.057.079-.14.111-.111zm-1.217-1.217h.221v.221h-.221v-.221zm0 24.343c-.021.124-.11.061-.11 0 .021-.127.111-.061.11 0zm-.663 2.986h-.222v-.221h.222v.221zm-.331-5.533c.371-.267-.268.372 0 0zm-.663-11.949c.177-.031.19.104.33.11l-.11.222h-.22v-.332zm-1.108 7.856c.292-.034.286.23.333.442-.146.141-.409.141-.554 0-.081-.302.221-.223.221-.442zm-.221-13.72c.057.056-.079.141-.111.109-.056-.056.081-.14.111-.109zm-.995 12.946h.221v.22h-.221v-.22zm-.111 13.719c.058.057-.08.141-.11.111-.056-.059.08-.141.11-.111zm-1.99-32.861c.37-.268-.269.371 0 0zM148.067 110.805l.039-.061c.22-.159.087-.004-.002.075l-.022-.008c6.013 2.441 17.493 4.564 32.578 6.126l-.036-.005c-.044-.056.081-.134.111-.104.041.041-.016.091-.063.111 16.919 1.752 38.362 2.8 61.694 2.8 54.66 0 98.971-5.748 98.971-12.84v-10.894c-1.821-.571-3.825-1.139-5.991-1.697v12.641c-5.352.737-10.714 1.408-16.083 2.016-.04-5.988-.097-11.975-.145-17.963-2.606-.415-5.356-.811-8.291-1.177-1.532-.192-3.097-.368-4.65-.549l-.015.003.004-.004c-.82-.096-1.63-.197-2.455-.29.089 7.18.187 14.359.26 21.54-5.446.495-10.9.922-16.359 1.286-.091-8.155-.202-16.311-.318-24.466-2.363-.206-4.744-.396-7.134-.578.033 2.304.067 4.607.098 6.911l.024.137h-.022l.053 3.736c.244 9.639-7.37 15.323-16.501 15.442-5.229.17-10.46.279-15.691.328-9.089.268-16.765-5.171-16.683-14.761-.019-4.528-.029-6.603-.047-10.589 5.511.071 11.024.078 16.535.023.036 3.992.055 6.069.09 10.602 5.219-.052 10.437-.16 15.652-.325-.046-4.188-.101-8.376-.152-12.564-2.894-.149-5.794-.279-8.701-.39-.11.077-.197.061-.101-.004-10.247-.391-20.542-.548-30.715-.432v31.29l-1.546-.076v.076l-15.213-.794.04-.022-1.574-.077-.004-29.876c-1.74.08-3.479.16-5.203.257-.008 3.913-.018 7.826-.025 11.74.197 9.515-7.71 14.44-16.575 13.351-10.512-1.024-20.974-2.281-31.426-3.798v-15.586c-3.348.676-6.361 1.374-9.076 2.087v13.448c0 1.362 1.642 2.674 4.671 3.906zm191.833-4.378c.057.058-.08.142-.111.111-.056-.058.081-.142.111-.111zm-.775 1.993l.222.109c-.059.262-.525.068-.222-.109zm-.774-8.189c.056.058-.08.142-.111.112-.057-.059.079-.142.111-.112zm-3.208 8.52c.057.057-.079.141-.11.11-.057-.057.08-.14.11-.11zm-.885 1.327c-.003.107-.135.087-.22.111.002-.107.133-.087.22-.111zm-5.752 1.439c-.003.108-.136.084-.222.11.004-.107.137-.085.222-.11zm-1.107 1.329c.058.056-.079.14-.109.109-.058-.056.08-.141.109-.109zm-.22-.11c.029.353-.486.401-.664.22.013-.283.37-.22.664-.22zm-1.327.994l-.006.068-.109.023c-.017-.055.087-.118.116-.091zm-1.66-.663c.004-.107.136-.086.222-.111-.003.107-.135.087-.222.111zm.11-.443c-.137.339-.321.354-.553.112.167-.259.271-.17.553-.112zm-.773.223c-.022.124-.111.061-.111 0 .02-.127.111-.062.111 0zm-2.103-.11c.057.057-.08.14-.11.11-.057-.058.08-.141.11-.11zm-.553-3.432c.058.058-.08.142-.109.111-.058-.058.08-.141.109-.111zm-2.322 4.758h-.223c.021-.094-.042-.104-.11-.11-.041-.215.504-.162.333.11zm-2.214-14.384c.053.346-.095.494-.442.443-.172-.354-.038-.488.442-.443zm-1.437 4.979c.057.058-.08.142-.111.111-.056-.058.08-.141.111-.111zm-.442-8.078c-.027.14-.221.112-.222 0 .049-.16.097.012.222 0zm-.554 3.985c-.048.161-.096-.011-.22 0 .027-.14.22-.112.22 0zm-.773 2.986c.056.058-.08.141-.111.111-.057-.057.079-.142.111-.111zm-1.439 10.623c-.049.16-.097-.012-.22 0 .027-.139.218-.111.22 0zm-5.641-12.062c.018-.128.202-.092.332-.109-.018.13-.202.093-.332.109zm3.651-6.969h.442c.111.331-.246.196-.442.222v-.222zm.22 1.328c-.003.107-.135.085-.22.109.003-.107.135-.085.22-.109zm-.995 3.651c.198.081.017.2 0 .331-.196-.081-.016-.202 0-.331zm-1.327 5.089c-.003.106-.135.085-.221.111.003-.108.135-.085.221-.111zm-.553-7.192c-.137-.048-.228-.143-.222-.332.136.047.227.141.222.332zm-.664-6.087c.049-.16.097.011.221 0-.027.14-.22.112-.221 0zm.11-1.66c-.076.219-.294.295-.552.333-.051-.347.236-.353.552-.333zm-3.317 24.675h.22v.221h-.22v-.221zm-2.875-2.325c-.005.108-.136.085-.223.112.003-.108.136-.087.223-.112zm-2.325-.775c.059.058-.079.141-.11.111-.056-.056.081-.141.11-.111zm-1.548-.552c.1.239-.404.257-.332 0 .039-.134.295-.091.332 0zm-3.207 4.868c.056.057-.08.141-.11.11-.058-.057.079-.14.11-.11zm-7.41 1.771c.056.057-.081.14-.11.109-.058-.057.079-.14.11-.109zm-1.328-27.442c-.003.109-.136.087-.221.112.003-.108.135-.087.221-.112zm-.775 4.649c-.002.107-.136.084-.221.109.003-.107.136-.086.221-.109zm-2.986 1.879c.372-.267-.267.373 0 0zm-.11.223c.056.056-.08.14-.111.11-.057-.057.081-.141.111-.11zm-.111 7.966c.058.056-.079.142-.11.111-.056-.057.08-.141.11-.111zm-.994 9.847v-.221c.237-.052.211.158.221.332l-.221-.111zm.443-9.957h.222v.221h-.222v-.221zm-.222 3.761c.223-.037.346.023.332.222h-.332v-.222zm-.221 3.762c.397-.105.195.479.111.554-.371-.1-.054-.206-.111-.554zm-.332-8.076h.221v.221h-.221v-.221zm0 7.412h.221v.222h-.221v-.222zm-4.203.776c.058.057-.08.14-.11.11-.056-.058.08-.141.11-.11zm-2.545 2.213c.058.056-.078.14-.109.109-.057-.056.079-.14.109-.109zm-3.207 2.323h.221v.221h-.221v-.221zm-12.277 1.771c-.003.106-.136.085-.222.109.002-.106.136-.085.222-.109zm-.443-3.431h.221v.222h-.221v-.222zm-1.658.11c.055.058-.082.142-.112.111-.056-.057.08-.142.112-.111zm-.333-1.328c.48.046-.116.642 0 0zm-4.092 3.651c-.099.069-.199.134-.222 0 .027-.138.219-.11.222 0zm-1.107-.885c.057.057-.079.141-.11.111-.058-.058.08-.141.11-.111zm-2.322-1.991c.37-.268-.268.371 0 0zm-2.102-1.881c.408.335-.336.373 0 0zm.11 1.107c-.028.14-.22.111-.221 0 .048-.161.097.011.221 0zm-1.327.554c.056.056-.08.14-.111.109-.057-.056.079-.14.111-.109zm-.663-.223c.23-.046.291.076.442.111.051.346-.096.494-.442.442v-.553zm.109 3.651h.221c.052.236-.158.211-.33.221l.109-.221zm-2.432-1.991c.228.067.419.172.331.553h-.442c-.037-.256.016-.424.11-.553zm-1.991-1.992c.334-.408.371.336 0 0zm0-1.328c-.005.107-.136.086-.222.111.002-.108.134-.085.222-.111zm-5.089 2.877c.275-.017.46.057.553.221.071.402-.229.434-.553.443-.152-.141-.152-.522 0-.663zm-1.769 2.545c-.003.107-.135.086-.221.109.003-.106.135-.084.221-.109zm29.975-24.01c.056.057-.081.14-.11.11-.058-.057.079-.14.11-.11zm-.11-3.54c.057.056-.081.14-.11.109-.058-.056.078-.141.11-.109zm-.222 5.31c.37-.267-.266.371 0 0zm-.111-1.992c-.232.046-.293-.076-.442-.11.027-.195.19-.252.442-.222v.332zm-.222-3.65c-.288.031-.476-.042-.442-.333.289-.03.555-.036.442.333zm-.663 4.867l.221.112-.111.22-.222-.108.111-.224zm-2.323-5.531c-.021.125-.111.062-.111 0 .021-.126.111-.061.111 0zm-.442 1.106c-.099.068-.199.134-.222 0 .027-.137.22-.111.222 0zm-1.88 5.422c.247-.426-.05.297-.111.221-.091-.113.098-.199.111-.221zm-.443-3.099c-.098.067-.198.134-.221 0 .027-.138.219-.111.221 0zm-.111-1.88c.057.057-.079.14-.109.11-.058-.057.078-.143.109-.11zm-.553.11c-.002.106-.135.085-.221.11.003-.107.134-.086.221-.11zm-.885 1.107c-.021.124-.11.061-.11 0 .02-.125.111-.061.11 0zm-1.991-2.877c.058.057-.08.14-.11.11-.056-.058.08-.141.11-.11zm-.663 1.107c.057.056-.08.14-.109.109-.058-.056.078-.141.109-.109zm-.995-1.993c.058.057-.081.141-.111.111-.056-.057.08-.141.111-.111zm-15.264-3.098c.371-.267-.267.37 0 0zm-4.093 24.674c-.29.032-.362-.153-.331-.444.291-.034.363.155.331.444zm.553-17.704c.057.056-.079.141-.11.111-.055-.058.081-.142.11-.111zm-.441 15.49c-.222.054-.515.24-.554-.221.165-.176.631-.161.554.221zm-.554-15.6c.371-.268-.267.37 0 0zm-1.216 18.036c-.022.124-.112.061-.112 0 .022-.127.112-.063.112 0zm-.663-17.262h.22v.221h-.22v-.221zm-.444.221c.057.058-.079.143-.11.111-.058-.056.079-.14.11-.111zm.332 1.77c.006.353-.696.288-.775.224.141-.339.361-.057.775-.224zm-.664 5.422c-.02.127-.111.063-.11 0 .02-.125.11-.061.11 0zm-.553-4.204c-.097.068-.198.135-.222 0 .028-.138.221-.111.222 0zm-1.327 4.426c-.02.125-.111.061-.111 0 .02-.126.111-.061.111 0zm-.664 1.217c.058.058-.079.141-.11.111-.056-.057.081-.142.11-.111zm-.662 7.413h.221v.222h-.221v-.222zm-6.084 7.412c-.004.108-.135.087-.221.111.002-.108.135-.086.221-.111zm-.664 1.108c.372-.269-.267.37 0 0zm-.884-1.993c.056.057-.08.142-.11.111-.057-.056.079-.141.11-.111zm-1.216 1.328c.056.058-.08.14-.112.111-.057-.058.081-.141.112-.111zm-6.195-.443c.057.057-.079.141-.109.111-.059-.058.079-.141.109-.111zm-4.091-19.805c.055.057-.081.14-.11.111-.058-.057.077-.141.11-.111zm-.886 16.819c.371-.269-.267.37 0 0zm.111-9.405c-.099.068-.198.134-.222 0 .027-.139.219-.112.222 0zm-.774 2.655h-.333v-.221c.223-.037.346.023.333.221zm-.11-14.715c-.05.159-.098-.011-.223 0 .028-.14.22-.111.223 0zm-.333-5.311h.221c.032.179-.104.191-.11.332h-.221c-.031-.18.104-.191.11-.332zm-.221 26.997c.056.056-.081.142-.11.109-.058-.056.079-.14.11-.109zm-2.102-8.409c.057.056-.08.141-.11.111-.057-.058.08-.142.11-.111zm-.332 6.861h-.221v-.223h.221v.223zm-.332-.664c.371-.267-.266.37 0 0zm-1.769 4.757c-.475-.376.488-.242.331-.664.402.303-.337.392-.331.664zm-.332-1.328c.068-.152.427-.017.444-.222.119.027.075.22.22.222-.08.407-.332-.047-.553.222-.145.477.527.136.442.553-.312.09-.287-.156-.553-.111v-.663zm-.663-6.418h.442v.443c-.379.086-.528-.061-.442-.443zm-11.835 4.537c.026-.14.22-.111.222 0-.048.161-.097-.01-.222 0zm8.517-3.54c-.089-.058-.18-.115-.332-.111.034-.303.384-.232.332.111zm-2.764 2.103c.507.072-.089.668 0 0zm-5.753-.223c.231-.047.294.075.442.111.035.195-.62.198-.442-.111zm-.11.111c-.03.257-.295.253-.443.111.031-.258.295-.256.443-.111zm-1.88 1.88c-.336.408-.372-.335 0 0zm-2.764 1.992v.664c-.179.163-.555-.095-.996 0 .079-.523-.226-.658-.332-.997.592-.037.562.546 1.329.332zm-4.978-.885c-.021.125-.111.062-.111 0 .022-.126.111-.061.111 0zm-2.767.443c-.002.106-.133.086-.22.11.003-.108.135-.086.22-.11zm-.773-2.656c-.003.107-.136.087-.222.111.003-.107.135-.086.222-.111zm-.664.222c.15.073.206.237.222.442-.333.111-.197-.246-.222-.442zm-6.083-1.66c.057.056-.08.141-.11.11-.057-.056.08-.141.11-.11zm-4.315 1.218c.059.057-.079.14-.111.11-.057-.058.081-.141.111-.11zm-12.166-12.726c.022-.125.111-.061.11 0-.021.125-.111.062-.11 0zm3.096 5.975c.058.056-.078.141-.109.111-.057-.058.08-.142.109-.111zm-1.215 4.093c-.094-.02-.104.044-.11.111-.13-.018-.094-.202-.111-.332.189-.042.21.087.222.221zm-.222-.554c.058.058-.079.141-.11.111-.057-.057.08-.14.11-.111zm-.221-1.437c.057.056-.08.141-.111.109-.056-.056.081-.14.111-.109zm-.332-.222c-.384.096-.379-.171-.221-.331.136.048.227.14.221.331zm-.111-3.871c-.097.066-.198.133-.22 0 .026-.139.219-.113.22 0zm-.442 2.877c.057.056-.079.14-.11.109-.057-.056.079-.141.11-.109zm-.443-7.193c-.004.107-.135.086-.221.111.002-.109.135-.086.221-.111zm-.332-2.656c-.025.176-.126.006-.109-.109.024-.176.125-.006.109.109zm0 9.075c.058.056-.079.141-.109.108-.058-.056.08-.14.109-.108zm-.884 1.769h.22v.222h-.22v-.222zm-.222-8.188c-.024.176-.127.005-.111-.109.026-.177.128-.006.111.109zm-1.107 6.196c-.048.162-.096-.011-.221 0 .028-.138.221-.11.221 0zm-2.101 1.107h.222v.222h-.222v-.222zM148.067 110.805l.039-.061c.22-.159.087-.004-.002.075l-.022-.008c6.013 2.441 17.493 4.564 32.578 6.126l-.036-.005c-.044-.056.081-.134.111-.104.041.041-.016.091-.063.111 16.919 1.752 38.362 2.8 61.694 2.8 54.66 0 98.971-5.748 98.971-12.84v-10.894c-1.821-.571-3.825-1.139-5.991-1.697v12.641c-5.352.737-10.714 1.408-16.083 2.016-.04-5.988-.097-11.975-.145-17.963-2.606-.415-5.356-.811-8.291-1.177-1.532-.192-3.097-.368-4.65-.549l-.015.003.004-.004c-.82-.096-1.63-.197-2.455-.29.089 7.18.187 14.359.26 21.54-5.446.495-10.9.922-16.359 1.286-.091-8.155-.202-16.311-.318-24.466-2.363-.206-4.744-.396-7.134-.578.033 2.304.067 4.607.098 6.911l.024.137h-.022l.053 3.736c.244 9.639-7.37 15.323-16.501 15.442-5.229.17-10.46.279-15.691.328-9.089.268-16.765-5.171-16.683-14.761-.019-4.528-.029-6.603-.047-10.589 5.511.071 11.024.078 16.535.023.036 3.992.055 6.069.09 10.602 5.219-.052 10.437-.16 15.652-.325-.046-4.188-.101-8.376-.152-12.564-2.894-.149-5.794-.279-8.701-.39-.11.077-.197.061-.101-.004-10.247-.391-20.542-.548-30.715-.432v31.29l-1.546-.076v.076l-15.213-.794.04-.022-1.574-.077-.004-29.876c-1.74.08-3.479.16-5.203.257-.008 3.913-.018 7.826-.025 11.74.197 9.515-7.71 14.44-16.575 13.351-10.512-1.024-20.974-2.281-31.426-3.798v-15.586c-3.348.676-6.361 1.374-9.076 2.087v13.448c0 1.362 1.642 2.674 4.671 3.906zm191.833-4.378c.057.058-.08.142-.111.111-.056-.058.081-.142.111-.111zm-.775 1.993l.222.109c-.059.262-.525.068-.222-.109zm-.774-8.189c.056.058-.08.142-.111.112-.057-.059.079-.142.111-.112zm-3.208 8.52c.057.057-.079.141-.11.11-.057-.057.08-.14.11-.11zm-.885 1.327c-.003.107-.135.087-.22.111.002-.107.133-.087.22-.111zm-5.752 1.439c-.003.108-.136.084-.222.11.004-.107.137-.085.222-.11zm-1.107 1.329c.058.056-.079.14-.109.109-.058-.056.08-.141.109-.109zm-.22-.11c.029.353-.486.401-.664.22.013-.283.37-.22.664-.22zm-1.327.994l-.006.068-.109.023c-.017-.055.087-.118.116-.091zm-1.66-.663c.004-.107.136-.086.222-.111-.003.107-.135.087-.222.111zm.11-.443c-.137.339-.321.354-.553.112.167-.259.271-.17.553-.112zm-.773.223c-.022.124-.111.061-.111 0 .02-.127.111-.062.111 0zm-2.103-.11c.057.057-.08.14-.11.11-.057-.058.08-.141.11-.11zm-.553-3.432c.058.058-.08.142-.109.111-.058-.058.08-.141.109-.111zm-2.322 4.758h-.223c.021-.094-.042-.104-.11-.11-.041-.215.504-.162.333.11zm-2.214-14.384c.053.346-.095.494-.442.443-.172-.354-.038-.488.442-.443zm-1.437 4.979c.057.058-.08.142-.111.111-.056-.058.08-.141.111-.111zm-.442-8.078c-.027.14-.221.112-.222 0 .049-.16.097.012.222 0zm-.554 3.985c-.048.161-.096-.011-.22 0 .027-.14.22-.112.22 0zm-.773 2.986c.056.058-.08.141-.111.111-.057-.057.079-.142.111-.111zm-1.439 10.623c-.049.16-.097-.012-.22 0 .027-.139.218-.111.22 0zm-5.641-12.062c.018-.128.202-.092.332-.109-.018.13-.202.093-.332.109zm3.651-6.969h.442c.111.331-.246.196-.442.222v-.222zm.22 1.328c-.003.107-.135.085-.22.109.003-.107.135-.085.22-.109zm-.995 3.651c.198.081.017.2 0 .331-.196-.081-.016-.202 0-.331zm-1.327 5.089c-.003.106-.135.085-.221.111.003-.108.135-.085.221-.111zm-.553-7.192c-.137-.048-.228-.143-.222-.332.136.047.227.141.222.332zm-.664-6.087c.049-.16.097.011.221 0-.027.14-.22.112-.221 0zm.11-1.66c-.076.219-.294.295-.552.333-.051-.347.236-.353.552-.333zm-3.317 24.675h.22v.221h-.22v-.221zm-2.875-2.325c-.005.108-.136.085-.223.112.003-.108.136-.087.223-.112zm-2.325-.775c.059.058-.079.141-.11.111-.056-.056.081-.141.11-.111zm-1.548-.552c.1.239-.404.257-.332 0 .039-.134.295-.091.332 0zm-3.207 4.868c.056.057-.08.141-.11.11-.058-.057.079-.14.11-.11zm-7.41 1.771c.056.057-.081.14-.11.109-.058-.057.079-.14.11-.109zm-1.328-27.442c-.003.109-.136.087-.221.112.003-.108.135-.087.221-.112zm-.775 4.649c-.002.107-.136.084-.221.109.003-.107.136-.086.221-.109zm-2.986 1.879c.372-.267-.267.373 0 0zm-.11.223c.056.056-.08.14-.111.11-.057-.057.081-.141.111-.11zm-.111 7.966c.058.056-.079.142-.11.111-.056-.057.08-.141.11-.111zm-.994 9.847v-.221c.237-.052.211.158.221.332l-.221-.111zm.443-9.957h.222v.221h-.222v-.221zm-.222 3.761c.223-.037.346.023.332.222h-.332v-.222zm-.221 3.762c.397-.105.195.479.111.554-.371-.1-.054-.206-.111-.554zm-.332-8.076h.221v.221h-.221v-.221zm0 7.412h.221v.222h-.221v-.222zm-4.203.776c.058.057-.08.14-.11.11-.056-.058.08-.141.11-.11zm-2.545 2.213c.058.056-.078.14-.109.109-.057-.056.079-.14.109-.109zm-3.207 2.323h.221v.221h-.221v-.221zm-12.277 1.771c-.003.106-.136.085-.222.109.002-.106.136-.085.222-.109zm-.443-3.431h.221v.222h-.221v-.222zm-1.658.11c.055.058-.082.142-.112.111-.056-.057.08-.142.112-.111zm-.333-1.328c.48.046-.116.642 0 0zm-4.092 3.651c-.099.069-.199.134-.222 0 .027-.138.219-.11.222 0zm-1.107-.885c.057.057-.079.141-.11.111-.058-.058.08-.141.11-.111zm-2.322-1.991c.37-.268-.268.371 0 0zm-2.102-1.881c.408.335-.336.373 0 0zm.11 1.107c-.028.14-.22.111-.221 0 .048-.161.097.011.221 0zm-1.327.554c.056.056-.08.14-.111.109-.057-.056.079-.14.111-.109zm-.663-.223c.23-.046.291.076.442.111.051.346-.096.494-.442.442v-.553zm.109 3.651h.221c.052.236-.158.211-.33.221l.109-.221zm-2.432-1.991c.228.067.419.172.331.553h-.442c-.037-.256.016-.424.11-.553zm-1.991-1.992c.334-.408.371.336 0 0zm0-1.328c-.005.107-.136.086-.222.111.002-.108.134-.085.222-.111zm-5.089 2.877c.275-.017.46.057.553.221.071.402-.229.434-.553.443-.152-.141-.152-.522 0-.663zm-1.769 2.545c-.003.107-.135.086-.221.109.003-.106.135-.084.221-.109zm29.975-24.01c.056.057-.081.14-.11.11-.058-.057.079-.14.11-.11zm-.11-3.54c.057.056-.081.14-.11.109-.058-.056.078-.141.11-.109zm-.222 5.31c.37-.267-.266.371 0 0zm-.111-1.992c-.232.046-.293-.076-.442-.11.027-.195.19-.252.442-.222v.332zm-.222-3.65c-.288.031-.476-.042-.442-.333.289-.03.555-.036.442.333zm-.663 4.867l.221.112-.111.22-.222-.108.111-.224zm-2.323-5.531c-.021.125-.111.062-.111 0 .021-.126.111-.061.111 0zm-.442 1.106c-.099.068-.199.134-.222 0 .027-.137.22-.111.222 0zm-1.88 5.422c.247-.426-.05.297-.111.221-.091-.113.098-.199.111-.221zm-.443-3.099c-.098.067-.198.134-.221 0 .027-.138.219-.111.221 0zm-.111-1.88c.057.057-.079.14-.109.11-.058-.057.078-.143.109-.11zm-.553.11c-.002.106-.135.085-.221.11.003-.107.134-.086.221-.11zm-.885 1.107c-.021.124-.11.061-.11 0 .02-.125.111-.061.11 0zm-1.991-2.877c.058.057-.08.14-.11.11-.056-.058.08-.141.11-.11zm-.663 1.107c.057.056-.08.14-.109.109-.058-.056.078-.141.109-.109zm-.995-1.993c.058.057-.081.141-.111.111-.056-.057.08-.141.111-.111zm-15.264-3.098c.371-.267-.267.37 0 0zm-4.093 24.674c-.29.032-.362-.153-.331-.444.291-.034.363.155.331.444zm.553-17.704c.057.056-.079.141-.11.111-.055-.058.081-.142.11-.111zm-.441 15.49c-.222.054-.515.24-.554-.221.165-.176.631-.161.554.221zm-.554-15.6c.371-.268-.267.37 0 0zm-1.216 18.036c-.022.124-.112.061-.112 0 .022-.127.112-.063.112 0zm-.663-17.262h.22v.221h-.22v-.221zm-.444.221c.057.058-.079.143-.11.111-.058-.056.079-.14.11-.111zm.332 1.77c.006.353-.696.288-.775.224.141-.339.361-.057.775-.224zm-.664 5.422c-.02.127-.111.063-.11 0 .02-.125.11-.061.11 0zm-.553-4.204c-.097.068-.198.135-.222 0 .028-.138.221-.111.222 0zm-1.327 4.426c-.02.125-.111.061-.111 0 .02-.126.111-.061.111 0zm-.664 1.217c.058.058-.079.141-.11.111-.056-.057.081-.142.11-.111zm-.662 7.413h.221v.222h-.221v-.222zm-6.084 7.412c-.004.108-.135.087-.221.111.002-.108.135-.086.221-.111zm-.664 1.108c.372-.269-.267.37 0 0zm-.884-1.993c.056.057-.08.142-.11.111-.057-.056.079-.141.11-.111zm-1.216 1.328c.056.058-.08.14-.112.111-.057-.058.081-.141.112-.111zm-6.195-.443c.057.057-.079.141-.109.111-.059-.058.079-.141.109-.111zm-4.091-19.805c.055.057-.081.14-.11.111-.058-.057.077-.141.11-.111zm-.886 16.819c.371-.269-.267.37 0 0zm.111-9.405c-.099.068-.198.134-.222 0 .027-.139.219-.112.222 0zm-.774 2.655h-.333v-.221c.223-.037.346.023.333.221zm-.11-14.715c-.05.159-.098-.011-.223 0 .028-.14.22-.111.223 0zm-.333-5.311h.221c.032.179-.104.191-.11.332h-.221c-.031-.18.104-.191.11-.332zm-.221 26.997c.056.056-.081.142-.11.109-.058-.056.079-.14.11-.109zm-2.102-8.409c.057.056-.08.141-.11.111-.057-.058.08-.142.11-.111zm-.332 6.861h-.221v-.223h.221v.223zm-.332-.664c.371-.267-.266.37 0 0zm-1.769 4.757c-.475-.376.488-.242.331-.664.402.303-.337.392-.331.664zm-.332-1.328c.068-.152.427-.017.444-.222.119.027.075.22.22.222-.08.407-.332-.047-.553.222-.145.477.527.136.442.553-.312.09-.287-.156-.553-.111v-.663zm-.663-6.418h.442v.443c-.379.086-.528-.061-.442-.443zm-11.835 4.537c.026-.14.22-.111.222 0-.048.161-.097-.01-.222 0zm8.517-3.54c-.089-.058-.18-.115-.332-.111.034-.303.384-.232.332.111zm-2.764 2.103c.507.072-.089.668 0 0zm-5.753-.223c.231-.047.294.075.442.111.035.195-.62.198-.442-.111zm-.11.111c-.03.257-.295.253-.443.111.031-.258.295-.256.443-.111zm-1.88 1.88c-.336.408-.372-.335 0 0zm-2.764 1.992v.664c-.179.163-.555-.095-.996 0 .079-.523-.226-.658-.332-.997.592-.037.562.546 1.329.332zm-4.978-.885c-.021.125-.111.062-.111 0 .022-.126.111-.061.111 0zm-2.767.443c-.002.106-.133.086-.22.11.003-.108.135-.086.22-.11zm-.773-2.656c-.003.107-.136.087-.222.111.003-.107.135-.086.222-.111zm-.664.222c.15.073.206.237.222.442-.333.111-.197-.246-.222-.442zm-6.083-1.66c.057.056-.08.141-.11.11-.057-.056.08-.141.11-.11zm-4.315 1.218c.059.057-.079.14-.111.11-.057-.058.081-.141.111-.11zm-12.166-12.726c.022-.125.111-.061.11 0-.021.125-.111.062-.11 0zm3.096 5.975c.058.056-.078.141-.109.111-.057-.058.08-.142.109-.111zm-1.215 4.093c-.094-.02-.104.044-.11.111-.13-.018-.094-.202-.111-.332.189-.042.21.087.222.221zm-.222-.554c.058.058-.079.141-.11.111-.057-.057.08-.14.11-.111zm-.221-1.437c.057.056-.08.141-.111.109-.056-.056.081-.14.111-.109zm-.332-.222c-.384.096-.379-.171-.221-.331.136.048.227.14.221.331zm-.111-3.871c-.097.066-.198.133-.22 0 .026-.139.219-.113.22 0zm-.442 2.877c.057.056-.079.14-.11.109-.057-.056.079-.141.11-.109zm-.443-7.193c-.004.107-.135.086-.221.111.002-.109.135-.086.221-.111zm-.332-2.656c-.025.176-.126.006-.109-.109.024-.176.125-.006.109.109zm0 9.075c.058.056-.079.141-.109.108-.058-.056.08-.14.109-.108zm-.884 1.769h.22v.222h-.22v-.222zm-.222-8.188c-.024.176-.127.005-.111-.109.026-.177.128-.006.111.109zm-1.107 6.196c-.048.162-.096-.011-.221 0 .028-.138.221-.11.221 0zm-2.101 1.107h.222v.222h-.222v-.222zM148.066 110.805l.015.006-.015-.006zM148.066 110.805l.015.006-.015-.006zM148.066 110.805l.015.006-.015-.006zM168.59 88.679l-.021 5.91c5.117.589 10.242 1.114 15.373 1.568.011-3.086.025-6.172.037-9.259-2.952.281-5.876.585-8.75.927-2.311.275-4.513.561-6.64.853zm2.189 3.918c.003-.107.136-.085.221-.111-.002.108-.134.085-.221.111zm.332-1.327v-.223c.094.021.104-.043.11-.109.215-.044.16.503-.11.332zm12.167-.886c-.021.125-.11.061-.11 0 .021-.125.11-.061.11 0zM168.59 88.679l-.021 5.91c5.117.589 10.242 1.114 15.373 1.568.011-3.086.025-6.172.037-9.259-2.952.281-5.876.585-8.75.927-2.311.275-4.513.561-6.64.853zm2.189 3.918c.003-.107.136-.085.221-.111-.002.108-.134.085-.221.111zm.332-1.327v-.223c.094.021.104-.043.11-.109.215-.044.16.503-.11.332zm12.167-.886c-.021.125-.11.061-.11 0 .021-.125.11-.061.11 0zM239.453 16.435l.534-.203-.258.228c6.371.477 13.719-1.073 13.719-4.656 0-1.136-.171-2.231-.479-3.267l-1.235-.016c.047.422.076.849.076 1.283 0 5.263-15.845 6.141-21.166 2.645.609 2.291 4.446 3.618 8.809 3.987zm10.854-2.728c-.098.067-.198.134-.222 0 .028-.138.22-.111.222 0zm-11.945 1.66c-.095-.02-.104.043-.111.11-.129-.018-.093-.202-.11-.332.188-.04.208.086.222.222zM239.453 16.435l.534-.203-.258.228c6.371.477 13.719-1.073 13.719-4.656 0-1.136-.171-2.231-.479-3.267l-1.235-.016c.047.422.076.849.076 1.283 0 5.263-15.845 6.141-21.166 2.645.609 2.291 4.446 3.618 8.809 3.987zm10.854-2.728c-.098.067-.198.134-.222 0 .028-.138.22-.111.222 0zm-11.945 1.66c-.095-.02-.104.043-.111.11-.129-.018-.093-.202-.11-.332.188-.04.208.086.222.222zM239.986 16.232l-.534.203.275.024.258-.228zM251.81 9.804c0-.434-.029-.861-.076-1.283l1.235.016c-.565-1.901-1.61-3.592-2.995-4.938-2.061-2.003-4.87-3.242-7.972-3.242-6.323 0-11.448 5.125-11.448 11.447 0 .224.036.437.091.645 5.321 3.497 21.166 2.618 21.166-2.645zm-1.946 2.244c-.024.175-.126.006-.11-.111.025-.176.127-.005.11.111zm-2.101-3.566l.331.004v.131h-.331v-.135zm-13.494 2.57c-.057-.057.079-.141.111-.111.055.058-.081.141-.111.111zm5.53 2.213c.15.035.092.277.111.444-.257-.031-.255-.296-.111-.444zM206.727 51.943l-.004 8.247 16.496-6.966-.252-7.732-16.241 6.451zM206.727 82.873l-.004 8.248 16.496-8.513-.252-7.732-16.241 7.997zM207.278 115.352l-.04.022 15.213.794v-9.325000000000001l-15.173 8.509z" sketch:type="MSShapeGroup"/></g></svg>