<?xml version="1.0" encoding="utf-8"?>
<!-- Generator: Adobe Illustrator 16.0.0, SVG Export Plug-In . SVG Version: 6.00 Build 0)  -->
<!DOCTYPE svg PUBLIC "-//W3C//DTD SVG 1.1//EN" "http://www.w3.org/Graphics/SVG/1.1/DTD/svg11.dtd">
<svg version="1.1" id="Layer_1" xmlns="http://www.w3.org/2000/svg" xmlns:xlink="http://www.w3.org/1999/xlink" x="0px" y="0px" viewBox="0 0 104.28 48.902" enable-background="new 0 0 104.28 48.902" xml:space="preserve">
<g>
	<g>
		<g>
			<polygon points="0,48.902 26.355,0 35.311,0 8.964,48.902 			"/>
		</g>
		<g>
			<polygon points="20.741,48.902 47.159,0 56.122,0 29.698,48.902 			"/>
		</g>
		<g>
			<path d="M79.834,48.902c-13.482,0-24.453-10.971-24.453-24.458C55.382,10.966,66.353,0,79.834,0
				c13.479,0,24.446,10.966,24.446,24.443C104.28,37.931,93.313,48.902,79.834,48.902z"/>
		</g>
	</g>
	<g display="none">
		<path display="inline" d="M115.542,0.44h2.895v22.972h14.433v2.674h-17.328V0.44z"/>
		<path display="inline" d="M147.709,0.257h2.71l11.687,25.829h-3.114l-3.003-6.778h-13.959l-3.042,6.778h-2.968L147.709,0.257z
			 M154.853,16.707l-5.825-13.079l-5.861,13.079H154.853z"/>
		<path display="inline" d="M163.058,13.337v-0.073C163.058,6.01,168.481,0,176.026,0c4.653,0,7.438,1.649,10.003,4.067
			l-1.979,2.125c-2.162-2.051-4.58-3.517-8.061-3.517c-5.678,0-9.929,4.616-9.929,10.515v0.073c0,5.936,4.288,10.588,9.929,10.588
			c3.518,0,5.826-1.356,8.28-3.701l1.905,1.869c-2.674,2.711-5.605,4.506-10.258,4.506
			C168.518,26.526,163.058,20.701,163.058,13.337z"/>
		<path display="inline" d="M191.231,0.44h11.026c3.15,0,5.68,0.953,7.291,2.564c1.246,1.245,1.979,3.041,1.979,5.056v0.073
			c0,4.25-2.932,6.742-6.961,7.474l7.878,10.479h-3.556l-7.436-9.965h-7.329v9.965h-2.893V0.44z M202.002,13.52
			c3.848,0,6.594-1.978,6.594-5.275V8.17c0-3.149-2.417-5.056-6.559-5.056h-7.913V13.52H202.002z"/>
		<path display="inline" d="M216.581,13.337v-0.073C216.581,6.192,221.893,0,229.697,0c7.804,0,13.043,6.119,13.043,13.19v0.073
			c0,7.07-5.312,13.262-13.116,13.262C221.819,26.526,216.581,20.407,216.581,13.337z M239.735,13.337v-0.073
			c0-5.825-4.249-10.588-10.111-10.588c-5.86,0-10.038,4.689-10.038,10.515v0.073c0,5.826,4.251,10.588,10.111,10.588
			C235.561,23.852,239.735,19.163,239.735,13.337z"/>
		<path display="inline" d="M249.113,0.44h2.895v25.646h-2.895V0.44z"/>
		<path display="inline" d="M267.432,13.006l-9.49-12.566h3.407l7.878,10.479L277.03,0.44h3.371l-9.489,12.529l9.855,13.117h-3.443
			l-8.209-11.027l-8.205,11.027h-3.334L267.432,13.006z"/>
		<path display="inline" d="M114.995,32.848h5.139c4.96,0,8.387,3.428,8.387,7.87v0.043c0,4.442-3.427,7.871-8.387,7.871h-5.139
			V32.848z M120.156,47.933c4.533,0,7.577-3.157,7.577-7.148V40.74c0-3.99-3.044-7.192-7.599-7.192h-4.374v14.386H120.156z"/>
		<path display="inline" d="M137.019,32.848h11.117v0.699h-10.35v6.786h9.357v0.699h-9.357v6.9h10.462v0.699h-11.229V32.848z"/>
		<path display="inline" d="M154.988,46.333l0.518-0.564c1.669,1.578,3.519,2.389,5.817,2.389c2.728,0,4.51-1.487,4.51-3.472v-0.044
			c0-1.85-1.06-2.842-4.871-3.632c-3.854-0.766-5.364-1.984-5.364-4.26v-0.046c0-2.254,2.141-4.081,5.117-4.081
			c2.165,0,3.878,0.677,5.365,1.85l-0.475,0.609c-1.441-1.15-3.088-1.76-4.936-1.76c-2.593,0-4.307,1.557-4.307,3.314v0.045
			c0,1.826,1.061,2.841,4.892,3.629c3.923,0.791,5.345,2.054,5.345,4.264v0.044c0,2.436-2.098,4.238-5.32,4.238
			C158.821,48.856,156.768,47.976,154.988,46.333z"/>
		<path display="inline" d="M175.119,32.848h0.768v15.784h-0.768V32.848z"/>
		<path display="inline" d="M184.093,40.785V40.74c0-4.24,3.043-8.162,7.8-8.162c2.481,0,4.016,0.744,5.593,2.053l-0.496,0.586
			c-1.376-1.15-2.818-1.94-5.14-1.94c-4.194,0-6.968,3.563-6.968,7.442v0.043c0,4.082,2.638,7.465,7.079,7.465
			c2.21,0,4.127-0.971,5.389-2.03v-4.848h-5.613v-0.743h6.357v5.885c-1.466,1.33-3.607,2.412-6.154,2.412
			C186.979,48.902,184.093,45.204,184.093,40.785z"/>
		<path display="inline" d="M206.908,32.848h0.697l11.545,14.475V32.848h0.744v15.784h-0.607l-11.636-14.588v14.588h-0.743V32.848z"
			/>
		<path display="inline" d="M239.396,40.785V40.74c0-4.441,3.292-8.162,7.802-8.162c2.932,0,4.531,1.082,6.064,2.504l-0.542,0.562
			c-1.307-1.262-2.907-2.368-5.546-2.368c-4.013,0-6.99,3.36-6.99,7.442v0.043c0,4.082,3.021,7.442,7.014,7.442
			c2.456,0,4.216-1.083,5.614-2.526l0.539,0.519c-1.487,1.511-3.403,2.706-6.199,2.706
			C242.688,48.902,239.396,45.271,239.396,40.785z"/>
		<path display="inline" d="M259.934,40.761v-0.043c0-4.308,3.109-8.141,7.891-8.141c4.78,0,7.869,3.833,7.869,8.141v0.043
			c0,4.308-3.111,8.141-7.893,8.141C263.021,48.902,259.934,45.069,259.934,40.761z M274.904,40.785V40.74
			c0-3.992-2.908-7.464-7.104-7.464c-4.216,0-7.079,3.428-7.079,7.419v0.045c0,3.99,2.909,7.464,7.125,7.464
			C272.041,48.204,274.904,44.776,274.904,40.785z"/>
		<path display="inline" d="M282.545,47.165h1.084v1.468h-1.084V47.165z"/>
	</g>
</g>
</svg>
