<svg width="480" height="240" viewBox="0 0 480 240" xmlns="http://www.w3.org/2000/svg" xmlns:sketch="http://www.bohemiancoding.com/sketch/ns"><title>cover-logo</title><path d="M273.122 46.401l-.409-1.296c-.17-.623-.36-1.244-.519-1.873-.319-1.256-.605-2.535-.827-3.833-.224-1.305-.406-2.63-.517-3.985-.095-1.359-.157-2.738-.055-4.187.765 1.065 1.388 2.194 1.983 3.33.588 1.138 1.119 2.298 1.63 3.472.506 1.171.968 2.361 1.412 3.558.186.492.354.993.53 1.49 2.244-2.249 4.551-4.429 6.916-6.543 1.312-1.189 2.652-2.337 4.005-3.466 1.349-1.139 2.732-2.238 4.131-3.32-1.206 1.294-2.401 2.584-3.599 3.875-1.194 1.293-2.373 2.6-3.556 3.898-2.103 2.342-4.176 4.711-6.214 7.105.508.135 1.016.269 1.52.419 1.218.363 2.429.756 3.61 1.209 1.183.454 2.352.947 3.494 1.505 1.141.563 2.268 1.165 3.342 1.909-1.356.074-2.671.023-3.981-.051-1.304-.076-2.594-.2-3.882-.349-1.287-.142-2.555-.333-3.82-.536-.638-.101-1.265-.221-1.901-.326l-1.335-.267c-.878 1.065-1.743 2.137-2.605 3.21.231 1.77.375 3.514.426 5.236.925.145 1.846.303 2.763.487 1.624.329 3.241.702 4.834 1.153 1.596.46 3.173.963 4.718 1.612-1.716.178-3.406.238-5.099.289-1.691.041-3.38.045-5.061.029-.728-.005-1.452-.032-2.18-.047-.172 2.905-.728 5.704-1.614 8.356 1.262.126 2.523.27 3.771.454 2.027.306 4.038.664 6.028 1.191-2.073.307-4.133.508-6.2.709-1.553.152-3.109.275-4.663.402-3.058 6.967-8.476 12.665-15.242 16.084 10.275 1.722 21.19-2.837 27.809-11.531 6.779-9.022 10.873-20.739 14.232-31.59 3.243-10.792 5.756-20.721 6.722-24.838-4.22.015-14.651.261-26.617 4.1-3.921 1.23-8.009 2.857-12.034 4.886 3.32 6.717 5.603 13.202 6.821 19.415.414-.447.816-.901 1.235-1.342zm-75.368 29.368c6.619 8.695 17.536 13.254 27.811 11.531-6.767-3.418-12.188-9.116-15.247-16.084-1.555-.126-3.109-.25-4.664-.402-2.065-.2-4.127-.402-6.198-.709 1.987-.528 4.001-.886 6.025-1.191 1.251-.184 2.51-.328 3.772-.454-.885-2.652-1.441-5.451-1.614-8.356-.726.016-1.451.042-2.179.047-1.684.016-3.371.012-5.06-.029-1.692-.051-3.383-.112-5.1-.289 1.546-.65 3.123-1.153 4.719-1.612 1.593-.451 3.206-.825 4.834-1.153.915-.184 1.835-.342 2.759-.487.053-1.722.194-3.466.427-5.237-.862-1.073-1.728-2.143-2.606-3.209l-1.337.267c-.632.105-1.261.225-1.895.326-1.265.203-2.539.394-3.823.536-1.287.149-2.575.274-3.884.349-1.306.074-2.621.125-3.98.051 1.076-.744 2.203-1.346 3.343-1.909 1.143-.558 2.312-1.051 3.495-1.505 1.183-.453 2.389-.846 3.61-1.209.501-.15 1.012-.284 1.52-.419-2.039-2.394-4.11-4.763-6.216-7.105-1.18-1.298-2.359-2.605-3.553-3.898-1.196-1.291-2.393-2.582-3.599-3.875 1.399 1.082 2.781 2.181 4.131 3.32 1.355 1.13 2.695 2.279 4.004 3.466 2.367 2.114 4.673 4.295 6.912 6.543.179-.498.348-.998.535-1.49.441-1.196.905-2.387 1.411-3.558.507-1.174 1.039-2.334 1.63-3.472.595-1.136 1.217-2.265 1.983-3.33.1 1.449.042 2.828-.059 4.187-.105 1.355-.289 2.68-.514 3.985-.225 1.298-.508 2.578-.828 3.833-.156.629-.346 1.249-.517 1.873-.133.431-.27.867-.41 1.296.419.441.822.896 1.235 1.34 1.216-6.214 3.497-12.7 6.819-19.417-4.023-2.027-8.109-3.655-12.03-4.884-11.969-3.839-22.402-4.085-26.618-4.1.963 4.117 3.474 14.046 6.72 24.838 3.358 10.853 7.455 22.571 14.235 31.592zm40.472 10.715c-.033-2.445-.059-4.892-.071-7.339-.018-2.806-.018-5.611-.01-8.417l-1.913-1.298c-.937-.66-1.889-1.305-2.817-1.977-1.866-1.338-3.716-2.703-5.54-4.106-1.818-1.407-3.618-2.84-5.382-4.339-1.758-1.497-3.498-3.023-5.153-4.679 2.166.89 4.244 1.909 6.307 2.956 2.057 1.052 4.077 2.156 6.075 3.298 2.001 1.136 3.969 2.316 5.921 3.531.852.521 1.695 1.063 2.535 1.6.026-2.522.053-5.048.095-7.568l.051-2.516-1.529-.941c-.781-.501-1.568-.987-2.343-1.5-1.555-1.021-3.09-2.07-4.598-3.163-1.506-1.089-2.994-2.215-4.452-3.394-1.452-1.19-2.889-2.404-4.241-3.755 1.828.563 3.575 1.254 5.308 1.976 1.728.725 3.421 1.507 5.098 2.326 1.673.818 3.318 1.678 4.949 2.569.644.345 1.279.707 1.913 1.063.088-3.38.195-6.76.328-10.14l-1.342-.694c-.623-.346-1.255-.673-1.874-1.032-1.24-.702-2.466-1.438-3.665-2.216-1.201-.78-2.386-1.593-3.541-2.471-1.151-.877-2.287-1.785-3.356-2.835 1.48.224 2.89.591 4.284.982 1.392.402 2.752.859 4.099 1.35 1.347.494 2.67 1.035 3.976 1.6.543.23 1.077.48 1.61.726.138-3.143.317-6.287.514-9.43.092-1.749.227-3.502.356-5.251.122-1.748.276-3.497.442-5.247.166 1.75.318 3.499.442 5.247.131 1.749.26 3.502.356 5.251.198 3.14.372 6.282.51 9.429.538-.248 1.068-.498 1.613-.728 1.307-.564 2.626-1.11 3.975-1.605 1.342-.486 2.704-.95 4.098-1.347 1.397-.394 2.806-.753 4.285-.977-1.063 1.051-2.201 1.962-3.351 2.843-1.154.875-2.338 1.684-3.542 2.469-1.2.782-2.43 1.508-3.666 2.213-.617.356-1.252.686-1.874 1.029l-1.341.694c.131 3.38.239 6.759.324 10.14.639-.359 1.273-.723 1.911-1.069 1.636-.884 3.279-1.753 4.952-2.567 1.675-.818 3.367-1.6 5.095-2.329 1.734-.717 3.484-1.41 5.316-1.968-1.354 1.349-2.789 2.57-4.239 3.757-1.457 1.18-2.947 2.306-4.453 3.398-1.504 1.094-3.048 2.135-4.6 3.16-.773.513-1.562 1.002-2.345 1.502l-1.525.935.049 2.514c.041 2.52.069 5.042.094 7.564.841-.535 1.679-1.08 2.529-1.604 1.959-1.206 3.926-2.39 5.924-3.528 1.999-1.138 4.018-2.248 6.078-3.299 2.057-1.049 4.142-2.06 6.308-2.949-1.654 1.655-3.394 3.185-5.152 4.684-1.765 1.493-3.562 2.932-5.384 4.341-1.817 1.403-3.672 2.761-5.538 4.099-.934.672-1.881 1.32-2.823 1.977l-1.913 1.303c.013 2.801.013 5.605-.004 8.411-.016 2.446-.043 4.893-.074 7.339 14.734-1.044 26.404-13.35 26.404-28.339 0-25.444-22.366-51.42-28.437-57.997-6.071 6.577-28.438 32.553-28.438 57.997-.003 14.992 11.667 27.298 26.402 28.341zm-75.599 35.6l-1.146 7.665h-.177l-1.145-7.665-4.761-27.668h-10.139v58.684h8.374v-12.16l-.528-14.891h.176l1.853 12.775 2.642 14.275h7.143l2.643-14.275 1.851-12.775h.176l-.529 14.891v12.16h8.729v-58.684h-9.873l-5.291 27.668zm34.649-28.548c-6.525 0-11.374 4.934-11.374 12.071v36.301c0 7.226 4.849 12.072 11.374 12.072 6.7 0 10.931-4.76 10.931-11.807v-10.575h-8.639v10.663c0 1.584-.353 2.906-2.204 2.906-1.852 0-2.203-1.322-2.203-2.906v-15.948h13.046v-20.971c-.001-6.961-4.231-11.807-10.931-11.807zm2.291 24.935h-4.407v-13.218c0-1.587.438-2.907 2.203-2.907 1.764 0 2.204 1.32 2.204 2.907v13.218zm16.942-24.035v58.683h9.167v-58.683h-9.167zm16.658 41.392v5.991c0 8.372 4.231 12.161 9.875 12.161 2.556 0 4.673-1.235 5.908-3.173.091.793.352 1.674.616 2.292h7.669c-.881-2.644-1.144-4.758-1.144-8.106v-39.386c0-7.138-4.761-12.071-11.285-12.071-6.701 0-10.933 4.847-10.933 11.807v8.282h8.639v-8.547c0-1.586.443-2.731 2.205-2.731 1.852 0 2.204 1.146 2.204 2.731v10.484c-8.554 5.023-13.754 10.66-13.754 20.265zm13.753 3.791c-.174 3.084-.881 5.375-2.379 5.375-1.5 0-2.116-.971-2.116-2.997v-7.93c0-3.7 1.498-6.52 4.496-8.81v14.361zm31.476-34.98v48.462h9.079v-50.136c0-5.815-2.908-9.428-7.756-9.428-2.205 0-4.851 1.233-6.524 3.26v-2.379h-8.729v58.683h9.169v-48.021c.969-1.498 2.026-2.379 3.085-2.379 1.146-.001 1.676.704 1.676 1.938zm17.279 8.259v40.095h9.169v-40.095h-9.169zm0-18.462v15.604h9.169v-15.604h-9.169zm39.583 31.877v-20.971c0-6.961-4.232-11.807-10.934-11.807-6.524 0-11.371 4.934-11.371 12.071v36.301c0 7.226 4.847 12.072 11.371 12.072 6.702 0 10.934-4.76 10.934-11.807v-10.575h-8.641v10.663c0 1.584-.349 2.906-2.203 2.906-1.85 0-2.206-1.322-2.206-2.906v-15.947h13.05zm-13.05-21.059c0-1.587.442-2.907 2.206-2.907 1.762 0 2.203 1.32 2.203 2.907v13.218h-4.41v-13.218zm-126.252 104.209c0 1.497-.793 2.378-2.116 2.378-1.322 0-2.204-.881-2.204-2.378v-13.042h-8.461v12.862c0 6.786 4.673 11.368 11.019 11.368 6.348 0 10.932-4.582 10.932-11.368v-48.195h-9.169v48.375zm40.203-37.451c0-7.047-5.113-11.806-11.461-11.806s-11.461 4.759-11.461 11.806v36.829c0 7.05 5.112 11.809 11.461 11.809 6.347 0 11.461-4.76 11.461-11.809v-36.829zm-9.258 37.451c0 1.497-.882 2.378-2.203 2.378-1.323 0-2.205-.881-2.205-2.378v-38.066c0-1.496.882-2.378 2.205-2.378 1.321 0 2.203.882 2.203 2.378v38.066zm31.035-23.967c-.53 1.232-1.5 2.468-2.998 2.468-1.149 0-1.675-.707-1.675-1.938v-24.937h-9.167v27.315c0 4.58 3.084 8.018 7.933 8.018 2.468 0 4.585-.796 5.908-2.204v14.891c0 1.499-.707 2.732-2.734 2.732-1.498 0-2.733-1.233-2.733-2.91v-7.136h-8.288v7.753c0 5.641 3.703 11.102 11.108 11.102 7.143 0 11.814-4.934 11.814-11.895v-47.669h-9.168v24.408h-.001zm28.477-25.289c-6.526 0-11.375 4.934-11.375 12.071v36.302c0 7.225 4.849 12.069 11.375 12.069 6.698 0 10.931-4.76 10.931-11.809v-10.571h-8.64v10.662c0 1.588-.352 2.91-2.204 2.91-1.85 0-2.203-1.322-2.203-2.91v-15.948h13.048v-20.971c-.001-6.961-4.233-11.806-10.931-11.806zm2.291 24.937h-4.408v-13.217c0-1.589.439-2.908 2.203-2.908 1.764 0 2.204 1.32 2.204 2.908v13.217zm-68.932 42.26h-2.71v12.31h8.851v-2.462h-6.141v-9.848zm19.968 5.205l-3.238-5.205h-2.921v12.31h2.658v-7.984l3.431 5.205h.07l3.467-5.258v8.037h2.692v-12.31h-2.92l-3.238 5.205zm13.51-2.708h3.747v9.813h2.709v-9.813h3.748v-2.498h-10.205v2.498z" sketch:type="MSShapeGroup" fill="#fff"/></svg>