<svg width="480" height="240" viewBox="0 0 480 240" xmlns="http://www.w3.org/2000/svg" xmlns:sketch="http://www.bohemiancoding.com/sketch/ns"><title>cover-logo</title><desc>Created with Sketch.</desc><path d="M175.197 213.764c-.552 19.03-13.992 26.236-30.561 26.236-21.908 0-36.636-12.194-36.636-36.952 0-24.758 17.674-36.767 36.636-36.767 15.833 0 30.561 7.76 30.561 24.018 0 7.76-4.787 14.596-13.071 14.596-6.996 0-12.887-2.956-12.887-10.716 0-6.836 4.787-10.716 11.414-10.716-2.577-3.326-7.18-4.988-11.782-4.988-7.548 0-14.544 7.575-14.544 24.573s4.234 24.573 14.544 24.573c7.732 0 11.23-6.651 11.967-13.487h14.36v-.37zm15.649-43.603v-3.51c0-21.062 9.021-30.115 27.799-30.115 10.31 0 24.301 3.88 24.301 16.259 0 5.543-4.418 11.455-10.126 11.455-5.523 0-10.31-3.88-10.31-9.792 0-3.88 2.393-6.651 5.891-7.021v-.37c-1.841-.37-3.498-.739-5.523-.739-6.996 0-7.732 6.097-7.732 12.194v11.64h12.335v11.824h-12.335v37.506c0 4.065 1.105 6.282 5.339 6.282h6.075v11.824h-47.498v-11.824h6.259c4.234 0 5.339-2.217 5.339-6.282v-37.506h-10.862v-11.824h11.046zm80.452-1.663v11.824h.368c5.523-9.238 13.255-14.042 24.117-14.042 9.205 0 16.569 4.249 20.067 13.118 5.155-8.129 13.623-13.118 23.381-13.118 15.28 0 22.46 7.76 22.46 21.801v31.594c0 4.065 1.105 6.282 5.339 6.282h4.971v11.824h-42.343v-11.824h2.209c4.234 0 5.339-2.217 5.339-6.282v-27.159c0-5.173-2.577-12.748-9.205-12.748-7.916 0-10.678 4.619-10.678 11.085v31.594c0 2.771.736 3.326 5.339 3.326h1.841v11.824h-39.029v-11.824h2.025c4.234 0 5.339-1.848 5.339-6.282v-27.159c0-7.39-.921-12.748-9.389-12.748-7.916 0-10.678 6.282-10.678 13.303v29.561c0 2.032 1.105 3.326 5.339 3.326h2.393v11.824h-43.816v-11.824h6.259c4.234 0 5.339-2.217 5.339-6.282v-32.887c0-4.065-1.105-6.282-5.339-6.282h-5.891v-11.824h34.243zm-19.883-21.801c0 2.771 1.473 3.141 3.13 1.109l22.644-27.898c1.657-2.032 5.339-3.88 8.1-3.88h76.77c2.762 0 4.971-2.217 4.971-4.988v-106.051c0-2.771-2.209-4.988-4.971-4.988h-105.674c-2.762 0-4.971 2.217-4.971 4.988v141.709z" sketch:type="MSShapeGroup" fill="#fff"/></svg>