<svg width="480" height="240" viewBox="0 0 480 240" xmlns="http://www.w3.org/2000/svg" xmlns:sketch="http://www.bohemiancoding.com/sketch/ns"><title>cover-logo</title><desc>Created with Sketch.</desc><g sketch:type="MSLayerGroup" fill="#fff"><path d="M181.088 190.526c-.502 17.317-12.72 23.874-27.782 23.874-19.916 0-33.305-11.097-33.305-33.626 0-22.529 16.067-33.458 33.305-33.458 14.393 0 27.782 7.061 27.782 21.857 0 7.061-4.351 13.282-11.883 13.282-6.36 0-11.715-2.69-11.715-9.752 0-6.221 4.351-9.752 10.377-9.752-2.343-3.026-6.527-4.539-10.711-4.539-6.862 0-13.222 6.893-13.222 22.361s3.849 22.361 13.222 22.361c7.029 0 10.209-6.053 10.879-12.273h13.054v-.336zm14.226-39.679v-3.194c0-19.167 8.201-27.405 25.272-27.405 9.372 0 22.092 3.531 22.092 14.795 0 5.044-4.017 10.424-9.205 10.424-5.021 0-9.372-3.531-9.372-8.911 0-3.531 2.176-6.053 5.356-6.389v-.336c-1.674-.336-3.18-.673-5.021-.673-6.36 0-7.029 5.548-7.029 11.097v10.592h11.213v10.76h-11.213v34.13c0 3.699 1.004 5.716 4.854 5.716h5.523v10.76h-43.18v-10.76h5.69c3.849 0 4.854-2.018 4.854-5.716v-34.13h-9.874v-10.76h10.042zm73.138-1.513v10.76h.335c5.021-8.406 12.05-12.778 21.925-12.778 8.368 0 15.063 3.867 18.243 11.937 4.686-7.398 12.385-11.937 21.255-11.937 13.891 0 20.418 7.061 20.418 19.839v28.75c0 3.699 1.004 5.716 4.854 5.716h4.519v10.76h-38.494v-10.76h2.008c3.849 0 4.854-2.018 4.854-5.716v-24.715c0-4.708-2.343-11.601-8.368-11.601-7.197 0-9.707 4.203-9.707 10.088v28.75c0 2.522.669 3.026 4.854 3.026h1.674v10.76h-35.481v-10.76h1.841c3.849 0 4.854-1.681 4.854-5.716v-24.715c0-6.725-.837-11.601-8.536-11.601-7.197 0-9.707 5.716-9.707 12.105v26.901c0 1.849 1.004 3.026 4.854 3.026h2.176v10.76h-39.833v-10.76h5.69c3.849 0 4.854-2.018 4.854-5.716v-29.927c0-3.699-1.004-5.716-4.854-5.716h-5.356v-10.76h31.13zm-18.075-19.839c0 2.522 1.339 2.858 2.845 1.009l20.586-25.388c1.506-1.849 4.854-3.531 7.364-3.531h69.791c2.51 0 4.519-2.018 4.519-4.539v-96.506c0-2.522-2.008-4.539-4.519-4.539h-96.067c-2.51 0-4.519 2.018-4.519 4.539v128.955z" sketch:type="MSShapeGroup"/><path d="M129.668 235.44c-.309 3.04-2.088 4.16-4.95 4.16-2.707 0-4.718-1.84-4.718-5.6 0-3.28 2.32-5.6 5.337-5.6 1.934 0 4.409 1.04 4.409 3.36 0 .88-.541 1.52-1.392 1.52-.541 0-1.083-.48-1.083-1.04 0-.8.387-1.2 1.083-1.28-.309-1.12-1.779-1.52-2.784-1.52-2.707 0-3.635 2.48-3.635 4.48 0 2.08.851 4.48 3.248 4.48 1.702 0 2.784-1.2 3.171-3.12h1.315v.16zm5.105-4.8c.851-1.28 2.166-2.16 3.867-2.16 2.243 0 3.481 1.52 3.481 3.84v4.88c0 .72.155 1.04.851 1.04h1.315v1.04h-6.033v-1.04h1.16c.696 0 .851-.32.851-1.04v-5.04c0-1.52-.541-2.48-2.243-2.48-2.088 0-3.248 1.68-3.248 3.52v4c0 .72.155 1.04.851 1.04h1.315v1.04h-6.265v-1.04h1.392c.696 0 .851-.32.851-1.04v-10.64c0-.72-.155-1.04-.851-1.04h-1.392v-1.04h4.099v6.16zm14.386 6.56c0 .72.155 1.04.851 1.04h1.392v1.04h-6.342v-1.04h1.392c.696 0 .851-.32.851-1.04v-6.32c0-.72-.155-1.04-.851-1.04h-1.392v-1.04h4.099v8.4zm-1.238-10.56c-.619 0-1.16-.56-1.16-1.2 0-.64.541-1.2 1.16-1.2.619 0 1.16.56 1.16 1.2.077.72-.464 1.2-1.16 1.2zm13.535 8.8c-.309 3.04-2.088 4.16-4.95 4.16-2.707 0-4.718-1.84-4.718-5.6 0-3.28 2.32-5.6 5.337-5.6 1.934 0 4.409 1.04 4.409 3.36 0 .88-.541 1.52-1.392 1.52-.541 0-1.083-.48-1.083-1.04 0-.8.387-1.2 1.083-1.28-.309-1.12-1.779-1.52-2.784-1.52-2.707 0-3.635 2.48-3.635 4.48 0 2.08.851 4.48 3.248 4.48 1.702 0 2.784-1.2 3.171-3.12h1.315v.16zm10.055 1.92c0 .64.155 1.2.541 1.2.928 0 1.005-1.28 1.005-1.92v-.96h1.005v.64c0 2.4-.773 3.28-2.398 3.28-1.083 0-1.702-.64-1.934-1.76-1.083 1.2-2.243 1.76-3.79 1.76-1.779 0-3.171-.8-3.171-2.8 0-2.88 3.867-2.88 6.11-3.92.696-.32.851-.8.851-1.44 0-1.28-.541-1.92-2.398-1.92-.851 0-1.934.16-2.552.88.619.08 1.005.48 1.005 1.12 0 .88-.696 1.2-1.315 1.2-.773 0-1.16-.72-1.16-1.6 0-1.92 2.475-2.64 4.099-2.64 2.475 0 4.099.72 4.099 3.68v5.2zm-1.779-3.76c-.928.56-1.934.8-3.171 1.36-1.16.48-1.624 1.04-1.624 1.76 0 1.2.619 1.84 1.702 1.84 1.392 0 3.171-1.36 3.171-2.96v-2h-.077zm11.756 4.4c3.248 0 4.486.96 4.486 2.8 0 2.08-2.011 3.2-5.801 3.2-3.481 0-5.491-.8-5.491-2.56 0-1.44 1.16-1.92 2.243-2-1.005 0-1.856-.72-1.856-1.84s.928-2 1.934-2.16c-1.083-.64-1.547-1.84-1.547-3.12 0-2.72 2.398-3.84 4.718-3.84 1.238 0 2.475.48 3.481 1.28.541-.72 1.315-1.28 2.243-1.28 1.16 0 2.088.72 2.088 2 0 .88-.387 1.44-1.238 1.44-.619 0-1.005-.48-1.005-1.04 0-.64.464-.96 1.005-.96-.155-.32-.541-.32-.928-.32-.619 0-1.238.48-1.624.88.309.64.619 1.44.619 2.4 0 1.76-1.779 3.6-4.563 3.6-1.779 0-2.011-.4-2.398-.4-.619 0-1.16.56-1.16 1.12 0 .64.619.88 1.238.88h3.558v-.08zm-2.552 1.68c-1.238 0-2.552.56-2.552 1.6 0 1.44 1.934 1.76 4.099 1.76 2.166 0 3.945-.56 3.945-1.68 0-1.2-.773-1.6-2.166-1.6h-3.326v-.08zm-1.392-7.2c0 1.76.773 2.88 2.63 2.88 1.856 0 2.63-1.2 2.63-2.88 0-1.76-.773-2.96-2.63-2.96-1.856 0-2.63 1.2-2.63 2.96zm22.121 1.6c0 3.2-2.088 5.6-5.569 5.6s-5.569-2.32-5.569-5.6c0-3.2 2.088-5.6 5.569-5.6s5.569 2.32 5.569 5.6zm-9.049 0c0 2.4.851 4.48 3.558 4.48s3.558-2.08 3.558-4.48c0-2.4-.851-4.48-3.558-4.48-2.784-.08-3.558 2-3.558 4.48zm20.806-4.24v7.36c0 .72.541 1.04 1.238 1.04h1.083v1.04h-6.497v-1.04h1.47c.696 0 .851-.32.851-1.04v-7.36h-2.32v-1.04h2.32v-1.52c0-2.4 1.702-3.28 3.326-3.28 1.238 0 3.171.48 3.171 2.32 0 .8-.541 1.28-1.315 1.28-.851 0-1.16-.48-1.16-1.12 0-.56.387-.8.851-.88-.309-.48-1.083-.64-1.547-.64-.851 0-1.547.8-1.547 2v1.76h2.398v1.04h-2.32v.08zm15.16 4.24c0 3.2-2.088 5.6-5.569 5.6s-5.569-2.32-5.569-5.6c0-3.2 2.088-5.6 5.569-5.6s5.569 2.32 5.569 5.6zm-9.127 0c0 2.4.851 4.48 3.558 4.48s3.558-2.08 3.558-4.48c0-2.4-.851-4.48-3.558-4.48-2.707-.08-3.558 2-3.558 4.48zm21.424 0c0 3.2-2.088 5.6-5.569 5.6s-5.569-2.32-5.569-5.6c0-3.2 2.088-5.6 5.569-5.6s5.569 2.32 5.569 5.6zm-9.127 0c0 2.4.851 4.48 3.558 4.48s3.558-2.08 3.558-4.48c0-2.4-.851-4.48-3.558-4.48-2.707-.08-3.558 2-3.558 4.48zm18.717 3.2c-.851 1.52-1.702 2.32-3.635 2.32-3.248 0-4.641-2.88-4.641-5.6 0-2.72 1.392-5.6 4.641-5.6 1.392 0 2.862.8 3.558 2.24h.077v-3.92c0-.72-.309-1.28-1.005-1.28h-1.16v-1.04h3.945v12.96c0 .56.309.8.773.8h1.238v1.04h-3.867v-1.92h.077zm-6.188-3.2c0 2.56.851 4.32 2.862 4.32 2.475 0 3.326-2.08 3.326-4.32s-.851-4.32-3.094-4.32-3.094 2.08-3.094 4.32zm21.888-3.36c.928-1.44 1.779-2.24 3.558-2.24 1.47 0 2.475.88 2.862 2.24 1.005-1.44 2.011-2.24 3.635-2.24 2.939 0 3.248 2 3.248 4.88v3.84c0 .72.155 1.04.851 1.04h1.238v1.04h-5.801v-1.04h1.005c.696 0 .851-.32.851-1.04v-5.44c0-1.36-.773-2-1.934-2-1.624 0-2.939 1.76-2.939 3.2v4.24c0 .72.155 1.04.851 1.04h1.005v1.04h-5.569v-1.04h1.005c.696 0 .851-.32.851-1.04v-5.2c0-1.36-.696-2.32-1.934-2.32-1.624 0-2.862 1.84-2.862 3.2v4.24c0 .72.155 1.04.851 1.04h1.005v1.04h-5.956v-1.04h1.392c.696 0 .851-.32.851-1.04v-6.32c0-.72-.155-1.04-.851-1.04h-1.392v-1.04h4.099v2h.077zm25.06 6.64c0 .64.155 1.2.541 1.2.928 0 1.005-1.28 1.005-1.92v-.96h1.005v.64c0 2.4-.773 3.28-2.398 3.28-1.083 0-1.702-.64-1.934-1.76-1.083 1.2-2.243 1.76-3.79 1.76-1.779 0-3.171-.8-3.171-2.8 0-2.88 3.867-2.88 6.11-3.92.696-.32.851-.8.851-1.44 0-1.28-.541-1.92-2.398-1.92-.851 0-1.934.16-2.552.88.619.08 1.005.48 1.005 1.12 0 .88-.696 1.2-1.315 1.2-.773 0-1.16-.72-1.16-1.6 0-1.92 2.475-2.64 4.099-2.64 2.475 0 4.099.72 4.099 3.68v5.2zm-1.779-3.76c-.928.56-1.934.8-3.171 1.36-1.16.48-1.624 1.04-1.624 1.76 0 1.2.619 1.84 1.702 1.84 1.392 0 3.171-1.36 3.171-2.96v-2h-.077zm11.911 4.4c3.248 0 4.486.96 4.486 2.8 0 2.08-2.011 3.2-5.801 3.2-3.481 0-5.491-.8-5.491-2.56 0-1.44 1.16-1.92 2.243-2-1.005 0-1.856-.72-1.856-1.84s.928-2 1.934-2.16c-1.083-.64-1.547-1.84-1.547-3.12 0-2.72 2.398-3.84 4.718-3.84 1.238 0 2.475.48 3.481 1.28.541-.72 1.315-1.28 2.243-1.28 1.16 0 2.088.72 2.088 2 0 .88-.387 1.44-1.238 1.44-.619 0-1.005-.48-1.005-1.04 0-.64.464-.96 1.005-.96-.155-.32-.541-.32-.928-.32-.619 0-1.238.48-1.624.88.309.64.619 1.44.619 2.4 0 1.76-1.779 3.6-4.563 3.6-1.779 0-2.011-.4-2.398-.4-.619 0-1.16.56-1.16 1.12 0 .64.619.88 1.238.88h3.558v-.08zm-2.63 1.68c-1.315 0-2.552.56-2.552 1.6 0 1.44 1.934 1.76 4.099 1.76 2.166 0 3.945-.56 3.945-1.68 0-1.2-.773-1.6-2.166-1.6h-3.326v-.08zm-1.392-7.2c0 1.76.773 2.88 2.63 2.88 1.856 0 2.63-1.2 2.63-2.88 0-1.76-.773-2.96-2.63-2.96-1.856 0-2.63 1.2-2.63 2.96zm19.8 4.88c0 .64.155 1.2.541 1.2.928 0 1.005-1.28 1.005-1.92v-.96h1.005v.64c0 2.4-.773 3.28-2.398 3.28-1.083 0-1.702-.64-1.934-1.76-1.083 1.2-2.243 1.76-3.79 1.76-1.779 0-3.171-.8-3.171-2.8 0-2.88 3.867-2.88 6.11-3.92.696-.32.851-.8.851-1.44 0-1.28-.541-1.92-2.398-1.92-.851 0-1.934.16-2.552.88.619.08 1.005.48 1.005 1.12 0 .88-.696 1.2-1.315 1.2-.773 0-1.16-.72-1.16-1.6 0-1.92 2.475-2.64 4.099-2.64 2.475 0 4.099.72 4.099 3.68v5.2zm-1.856-3.76c-.928.56-1.934.8-3.171 1.36-1.16.48-1.624 1.04-1.624 1.76 0 1.2.619 1.84 1.702 1.84 1.392 0 3.171-1.36 3.171-2.96v-2h-.077zm5.182 5.68v-1.04l7.038-8.4h-3.558c-1.547 0-2.011 1.04-2.088 3.28h-1.005v-4.4h8.895v1.04l-7.116 8.4h3.713c2.088 0 2.398-.8 2.552-3.68h1.005v4.72h-9.436v.08zm14.927-2.08c0 .72.155 1.04.851 1.04h1.392v1.04h-6.342v-1.04h1.392c.696 0 .851-.32.851-1.04v-6.32c0-.72-.155-1.04-.851-1.04h-1.392v-1.04h4.099v8.4zm-1.238-10.56c-.619 0-1.16-.56-1.16-1.2 0-.64.541-1.2 1.16-1.2.619 0 1.16.56 1.16 1.2 0 .72-.464 1.2-1.16 1.2zm8.431 4.08c.928-1.44 2.243-2.24 3.867-2.24 2.243 0 3.481 1.52 3.481 3.84v4.88c0 .72.155 1.04.851 1.04h1.315v1.04h-6.033v-1.04h1.16c.696 0 .851-.32.851-1.04v-5.04c0-1.52-.541-2.48-2.243-2.48-2.088 0-3.248 1.68-3.248 3.52v4c0 .72.155 1.04.851 1.04h1.315v1.04h-6.265v-1.04h1.392c.696 0 .851-.32.851-1.04v-6.32c0-.72-.155-1.04-.851-1.04h-1.392v-1.04h4.099v1.92zm11.602 3.44c0 2.24.464 4.4 3.016 4.4 1.702 0 2.784-.96 3.248-2.72h1.238c-.464 2.4-1.934 3.76-4.486 3.76-3.171 0-5.027-1.92-5.027-5.6 0-3.68 1.856-5.6 5.027-5.6 3.481 0 4.641 2.56 4.795 5.68h-7.812v.08zm5.723-1.04c0-1.92-.851-3.6-2.784-3.6-2.011 0-2.939 1.68-2.939 3.6h5.723z" sketch:type="MSShapeGroup"/></g></svg>