<svg width="377" height="232" viewBox="0 0 377 232" xmlns="http://www.w3.org/2000/svg" xmlns:sketch="http://www.bohemiancoding.com/sketch/ns"><title>desktop</title><g sketch:type="MSLayerGroup" fill="none"><path fill="#3C4B5D" sketch:type="MSShapeGroup" d="M182 1h14v11h-14z"/><path d="M355 11.845c0-6.543-5.533-11.845-12.077-11.845h-307.646c-6.545 0-11.277 5.303-11.277 11.845v218.155h331v-218.155zm-166-5.845c1.105 0 2 .895 2 2s-.896 2-2 2-2-.896-2-2c0-1.106.896-2 2-2z" id="Shape" fill="#14191F" sketch:type="MSShapeGroup"/><path d="M.019 228.503c-.599 3.406 13.393 3.406 20.95 3.406h335.114c7.557 0 14.708.925 20.918-3.125v-5.784h-376.981v5.503z" fill="#777" sketch:type="MSShapeGroup"/><path d="M210.901 224.077h-44.362c-2.267 0-4.148-1.231-4.369-3.077h-162.169v7.824c0 .096.06.176.276.176h376.724v-8h-161.729c-.222 1.846-2.102 3.077-4.369 3.077z" fill="#ccc" sketch:type="MSShapeGroup"/></g></svg>