<svg width="480" height="240" viewBox="0 0 480 240" xmlns="http://www.w3.org/2000/svg" xmlns:sketch="http://www.bohemiancoding.com/sketch/ns"><title>cover-logo</title><path d="M210.543 81.971v20.647h-12.543v-71.118h21.753c18.904 0 28.425 10.422 28.425 25.29 0 14.875-9.407 25.181-30.861 25.181h-6.775zm-7.277 22.456l9.097 5.977h-2.527l-8.99-5.977h2.421zm5.556 0l9.016 5.977h-2.428l-9.115-5.977h2.527zm1.721-61.384v27.806h8.298c11.737 0 15.78-6.262 15.78-14.059 0-7.778-3.945-13.748-15.78-13.748h-8.298zm1.82 61.384v-1.307l10.02 6.568v.715h-1.418l-9.096-5.977h.494zm10.02-52.888v1.604l-10.02-6.665v-1.619l10.02 6.68zm-10.02-3.039l10.02 6.669v1.622l-10.02-6.669v-1.622zm0 3.647l10.02 6.676v1.615l-10.02-6.669v-1.622zm0 3.64l10.02 6.676v1.622l-10.02-6.68v-1.619zm0 3.644l10.02 6.669v1.615l-10.02-6.669v-1.615zm6.577 9.598l-6.577-4.343v-1.622l8.906 5.87c-.813.095-1.516.095-2.329.095zm-3.029 0h-2.527l-1.022-.699v-1.619l3.549 2.318zm-3.549 15.889l10.02 6.669v1.619l-10.02-6.665v-1.623zm0 3.63l10.02 6.683v1.616l-10.02-6.675v-1.623zm0 3.655l10.02 6.661v1.631l-10.02-6.675v-1.616zm0 3.64l10.02 6.668v1.521l-10.02-6.577v-1.611zm0 3.647l10.02 6.566v1.623l-10.02-6.585v-1.604zm3.853-15.691l9.006 5.968h-2.436l-9.097-5.968h2.527zm1.622-38.94l9.086 5.962h-2.517l-8.997-5.962h2.428zm1.399 38.94l2.23-.1 9.309 6.067h-2.527l-9.012-5.968zm10.726-32.978l-8.906-5.859c1.226.106 2.231.304 3.242.509l6.675 4.453.611.897h-1.622zm3.637 38.848l-9.401-6.167 2.024-.312 9.511 6.281-2.134.198zm4.661-.502l-9.617-6.372 1.827-.508 9.706 6.479-1.916.401zm4.248-1.021l-9.914-6.471 1.518-.601 10.015 6.571c-.508.204-1.109.409-1.619.501zm3.538-1.201l-10.02-6.585 1.326-.703 10.119 6.669-1.425.618zm3.145-1.622l-10.118-6.677c.403-.198.699-.52 1.103-.817l10.216 6.786-1.201.708zm2.725-1.821l-10.323-6.775 1.113-.912 10.214 6.782-1.005.905zm2.231-2.124l-10.225-6.775.81-1.011 10.318 6.768-.904 1.018zm-7.686-10.323l10.312 6.775c-.205.421-.41.817-.708 1.121l-10.317-6.775c.297-.297.495-.714.712-1.121zm8.887-21.442l-7.778-5.061c-.303-.798-.718-1.509-1.109-2.322l3.636 2.435c2.019 1.406 3.845 3.036 5.252 4.948zm2.241 26.711l-10.323-6.79.601-1.205 10.323 6.775-.601 1.219zm.601-21.46l-9.116-6.068-.601-1.908 8.793 5.753.923 2.223zm.6 18.611l-10.317-6.764.404-1.417 10.216 6.768-.303 1.414zm.708-3.127l-10.207-6.768.305-1.421 10.099 6.676c0 .502-.098 1.003-.196 1.512zm0-10.917l-9.712-6.486-.297-1.71 9.605 6.27.404 1.926zm.396 7.584l-10.107-6.676c.105-.502.105-1.007.105-1.622l10.125 6.676c0 .509 0 1.011-.123 1.622zm.123-3.647l-10.02-6.577c0-.601 0-1.102-.105-1.703l9.902 6.566.223 1.714zm42.294 25.081h-30.538l-6.167 14.169h-13.154l33.387-71.719h2.824l33.384 71.719h-13.444l-6.292-14.169zm-40.854 15.978l9.104 5.977h-2.527l-9.004-5.977h2.427zm5.351 0v-.088l9.214 6.065h-2.429l-9.108-5.977h2.323zm1.226-2.937l10.415 6.79-.601 1.311-10.323-6.88.508-1.22zm1.311-2.817l10.33 6.782-.513 1.313-10.43-6.776.612-1.318zm1.216-2.83l10.315 6.775-.501 1.308-10.422-6.782.608-1.301zm1.213-2.83l10.323 6.88-.505 1.201-10.437-6.768.62-1.314zm1.207-2.744h.217l10.213 6.789-.615 1.213-10.315-6.782.501-1.22zm3.246-11.821h21.642l-10.825-24.489-10.816 24.489zm2.42 11.821l9.111 5.969h-2.534l-8.997-5.969h2.42zm.516-14.158l.908.509h-1.119l.211-.509zm.712-1.615l.601-1.219 5.159 3.343h-2.534l-3.226-2.124zm1.816-4.043l9.404 6.167h-2.531l-7.39-4.856.517-1.311zm2.53 19.816l9.004 5.969h-2.427l-9.107-5.969h2.53zm-1.226-22.654l10.33 6.782-.612 1.311-10.318-6.775.601-1.318zm10.23 4.764l-9.615-6.28.611-1.315 7.983 5.365c.303.699.608 1.516 1.021 2.23zm-2.329-5.167l-5.968-3.944.494-1.307 4.46 2.93 1.014 2.322zm-2.332-5.054l-2.429-1.721.502-1.22 1.021.619.905 2.322zm1.121 28.11l9.097 5.969h-2.527l-9.006-5.969h2.436zm10.918-50.973l1.002 2.223-8.792-5.859-1.003-2.124 8.794 5.76zm1.207 56.942l-9.097-5.969h2.528l8.291 5.468.205.501h-1.928zm-7.679-57.642l8.801 5.852 1.102 2.336-8.792-5.768-1.11-2.421zm2.52 5.251l8.807 5.863 1.103 2.329-8.789-5.76-1.121-2.432zm4.05 46.421l.508.403 1.005 2.249-3.935-2.651h2.421zm-1.616-41.158l8.801 5.878 1.113 2.304-8.792-5.753-1.122-2.428zm2.519 5.358l8.808 5.764 1.015 2.329-8.695-5.772-1.128-2.322zm2.429 5.259l8.818 5.764 1.102 2.322-8.792-5.753-1.128-2.333zm2.527 5.262l8.712 5.761 1.005 2.34-8.588-5.779-1.128-2.322zm2.439 5.259l8.701 5.764 1.003 2.322-8.594-5.764-1.11-2.322zm2.429 5.262l8.594 5.662 1.109 2.427-8.602-5.661-1.101-2.428zm2.427 5.16l8.594 5.655 1.118 2.439-8.609-5.666-1.103-2.428zm2.832 23.756l9.103 5.977h-2.52l-9.019-5.977h2.436zm-.41-18.398l8.707 5.672 1.015 2.314-8.594-5.664-1.128-2.322zm2.427 5.171l8.701 5.745 1.121 2.338-8.811-5.769-1.011-2.314zm3.442 13.227l9.104 5.977h-2.429l-9.107-5.977h2.432zm-1.015-7.983l8.695 5.771 1.116 2.212-8.689-5.654-1.122-2.329zm2.436 5.27l8.694 5.646 1.113 2.329-8.701-5.657-1.106-2.318zm67.906-36.42v30.444s-10.635 8.096-27.51 8.096c-24.07 0-40.074-15.781-40.074-36.819 0-20.537 17.295-36.724 38.354-36.724 15.87 0 25.081 5.764 25.081 5.764l-4.348 10.73s-9.21-4.658-18.609-4.658c-16.689 0-26.903 10.514-26.903 25.086 0 14.257 10.913 24.778 25.683 24.778 6.57 0 12.341-1.418 16.182-2.824v-12.637h-19.83v-11.235h31.973zm-52.198.297l10.125 6.683c0 .502 0 1.003-.1 1.509l-10.025-6.57v-1.622zm.108 3.655l9.917 6.464v1.729l-9.722-6.482c-.107-.608-.195-1.117-.195-1.71zm10.313 1.102l-10.225-6.669.217-1.52 10.305 6.775-.297 1.414zm-9.712 2.93l9.507 6.273c.107.612.205 1.326.404 1.919l-9.302-6.156-.609-2.036zm10.419-6.064l-10.32-6.775c.105-.403.305-.923.51-1.319l10.216 6.782c-.117.414-.208.908-.406 1.311zm1.113-2.933l-10.415-6.775.601-1.315 10.422 6.874-.608 1.216zm-9.617 13.971l8.602 5.647.817 2.231-7.698-5.161c-.713-.806-1.209-1.813-1.721-2.717zm11.033-16.597l-10.415-6.881c.297-.41.495-.813.817-1.11l10.313 6.775-.715 1.216zm1.718-2.534l-10.313-6.881.913-1.003 10.323 6.881-.923 1.003zm2.124-2.223l-10.323-6.775 1.119-1.011 10.317 6.775c-.415.304-.81.608-1.113 1.011zm2.52-2.033l-10.313-6.768 1.323-.707 10.216 6.683c-.41.198-.797.502-1.226.791zm-3.53 52.305l-4.563-3.028c1.121.286 2.341.502 3.548.699l7.172 4.751c-2.106-.601-4.248-1.516-6.157-2.421zm6.379-54.026l-10.119-6.665 1.518-.703 10.008 6.669-1.406.699zm3.333-1.498l-9.902-6.478c.593-.205 1.201-.308 1.802-.403l9.708 6.379-1.607.502zm1.411 59.161l-8.193-5.464c.904.113 1.827.212 2.75.212l8.578 5.657c-1.11-.098-2.124-.196-3.135-.406zm2.534-60.165l-9.606-6.39c.706-.095 1.406-.205 2.106-.205l9.517 6.273-2.017.322zm-7.178 27.693h2.024l8.997 5.983h-2.032l-8.99-5.983zm11.326 33.182l-9.006-5.877 2.323-.085 9.21 6.062c-.904 0-1.71 0-2.527-.1zm.396-61.501l-9.097-6.068c.923 0 1.828.099 2.725.209l8.801 5.768c-.806 0-1.616 0-2.429.091zm2.429 34.302l-9.097-5.983h2.42l7.786 5.167v.816h-1.109zm2.534 27.199l-9.416-6.174 2.131-.297 9.614 6.267-2.329.205zm.816-61.395l-7.803-5.16 4.254 1.208 6.684 4.472-3.135-.52zm-4.453 28.213l2.212 1.414v1.721l-4.639-3.135h2.427zm8.486 32.681l-9.712-6.372 1.827-.404 9.81 6.469-1.925.308zm4.254-.81l-9.917-6.577c.503-.098 1.11-.297 1.63-.508l10.009 6.568-1.723.517zm-4.649-8.298l10.118 6.68-1.531.501-10.119-6.577 1.532-.604zm4.438-50.065l-3.835-2.534.501-1.311 8.394 5.566c-1.201-.421-2.921-1.121-5.06-1.721zm-2.206-6.676l10.313 6.775-.527 1.201-10.298-6.768.513-1.209zm9.897 62.612l-10.21-6.684 1.409-.6 10.222 6.675-1.421.609zm-8.695-65.549l10.313 6.782-.606 1.307-10.207-6.775.501-1.315zm1.216-2.827l10.21 6.768-.494 1.326-10.217-6.775.501-1.318zm10.72 66.961l-10.313-6.785c.501-.212.897-.51 1.315-.715l10.415 6.776-1.418.724zm.1-61.504l-10.313-6.782.401-.904c10.009 6.775 10.116 6.775 10.214 6.775l-.303.912zm2.93 59.785l-10.307-6.677 1.213-.823 10.313 6.782-1.219.718zm-8.493-36.215l10.008 6.577v1.615l-10.008-6.57v-1.622zm0 3.534l10.008 6.683v1.604l-10.008-6.658v-1.63zm0 3.636l10.008 6.687v1.611l-10.008-6.669v-1.63zm0 3.655l10.008 6.668v1.623l-10.008-6.577v-1.714zm0 3.64l10.008 6.677v1.629l-10.008-6.683v-1.623zm0 3.647l10.008 6.665v1.633l-10.008-6.589v-1.709zm0 3.63l10.008 6.675v1.622l-10.008-6.577v-1.72zm0 3.746l10.008 6.577v1.621l-10.008-6.686v-1.513zm18.867-62.417h46.223v11.543h-33.687v19.922h30.548v11.136h-30.548v16.984h33.687v11.533h-46.223v-71.118zm2.732 72.927h.092l9.004 5.977h-.098l-8.999-5.977zm5.556 0l9.114 5.977h-2.546l-9.097-5.977h2.528zm5.566 0l8.99 5.977h-2.421l-9.097-5.977h2.528zm.501-57.854l10.02 6.57v1.63l-10.02-6.566v-1.633zm0 3.647l10.02 6.57v1.63l-10.02-6.577v-1.622zm8.601 10.924l-8.601-5.654v-1.63l10.02 6.577v.707h-1.418zm-8.601-3.64l5.566 3.64h-2.432l-3.135-2.025v-1.615zm0 18.398h.403l9.617 6.383v1.611l-10.02-6.577v-1.417zm0 3.45l10.02 6.569v1.623l-10.02-6.577v-1.615zm0 3.647l9.624 6.274h-2.527l-7.097-4.658v-1.616zm4.05 6.274h-2.436l-1.614-1.023v-1.61l4.05 2.632zm5.969-38.13l-9.519-6.284h2.546l8.997 5.962h-2.024v.322zm-5.054 53.284l9.094 5.977h-2.517l-8.997-5.977h2.42zm.897-28.524l9.111 5.977h-2.525l-9.006-5.977h2.42zm2.626-31.044l9.119 5.962h-2.534l-9.006-5.962h2.421zm2.041 59.568l8.99 5.977h-2.427l-9.097-5.977h2.534zm.914-28.524l8.988 5.977h-2.429l-9.089-5.977h2.53zm2.616-31.044l9.009 5.962h-2.421l-9.104-5.962h2.517zm1.925 59.568l9.097 5.977h-2.508l-9.016-5.977h2.427zm1.008-28.524l9.012 5.977h-2.534l-9.004-5.977h2.527zm2.527-31.044l9.119 5.962h-2.534l-9.012-5.962h2.427zm2.026 59.568l9.111 5.977h-2.528l-9.004-5.977h2.421zm.911-28.524l9.104 5.977h-2.534l-8.99-5.977h2.42zm2.625-31.044l8.999 5.962h-2.427l-9.079-5.962h2.508zm2.026 59.568l9.004 5.977h-2.427l-9.104-5.977h2.527zm.908-28.524l9.013 5.977h-2.436l-9.097-5.977h2.52zm2.542-31.044l9.104 5.962h-2.421l-9.111-5.962h2.429zm2.024 59.568l9.105 5.977h-2.528l-9.004-5.977h2.427zm7.988-32.153l-10.012-6.585v-1.509l10.012 6.669v1.425zm-10.012-4.962l10.012 6.566v1.436l-10.012-6.577v-1.425zm0 3.036l10.012 6.57v1.615l-10.012-6.57v-1.615zm9.606 11.532l-9.606-6.28v-1.611l10.012 6.584v1.307h-.406zm3.54-40.961l-10.02-6.669v-1.52l10.02 6.672v1.516zm-10.02-4.948l10.02 6.669v1.611l-10.02-6.672v-1.608zm0 3.629l10.02 6.68v1.611l-10.02-6.669v-1.622zm9.009 11.221l-9.009-5.962v-1.619l10.02 6.683v.897h-1.011zm-9.009 43.399l10.02 6.677v1.614l-10.02-6.668v-1.623zm0 3.642l10.02 6.565v1.629l-10.02-6.566v-1.629zm0 3.628l10.02 6.585v1.614l-10.02-6.568v-1.63zm-251.418 101.016c-8.397 0-16.787-2.842-23.263-6.787l4.345-11.326c5.87 3.952 12.942 6.379 19.329 6.379 8.397 0 12.224-4.15 12.224-8.701 0-4.756-2.626-7.588-15.465-12.338-13.854-5.054-18.615-11.622-18.615-20.137 0-10.727 8.701-20.629 23.866-20.629 7.588 0 15.081 2.231 19.633 4.86l-4.043 11.118c-4.15-2.329-10.422-4.758-15.886-4.758-7.485 0-10.924 4.157-10.924 9.116 0 4.541 3.853 7.383 13.861 11.03 15.872 6.148 20.424 12.437 20.424 21.738 0 12.646-9.606 20.435-25.485 20.435zm-10.02.502l6.075 4.039c-2.428-1.011-4.651-2.124-6.775-3.438l-2.131-1.418 2.831.817zm13.261-47.846l-10.221-6.669.304-1.529 10.324 6.773c-.209.521-.315.923-.406 1.425zm-4.354.816l-4.149-2.735c-.806-.904-1.315-1.721-1.619-2.732l9.917 6.577v.6c-1.622-.6-2.937-1.208-4.149-1.711zm5.574-3.639l-10.437-6.889.923-1.006 10.313 6.773c-.297.404-.601.718-.798 1.122zm-7.086 51.876l8.386 5.468c-1.201-.209-2.428-.403-3.637-.71l-7.778-5.153c1.003.199 2.007.297 3.029.396zm9.196-54.126l-10.217-6.763 1.425-.605 10.118 6.582-1.326.787zm3.241-1.497l-9.712-6.372c.608-.105 1.315-.198 2.025-.198h.198l9.309 6.16c-.601.105-1.208.198-1.82.41zm-6.973 55.623l9.203 6.076-2.534-.105-8.998-5.871c.806 0 1.615-.1 2.329-.1zm4.75-.501l9.5 6.267-2.124.205-9.401-6.274 2.025-.198zm6.875-55.73l-8.398-5.468c1.425.305 2.941.712 4.457 1.22l6.781 4.446c-1.014-.091-1.925-.198-2.84-.198zm-2.93 54.716l9.921 6.48c-.62.205-1.226.293-1.944.404l-9.698-6.381 1.721-.504zm3.549-1.315l10.1 6.577-1.623.601-10-6.57 1.523-.608zm3.028-1.623l10.219 6.691-1.327.71-10.21-6.684c.513-.196.908-.513 1.318-.718zm3.542-50.669l-2.637-1.717.495-1.311 7.696 5.152c-1.72-.806-3.53-1.523-5.555-2.124zm-1.014 48.75l10.315 6.694-1.102.898-10.225-6.675 1.011-.917zm9.703-46.626l-10.213-6.773.41-1.315 10.316 6.782c-.105.403-.303.806-.513 1.307zm-8.689-11.03l10.305 6.776c-.098.413-.297.923-.494 1.324l-10.324-6.774.513-1.327zm1.209 55.434l10.317 6.669-.908 1.028-10.321-6.683.913-1.015zm9.716-50.269l-10.317-6.768.396-1.318 10.422 6.88c-.1.396-.305.798-.501 1.206zm1.002-2.631l-10.421-6.88.401-1.011 10.424 6.782c-.1.41-.205.816-.404 1.109zm-8.997 50.366l10.324 6.782-.712 1.22-10.411-6.875c.297-.303.494-.718.798-1.128zm7.995-14.966l-6.875-4.545c-.215-.303-.315-.708-.52-1.118l2.625 1.723c1.945 1.307 3.442 2.625 4.77 3.94zm-6.677 12.144l10.32 6.873-.517 1.219-10.421-6.768.618-1.324zm10.825 5.152l-10.324-6.768c.205-.41.305-.913.404-1.431l10.118 6.792-.198 1.406zm-.307-11.123l-9.416-6.173-.396-1.916 8.794 5.867c.41.711.707 1.516 1.018 2.222zm-9.211-.401l10.127 6.675c0 .502 0 1.021-.117 1.523l-10.107-6.675.098-1.523zm10.009 4.649l-9.902-6.577c0-.601 0-1.109-.107-1.72l9.812 6.477c.1.618.198 1.219.198 1.819zm7.427-58.362h12.546v71.106h-12.546v-71.106zm2.725 72.927h1.721l9.111 5.976h-1.819l-9.013-5.976zm6.174 0l9.006 5.976h-1.919l-9.111-5.976h2.024zm5.159 0l9.097 5.976h-2.525l-8.999-5.976h2.427zm10.317-63.618l-10.009-6.57v-1.523l10.009 6.687v1.406zm-10.009-5.054l10.009 6.57v1.307l-10.009-6.568v-1.308zm0 3.333l10.009 6.577v1.614l-10.009-6.568v-1.623zm0 3.633l10.009 6.584v1.611l-10.009-6.577v-1.619zm0 3.645l10.009 6.577v1.622l-10.009-6.577v-1.622zm0 3.647l10.009 6.568v1.623l-10.009-6.57v-1.621zm0 3.647l10.009 6.568v1.63l-10.009-6.596v-1.603zm0 3.639l10.009 6.567v1.631l-10.009-6.586v-1.611zm0 3.637l10.009 6.585v1.608l-10.009-6.577v-1.616zm0 3.648l10.009 6.57v1.623l-10.009-6.571v-1.622zm0 3.637l10.009 6.58v1.611l-10.009-6.57v-1.621zm0 3.647l10.009 6.568v1.616l-10.009-6.577v-1.607zm0 3.633l10.009 6.565v1.623l-10.009-6.571v-1.617zm0 3.643l10.009 6.57v1.623l-10.009-6.577v-1.616zm0 3.64l10.009 6.57v1.611l-10.009-6.567v-1.614zm0 3.63l10.009 6.595v1.604l-10.009-6.57v-1.629zm0 3.647l10.009 6.577v1.621l-10.009-6.57v-1.629zm0 3.639l10.009 6.586v1.614l-10.009-6.57v-1.63zm0 3.656l10.009 6.565v1.614l-10.009-6.568v-1.611zm0 3.628l10.009 6.577v1.616l-10.009-6.571v-1.622zm13.671-69.485h59.773v11.54h-23.372v59.566h-12.634v-59.566h-23.767v-11.54zm2.725 13.345h1.821l9.004 5.974h-1.809l-9.016-5.974zm6.167 0l9.104 5.974h-2.007l-9.016-5.974h1.919zm12.151 5.974l-9.104-5.974h2.527l7.474 4.969v1.005h-.896zm-1.023-5.974l1.919 1.321v1.616l-4.444-2.937h2.525zm6.472 59.583h2.124l9.006 5.976h-2.118l-9.012-5.976zm6.683 0l9.105 5.976h-2.329l-9.013-5.976h2.237zm5.054 0v-.198l9.296 6.174h-2.421l-9.097-5.976h2.222zm0-58.458l9.995 6.661v1.63l-9.995-6.684v-1.607zm0 3.639l9.995 6.684v1.607l-9.995-6.668v-1.623zm0 3.647l9.995 6.677v1.611l-9.995-6.683v-1.605zm0 3.63l9.995 6.57v1.721l-9.995-6.668v-1.623zm0 3.64l9.995 6.684v1.614l-9.995-6.668v-1.63zm0 3.647l9.995 6.675v1.62l-9.995-6.665v-1.63zm0 3.628l9.995 6.691v1.623l-9.995-6.684v-1.63zm0 3.647l9.995 6.677v1.619l-9.995-6.665v-1.63zm0 3.645l9.995 6.677v1.621l-9.995-6.675v-1.623zm0 3.655l9.995 6.661v1.63l-9.995-6.69v-1.601zm0 3.64l9.995 6.668v1.611l-9.995-6.675v-1.604zm0 3.64l9.995 6.658v1.629l-9.995-6.683v-1.604zm0 3.637l9.995 6.668v1.623l-9.995-6.677v-1.614zm0 3.639l9.995 6.677v1.623l-9.995-6.694v-1.605zm0 3.637l9.995 6.57v1.629l-9.995-6.577v-1.622zm0 3.64l9.995 6.577v1.623l-9.995-6.571v-1.629zm3.847-55.737l8.997 5.974h-2.42l-9.12-5.974h2.543zm5.449 0l9.114 5.974h-2.537l-8.999-5.974h2.421zm5.581 0l9.088 5.974h-2.52l-9.004-5.974h2.436zm5.566 0l8.997 5.974h-2.429l-9.114-5.974h2.546zm12.941-4.036l-10.011-6.57v-1.523l10.011 6.687v1.406zm-10.011-4.962l10.011 6.69v1.604l-10.011-6.577v-1.717zm0 3.643l10.011 6.675v1.616l-10.011-6.57v-1.721zm9.088 11.328l-9.088-5.974v-1.714l10.011 6.683v1.005h-.923zm4.585-19.318h46.23v11.54h-33.683v19.913h30.545v11.137h-30.545v16.992h33.683v11.524h-46.23v-71.106zm2.751 72.927h.1l8.985 5.976h-.088l-8.997-5.976zm5.555 0l9.105 5.976h-2.534l-9.106-5.976h2.534zm5.563 0l8.997 5.976h-2.427l-9.104-5.976h2.534zm.505-57.866l10.009 6.577v1.623l-10.009-6.57v-1.63zm0 3.648l10.009 6.577v1.623l-10.009-6.577v-1.623zm8.591 10.942l-8.591-5.672v-1.629l10.009 6.583v.718h-1.418zm-8.591-3.648l5.562 3.648h-2.42l-3.142-2.042v-1.605zm0 18.399h.396l9.614 6.372v1.62l-10.009-6.577v-1.415zm0 3.439l10.009 6.57v1.63l-10.009-6.577v-1.623zm0 3.648l9.614 6.272h-2.543l-7.071-4.649v-1.623zm4.05 6.272h-2.432l-1.619-1.011v-1.632l4.05 2.643zm5.959-38.13l-9.507-6.287h2.534l9.004 5.974h-2.032v.313zm-5.048 53.295l9.091 5.976h-2.52l-9.006-5.976h2.435zm.905-28.525l9.097 5.966h-2.527l-8.999-5.966h2.429zm2.625-31.058l9.116 5.974h-2.544l-8.999-5.974h2.427zm2.019 59.583l9.006 5.976h-2.421l-9.111-5.976h2.527zm.905-28.525l9.015 5.966h-2.427l-9.104-5.966h2.517zm2.637-31.058l9.004 5.974h-2.427l-9.097-5.974h2.52zm1.934 59.583l9.097 5.976h-2.528l-8.997-5.976h2.429zm1.002-28.525l8.999 5.966h-2.527l-8.991-5.966h2.52zm2.528-31.058l9.103 5.974h-2.534l-8.99-5.974h2.421zm2.024 59.583l9.104 5.976h-2.534l-8.999-5.976h2.429zm.916-28.525l9.097 5.966h-2.519l-9.004-5.966h2.427zm2.626-31.058l8.997 5.974h-2.42l-9.105-5.974h2.528zm2.024 59.583l8.997 5.976h-2.427l-9.097-5.976h2.527zm.905-28.525l9.004 5.966h-2.436l-9.097-5.966h2.528zm2.534-31.058l9.107 5.974h-2.432l-9.111-5.974h2.436zm2.036 59.583l9.078 5.976h-2.52l-8.987-5.976h2.429zm7.975-32.158l-10.011-6.592v-1.505l10.011 6.675v1.421zm-10.011-4.969l10.011 6.57v1.431l-10.011-6.577v-1.424zm0 3.044l10.011 6.568v1.623l-10.011-6.584v-1.607zm9.609 11.524l-9.609-6.28v-1.597l10.011 6.568v1.308h-.401zm3.548-40.961l-10.027-6.668v-1.523l10.027 6.687v1.504zm-10.027-4.954l10.027 6.668v1.63l-10.027-6.687v-1.611zm0 3.636l10.027 6.677v1.623l-10.027-6.677v-1.623zm9.004 11.229l-9.004-5.974v-1.614l10.027 6.683v.905h-1.022zm-9.004 43.399l10.027 6.669v1.622l-10.027-6.675v-1.616zm0 3.64l10.027 6.57v1.63l-10.027-6.577v-1.623zm0 3.63l10.027 6.583v1.616l-10.027-6.577v-1.622zm37.873 2.339c-8.405 0-16.802-2.842-23.262-6.787l4.348-11.326c5.859 3.952 12.938 6.379 19.31 6.379 8.396 0 12.231-4.15 12.231-8.701 0-4.756-2.634-7.588-15.457-12.338-13.866-5.054-18.615-11.622-18.615-20.137 0-10.727 8.694-20.629 23.865-20.629 7.573 0 15.073 2.231 19.626 4.86l-4.043 11.118c-4.157-2.329-10.43-4.758-15.886-4.758-7.481 0-10.917 4.157-10.917 9.116 0 4.541 3.828 7.383 13.847 11.03 15.898 6.148 20.449 12.437 20.449 21.738 0 12.646-9.624 20.435-25.496 20.435zm-10.02.502l6.067 4.039c-2.427-1.011-4.649-2.124-6.773-3.438l-2.118-1.418 2.824.817zm13.245-47.846l-10.198-6.669.29-1.529 10.323 6.773c-.198.521-.315.923-.414 1.425zm-4.346.816l-4.131-2.735c-.816-.904-1.326-1.721-1.622-2.732l9.902 6.577v.6c-1.63-.6-2.93-1.208-4.15-1.711zm5.567-3.639l-10.422-6.889.923-1.006 10.305 6.773c-.297.404-.608.718-.806 1.122zm-7.071 51.876l8.389 5.468c-1.22-.209-2.439-.403-3.648-.71l-7.789-5.153c1.014.199 2.024.297 3.047.396zm9.188-54.126l-10.21-6.763 1.418-.605 10.125 6.582-1.333.787zm3.252-1.497l-9.715-6.372c.601-.105 1.299-.198 2.017-.198h.205l9.294 6.16c-.593.105-1.201.198-1.802.41zm-6.99 55.623l9.22 6.076-2.544-.105-9.004-5.871c.806 0 1.622-.1 2.329-.1zm4.749-.501l9.524 6.267-2.13.205-9.419-6.274 2.024-.198zm6.892-55.73l-8.398-5.468c1.406.305 2.924.712 4.453 1.22l6.776 4.446c-1.022-.091-1.928-.198-2.832-.198zm-2.94 54.716l9.92 6.48c-.601.205-1.219.293-1.926.404l-9.705-6.381 1.711-.504zm3.53-1.315l10.137 6.577-1.616.601-10.034-6.57 1.513-.608zm3.064-1.623l10.198 6.691-1.31.71-10.222-6.684c.51-.196.905-.513 1.333-.718zm3.53-50.669l-2.625-1.717.494-1.311 7.698 5.152c-1.721-.806-3.548-1.523-5.566-2.124zm-1.011 48.75l10.305 6.694-1.113.898-10.206-6.675 1.014-.917zm9.712-46.626l-10.225-6.773.413-1.315 10.321 6.782c-.121.403-.319.806-.51 1.307zm-8.701-11.03l10.315 6.776c-.091.413-.308.923-.513 1.324l-10.323-6.774.52-1.327zm1.208 55.434l10.308 6.669-.896 1.028-10.324-6.683.913-1.015zm9.716-50.269l-10.324-6.768.413-1.318 10.419 6.88c-.098.396-.297.798-.508 1.206zm1.011-2.631l-10.419-6.88.41-1.011 10.415 6.782c-.11.41-.198.816-.406 1.109zm-9.013 50.366l10.317 6.782-.712 1.22-10.411-6.875c.303-.303.527-.718.806-1.128zm8.002-14.966l-6.882-4.545c-.198-.303-.305-.708-.501-1.118l2.625 1.723c1.916 1.307 3.439 2.625 4.758 3.94zm-6.677 12.144l10.324 6.873-.513 1.219-10.419-6.768.608-1.324zm10.818 5.152l-10.323-6.768c.205-.41.328-.913.416-1.431l10.105 6.792-.198 1.406zm-.297-11.123l-9.41-6.173-.41-1.916 8.814 5.867c.388.711.693 1.516 1.006 2.222zm-9.202-.401l10.107 6.675c0 .502 0 1.021-.091 1.523l-10.126-6.675.11-1.523zm10.017 4.649l-9.929-6.577c0-.601 0-1.109-.088-1.72l9.812 6.477c.105.618.205 1.219.205 1.819zm-389.909-158.25c-49.706 0-90 40.298-90 90s40.294 90 90 90c49.702 0 90-40.298 90-90s-40.298-90-90-90zm15.549 150h-21.163v-93.208l-25.276 9.738-7.159-17.93 48.472-18.6h5.127v120z" sketch:type="MSShapeGroup" fill="#fff"/></svg>