<svg width="480" height="240" viewBox="0 0 480 240" xmlns="http://www.w3.org/2000/svg"><title>cover-logo</title><path d="M381.766 60.334V69.1c11.016 2.49 21.553 13.697 21.553 27.156v5.125h-63.702v14.274c0 18.2 13.89 33.288 30.653 35.874v-8.765c-14.367-2.49-22.99-13.698-22.99-27.157v-6.083h64.182V96.256c0-18.2-12.932-33.288-29.696-35.922zM118.34 60.19v8.765c13.89 2.49 23.947 13.7 23.947 27.157v5.27h-64.66v14.128c0 18.2 11.974 33.288 31.133 35.874v-8.765c-13.41-2.49-22.99-13.7-22.99-27.158v-5.94h65.617v-13.41c0-18.2-15.806-33.287-33.048-35.922zm99.622 91.338v-8.765c-11.016-2.155-19.877-10.824-22.128-21.745-.335-1.676-.862-3.352-.862-5.03V19h-8.525l.048 96.94c.143 18.058 12.788 33.002 31.467 35.588zm81.232-38.796c-2.97-3.975-8.765-8.19-17.243-12.548-7.423-3.832-12.212-7.09-14.607-10.06-2.443-2.92-3.688-6.13-3.688-9.434 0-3.784 1.533-7.137 4.598-9.962 3.017-2.778 6.658-4.215 10.872-4.215 5.987 0 12.166 2.826 18.345 8.477l5.268-5.46c-7.71-7.184-15.47-10.776-22.99-10.776-6.753 0-12.405 2.155-16.764 6.418-4.454 4.31-6.61 9.58-6.61 16.093 0 4.933 1.39 9.387 4.12 13.22 2.778 3.88 8.238 7.95 16.237 12.07 7.903 4.022 12.885 7.327 15.23 10.057 2.444 2.922 3.642 6.274 3.642 10.01 0 4.55-1.82 8.526-5.46 11.83-3.593 3.305-8 4.934-13.076 4.934-6.8 0-13.028-3.066-19.015-9.34l-5.267 5.987c2.825 3.305 6.322 5.987 10.44 7.95 4.55 2.156 9.39 3.258 14.37 3.258 7.424 0 13.65-2.442 18.583-7.327 4.934-4.838 7.424-10.873 7.424-17.866-.096-4.885-1.532-9.34-4.406-13.315zm-295.9 89.47H.753v-1.437h2.54v-5.412h1.58v5.412h4.98v1.437h-4.98v10.49c0 5.028 3.017 5.7 4.55 5.7.526 0 .862-.097.862-.097v1.485s-.384.095-.958.095c-1.964 0-6.083-.718-6.083-7.04v-10.633h.048zm15.182-9.244h1.58v11.016c0 .862-.143 1.58-.143 1.58h.095c.67-1.772 3.305-5.364 8.095-5.364 4.98 0 6.322 2.922 6.322 7.424v12.07h-1.58V208.19c0-3.306-.432-6.467-4.694-6.467-3.59 0-6.753 2.538-7.71 6.083-.24.814-.288 1.676-.288 2.586v9.292h-1.58v-26.726h-.096zm26.055 0h1.917v2.778H44.53v-2.778zm.145 7.663h1.58v19.064h-1.58V200.62zm12.165 0h1.58v3.354c0 .862-.143 1.58-.143 1.58h.096c.67-1.772 3.305-5.364 8.094-5.364 4.982 0 6.323 2.922 6.323 7.424v12.07h-1.58V208.19c0-3.306-.432-6.467-4.695-6.467-3.592 0-6.753 2.538-7.71 6.083-.24.814-.288 1.676-.288 2.586v9.292h-1.58V200.62h-.097zm26.2-7.662h1.58v15.135h3.4l6.18-7.52h2.107l-6.897 8.19v.096l7.567 10.824h-2.01l-6.898-10.058h-3.402v10.058h-1.58v-26.726h-.05zm45.022 7.184c5.46 0 9.866 4.31 9.866 9.867 0 5.7-4.406 10.105-9.866 10.105s-9.867-4.406-9.867-10.106c-.048-5.557 4.406-9.868 9.867-9.868zm0 18.44c4.55 0 8.19-3.688 8.19-8.573 0-4.743-3.688-8.335-8.19-8.335-4.55 0-8.19 3.592-8.19 8.334-.048 4.884 3.64 8.572 8.19 8.572zm19.685-16.38h-2.395v-1.437h2.395v-.862c0-6.322 4.12-7.04 6.035-7.04a4.56 4.56 0 0 1 1.006.095v1.485s-.336-.096-.863-.096c-1.532 0-4.55.623-4.55 5.556v.91h5.22v1.437h-5.22v17.434h-1.58v-17.482h-.048zm28.45 13.986s2.155 2.394 5.94 2.394c2.346 0 4.406-1.245 4.406-3.592 0-4.837-10.49-3.496-10.49-9.675 0-3.4 2.874-5.173 6.13-5.173 3.88 0 5.653 2.06 5.653 2.06l-.958 1.293s-1.58-1.772-4.79-1.772c-2.155 0-4.31 1.006-4.31 3.496 0 4.98 10.49 3.496 10.49 9.818 0 3.065-2.588 5.173-6.132 5.173-4.598 0-6.897-2.73-6.897-2.73l.957-1.292zm29.552-16.046c5.46 0 9.865 4.31 9.865 9.867 0 5.7-4.406 10.105-9.866 10.105s-9.868-4.406-9.868-10.106c0-5.557 4.407-9.868 9.867-9.868zm0 18.44c4.55 0 8.19-3.688 8.19-8.573 0-4.743-3.69-8.335-8.19-8.335-4.55 0-8.19 3.592-8.19 8.334 0 4.884 3.64 8.572 8.19 8.572zm19.013-17.96h1.58v3.352c0 .862-.143 1.58-.143 1.58h.096c.958-2.873 4.36-5.364 7.328-5.364 3.832 0 5.604 1.772 6.035 5.173h.095c1.054-2.682 3.975-5.173 7.232-5.173 4.933 0 6.37 2.922 6.37 7.424v12.07h-1.58V208.19c0-3.593-.72-6.515-4.79-6.515-3.16 0-5.89 2.826-6.705 5.795-.288.863-.383 1.82-.383 2.922v9.292h-1.582V208.19c0-3.306-.48-6.515-4.646-6.515-3.4 0-6.083 2.97-6.945 6.13-.24.815-.287 1.677-.287 2.587v9.292h-1.58V200.62h-.097zm46.843-.48c5.172 0 7.807 4.072 7.807 8.717 0 .43-.096 1.053-.096 1.053H263.99c0 5.556 3.736 8.717 8.19 8.717 3.688 0 5.94-2.395 5.94-2.395l.862 1.34s-2.682 2.636-6.802 2.636c-5.364 0-9.866-3.88-9.866-9.962 0-6.513 4.358-10.106 9.292-10.106zm6.082 8.238c-.19-4.645-2.97-6.753-6.13-6.753-3.497 0-6.754 2.3-7.424 6.753h13.554zm19.35-8.238c5.46 0 9.867 4.31 9.867 9.867 0 5.7-4.406 10.105-9.867 10.105-5.46 0-9.866-4.406-9.866-10.106 0-5.557 4.406-9.868 9.866-9.868zm0 18.44c4.55 0 8.19-3.688 8.19-8.573 0-4.743-3.687-8.335-8.19-8.335-4.55 0-8.19 3.592-8.19 8.334 0 4.884 3.64 8.572 8.19 8.572zm19.015-17.96h1.58v3.352c0 .862-.143 1.58-.143 1.58h.096c.67-1.772 3.305-5.364 8.094-5.364 4.98 0 6.322 2.922 6.322 7.424v12.07h-1.58V208.19c0-3.306-.43-6.467-4.694-6.467-3.592 0-6.753 2.538-7.71 6.083-.24.814-.29 1.676-.29 2.586v9.292h-1.58V200.62h-.095zm34.15-.48c5.173 0 7.807 4.072 7.807 8.717 0 .43-.096 1.053-.096 1.053h-15.327c0 5.556 3.736 8.717 8.19 8.717 3.69 0 5.94-2.395 5.94-2.395l.862 1.34s-2.683 2.636-6.802 2.636c-5.365 0-9.867-3.88-9.867-9.962 0-6.513 4.408-10.106 9.293-10.106zm6.13 8.238c-.19-4.645-2.97-6.753-6.13-6.753-3.496 0-6.753 2.3-7.424 6.753h13.554zm10.873 8.91h2.347v2.394h-2.347v-2.395zm35.203-17.148c5.172 0 7.807 4.072 7.807 8.717 0 .43-.096 1.053-.096 1.053h-15.326c0 5.556 3.736 8.717 8.19 8.717 3.688 0 5.94-2.395 5.94-2.395l.86 1.34s-2.68 2.636-6.8 2.636c-5.364 0-9.866-3.88-9.866-9.962 0-6.513 4.406-10.106 9.29-10.106zm6.082 8.238c-.19-4.645-2.97-6.753-6.13-6.753-3.497 0-6.754 2.3-7.424 6.753h13.554zm10.73-15.422h1.58v22.415c0 2.682 1.388 2.97 2.25 2.97.288 0 .575-.048.575-.048v1.485s-.335.095-.67.095c-1.102 0-3.736-.43-3.736-4.023v-22.894zm12.165 23.23s2.155 2.394 5.94 2.394c2.346 0 4.405-1.245 4.405-3.592 0-4.837-10.49-3.496-10.49-9.675 0-3.4 2.875-5.173 6.13-5.173 3.88 0 5.653 2.06 5.653 2.06l-.958 1.293s-1.58-1.772-4.79-1.772c-2.155 0-4.31 1.006-4.31 3.496 0 4.98 10.49 3.496 10.49 9.818 0 3.065-2.587 5.173-6.13 5.173-4.6 0-6.898-2.73-6.898-2.73l.957-1.292zm29.024-16.046c5.174 0 7.808 4.072 7.808 8.717 0 .43-.095 1.053-.095 1.053h-15.327c0 5.556 3.736 8.717 8.19 8.717 3.688 0 5.94-2.395 5.94-2.395l.86 1.34s-2.68 2.636-6.8 2.636c-5.364 0-9.866-3.88-9.866-9.962 0-6.513 4.406-10.106 9.29-10.106zm6.084 8.238c-.19-4.645-2.97-6.753-6.13-6.753-3.497 0-6.754 2.3-7.424 6.753h13.554zm10.92 8.91h2.347v2.394h-2.346v-2.395z" fill="#FFF" fill-rule="evenodd"/></svg>