<?xml version="1.0" encoding="UTF-8" standalone="no"?>
<svg width="480px" height="240px" viewBox="0 0 480 240" version="1.1" xmlns="http://www.w3.org/2000/svg" xmlns:xlink="http://www.w3.org/1999/xlink" xmlns:sketch="http://www.bohemiancoding.com/sketch/ns">
    <!-- Generator: Sketch 3.0.1 (7597) - http://www.bohemiancoding.com/sketch -->
    <title>cover-logo</title>
    <description>Created with Sketch.</description>
    <defs></defs>
    <g id="Page-1" stroke="none" stroke-width="1" fill="none" fill-rule="evenodd" sketch:type="MSPage">
        <g id="cover-logo" sketch:type="MSArtboardGroup" fill="#FFFFFF">
            <path d="M80,62.924011 C57.3333252,73.6469846 34.6666748,46.1599851 12.0000244,53.1561277 C10.837915,62.9848508 9.67585448,72.9042111 8.51376952,82.924011 L5.5096924,120 C5.5096924,120 4.04748536,120.933325 4.0666626,122.866662 C4.07839356,124.049365 4.61855468,124.817602 5.08728028,125.21333 L0,188 L1.99218752,188 L6.63835452,125.398291 C7.39362796,125.230652 8.32187504,124.992334 8.86666264,125.166662 C9.7,125.433325 18.8493286,128.267187 20.9333374,128 C22.2333374,127.833325 25,123.1 25,123.1 C25,123.1 25.399292,122.630334 26.0530518,121.859253 C26.7067871,121.088171 27.3306396,119.961035 28.1737305,118.536194 C29.0168457,117.111389 29.2708374,116.289319 29.3234009,116.215698 C29.3760986,116.142065 29.4828369,116.257678 29.4286743,116.858862 C29.3744873,117.460046 29.5670532,117.659875 29.661731,118.113904 C29.7562866,118.567712 29.5144776,119.211011 29.7773438,119.854309 C30.0403076,120.497473 29.7668823,121.869836 29.8089844,122.576172 C29.8509644,123.282507 29.9141358,123.780139 30.041919,124.497046 C30.1698242,125.213818 30.1786988,125.266516 30.1786988,125.266516 L30.0161744,128.567773 C30.0161744,128.567773 29.9990723,128.807763 30.239148,129.047705 C30.4791138,129.287793 30.3590577,129.853491 30.3590577,130.144922 C30.3590577,130.436328 29.776233,130.916382 29.6905274,131.087744 C29.6048462,131.259228 29.7247681,131.636352 30.0847535,131.85918 C30.4448731,132.082031 29.8448121,132.407812 29.7247681,132.647876 C29.6048462,132.887842 29.6390626,133.316406 29.7591065,133.505029 C29.8790284,133.693506 29.8962769,133.899243 29.4848023,134.327685 C29.0733521,134.756372 29.2619629,135.287988 29.4162476,135.459375 C29.5705078,135.630762 29.6048462,136.265039 29.6048462,136.265039 C29.6048462,136.265039 29.2104981,136.8479 29.1077027,137.139184 C29.004773,137.430737 28.3875977,137.979346 28.1818482,138.167969 C27.9761231,138.356592 27.4789796,139.710888 27.4276368,140.139575 C27.3761719,140.568017 27.1018677,142.076684 27.1018677,142.316504 C27.1018677,142.556592 27.5304444,143.619336 27.5990235,143.739502 C27.6676026,143.859668 27.4276368,144.802246 27.1533326,145.248193 C26.8790528,145.693872 26.8619263,146.207983 26.8446778,146.533764 C26.8275879,146.859521 26.398999,148.539599 26.2789795,148.831152 C26.1590576,149.122412 26.1075928,149.791211 26.2276368,150.185425 C26.3475342,150.579638 26.3133179,150.836719 26.1418091,151.351074 C25.9704224,151.865234 26.0904664,152.002636 26.1418091,152.24248 C26.193274,152.482519 26.1247071,152.654175 26.056128,152.756836 C25.9875488,152.859765 25.9875488,153.305469 25.9875488,153.476855 C25.9875488,153.648193 25.9189575,154.111133 25.8847534,154.351196 C25.8504028,154.591284 25.7303589,154.728198 25.8161621,154.84834 C25.9018677,154.968262 25.9704224,155.00249 26.2103882,155.396972 C26.4504517,155.791186 26.8790528,156.048486 26.8790528,156.048486 C26.8790528,156.048486 26.4161133,157.779785 26.2103882,158.842505 C26.0046631,159.905517 26.1590576,161.431152 26.1761719,161.602783 C26.1932739,161.77417 26.1761719,162.202881 26.0046631,162.579858 C25.8332886,162.95708 25.4047119,165.099804 25.2160889,167.3802 C25.0276123,169.660083 24.959021,174.700244 24.8561035,175.968847 C24.7532959,177.237427 24.3589478,177.545972 24.1703491,177.820263 C23.9818482,178.09458 23.6218628,178.420337 23.124707,178.866015 C22.6275513,179.311719 21.890332,179.929004 21.2218018,180.408935 C20.5531738,180.888843 19.1645142,181.540381 18.9760376,181.608838 C18.7874024,181.677539 18.7703125,181.728735 18.6160522,181.848901 C18.4616577,181.969092 18.2312988,182.334741 18.2899048,182.482959 C18.0888428,182.661719 18.0151123,182.83584 18.066455,183.03208 C17.9507202,183.273877 18.1047241,183.60581 18.3093384,183.649121 C18.2884155,184.011572 18.3785522,184.452344 19.2968872,184.433887 C20.3447266,184.412939 20.7588867,183.906201 20.8789429,183.854736 C20.9988526,183.803271 21.3588379,183.940429 22.027478,183.803271 C22.6960083,183.666113 23.6731934,182.65459 24.1190064,182.277344 C24.5646729,181.900366 26.0390137,181.694775 27.1533325,181.454687 C28.2675537,181.214599 28.3018921,180.408935 28.2675537,179.328955 C28.233313,178.248974 28.3875977,176.963135 28.4905274,175.351513 C28.5933228,173.740161 30.6848267,168.134155 31.2847778,166.625732 C31.8848633,165.117041 31.6105591,163.11123 31.6276734,162.339795 C31.6448975,161.568579 32.5533692,160.831347 32.587732,160.008447 C32.6219483,159.185522 33.1532227,158.002612 33.1532227,158.002612 C34.1989624,158.276929 37.0107178,157.951416 37.4392822,157.745532 C37.8678467,157.539697 37.7306885,157.591138 37.7478028,157.265381 C37.7649292,156.939624 38.0049927,156.048486 38.0049927,155.448169 C38.0049927,154.84834 38.2792969,154.659741 38.3650025,154.231274 C38.4506836,153.802612 38.4335572,152.362597 38.4335572,152.362597 C38.673523,152.585449 38.5707276,153.648193 38.5707276,154.008447 C38.5707276,154.368188 38.7078736,154.591284 38.999292,154.934057 C39.2907227,155.276806 39.3935181,156.065503 39.4964478,156.322803 C39.5992432,156.579614 40.3193726,156.408252 40.9536621,156.665552 C41.5879517,156.922632 42.9937012,157.21394 42.9937012,157.21394 C42.9937012,157.21394 42.9937012,159.031396 43.1479737,160.214306 C43.3022339,161.397217 44.2622925,163.282861 44.3651124,163.780005 C44.468042,164.277148 44.1937378,165.991455 44.1251465,168.18562 C44.0565674,170.380054 45.2565918,174.923071 45.5994874,176.465991 C45.9423462,178.008887 45.1365479,179.414648 45.0508668,179.603222 C44.9651734,179.791601 44.879358,180.151611 45.0337525,180.477368 C45.1880128,180.803125 45.2222535,181.214599 45.2908082,182.020288 C45.3593995,182.826221 45.4794434,183.237402 46.0108033,183.957666 C46.5422975,184.677637 46.7543092,185.646582 46.8786622,186.022339 C47.0672852,186.591846 47.66969,186.685425 47.8067262,186.771142 C47.9439942,186.856811 47.8147218,186.937353 48.291797,187.518457 C48.8765016,188.230786 50.7270509,188.223388 50.1695924,187.016357 C50.3119019,187.118066 50.3865113,187.182324 50.3865113,187.182324 C50.6951539,187.439648 51.3059571,187.274682 51.3831544,186.970068 C51.8545655,187.154004 52.2319215,186.794531 52.1411744,186.570923 C52.5057252,186.481299 52.6149293,186.256494 52.328064,185.871875 C52.4469972,185.801709 52.5400758,185.698779 52.2740357,185.224267 C51.9610474,184.66582 51.5638917,184.44248 51.4475342,184.351904 C50.6333619,183.717578 50.0566773,182.706055 49.8680787,182.448974 C49.6795777,182.191919 49.0451539,181.008984 49.0281617,180.648755 C49.0109376,180.289014 48.8224366,179.431885 48.6509278,178.866015 C48.4795533,178.300439 48.925232,175.763232 49.2852174,174.254565 C49.6452271,172.745898 50.3824464,168.477173 50.4337891,167.568555 C50.485254,166.659961 50.1252686,164.225683 49.765149,162.562597 C49.4052735,160.899805 49.6795777,160.437134 49.6452271,159.562744 C49.6109864,158.688379 49.4733521,157.042285 49.4733521,157.042285 C51.2563355,156.665332 52.5595338,155.739721 53.0739136,155.362744 C53.5881836,154.985498 53.176709,153.631225 53.176709,153.631225 C53.176709,153.631225 53.0910279,152.628296 52.9538575,152.37124 C52.8167237,152.113916 52.8424683,151.565576 52.8252198,150.570996 C52.8082276,149.576733 52.5424195,149.636816 52.3281983,149.23396 C52.1138428,148.831152 52.1996461,148.505371 52.1481934,147.356689 C52.0967286,146.207983 51.7882081,145.693872 51.5138917,145.359472 C51.2395875,145.025097 51.4966676,144.810864 51.5052735,144.527954 C51.5138917,144.245263 51.1708985,143.482446 51.1110718,143.242334 C51.0509888,143.002295 51.1110718,142.676758 51.2995484,142.068066 C51.4880494,141.459619 51.3596314,140.448095 51.1195435,139.676367 C50.87948,138.905176 50.2195679,137.499463 50.1081422,137.405127 C49.9967164,137.310815 49.8853028,137.20791 49.9538819,136.822046 C50.022339,136.436426 49.7395386,135.887817 49.5423096,135.759302 C49.3453126,135.630762 49.7138184,134.782251 49.7224122,134.465088 C49.7310425,134.147949 49.6795777,133.333545 49.3366822,133.290674 C48.9938233,133.247827 49.310962,132.89646 49.3366822,132.527856 C49.3624268,132.159253 49.0366578,132.047827 49.0281616,131.936401 C49.0195435,131.824975 48.9851929,131.884936 49.1738282,131.782129 C49.3624268,131.679199 49.2938477,130.864917 49.2338868,130.702051 C49.1738282,130.53916 48.7195069,130.127783 48.7195069,130.127783 C48.7195069,130.127783 48.7709717,129.622046 48.7880982,129.219189 C48.805188,128.816357 48.9508546,128.156347 48.796692,127.676318 C48.6424317,127.196252 48.6937745,127.564892 48.6680543,126.287646 C48.6424317,125.010571 48.2994386,124.367651 48.1624024,123.973303 C48.0251344,123.579077 48.1109376,123.596191 48.2394776,123.176245 C48.3679933,122.756176 48.119568,121.693286 48.119568,121.616113 C48.119568,121.539026 48.2823243,121.221887 48.3080689,120.930456 C48.3337769,120.63905 48.1624024,119.730456 48.2223634,119.498987 C48.2823243,119.267517 48.3166627,119.344726 48.2994386,118.684692 C48.2823243,118.024646 48.4966676,117.673156 48.4966676,117.321777 C48.4966676,116.970288 48.5481324,116.473132 48.6252076,116.19895 C48.7023926,115.924646 48.7709718,115.701806 48.6165894,115.641736 C48.4623292,115.581787 48.2224854,115.01643 48.2224854,115.01643 C48.2739503,114.844922 48.3080689,114.458813 48.4536988,113.095923 C48.599463,111.73313 49.7395386,109.761645 50.1423829,109.050171 C50.545337,108.338672 52.1824342,107.755847 54.0595948,106.924426 C55.9368775,106.093005 58.9625977,103.435791 59.4254029,102.870056 C59.888318,102.304345 60.96261,101.087072 61.0312867,101.044238 C61.0998658,101.001391 61.374048,100.907092 61.6827027,100.392822 C61.9103638,100.013501 62.268982,99.2509153 62.7473023,98.2579709 L62.9298829,97.8804807 C63.0478272,97.6370969 63.1719361,97.3829831 63.3026734,97.11853 C64.0656373,95.5756101 64.7998292,93.3898068 64.7998292,92.764111 C64.7998292,92.1383176 64.6284424,90.8183713 64.6198243,90.5955197 C64.6113282,90.3725827 65.5541626,90.0211911 65.8884278,89.4554806 C66.2226929,88.8897457 66.1627442,88.77832 66.2741578,88.1953732 C66.359607,87.7484127 66.4854859,87.3677243 66.6168092,87.0672604 C71.0778809,86.8474606 75.5389283,85.7019528 80.0000001,83.0762203 C73.3333497,82.9636105 66.6666505,79.5456417 59.9999757,74.6718258 C66.6666504,72.8282346 73.3333496,69.5288082 80,62.924011 L80,62.924011 Z M61.7917236,86.9691892 C61.7870606,87.3609006 62.0652344,87.7640989 62.0226685,88.6154416 C61.9798218,89.4725827 61.6112183,90.9726316 61.259729,91.786926 C61.1100098,92.1340085 60.8865601,92.6061643 60.6175415,93.1188229 L60.4823731,93.3728146 C60.1473511,93.9921994 59.7543824,94.6496701 59.3483277,95.2070065 C58.5425294,96.3127316 58.3111817,97.4099362 58.2340088,97.649902 C58.1569214,97.8899655 57.5053834,98.5070431 56.8625977,99.0642697 C56.2196778,99.621362 54.719629,100.744311 54.0853272,101.130041 C53.4510132,101.515771 52.3710328,101.421472 51.2738282,101.618567 C50.1765992,101.815698 47.8965943,102.647217 47.3737183,102.904272 C46.8508545,103.161487 45.0337524,103.692846 45.0337524,103.692846 C44.9736694,103.590051 44.4936279,103.547216 44.3222534,103.572937 C44.150769,103.598681 44.0994384,103.53009 44.0393432,103.487133 C43.9793823,103.444287 43.8508423,103.478625 43.7736572,103.495752 C43.696582,103.512841 43.7223022,103.341467 43.5679199,103.341467 C43.4136474,103.341467 43.233667,103.384326 43.0622924,103.42716 C42.8907836,103.470007 42.7107788,103.444287 42.6936767,103.401428 C42.6765625,103.358581 42.539392,103.324365 42.4708374,103.392932 C42.4022582,103.461511 42.342163,103.45288 42.3165527,103.410046 C42.2908325,103.367212 42.2822021,103.281506 42.1364379,103.358581 C41.990808,103.435791 41.6738891,103.264282 41.6738891,103.264282 C41.5624633,103.135742 41.5193725,102.741516 41.5193725,102.741516 C41.5193725,102.741516 42.1738402,102.479113 42.7189086,101.934045 C43.263977,101.388977 43.4116942,100.797448 43.4116942,100.797448 C43.4116942,100.797448 43.8446898,100.104663 43.8555175,99.5309566 C43.8663329,98.9572383 44.0070556,98.2860958 44.0503539,97.9721798 C44.0936523,97.6582638 44.1694335,97.7881588 44.2776732,97.6257931 C44.3859252,97.4634151 44.6024169,96.0778439 44.6132445,95.9154781 C44.6240722,95.7531002 44.6240722,95.6665035 44.7323241,95.6015621 C44.8405639,95.5366085 44.8838622,95.2010494 44.8838622,95.2010494 C44.8838622,95.2010494 44.7972655,95.2876461 44.6998412,95.2118649 C44.6024169,95.1360958 44.7214965,94.4324825 44.6890258,94.1943356 C44.6565428,93.9562008 44.6920531,93.6914181 44.7106688,93.5881588 C44.7292724,93.4848995 44.9163451,93.6855831 44.9163451,93.6855831 C44.9163451,93.6855831 44.8405639,93.5773312 44.8297362,93.4690792 C44.8189208,93.3608395 44.8622192,93.1010372 44.8838622,92.6463985 C44.887744,92.5636105 44.989746,92.4791256 45.0787108,92.545776 C45.0587401,92.2492794 44.7756225,91.9811031 44.7756225,91.8128902 C44.7756225,91.7541256 45.0208617,91.6533931 45.234143,91.8133297 C45.1949096,91.6335323 44.6233764,91.0582149 44.5756957,90.8446773 C44.5418578,90.6938961 44.5721313,90.4411129 44.6743041,90.4543941 C44.6551757,90.3492671 44.4547607,90.2239375 44.4508788,90.1567012 C44.442749,90.0175045 44.2654906,89.6768672 44.3498901,89.5569454 C44.1195312,89.3614254 43.7790527,88.6742305 43.3683959,88.2298946 C43.3480956,88.2080074 43.3064818,88.1357784 43.3775268,88.1002559 C43.3276244,88.0478999 43.2078856,88.0631221 43.1583251,88.0151851 C43.0546386,87.9153072 42.9555297,87.7188472 43.0176146,87.6521358 C42.7650878,87.5633296 42.3281981,87.3607051 42.087683,87.2218379 C41.9009642,87.1140255 41.6704222,86.9650997 41.6436888,86.8895015 C41.2195067,86.7946895 40.3799193,86.3244136 40.5754393,86.0888789 C40.5177611,86.0708736 40.2748778,86.3232173 40.2075682,86.3030879 C40.1322997,86.2806758 40.2376708,86.2088863 40.3799193,85.9999996 C39.8917846,86.4531978 38.5950072,86.3154415 38.5911132,86.2474361 C38.4965575,86.2702877 38.4319579,86.2895626 38.399829,86.2922603 C38.269934,86.3030879 38.0173949,86.1866451 37.9861205,86.0794917 C37.9172729,86.1637203 37.7718261,85.998315 37.5862792,86.0317134 C37.5908568,86.1288936 37.4328612,86.0635982 37.3417113,86.0868526 C37.3021361,86.1643917 37.1250365,86.2665645 37.0042724,86.1776729 C37.0216918,86.3155269 36.6233764,86.3425045 36.4126342,86.4933833 C36.4319091,86.5946773 36.2096678,86.6880489 36.0895873,86.7411495 C36.1031127,86.799084 35.9918212,86.8203243 35.943286,86.8603145 C35.9209593,87.0168453 35.6684203,87.3500606 35.261328,87.4050167 C35.2337523,87.6652461 34.5037474,87.9781368 34.1670897,88.3528682 C34.2872557,88.5223384 33.9432372,88.6163814 33.8556151,88.7464473 C33.9140502,88.9355343 33.7940551,88.9622555 33.6903685,89.074316 C33.7286742,89.372253 33.1631712,90.1212032 32.8802977,90.4243648 C32.980847,90.5689815 32.7345824,90.8352901 32.7191039,91.0378292 C32.8928222,91.1645992 32.6636229,91.6341183 32.6884154,91.8355709 C32.8884154,91.8044429 32.8007079,92.0800533 32.7817748,92.2242305 C32.7696776,92.3159908 32.7328856,92.5102535 32.6395384,92.781213 C32.9594481,92.5280025 32.8794432,92.954565 32.7328856,93.3544063 C33.0438475,93.1588863 33.118701,94.2956539 33.0521361,94.3274654 C33.118701,94.628857 33.4192503,95.179919 33.4192503,95.179919 C33.1594481,95.1041378 32.6518797,95.1902217 32.4462156,95.9696041 C32.2405394,96.7489864 32.7709593,97.5500118 33.06322,98.0587886 C33.355493,98.5675411 33.9725096,99.0221797 34.2647703,99.2711543 C34.5570433,99.5201289 34.8817869,99.3036251 34.8817869,99.3036251 C34.8817869,99.3036251 35.0008543,99.8773433 35.0766356,100.256213 C35.1524046,100.635083 35.1678465,102.157836 35.1678465,102.157836 C35.0928343,103.937548 33.1706907,105.287207 33.1706907,105.287207 C33.13645,105.030017 32.6562986,105.184411 32.5191526,105.390136 C32.3820066,105.595886 32.2619627,105.492956 32.0391234,105.492956 C31.8162718,105.492956 31.4905028,105.66444 31.2676634,105.88728 C31.044824,106.110131 30.8562132,106.075781 30.7190428,106.178711 C30.581909,106.281506 30.067639,106.367187 29.930493,106.487231 C29.7933592,106.607275 29.604846,106.607275 29.3132933,106.65874 C29.0218992,106.710083 29.0733519,107.275817 29.0733519,107.275817 C29.0733519,107.275817 27.633386,108.081616 26.1932738,110.087292 C24.7532957,112.093115 24.0057249,114.643774 23.7999998,115.466662 C23.5942748,116.289587 22.9170775,116.485669 22.2999998,117.6 C21.6828001,118.714221 21.4600096,119.382824 21.0999998,120 C21.0999998,120 20.0666624,123.1 19.5333372,123.2 C18.6579466,123.364135 8.56666244,122.6 8.29999984,121.2 C8.2055174,120.703942 7.62707504,120.411621 7.02121568,120.239709 L9.84553208,82.1853267 C27.1609253,73.1156858 44.4763184,85.510571 61.7917236,86.9691892 L61.7917236,86.9691892 Z M88.8,180.4 L128,180.4 L128,188 L80,188 L80,110.8 L88.8,110.8 L88.8,180.4 L88.8,180.4 Z M154.077952,132.041083 C156.499741,129.619299 159.362247,128.8 164.975467,128.8 L180.827277,128.8 C187.32193,128.8 190.050607,129.890045 192.03168,131.980755 C194.563113,134.513257 195.2,137.804724 195.2,145.619354 L195.2,188 L186.8,188 L186.8,180.404651 C179.6,186.23822 177.084415,188 170.91976,188 L162.334395,188 C156.940457,188 153.63831,187.119641 151.326162,184.696789 C149.124731,182.606079 147.803657,179.413586 147.803657,171.928955 C147.803657,164.773254 149.124731,160.81004 151.436879,158.498974 C153.96831,155.966479 156.954134,154.536841 168.292364,154.536841 C174.016302,154.536841 181.2,154.976483 186.8,155.966479 L186.8,146.169708 C186.8,140.336151 186.345608,138.443792 185.244891,137.343078 C184.253818,136.352008 183.028708,136 179.176205,136 L167.067256,136 C163.324393,136 161.563678,136.191974 160.242604,137.511969 C158.92153,138.943756 158.371173,141.2 158.261531,146.4 L150.335088,146.4 C150.445805,138 151.656162,134.572503 154.077952,132.041083 L154.077952,132.041083 Z M186.8,175.781445 L186.8,160.8 L167.837973,160.8 C160.902603,160.8 159.25153,161.355377 157.820815,162.787164 C156.279383,164.328589 155.839742,165.982171 155.839742,170.825732 C155.839742,175.998218 156.279383,178.269116 157.600456,179.479468 C158.92153,180.690893 160.572604,181.2 163.985468,181.2 L172.240836,181.2 C177.525131,181.2 180.8,179.854297 186.8,175.781445 L186.8,175.781445 Z M224.8,188 L224.8,128.8 L232.8,128.8 L232.8,136.813653 C240.4,130.53938 243.235925,128.8 249.510217,128.8 L258.096655,128.8 C263.600244,128.8 266.223682,129.834155 268.425122,131.925934 C270.627625,134.236999 271.6,137.473651 271.6,143.749005 L271.6,188 L263.2,188 L263.2,144.299359 C263.2,140.886505 262.794397,139.047894 261.473328,137.727899 C260.262976,136.516467 259.197375,136 254.90415,136 L247.198071,136 C242.244849,136 238.8,137.473651 232.8,141.436859 L232.8,188 L224.8,188 L224.8,188 Z M340,188 L340,180.074658 C332,186.348926 329.201392,188 323.257092,188 L316.212085,188 C309.606714,188 306.194922,186.899292 303.662415,184.367859 C300.250635,180.844299 299.039197,176.222168 299.039197,158.389337 C299.039197,140.66615 300.250635,135.998785 303.662415,132.476294 C306.194922,129.944867 309.606714,128.8 316.212085,128.8 L323.257092,128.8 C329.201392,128.8 332,130.428662 340,136.813653 L340,108.8 L348,108.8 L348,188 L340,188 L340,188 Z M340,175.231091 L340,141.65722 C334,137.804724 330.632104,136 325.568164,136 L317.863159,136 C313.129224,136 311.368506,136.736828 309.936719,138.168609 C307.845996,140.25932 307.184924,143.820227 307.184924,158.350921 C307.184924,172.991259 307.845996,176.454907 309.936719,178.656335 C311.368506,179.977405 313.129224,180.8 317.863159,180.8 L325.347815,180.8 C330.3021,180.8 334,179.193225 340,175.231091 L340,175.231091 Z M378.4,188 L378.4,110.8 L390.8,110.8 L390.8,188 L378.4,188 L378.4,188 Z M453.801538,110.8 C463.157642,110.8 468.221558,112.35899 472.514795,116.211484 C477.578735,120.834692 480.000513,130.419885 480.000513,149.353424 C480.000513,168.286963 477.578735,177.924194 472.514795,182.546325 C468.221558,186.399902 463.157642,188 453.801538,188 L420.4,188 L420.4,110.8 L453.801538,110.8 L453.801538,110.8 Z M463.157642,123.923083 C460.73584,121.721661 458.534399,121.6 453.801538,121.6 L432.8,121.6 L432.8,177.2 L453.801538,177.2 C458.534399,177.2 460.956201,176.930359 463.157642,174.838586 C466.129785,172.086804 467.450854,166.883661 467.450854,149.490472 C467.450854,131.769439 466.129785,126.674865 463.157642,123.923083 L463.157642,123.923083 Z" id="Landid" sketch:type="MSShapeGroup"></path>
        </g>
    </g>
</svg>